ISO-10303-21;
HEADER;
/* Generated by software containing ST-Developer
 * from STEP Tools, Inc. (www.steptools.com) 
 */

FILE_DESCRIPTION(
/* description */ (''),
/* implementation_level */ '2;1');

FILE_NAME(
/* name */ 'BUTTON''S.step',
/* time_stamp */ '2026-10-10T10:59:04+05:30',
/* author */ (''),
/* organization */ (''),
/* preprocessor_version */ 'ST-DEVELOPER v20.2',
/* originating_system */ 'Autodesk Translation Framework v15.15.0.0',
/* authorisation */ '');

FILE_SCHEMA (('AUTOMOTIVE_DESIGN { 1 0 10303 214 3 1 1 }'));
ENDSEC;

DATA;
#10=MECHANICAL_DESIGN_GEOMETRIC_PRESENTATION_REPRESENTATION('',(#13),#2192);
#11=SHAPE_REPRESENTATION_RELATIONSHIP('SRR','None',#2199,#12);
#12=ADVANCED_BREP_SHAPE_REPRESENTATION('',(#14),#2191);
#13=STYLED_ITEM('',(#2208),#14);
#14=MANIFOLD_SOLID_BREP('Body1',#1376);
#15=FACE_BOUND('',#149,.T.);
#16=FACE_BOUND('',#150,.T.);
#17=FACE_BOUND('',#151,.T.);
#18=FACE_BOUND('',#152,.T.);
#19=FACE_BOUND('',#153,.T.);
#20=FACE_OUTER_BOUND('',#98,.T.);
#21=FACE_OUTER_BOUND('',#99,.T.);
#22=FACE_OUTER_BOUND('',#100,.T.);
#23=FACE_OUTER_BOUND('',#101,.T.);
#24=FACE_OUTER_BOUND('',#102,.T.);
#25=FACE_OUTER_BOUND('',#103,.T.);
#26=FACE_OUTER_BOUND('',#104,.T.);
#27=FACE_OUTER_BOUND('',#105,.T.);
#28=FACE_OUTER_BOUND('',#106,.T.);
#29=FACE_OUTER_BOUND('',#107,.T.);
#30=FACE_OUTER_BOUND('',#108,.T.);
#31=FACE_OUTER_BOUND('',#109,.T.);
#32=FACE_OUTER_BOUND('',#110,.T.);
#33=FACE_OUTER_BOUND('',#111,.T.);
#34=FACE_OUTER_BOUND('',#112,.T.);
#35=FACE_OUTER_BOUND('',#113,.T.);
#36=FACE_OUTER_BOUND('',#114,.T.);
#37=FACE_OUTER_BOUND('',#115,.T.);
#38=FACE_OUTER_BOUND('',#116,.T.);
#39=FACE_OUTER_BOUND('',#117,.T.);
#40=FACE_OUTER_BOUND('',#118,.T.);
#41=FACE_OUTER_BOUND('',#119,.T.);
#42=FACE_OUTER_BOUND('',#120,.T.);
#43=FACE_OUTER_BOUND('',#121,.T.);
#44=FACE_OUTER_BOUND('',#122,.T.);
#45=FACE_OUTER_BOUND('',#123,.T.);
#46=FACE_OUTER_BOUND('',#124,.T.);
#47=FACE_OUTER_BOUND('',#125,.T.);
#48=FACE_OUTER_BOUND('',#126,.T.);
#49=FACE_OUTER_BOUND('',#127,.T.);
#50=FACE_OUTER_BOUND('',#128,.T.);
#51=FACE_OUTER_BOUND('',#129,.T.);
#52=FACE_OUTER_BOUND('',#130,.T.);
#53=FACE_OUTER_BOUND('',#131,.T.);
#54=FACE_OUTER_BOUND('',#132,.T.);
#55=FACE_OUTER_BOUND('',#133,.T.);
#56=FACE_OUTER_BOUND('',#134,.T.);
#57=FACE_OUTER_BOUND('',#135,.T.);
#58=FACE_OUTER_BOUND('',#136,.T.);
#59=FACE_OUTER_BOUND('',#137,.T.);
#60=FACE_OUTER_BOUND('',#138,.T.);
#61=FACE_OUTER_BOUND('',#139,.T.);
#62=FACE_OUTER_BOUND('',#140,.T.);
#63=FACE_OUTER_BOUND('',#141,.T.);
#64=FACE_OUTER_BOUND('',#142,.T.);
#65=FACE_OUTER_BOUND('',#143,.T.);
#66=FACE_OUTER_BOUND('',#144,.T.);
#67=FACE_OUTER_BOUND('',#145,.T.);
#68=FACE_OUTER_BOUND('',#146,.T.);
#69=FACE_OUTER_BOUND('',#147,.T.);
#70=FACE_OUTER_BOUND('',#148,.T.);
#71=FACE_OUTER_BOUND('',#154,.T.);
#72=FACE_OUTER_BOUND('',#155,.T.);
#73=FACE_OUTER_BOUND('',#156,.T.);
#74=FACE_OUTER_BOUND('',#157,.T.);
#75=FACE_OUTER_BOUND('',#158,.T.);
#76=FACE_OUTER_BOUND('',#159,.T.);
#77=FACE_OUTER_BOUND('',#160,.T.);
#78=FACE_OUTER_BOUND('',#161,.T.);
#79=FACE_OUTER_BOUND('',#162,.T.);
#80=FACE_OUTER_BOUND('',#163,.T.);
#81=FACE_OUTER_BOUND('',#164,.T.);
#82=FACE_OUTER_BOUND('',#165,.T.);
#83=FACE_OUTER_BOUND('',#166,.T.);
#84=FACE_OUTER_BOUND('',#167,.T.);
#85=FACE_OUTER_BOUND('',#168,.T.);
#86=FACE_OUTER_BOUND('',#169,.T.);
#87=FACE_OUTER_BOUND('',#170,.T.);
#88=FACE_OUTER_BOUND('',#171,.T.);
#89=FACE_OUTER_BOUND('',#172,.T.);
#90=FACE_OUTER_BOUND('',#173,.T.);
#91=FACE_OUTER_BOUND('',#174,.T.);
#92=FACE_OUTER_BOUND('',#175,.T.);
#93=FACE_OUTER_BOUND('',#176,.T.);
#94=FACE_OUTER_BOUND('',#177,.T.);
#95=FACE_OUTER_BOUND('',#178,.T.);
#96=FACE_OUTER_BOUND('',#179,.T.);
#97=FACE_OUTER_BOUND('',#180,.T.);
#98=EDGE_LOOP('',(#850,#851,#852,#853));
#99=EDGE_LOOP('',(#854,#855,#856,#857));
#100=EDGE_LOOP('',(#858,#859,#860,#861));
#101=EDGE_LOOP('',(#862,#863,#864,#865));
#102=EDGE_LOOP('',(#866,#867,#868,#869));
#103=EDGE_LOOP('',(#870,#871,#872,#873));
#104=EDGE_LOOP('',(#874,#875,#876,#877));
#105=EDGE_LOOP('',(#878,#879,#880,#881));
#106=EDGE_LOOP('',(#882,#883,#884,#885));
#107=EDGE_LOOP('',(#886,#887,#888,#889));
#108=EDGE_LOOP('',(#890,#891,#892,#893));
#109=EDGE_LOOP('',(#894,#895,#896,#897));
#110=EDGE_LOOP('',(#898,#899,#900,#901));
#111=EDGE_LOOP('',(#902,#903,#904,#905));
#112=EDGE_LOOP('',(#906,#907,#908,#909));
#113=EDGE_LOOP('',(#910,#911,#912,#913));
#114=EDGE_LOOP('',(#914,#915,#916,#917));
#115=EDGE_LOOP('',(#918,#919,#920,#921));
#116=EDGE_LOOP('',(#922,#923,#924,#925));
#117=EDGE_LOOP('',(#926,#927,#928,#929));
#118=EDGE_LOOP('',(#930,#931,#932,#933));
#119=EDGE_LOOP('',(#934,#935,#936,#937));
#120=EDGE_LOOP('',(#938,#939,#940,#941));
#121=EDGE_LOOP('',(#942,#943,#944,#945));
#122=EDGE_LOOP('',(#946,#947,#948,#949));
#123=EDGE_LOOP('',(#950,#951,#952,#953));
#124=EDGE_LOOP('',(#954,#955,#956,#957));
#125=EDGE_LOOP('',(#958,#959,#960,#961));
#126=EDGE_LOOP('',(#962,#963,#964,#965));
#127=EDGE_LOOP('',(#966,#967,#968,#969));
#128=EDGE_LOOP('',(#970,#971,#972,#973));
#129=EDGE_LOOP('',(#974,#975,#976,#977));
#130=EDGE_LOOP('',(#978,#979,#980,#981));
#131=EDGE_LOOP('',(#982,#983,#984,#985));
#132=EDGE_LOOP('',(#986,#987,#988,#989));
#133=EDGE_LOOP('',(#990,#991,#992,#993));
#134=EDGE_LOOP('',(#994,#995,#996,#997));
#135=EDGE_LOOP('',(#998,#999,#1000,#1001));
#136=EDGE_LOOP('',(#1002,#1003,#1004,#1005));
#137=EDGE_LOOP('',(#1006,#1007,#1008,#1009));
#138=EDGE_LOOP('',(#1010,#1011,#1012,#1013));
#139=EDGE_LOOP('',(#1014,#1015,#1016,#1017));
#140=EDGE_LOOP('',(#1018,#1019,#1020,#1021));
#141=EDGE_LOOP('',(#1022,#1023,#1024,#1025));
#142=EDGE_LOOP('',(#1026,#1027,#1028,#1029));
#143=EDGE_LOOP('',(#1030,#1031,#1032,#1033));
#144=EDGE_LOOP('',(#1034,#1035,#1036,#1037));
#145=EDGE_LOOP('',(#1038,#1039,#1040,#1041));
#146=EDGE_LOOP('',(#1042,#1043,#1044,#1045));
#147=EDGE_LOOP('',(#1046,#1047,#1048,#1049,#1050,#1051,#1052,#1053,#1054,
#1055,#1056,#1057));
#148=EDGE_LOOP('',(#1058,#1059,#1060,#1061));
#149=EDGE_LOOP('',(#1062,#1063,#1064,#1065));
#150=EDGE_LOOP('',(#1066,#1067,#1068,#1069));
#151=EDGE_LOOP('',(#1070,#1071,#1072,#1073));
#152=EDGE_LOOP('',(#1074,#1075,#1076,#1077));
#153=EDGE_LOOP('',(#1078,#1079,#1080,#1081));
#154=EDGE_LOOP('',(#1082,#1083,#1084,#1085));
#155=EDGE_LOOP('',(#1086,#1087,#1088,#1089));
#156=EDGE_LOOP('',(#1090,#1091,#1092,#1093));
#157=EDGE_LOOP('',(#1094,#1095,#1096,#1097,#1098));
#158=EDGE_LOOP('',(#1099,#1100,#1101,#1102,#1103,#1104));
#159=EDGE_LOOP('',(#1105,#1106,#1107,#1108));
#160=EDGE_LOOP('',(#1109,#1110,#1111,#1112,#1113));
#161=EDGE_LOOP('',(#1114,#1115,#1116,#1117));
#162=EDGE_LOOP('',(#1118,#1119,#1120,#1121,#1122));
#163=EDGE_LOOP('',(#1123,#1124,#1125,#1126));
#164=EDGE_LOOP('',(#1127,#1128,#1129,#1130));
#165=EDGE_LOOP('',(#1131,#1132,#1133,#1134,#1135));
#166=EDGE_LOOP('',(#1136,#1137,#1138,#1139));
#167=EDGE_LOOP('',(#1140,#1141,#1142,#1143,#1144));
#168=EDGE_LOOP('',(#1145,#1146,#1147,#1148));
#169=EDGE_LOOP('',(#1149,#1150,#1151,#1152));
#170=EDGE_LOOP('',(#1153,#1154,#1155,#1156,#1157));
#171=EDGE_LOOP('',(#1158,#1159,#1160,#1161));
#172=EDGE_LOOP('',(#1162,#1163,#1164,#1165,#1166));
#173=EDGE_LOOP('',(#1167,#1168,#1169,#1170));
#174=EDGE_LOOP('',(#1171,#1172,#1173,#1174));
#175=EDGE_LOOP('',(#1175,#1176,#1177,#1178));
#176=EDGE_LOOP('',(#1179,#1180,#1181,#1182,#1183,#1184,#1185,#1186,#1187,
#1188,#1189,#1190,#1191,#1192,#1193,#1194,#1195,#1196,#1197,#1198,#1199,
#1200));
#177=EDGE_LOOP('',(#1201,#1202,#1203,#1204,#1205));
#178=EDGE_LOOP('',(#1206,#1207,#1208,#1209));
#179=EDGE_LOOP('',(#1210,#1211,#1212,#1213,#1214,#1215));
#180=EDGE_LOOP('',(#1216,#1217,#1218,#1219));
#181=LINE('',#1815,#366);
#182=LINE('',#1817,#367);
#183=LINE('',#1819,#368);
#184=LINE('',#1820,#369);
#185=LINE('',#1823,#370);
#186=LINE('',#1825,#371);
#187=LINE('',#1826,#372);
#188=LINE('',#1829,#373);
#189=LINE('',#1831,#374);
#190=LINE('',#1832,#375);
#191=LINE('',#1834,#376);
#192=LINE('',#1835,#377);
#193=LINE('',#1838,#378);
#194=LINE('',#1840,#379);
#195=LINE('',#1841,#380);
#196=LINE('',#1844,#381);
#197=LINE('',#1845,#382);
#198=LINE('',#1850,#383);
#199=LINE('',#1852,#384);
#200=LINE('',#1854,#385);
#201=LINE('',#1855,#386);
#202=LINE('',#1858,#387);
#203=LINE('',#1860,#388);
#204=LINE('',#1861,#389);
#205=LINE('',#1864,#390);
#206=LINE('',#1866,#391);
#207=LINE('',#1867,#392);
#208=LINE('',#1869,#393);
#209=LINE('',#1870,#394);
#210=LINE('',#1873,#395);
#211=LINE('',#1875,#396);
#212=LINE('',#1876,#397);
#213=LINE('',#1879,#398);
#214=LINE('',#1880,#399);
#215=LINE('',#1885,#400);
#216=LINE('',#1887,#401);
#217=LINE('',#1889,#402);
#218=LINE('',#1890,#403);
#219=LINE('',#1893,#404);
#220=LINE('',#1895,#405);
#221=LINE('',#1896,#406);
#222=LINE('',#1899,#407);
#223=LINE('',#1901,#408);
#224=LINE('',#1902,#409);
#225=LINE('',#1904,#410);
#226=LINE('',#1905,#411);
#227=LINE('',#1908,#412);
#228=LINE('',#1910,#413);
#229=LINE('',#1911,#414);
#230=LINE('',#1914,#415);
#231=LINE('',#1915,#416);
#232=LINE('',#1920,#417);
#233=LINE('',#1922,#418);
#234=LINE('',#1924,#419);
#235=LINE('',#1925,#420);
#236=LINE('',#1928,#421);
#237=LINE('',#1930,#422);
#238=LINE('',#1931,#423);
#239=LINE('',#1934,#424);
#240=LINE('',#1936,#425);
#241=LINE('',#1937,#426);
#242=LINE('',#1939,#427);
#243=LINE('',#1940,#428);
#244=LINE('',#1943,#429);
#245=LINE('',#1945,#430);
#246=LINE('',#1946,#431);
#247=LINE('',#1949,#432);
#248=LINE('',#1950,#433);
#249=LINE('',#1955,#434);
#250=LINE('',#1957,#435);
#251=LINE('',#1959,#436);
#252=LINE('',#1960,#437);
#253=LINE('',#1963,#438);
#254=LINE('',#1965,#439);
#255=LINE('',#1966,#440);
#256=LINE('',#1969,#441);
#257=LINE('',#1971,#442);
#258=LINE('',#1972,#443);
#259=LINE('',#1974,#444);
#260=LINE('',#1975,#445);
#261=LINE('',#1978,#446);
#262=LINE('',#1980,#447);
#263=LINE('',#1981,#448);
#264=LINE('',#1984,#449);
#265=LINE('',#1985,#450);
#266=LINE('',#1989,#451);
#267=LINE('',#1990,#452);
#268=LINE('',#1992,#453);
#269=LINE('',#1995,#454);
#270=LINE('',#1996,#455);
#271=LINE('',#1998,#456);
#272=LINE('',#2001,#457);
#273=LINE('',#2002,#458);
#274=LINE('',#2004,#459);
#275=LINE('',#2007,#460);
#276=LINE('',#2008,#461);
#277=LINE('',#2010,#462);
#278=LINE('',#2013,#463);
#279=LINE('',#2014,#464);
#280=LINE('',#2016,#465);
#281=LINE('',#2020,#466);
#282=LINE('',#2022,#467);
#283=LINE('',#2024,#468);
#284=LINE('',#2025,#469);
#285=LINE('',#2029,#470);
#286=LINE('',#2031,#471);
#287=LINE('',#2033,#472);
#288=LINE('',#2034,#473);
#289=LINE('',#2038,#474);
#290=LINE('',#2040,#475);
#291=LINE('',#2042,#476);
#292=LINE('',#2043,#477);
#293=LINE('',#2047,#478);
#294=LINE('',#2049,#479);
#295=LINE('',#2051,#480);
#296=LINE('',#2052,#481);
#297=LINE('',#2054,#482);
#298=LINE('',#2056,#483);
#299=LINE('',#2058,#484);
#300=LINE('',#2060,#485);
#301=LINE('',#2062,#486);
#302=LINE('',#2063,#487);
#303=LINE('',#2064,#488);
#304=LINE('',#2065,#489);
#305=LINE('',#2068,#490);
#306=LINE('',#2069,#491);
#307=LINE('',#2072,#492);
#308=LINE('',#2074,#493);
#309=LINE('',#2075,#494);
#310=LINE('',#2079,#495);
#311=LINE('',#2081,#496);
#312=LINE('',#2083,#497);
#313=LINE('',#2084,#498);
#314=LINE('',#2087,#499);
#315=LINE('',#2089,#500);
#316=LINE('',#2090,#501);
#317=LINE('',#2093,#502);
#318=LINE('',#2094,#503);
#319=LINE('',#2095,#504);
#320=LINE('',#2097,#505);
#321=LINE('',#2099,#506);
#322=LINE('',#2103,#507);
#323=LINE('',#2104,#508);
#324=LINE('',#2106,#509);
#325=LINE('',#2107,#510);
#326=LINE('',#2110,#511);
#327=LINE('',#2112,#512);
#328=LINE('',#2113,#513);
#329=LINE('',#2116,#514);
#330=LINE('',#2117,#515);
#331=LINE('',#2118,#516);
#332=LINE('',#2121,#517);
#333=LINE('',#2125,#518);
#334=LINE('',#2126,#519);
#335=LINE('',#2128,#520);
#336=LINE('',#2129,#521);
#337=LINE('',#2132,#522);
#338=LINE('',#2134,#523);
#339=LINE('',#2135,#524);
#340=LINE('',#2138,#525);
#341=LINE('',#2139,#526);
#342=LINE('',#2140,#527);
#343=LINE('',#2143,#528);
#344=LINE('',#2147,#529);
#345=LINE('',#2148,#530);
#346=LINE('',#2150,#531);
#347=LINE('',#2151,#532);
#348=LINE('',#2154,#533);
#349=LINE('',#2156,#534);
#350=LINE('',#2157,#535);
#351=LINE('',#2160,#536);
#352=LINE('',#2161,#537);
#353=LINE('',#2162,#538);
#354=LINE('',#2165,#539);
#355=LINE('',#2168,#540);
#356=LINE('',#2170,#541);
#357=LINE('',#2171,#542);
#358=LINE('',#2175,#543);
#359=LINE('',#2176,#544);
#360=LINE('',#2177,#545);
#361=LINE('',#2180,#546);
#362=LINE('',#2181,#547);
#363=LINE('',#2184,#548);
#364=LINE('',#2185,#549);
#365=LINE('',#2187,#550);
#366=VECTOR('',#1472,10.);
#367=VECTOR('',#1473,10.);
#368=VECTOR('',#1474,10.);
#369=VECTOR('',#1475,10.);
#370=VECTOR('',#1478,10.);
#371=VECTOR('',#1479,10.);
#372=VECTOR('',#1480,10.);
#373=VECTOR('',#1483,10.);
#374=VECTOR('',#1484,10.);
#375=VECTOR('',#1485,10.);
#376=VECTOR('',#1488,10.);
#377=VECTOR('',#1489,10.);
#378=VECTOR('',#1492,10.);
#379=VECTOR('',#1493,10.);
#380=VECTOR('',#1494,10.);
#381=VECTOR('',#1497,10.);
#382=VECTOR('',#1498,10.);
#383=VECTOR('',#1503,10.);
#384=VECTOR('',#1504,10.);
#385=VECTOR('',#1505,10.);
#386=VECTOR('',#1506,10.);
#387=VECTOR('',#1509,10.);
#388=VECTOR('',#1510,10.);
#389=VECTOR('',#1511,10.);
#390=VECTOR('',#1514,10.);
#391=VECTOR('',#1515,10.);
#392=VECTOR('',#1516,10.);
#393=VECTOR('',#1519,10.);
#394=VECTOR('',#1520,10.);
#395=VECTOR('',#1523,10.);
#396=VECTOR('',#1524,10.);
#397=VECTOR('',#1525,10.);
#398=VECTOR('',#1528,10.);
#399=VECTOR('',#1529,10.);
#400=VECTOR('',#1534,10.);
#401=VECTOR('',#1535,10.);
#402=VECTOR('',#1536,10.);
#403=VECTOR('',#1537,10.);
#404=VECTOR('',#1540,10.);
#405=VECTOR('',#1541,10.);
#406=VECTOR('',#1542,10.);
#407=VECTOR('',#1545,10.);
#408=VECTOR('',#1546,10.);
#409=VECTOR('',#1547,10.);
#410=VECTOR('',#1550,10.);
#411=VECTOR('',#1551,10.);
#412=VECTOR('',#1554,10.);
#413=VECTOR('',#1555,10.);
#414=VECTOR('',#1556,10.);
#415=VECTOR('',#1559,10.);
#416=VECTOR('',#1560,10.);
#417=VECTOR('',#1565,10.);
#418=VECTOR('',#1566,10.);
#419=VECTOR('',#1567,10.);
#420=VECTOR('',#1568,10.);
#421=VECTOR('',#1571,10.);
#422=VECTOR('',#1572,10.);
#423=VECTOR('',#1573,10.);
#424=VECTOR('',#1576,10.);
#425=VECTOR('',#1577,10.);
#426=VECTOR('',#1578,10.);
#427=VECTOR('',#1581,10.);
#428=VECTOR('',#1582,10.);
#429=VECTOR('',#1585,10.);
#430=VECTOR('',#1586,10.);
#431=VECTOR('',#1587,10.);
#432=VECTOR('',#1590,10.);
#433=VECTOR('',#1591,10.);
#434=VECTOR('',#1596,10.);
#435=VECTOR('',#1597,10.);
#436=VECTOR('',#1598,10.);
#437=VECTOR('',#1599,10.);
#438=VECTOR('',#1602,10.);
#439=VECTOR('',#1603,10.);
#440=VECTOR('',#1604,10.);
#441=VECTOR('',#1607,10.);
#442=VECTOR('',#1608,10.);
#443=VECTOR('',#1609,10.);
#444=VECTOR('',#1612,10.);
#445=VECTOR('',#1613,10.);
#446=VECTOR('',#1616,10.);
#447=VECTOR('',#1617,10.);
#448=VECTOR('',#1618,10.);
#449=VECTOR('',#1621,10.);
#450=VECTOR('',#1622,10.);
#451=VECTOR('',#1627,10.);
#452=VECTOR('',#1628,10.);
#453=VECTOR('',#1631,10.);
#454=VECTOR('',#1634,10.);
#455=VECTOR('',#1635,10.);
#456=VECTOR('',#1638,10.);
#457=VECTOR('',#1641,10.);
#458=VECTOR('',#1642,10.);
#459=VECTOR('',#1645,10.);
#460=VECTOR('',#1648,10.);
#461=VECTOR('',#1649,10.);
#462=VECTOR('',#1652,10.);
#463=VECTOR('',#1655,10.);
#464=VECTOR('',#1656,10.);
#465=VECTOR('',#1659,10.);
#466=VECTOR('',#1662,10.);
#467=VECTOR('',#1663,10.);
#468=VECTOR('',#1664,10.);
#469=VECTOR('',#1665,10.);
#470=VECTOR('',#1668,10.);
#471=VECTOR('',#1669,10.);
#472=VECTOR('',#1670,10.);
#473=VECTOR('',#1671,10.);
#474=VECTOR('',#1674,10.);
#475=VECTOR('',#1675,10.);
#476=VECTOR('',#1676,10.);
#477=VECTOR('',#1677,10.);
#478=VECTOR('',#1680,10.);
#479=VECTOR('',#1681,10.);
#480=VECTOR('',#1682,10.);
#481=VECTOR('',#1683,10.);
#482=VECTOR('',#1686,10.);
#483=VECTOR('',#1687,10.);
#484=VECTOR('',#1688,10.);
#485=VECTOR('',#1689,10.);
#486=VECTOR('',#1690,10.);
#487=VECTOR('',#1691,10.);
#488=VECTOR('',#1692,10.);
#489=VECTOR('',#1693,10.);
#490=VECTOR('',#1696,10.);
#491=VECTOR('',#1697,10.);
#492=VECTOR('',#1700,10.);
#493=VECTOR('',#1701,10.);
#494=VECTOR('',#1702,10.);
#495=VECTOR('',#1705,10.);
#496=VECTOR('',#1706,10.);
#497=VECTOR('',#1707,10.);
#498=VECTOR('',#1708,10.);
#499=VECTOR('',#1711,10.);
#500=VECTOR('',#1712,10.);
#501=VECTOR('',#1713,10.);
#502=VECTOR('',#1716,10.);
#503=VECTOR('',#1717,10.);
#504=VECTOR('',#1718,10.);
#505=VECTOR('',#1721,10.);
#506=VECTOR('',#1724,10.);
#507=VECTOR('',#1727,10.);
#508=VECTOR('',#1728,10.);
#509=VECTOR('',#1729,10.);
#510=VECTOR('',#1730,10.);
#511=VECTOR('',#1733,10.);
#512=VECTOR('',#1734,10.);
#513=VECTOR('',#1735,10.);
#514=VECTOR('',#1738,10.);
#515=VECTOR('',#1739,10.);
#516=VECTOR('',#1740,10.);
#517=VECTOR('',#1745,10.);
#518=VECTOR('',#1748,10.);
#519=VECTOR('',#1749,10.);
#520=VECTOR('',#1750,10.);
#521=VECTOR('',#1751,10.);
#522=VECTOR('',#1754,10.);
#523=VECTOR('',#1755,10.);
#524=VECTOR('',#1756,10.);
#525=VECTOR('',#1759,10.);
#526=VECTOR('',#1760,10.);
#527=VECTOR('',#1761,10.);
#528=VECTOR('',#1766,10.);
#529=VECTOR('',#1769,10.);
#530=VECTOR('',#1770,10.);
#531=VECTOR('',#1771,10.);
#532=VECTOR('',#1772,10.);
#533=VECTOR('',#1775,10.);
#534=VECTOR('',#1776,10.);
#535=VECTOR('',#1777,10.);
#536=VECTOR('',#1780,10.);
#537=VECTOR('',#1781,10.);
#538=VECTOR('',#1782,10.);
#539=VECTOR('',#1787,10.);
#540=VECTOR('',#1790,10.);
#541=VECTOR('',#1791,10.);
#542=VECTOR('',#1792,10.);
#543=VECTOR('',#1795,10.);
#544=VECTOR('',#1796,10.);
#545=VECTOR('',#1797,10.);
#546=VECTOR('',#1800,10.);
#547=VECTOR('',#1801,10.);
#548=VECTOR('',#1804,10.);
#549=VECTOR('',#1805,10.);
#550=VECTOR('',#1808,10.);
#551=VERTEX_POINT('',#1813);
#552=VERTEX_POINT('',#1814);
#553=VERTEX_POINT('',#1816);
#554=VERTEX_POINT('',#1818);
#555=VERTEX_POINT('',#1822);
#556=VERTEX_POINT('',#1824);
#557=VERTEX_POINT('',#1828);
#558=VERTEX_POINT('',#1830);
#559=VERTEX_POINT('',#1837);
#560=VERTEX_POINT('',#1839);
#561=VERTEX_POINT('',#1843);
#562=VERTEX_POINT('',#1848);
#563=VERTEX_POINT('',#1849);
#564=VERTEX_POINT('',#1851);
#565=VERTEX_POINT('',#1853);
#566=VERTEX_POINT('',#1857);
#567=VERTEX_POINT('',#1859);
#568=VERTEX_POINT('',#1863);
#569=VERTEX_POINT('',#1865);
#570=VERTEX_POINT('',#1872);
#571=VERTEX_POINT('',#1874);
#572=VERTEX_POINT('',#1878);
#573=VERTEX_POINT('',#1883);
#574=VERTEX_POINT('',#1884);
#575=VERTEX_POINT('',#1886);
#576=VERTEX_POINT('',#1888);
#577=VERTEX_POINT('',#1892);
#578=VERTEX_POINT('',#1894);
#579=VERTEX_POINT('',#1898);
#580=VERTEX_POINT('',#1900);
#581=VERTEX_POINT('',#1907);
#582=VERTEX_POINT('',#1909);
#583=VERTEX_POINT('',#1913);
#584=VERTEX_POINT('',#1918);
#585=VERTEX_POINT('',#1919);
#586=VERTEX_POINT('',#1921);
#587=VERTEX_POINT('',#1923);
#588=VERTEX_POINT('',#1927);
#589=VERTEX_POINT('',#1929);
#590=VERTEX_POINT('',#1933);
#591=VERTEX_POINT('',#1935);
#592=VERTEX_POINT('',#1942);
#593=VERTEX_POINT('',#1944);
#594=VERTEX_POINT('',#1948);
#595=VERTEX_POINT('',#1953);
#596=VERTEX_POINT('',#1954);
#597=VERTEX_POINT('',#1956);
#598=VERTEX_POINT('',#1958);
#599=VERTEX_POINT('',#1962);
#600=VERTEX_POINT('',#1964);
#601=VERTEX_POINT('',#1968);
#602=VERTEX_POINT('',#1970);
#603=VERTEX_POINT('',#1977);
#604=VERTEX_POINT('',#1979);
#605=VERTEX_POINT('',#1983);
#606=VERTEX_POINT('',#1988);
#607=VERTEX_POINT('',#1994);
#608=VERTEX_POINT('',#2000);
#609=VERTEX_POINT('',#2006);
#610=VERTEX_POINT('',#2012);
#611=VERTEX_POINT('',#2018);
#612=VERTEX_POINT('',#2019);
#613=VERTEX_POINT('',#2021);
#614=VERTEX_POINT('',#2023);
#615=VERTEX_POINT('',#2027);
#616=VERTEX_POINT('',#2028);
#617=VERTEX_POINT('',#2030);
#618=VERTEX_POINT('',#2032);
#619=VERTEX_POINT('',#2036);
#620=VERTEX_POINT('',#2037);
#621=VERTEX_POINT('',#2039);
#622=VERTEX_POINT('',#2041);
#623=VERTEX_POINT('',#2045);
#624=VERTEX_POINT('',#2046);
#625=VERTEX_POINT('',#2048);
#626=VERTEX_POINT('',#2050);
#627=VERTEX_POINT('',#2055);
#628=VERTEX_POINT('',#2057);
#629=VERTEX_POINT('',#2059);
#630=VERTEX_POINT('',#2061);
#631=VERTEX_POINT('',#2067);
#632=VERTEX_POINT('',#2071);
#633=VERTEX_POINT('',#2073);
#634=VERTEX_POINT('',#2077);
#635=VERTEX_POINT('',#2078);
#636=VERTEX_POINT('',#2080);
#637=VERTEX_POINT('',#2082);
#638=VERTEX_POINT('',#2086);
#639=VERTEX_POINT('',#2088);
#640=VERTEX_POINT('',#2092);
#641=VERTEX_POINT('',#2101);
#642=VERTEX_POINT('',#2102);
#643=VERTEX_POINT('',#2105);
#644=VERTEX_POINT('',#2109);
#645=VERTEX_POINT('',#2111);
#646=VERTEX_POINT('',#2115);
#647=VERTEX_POINT('',#2123);
#648=VERTEX_POINT('',#2124);
#649=VERTEX_POINT('',#2127);
#650=VERTEX_POINT('',#2131);
#651=VERTEX_POINT('',#2133);
#652=VERTEX_POINT('',#2137);
#653=VERTEX_POINT('',#2145);
#654=VERTEX_POINT('',#2146);
#655=VERTEX_POINT('',#2149);
#656=VERTEX_POINT('',#2153);
#657=VERTEX_POINT('',#2155);
#658=VERTEX_POINT('',#2159);
#659=VERTEX_POINT('',#2167);
#660=VERTEX_POINT('',#2169);
#661=VERTEX_POINT('',#2173);
#662=VERTEX_POINT('',#2174);
#663=VERTEX_POINT('',#2179);
#664=VERTEX_POINT('',#2183);
#665=EDGE_CURVE('',#551,#552,#181,.T.);
#666=EDGE_CURVE('',#552,#553,#182,.T.);
#667=EDGE_CURVE('',#553,#554,#183,.T.);
#668=EDGE_CURVE('',#551,#554,#184,.T.);
#669=EDGE_CURVE('',#552,#555,#185,.T.);
#670=EDGE_CURVE('',#555,#556,#186,.T.);
#671=EDGE_CURVE('',#556,#553,#187,.T.);
#672=EDGE_CURVE('',#555,#557,#188,.T.);
#673=EDGE_CURVE('',#557,#558,#189,.T.);
#674=EDGE_CURVE('',#558,#556,#190,.T.);
#675=EDGE_CURVE('',#554,#558,#191,.T.);
#676=EDGE_CURVE('',#557,#551,#192,.T.);
#677=EDGE_CURVE('',#559,#554,#193,.T.);
#678=EDGE_CURVE('',#560,#559,#194,.T.);
#679=EDGE_CURVE('',#560,#558,#195,.T.);
#680=EDGE_CURVE('',#561,#553,#196,.T.);
#681=EDGE_CURVE('',#559,#561,#197,.T.);
#682=EDGE_CURVE('',#562,#563,#198,.T.);
#683=EDGE_CURVE('',#563,#564,#199,.T.);
#684=EDGE_CURVE('',#564,#565,#200,.T.);
#685=EDGE_CURVE('',#562,#565,#201,.T.);
#686=EDGE_CURVE('',#563,#566,#202,.T.);
#687=EDGE_CURVE('',#566,#567,#203,.T.);
#688=EDGE_CURVE('',#567,#564,#204,.T.);
#689=EDGE_CURVE('',#566,#568,#205,.T.);
#690=EDGE_CURVE('',#568,#569,#206,.T.);
#691=EDGE_CURVE('',#569,#567,#207,.T.);
#692=EDGE_CURVE('',#565,#569,#208,.T.);
#693=EDGE_CURVE('',#568,#562,#209,.T.);
#694=EDGE_CURVE('',#570,#565,#210,.T.);
#695=EDGE_CURVE('',#571,#570,#211,.T.);
#696=EDGE_CURVE('',#571,#569,#212,.T.);
#697=EDGE_CURVE('',#572,#564,#213,.T.);
#698=EDGE_CURVE('',#570,#572,#214,.T.);
#699=EDGE_CURVE('',#573,#574,#215,.T.);
#700=EDGE_CURVE('',#574,#575,#216,.T.);
#701=EDGE_CURVE('',#575,#576,#217,.T.);
#702=EDGE_CURVE('',#573,#576,#218,.T.);
#703=EDGE_CURVE('',#574,#577,#219,.T.);
#704=EDGE_CURVE('',#577,#578,#220,.T.);
#705=EDGE_CURVE('',#578,#575,#221,.T.);
#706=EDGE_CURVE('',#577,#579,#222,.T.);
#707=EDGE_CURVE('',#579,#580,#223,.T.);
#708=EDGE_CURVE('',#580,#578,#224,.T.);
#709=EDGE_CURVE('',#576,#580,#225,.T.);
#710=EDGE_CURVE('',#579,#573,#226,.T.);
#711=EDGE_CURVE('',#581,#576,#227,.T.);
#712=EDGE_CURVE('',#582,#581,#228,.T.);
#713=EDGE_CURVE('',#582,#580,#229,.T.);
#714=EDGE_CURVE('',#583,#575,#230,.T.);
#715=EDGE_CURVE('',#581,#583,#231,.T.);
#716=EDGE_CURVE('',#584,#585,#232,.T.);
#717=EDGE_CURVE('',#585,#586,#233,.T.);
#718=EDGE_CURVE('',#586,#587,#234,.T.);
#719=EDGE_CURVE('',#584,#587,#235,.T.);
#720=EDGE_CURVE('',#585,#588,#236,.T.);
#721=EDGE_CURVE('',#588,#589,#237,.T.);
#722=EDGE_CURVE('',#589,#586,#238,.T.);
#723=EDGE_CURVE('',#588,#590,#239,.T.);
#724=EDGE_CURVE('',#590,#591,#240,.T.);
#725=EDGE_CURVE('',#591,#589,#241,.T.);
#726=EDGE_CURVE('',#587,#591,#242,.T.);
#727=EDGE_CURVE('',#590,#584,#243,.T.);
#728=EDGE_CURVE('',#592,#587,#244,.T.);
#729=EDGE_CURVE('',#593,#592,#245,.T.);
#730=EDGE_CURVE('',#593,#591,#246,.T.);
#731=EDGE_CURVE('',#594,#586,#247,.T.);
#732=EDGE_CURVE('',#592,#594,#248,.T.);
#733=EDGE_CURVE('',#595,#596,#249,.T.);
#734=EDGE_CURVE('',#596,#597,#250,.T.);
#735=EDGE_CURVE('',#597,#598,#251,.T.);
#736=EDGE_CURVE('',#595,#598,#252,.T.);
#737=EDGE_CURVE('',#596,#599,#253,.T.);
#738=EDGE_CURVE('',#599,#600,#254,.T.);
#739=EDGE_CURVE('',#600,#597,#255,.T.);
#740=EDGE_CURVE('',#599,#601,#256,.T.);
#741=EDGE_CURVE('',#601,#602,#257,.T.);
#742=EDGE_CURVE('',#602,#600,#258,.T.);
#743=EDGE_CURVE('',#598,#602,#259,.T.);
#744=EDGE_CURVE('',#601,#595,#260,.T.);
#745=EDGE_CURVE('',#603,#598,#261,.T.);
#746=EDGE_CURVE('',#604,#603,#262,.T.);
#747=EDGE_CURVE('',#604,#602,#263,.T.);
#748=EDGE_CURVE('',#605,#597,#264,.T.);
#749=EDGE_CURVE('',#603,#605,#265,.T.);
#750=EDGE_CURVE('',#606,#582,#266,.T.);
#751=EDGE_CURVE('',#606,#578,#267,.T.);
#752=EDGE_CURVE('',#583,#606,#268,.T.);
#753=EDGE_CURVE('',#607,#593,#269,.T.);
#754=EDGE_CURVE('',#607,#589,#270,.T.);
#755=EDGE_CURVE('',#594,#607,#271,.T.);
#756=EDGE_CURVE('',#608,#604,#272,.T.);
#757=EDGE_CURVE('',#608,#600,#273,.T.);
#758=EDGE_CURVE('',#605,#608,#274,.T.);
#759=EDGE_CURVE('',#609,#560,#275,.T.);
#760=EDGE_CURVE('',#609,#556,#276,.T.);
#761=EDGE_CURVE('',#561,#609,#277,.T.);
#762=EDGE_CURVE('',#610,#571,#278,.T.);
#763=EDGE_CURVE('',#610,#567,#279,.T.);
#764=EDGE_CURVE('',#572,#610,#280,.T.);
#765=EDGE_CURVE('',#611,#612,#281,.T.);
#766=EDGE_CURVE('',#612,#613,#282,.T.);
#767=EDGE_CURVE('',#613,#614,#283,.T.);
#768=EDGE_CURVE('',#614,#611,#284,.T.);
#769=EDGE_CURVE('',#615,#616,#285,.T.);
#770=EDGE_CURVE('',#616,#617,#286,.T.);
#771=EDGE_CURVE('',#617,#618,#287,.T.);
#772=EDGE_CURVE('',#618,#615,#288,.T.);
#773=EDGE_CURVE('',#619,#620,#289,.T.);
#774=EDGE_CURVE('',#620,#621,#290,.T.);
#775=EDGE_CURVE('',#621,#622,#291,.T.);
#776=EDGE_CURVE('',#622,#619,#292,.T.);
#777=EDGE_CURVE('',#623,#624,#293,.T.);
#778=EDGE_CURVE('',#623,#625,#294,.T.);
#779=EDGE_CURVE('',#626,#625,#295,.T.);
#780=EDGE_CURVE('',#624,#626,#296,.T.);
#781=EDGE_CURVE('',#624,#614,#297,.T.);
#782=EDGE_CURVE('',#627,#626,#298,.T.);
#783=EDGE_CURVE('',#628,#627,#299,.T.);
#784=EDGE_CURVE('',#629,#628,#300,.T.);
#785=EDGE_CURVE('',#630,#629,#301,.T.);
#786=EDGE_CURVE('',#619,#630,#302,.T.);
#787=EDGE_CURVE('',#615,#622,#303,.T.);
#788=EDGE_CURVE('',#611,#618,#304,.T.);
#789=EDGE_CURVE('',#625,#631,#305,.T.);
#790=EDGE_CURVE('',#631,#627,#306,.T.);
#791=EDGE_CURVE('',#629,#632,#307,.T.);
#792=EDGE_CURVE('',#632,#633,#308,.T.);
#793=EDGE_CURVE('',#633,#630,#309,.T.);
#794=EDGE_CURVE('',#634,#635,#310,.T.);
#795=EDGE_CURVE('',#635,#636,#311,.T.);
#796=EDGE_CURVE('',#637,#636,#312,.T.);
#797=EDGE_CURVE('',#634,#637,#313,.T.);
#798=EDGE_CURVE('',#638,#634,#314,.T.);
#799=EDGE_CURVE('',#639,#637,#315,.T.);
#800=EDGE_CURVE('',#638,#639,#316,.T.);
#801=EDGE_CURVE('',#640,#638,#317,.T.);
#802=EDGE_CURVE('',#614,#639,#318,.T.);
#803=EDGE_CURVE('',#640,#613,#319,.T.);
#804=EDGE_CURVE('',#636,#623,#320,.T.);
#805=EDGE_CURVE('',#635,#640,#321,.T.);
#806=EDGE_CURVE('',#641,#642,#322,.T.);
#807=EDGE_CURVE('',#642,#612,#323,.T.);
#808=EDGE_CURVE('',#643,#611,#324,.T.);
#809=EDGE_CURVE('',#641,#643,#325,.T.);
#810=EDGE_CURVE('',#644,#641,#326,.T.);
#811=EDGE_CURVE('',#645,#643,#327,.T.);
#812=EDGE_CURVE('',#644,#645,#328,.T.);
#813=EDGE_CURVE('',#646,#644,#329,.T.);
#814=EDGE_CURVE('',#618,#645,#330,.T.);
#815=EDGE_CURVE('',#646,#617,#331,.T.);
#816=EDGE_CURVE('',#642,#646,#332,.T.);
#817=EDGE_CURVE('',#647,#648,#333,.T.);
#818=EDGE_CURVE('',#648,#616,#334,.T.);
#819=EDGE_CURVE('',#649,#615,#335,.T.);
#820=EDGE_CURVE('',#647,#649,#336,.T.);
#821=EDGE_CURVE('',#650,#647,#337,.T.);
#822=EDGE_CURVE('',#651,#649,#338,.T.);
#823=EDGE_CURVE('',#650,#651,#339,.T.);
#824=EDGE_CURVE('',#652,#650,#340,.T.);
#825=EDGE_CURVE('',#622,#651,#341,.T.);
#826=EDGE_CURVE('',#652,#621,#342,.T.);
#827=EDGE_CURVE('',#648,#652,#343,.T.);
#828=EDGE_CURVE('',#653,#654,#344,.T.);
#829=EDGE_CURVE('',#653,#620,#345,.T.);
#830=EDGE_CURVE('',#655,#619,#346,.T.);
#831=EDGE_CURVE('',#654,#655,#347,.T.);
#832=EDGE_CURVE('',#654,#656,#348,.T.);
#833=EDGE_CURVE('',#657,#655,#349,.T.);
#834=EDGE_CURVE('',#656,#657,#350,.T.);
#835=EDGE_CURVE('',#656,#658,#351,.T.);
#836=EDGE_CURVE('',#630,#657,#352,.T.);
#837=EDGE_CURVE('',#658,#633,#353,.T.);
#838=EDGE_CURVE('',#658,#653,#354,.T.);
#839=EDGE_CURVE('',#628,#659,#355,.T.);
#840=EDGE_CURVE('',#659,#660,#356,.T.);
#841=EDGE_CURVE('',#660,#629,#357,.T.);
#842=EDGE_CURVE('',#661,#662,#358,.T.);
#843=EDGE_CURVE('',#662,#631,#359,.T.);
#844=EDGE_CURVE('',#661,#632,#360,.T.);
#845=EDGE_CURVE('',#663,#661,#361,.T.);
#846=EDGE_CURVE('',#663,#660,#362,.T.);
#847=EDGE_CURVE('',#664,#663,#363,.T.);
#848=EDGE_CURVE('',#664,#659,#364,.T.);
#849=EDGE_CURVE('',#662,#664,#365,.T.);
#850=ORIENTED_EDGE('',*,*,#665,.T.);
#851=ORIENTED_EDGE('',*,*,#666,.T.);
#852=ORIENTED_EDGE('',*,*,#667,.T.);
#853=ORIENTED_EDGE('',*,*,#668,.F.);
#854=ORIENTED_EDGE('',*,*,#669,.T.);
#855=ORIENTED_EDGE('',*,*,#670,.T.);
#856=ORIENTED_EDGE('',*,*,#671,.T.);
#857=ORIENTED_EDGE('',*,*,#666,.F.);
#858=ORIENTED_EDGE('',*,*,#672,.T.);
#859=ORIENTED_EDGE('',*,*,#673,.T.);
#860=ORIENTED_EDGE('',*,*,#674,.T.);
#861=ORIENTED_EDGE('',*,*,#670,.F.);
#862=ORIENTED_EDGE('',*,*,#675,.T.);
#863=ORIENTED_EDGE('',*,*,#673,.F.);
#864=ORIENTED_EDGE('',*,*,#676,.T.);
#865=ORIENTED_EDGE('',*,*,#668,.T.);
#866=ORIENTED_EDGE('',*,*,#675,.F.);
#867=ORIENTED_EDGE('',*,*,#677,.F.);
#868=ORIENTED_EDGE('',*,*,#678,.F.);
#869=ORIENTED_EDGE('',*,*,#679,.T.);
#870=ORIENTED_EDGE('',*,*,#667,.F.);
#871=ORIENTED_EDGE('',*,*,#680,.F.);
#872=ORIENTED_EDGE('',*,*,#681,.F.);
#873=ORIENTED_EDGE('',*,*,#677,.T.);
#874=ORIENTED_EDGE('',*,*,#665,.F.);
#875=ORIENTED_EDGE('',*,*,#676,.F.);
#876=ORIENTED_EDGE('',*,*,#672,.F.);
#877=ORIENTED_EDGE('',*,*,#669,.F.);
#878=ORIENTED_EDGE('',*,*,#682,.T.);
#879=ORIENTED_EDGE('',*,*,#683,.T.);
#880=ORIENTED_EDGE('',*,*,#684,.T.);
#881=ORIENTED_EDGE('',*,*,#685,.F.);
#882=ORIENTED_EDGE('',*,*,#686,.T.);
#883=ORIENTED_EDGE('',*,*,#687,.T.);
#884=ORIENTED_EDGE('',*,*,#688,.T.);
#885=ORIENTED_EDGE('',*,*,#683,.F.);
#886=ORIENTED_EDGE('',*,*,#689,.T.);
#887=ORIENTED_EDGE('',*,*,#690,.T.);
#888=ORIENTED_EDGE('',*,*,#691,.T.);
#889=ORIENTED_EDGE('',*,*,#687,.F.);
#890=ORIENTED_EDGE('',*,*,#692,.T.);
#891=ORIENTED_EDGE('',*,*,#690,.F.);
#892=ORIENTED_EDGE('',*,*,#693,.T.);
#893=ORIENTED_EDGE('',*,*,#685,.T.);
#894=ORIENTED_EDGE('',*,*,#692,.F.);
#895=ORIENTED_EDGE('',*,*,#694,.F.);
#896=ORIENTED_EDGE('',*,*,#695,.F.);
#897=ORIENTED_EDGE('',*,*,#696,.T.);
#898=ORIENTED_EDGE('',*,*,#684,.F.);
#899=ORIENTED_EDGE('',*,*,#697,.F.);
#900=ORIENTED_EDGE('',*,*,#698,.F.);
#901=ORIENTED_EDGE('',*,*,#694,.T.);
#902=ORIENTED_EDGE('',*,*,#682,.F.);
#903=ORIENTED_EDGE('',*,*,#693,.F.);
#904=ORIENTED_EDGE('',*,*,#689,.F.);
#905=ORIENTED_EDGE('',*,*,#686,.F.);
#906=ORIENTED_EDGE('',*,*,#699,.T.);
#907=ORIENTED_EDGE('',*,*,#700,.T.);
#908=ORIENTED_EDGE('',*,*,#701,.T.);
#909=ORIENTED_EDGE('',*,*,#702,.F.);
#910=ORIENTED_EDGE('',*,*,#703,.T.);
#911=ORIENTED_EDGE('',*,*,#704,.T.);
#912=ORIENTED_EDGE('',*,*,#705,.T.);
#913=ORIENTED_EDGE('',*,*,#700,.F.);
#914=ORIENTED_EDGE('',*,*,#706,.T.);
#915=ORIENTED_EDGE('',*,*,#707,.T.);
#916=ORIENTED_EDGE('',*,*,#708,.T.);
#917=ORIENTED_EDGE('',*,*,#704,.F.);
#918=ORIENTED_EDGE('',*,*,#709,.T.);
#919=ORIENTED_EDGE('',*,*,#707,.F.);
#920=ORIENTED_EDGE('',*,*,#710,.T.);
#921=ORIENTED_EDGE('',*,*,#702,.T.);
#922=ORIENTED_EDGE('',*,*,#709,.F.);
#923=ORIENTED_EDGE('',*,*,#711,.F.);
#924=ORIENTED_EDGE('',*,*,#712,.F.);
#925=ORIENTED_EDGE('',*,*,#713,.T.);
#926=ORIENTED_EDGE('',*,*,#701,.F.);
#927=ORIENTED_EDGE('',*,*,#714,.F.);
#928=ORIENTED_EDGE('',*,*,#715,.F.);
#929=ORIENTED_EDGE('',*,*,#711,.T.);
#930=ORIENTED_EDGE('',*,*,#699,.F.);
#931=ORIENTED_EDGE('',*,*,#710,.F.);
#932=ORIENTED_EDGE('',*,*,#706,.F.);
#933=ORIENTED_EDGE('',*,*,#703,.F.);
#934=ORIENTED_EDGE('',*,*,#716,.T.);
#935=ORIENTED_EDGE('',*,*,#717,.T.);
#936=ORIENTED_EDGE('',*,*,#718,.T.);
#937=ORIENTED_EDGE('',*,*,#719,.F.);
#938=ORIENTED_EDGE('',*,*,#720,.T.);
#939=ORIENTED_EDGE('',*,*,#721,.T.);
#940=ORIENTED_EDGE('',*,*,#722,.T.);
#941=ORIENTED_EDGE('',*,*,#717,.F.);
#942=ORIENTED_EDGE('',*,*,#723,.T.);
#943=ORIENTED_EDGE('',*,*,#724,.T.);
#944=ORIENTED_EDGE('',*,*,#725,.T.);
#945=ORIENTED_EDGE('',*,*,#721,.F.);
#946=ORIENTED_EDGE('',*,*,#726,.T.);
#947=ORIENTED_EDGE('',*,*,#724,.F.);
#948=ORIENTED_EDGE('',*,*,#727,.T.);
#949=ORIENTED_EDGE('',*,*,#719,.T.);
#950=ORIENTED_EDGE('',*,*,#726,.F.);
#951=ORIENTED_EDGE('',*,*,#728,.F.);
#952=ORIENTED_EDGE('',*,*,#729,.F.);
#953=ORIENTED_EDGE('',*,*,#730,.T.);
#954=ORIENTED_EDGE('',*,*,#718,.F.);
#955=ORIENTED_EDGE('',*,*,#731,.F.);
#956=ORIENTED_EDGE('',*,*,#732,.F.);
#957=ORIENTED_EDGE('',*,*,#728,.T.);
#958=ORIENTED_EDGE('',*,*,#716,.F.);
#959=ORIENTED_EDGE('',*,*,#727,.F.);
#960=ORIENTED_EDGE('',*,*,#723,.F.);
#961=ORIENTED_EDGE('',*,*,#720,.F.);
#962=ORIENTED_EDGE('',*,*,#733,.T.);
#963=ORIENTED_EDGE('',*,*,#734,.T.);
#964=ORIENTED_EDGE('',*,*,#735,.T.);
#965=ORIENTED_EDGE('',*,*,#736,.F.);
#966=ORIENTED_EDGE('',*,*,#737,.T.);
#967=ORIENTED_EDGE('',*,*,#738,.T.);
#968=ORIENTED_EDGE('',*,*,#739,.T.);
#969=ORIENTED_EDGE('',*,*,#734,.F.);
#970=ORIENTED_EDGE('',*,*,#740,.T.);
#971=ORIENTED_EDGE('',*,*,#741,.T.);
#972=ORIENTED_EDGE('',*,*,#742,.T.);
#973=ORIENTED_EDGE('',*,*,#738,.F.);
#974=ORIENTED_EDGE('',*,*,#743,.T.);
#975=ORIENTED_EDGE('',*,*,#741,.F.);
#976=ORIENTED_EDGE('',*,*,#744,.T.);
#977=ORIENTED_EDGE('',*,*,#736,.T.);
#978=ORIENTED_EDGE('',*,*,#743,.F.);
#979=ORIENTED_EDGE('',*,*,#745,.F.);
#980=ORIENTED_EDGE('',*,*,#746,.F.);
#981=ORIENTED_EDGE('',*,*,#747,.T.);
#982=ORIENTED_EDGE('',*,*,#735,.F.);
#983=ORIENTED_EDGE('',*,*,#748,.F.);
#984=ORIENTED_EDGE('',*,*,#749,.F.);
#985=ORIENTED_EDGE('',*,*,#745,.T.);
#986=ORIENTED_EDGE('',*,*,#733,.F.);
#987=ORIENTED_EDGE('',*,*,#744,.F.);
#988=ORIENTED_EDGE('',*,*,#740,.F.);
#989=ORIENTED_EDGE('',*,*,#737,.F.);
#990=ORIENTED_EDGE('',*,*,#708,.F.);
#991=ORIENTED_EDGE('',*,*,#713,.F.);
#992=ORIENTED_EDGE('',*,*,#750,.F.);
#993=ORIENTED_EDGE('',*,*,#751,.T.);
#994=ORIENTED_EDGE('',*,*,#705,.F.);
#995=ORIENTED_EDGE('',*,*,#751,.F.);
#996=ORIENTED_EDGE('',*,*,#752,.F.);
#997=ORIENTED_EDGE('',*,*,#714,.T.);
#998=ORIENTED_EDGE('',*,*,#725,.F.);
#999=ORIENTED_EDGE('',*,*,#730,.F.);
#1000=ORIENTED_EDGE('',*,*,#753,.F.);
#1001=ORIENTED_EDGE('',*,*,#754,.T.);
#1002=ORIENTED_EDGE('',*,*,#722,.F.);
#1003=ORIENTED_EDGE('',*,*,#754,.F.);
#1004=ORIENTED_EDGE('',*,*,#755,.F.);
#1005=ORIENTED_EDGE('',*,*,#731,.T.);
#1006=ORIENTED_EDGE('',*,*,#742,.F.);
#1007=ORIENTED_EDGE('',*,*,#747,.F.);
#1008=ORIENTED_EDGE('',*,*,#756,.F.);
#1009=ORIENTED_EDGE('',*,*,#757,.T.);
#1010=ORIENTED_EDGE('',*,*,#739,.F.);
#1011=ORIENTED_EDGE('',*,*,#757,.F.);
#1012=ORIENTED_EDGE('',*,*,#758,.F.);
#1013=ORIENTED_EDGE('',*,*,#748,.T.);
#1014=ORIENTED_EDGE('',*,*,#674,.F.);
#1015=ORIENTED_EDGE('',*,*,#679,.F.);
#1016=ORIENTED_EDGE('',*,*,#759,.F.);
#1017=ORIENTED_EDGE('',*,*,#760,.T.);
#1018=ORIENTED_EDGE('',*,*,#671,.F.);
#1019=ORIENTED_EDGE('',*,*,#760,.F.);
#1020=ORIENTED_EDGE('',*,*,#761,.F.);
#1021=ORIENTED_EDGE('',*,*,#680,.T.);
#1022=ORIENTED_EDGE('',*,*,#691,.F.);
#1023=ORIENTED_EDGE('',*,*,#696,.F.);
#1024=ORIENTED_EDGE('',*,*,#762,.F.);
#1025=ORIENTED_EDGE('',*,*,#763,.T.);
#1026=ORIENTED_EDGE('',*,*,#688,.F.);
#1027=ORIENTED_EDGE('',*,*,#763,.F.);
#1028=ORIENTED_EDGE('',*,*,#764,.F.);
#1029=ORIENTED_EDGE('',*,*,#697,.T.);
#1030=ORIENTED_EDGE('',*,*,#765,.T.);
#1031=ORIENTED_EDGE('',*,*,#766,.T.);
#1032=ORIENTED_EDGE('',*,*,#767,.T.);
#1033=ORIENTED_EDGE('',*,*,#768,.T.);
#1034=ORIENTED_EDGE('',*,*,#769,.T.);
#1035=ORIENTED_EDGE('',*,*,#770,.T.);
#1036=ORIENTED_EDGE('',*,*,#771,.T.);
#1037=ORIENTED_EDGE('',*,*,#772,.T.);
#1038=ORIENTED_EDGE('',*,*,#773,.T.);
#1039=ORIENTED_EDGE('',*,*,#774,.T.);
#1040=ORIENTED_EDGE('',*,*,#775,.T.);
#1041=ORIENTED_EDGE('',*,*,#776,.T.);
#1042=ORIENTED_EDGE('',*,*,#777,.F.);
#1043=ORIENTED_EDGE('',*,*,#778,.T.);
#1044=ORIENTED_EDGE('',*,*,#779,.F.);
#1045=ORIENTED_EDGE('',*,*,#780,.F.);
#1046=ORIENTED_EDGE('',*,*,#781,.F.);
#1047=ORIENTED_EDGE('',*,*,#780,.T.);
#1048=ORIENTED_EDGE('',*,*,#782,.F.);
#1049=ORIENTED_EDGE('',*,*,#783,.F.);
#1050=ORIENTED_EDGE('',*,*,#784,.F.);
#1051=ORIENTED_EDGE('',*,*,#785,.F.);
#1052=ORIENTED_EDGE('',*,*,#786,.F.);
#1053=ORIENTED_EDGE('',*,*,#776,.F.);
#1054=ORIENTED_EDGE('',*,*,#787,.F.);
#1055=ORIENTED_EDGE('',*,*,#772,.F.);
#1056=ORIENTED_EDGE('',*,*,#788,.F.);
#1057=ORIENTED_EDGE('',*,*,#768,.F.);
#1058=ORIENTED_EDGE('',*,*,#782,.T.);
#1059=ORIENTED_EDGE('',*,*,#779,.T.);
#1060=ORIENTED_EDGE('',*,*,#789,.T.);
#1061=ORIENTED_EDGE('',*,*,#790,.T.);
#1062=ORIENTED_EDGE('',*,*,#750,.T.);
#1063=ORIENTED_EDGE('',*,*,#712,.T.);
#1064=ORIENTED_EDGE('',*,*,#715,.T.);
#1065=ORIENTED_EDGE('',*,*,#752,.T.);
#1066=ORIENTED_EDGE('',*,*,#753,.T.);
#1067=ORIENTED_EDGE('',*,*,#729,.T.);
#1068=ORIENTED_EDGE('',*,*,#732,.T.);
#1069=ORIENTED_EDGE('',*,*,#755,.T.);
#1070=ORIENTED_EDGE('',*,*,#756,.T.);
#1071=ORIENTED_EDGE('',*,*,#746,.T.);
#1072=ORIENTED_EDGE('',*,*,#749,.T.);
#1073=ORIENTED_EDGE('',*,*,#758,.T.);
#1074=ORIENTED_EDGE('',*,*,#759,.T.);
#1075=ORIENTED_EDGE('',*,*,#678,.T.);
#1076=ORIENTED_EDGE('',*,*,#681,.T.);
#1077=ORIENTED_EDGE('',*,*,#761,.T.);
#1078=ORIENTED_EDGE('',*,*,#762,.T.);
#1079=ORIENTED_EDGE('',*,*,#695,.T.);
#1080=ORIENTED_EDGE('',*,*,#698,.T.);
#1081=ORIENTED_EDGE('',*,*,#764,.T.);
#1082=ORIENTED_EDGE('',*,*,#791,.T.);
#1083=ORIENTED_EDGE('',*,*,#792,.T.);
#1084=ORIENTED_EDGE('',*,*,#793,.T.);
#1085=ORIENTED_EDGE('',*,*,#785,.T.);
#1086=ORIENTED_EDGE('',*,*,#794,.T.);
#1087=ORIENTED_EDGE('',*,*,#795,.T.);
#1088=ORIENTED_EDGE('',*,*,#796,.F.);
#1089=ORIENTED_EDGE('',*,*,#797,.F.);
#1090=ORIENTED_EDGE('',*,*,#798,.T.);
#1091=ORIENTED_EDGE('',*,*,#797,.T.);
#1092=ORIENTED_EDGE('',*,*,#799,.F.);
#1093=ORIENTED_EDGE('',*,*,#800,.F.);
#1094=ORIENTED_EDGE('',*,*,#801,.T.);
#1095=ORIENTED_EDGE('',*,*,#800,.T.);
#1096=ORIENTED_EDGE('',*,*,#802,.F.);
#1097=ORIENTED_EDGE('',*,*,#767,.F.);
#1098=ORIENTED_EDGE('',*,*,#803,.F.);
#1099=ORIENTED_EDGE('',*,*,#781,.T.);
#1100=ORIENTED_EDGE('',*,*,#802,.T.);
#1101=ORIENTED_EDGE('',*,*,#799,.T.);
#1102=ORIENTED_EDGE('',*,*,#796,.T.);
#1103=ORIENTED_EDGE('',*,*,#804,.T.);
#1104=ORIENTED_EDGE('',*,*,#777,.T.);
#1105=ORIENTED_EDGE('',*,*,#801,.F.);
#1106=ORIENTED_EDGE('',*,*,#805,.F.);
#1107=ORIENTED_EDGE('',*,*,#794,.F.);
#1108=ORIENTED_EDGE('',*,*,#798,.F.);
#1109=ORIENTED_EDGE('',*,*,#806,.T.);
#1110=ORIENTED_EDGE('',*,*,#807,.T.);
#1111=ORIENTED_EDGE('',*,*,#765,.F.);
#1112=ORIENTED_EDGE('',*,*,#808,.F.);
#1113=ORIENTED_EDGE('',*,*,#809,.F.);
#1114=ORIENTED_EDGE('',*,*,#810,.T.);
#1115=ORIENTED_EDGE('',*,*,#809,.T.);
#1116=ORIENTED_EDGE('',*,*,#811,.F.);
#1117=ORIENTED_EDGE('',*,*,#812,.F.);
#1118=ORIENTED_EDGE('',*,*,#813,.T.);
#1119=ORIENTED_EDGE('',*,*,#812,.T.);
#1120=ORIENTED_EDGE('',*,*,#814,.F.);
#1121=ORIENTED_EDGE('',*,*,#771,.F.);
#1122=ORIENTED_EDGE('',*,*,#815,.F.);
#1123=ORIENTED_EDGE('',*,*,#788,.T.);
#1124=ORIENTED_EDGE('',*,*,#814,.T.);
#1125=ORIENTED_EDGE('',*,*,#811,.T.);
#1126=ORIENTED_EDGE('',*,*,#808,.T.);
#1127=ORIENTED_EDGE('',*,*,#813,.F.);
#1128=ORIENTED_EDGE('',*,*,#816,.F.);
#1129=ORIENTED_EDGE('',*,*,#806,.F.);
#1130=ORIENTED_EDGE('',*,*,#810,.F.);
#1131=ORIENTED_EDGE('',*,*,#817,.T.);
#1132=ORIENTED_EDGE('',*,*,#818,.T.);
#1133=ORIENTED_EDGE('',*,*,#769,.F.);
#1134=ORIENTED_EDGE('',*,*,#819,.F.);
#1135=ORIENTED_EDGE('',*,*,#820,.F.);
#1136=ORIENTED_EDGE('',*,*,#821,.T.);
#1137=ORIENTED_EDGE('',*,*,#820,.T.);
#1138=ORIENTED_EDGE('',*,*,#822,.F.);
#1139=ORIENTED_EDGE('',*,*,#823,.F.);
#1140=ORIENTED_EDGE('',*,*,#824,.T.);
#1141=ORIENTED_EDGE('',*,*,#823,.T.);
#1142=ORIENTED_EDGE('',*,*,#825,.F.);
#1143=ORIENTED_EDGE('',*,*,#775,.F.);
#1144=ORIENTED_EDGE('',*,*,#826,.F.);
#1145=ORIENTED_EDGE('',*,*,#787,.T.);
#1146=ORIENTED_EDGE('',*,*,#825,.T.);
#1147=ORIENTED_EDGE('',*,*,#822,.T.);
#1148=ORIENTED_EDGE('',*,*,#819,.T.);
#1149=ORIENTED_EDGE('',*,*,#824,.F.);
#1150=ORIENTED_EDGE('',*,*,#827,.F.);
#1151=ORIENTED_EDGE('',*,*,#817,.F.);
#1152=ORIENTED_EDGE('',*,*,#821,.F.);
#1153=ORIENTED_EDGE('',*,*,#828,.F.);
#1154=ORIENTED_EDGE('',*,*,#829,.T.);
#1155=ORIENTED_EDGE('',*,*,#773,.F.);
#1156=ORIENTED_EDGE('',*,*,#830,.F.);
#1157=ORIENTED_EDGE('',*,*,#831,.F.);
#1158=ORIENTED_EDGE('',*,*,#832,.F.);
#1159=ORIENTED_EDGE('',*,*,#831,.T.);
#1160=ORIENTED_EDGE('',*,*,#833,.F.);
#1161=ORIENTED_EDGE('',*,*,#834,.F.);
#1162=ORIENTED_EDGE('',*,*,#835,.F.);
#1163=ORIENTED_EDGE('',*,*,#834,.T.);
#1164=ORIENTED_EDGE('',*,*,#836,.F.);
#1165=ORIENTED_EDGE('',*,*,#793,.F.);
#1166=ORIENTED_EDGE('',*,*,#837,.F.);
#1167=ORIENTED_EDGE('',*,*,#786,.T.);
#1168=ORIENTED_EDGE('',*,*,#836,.T.);
#1169=ORIENTED_EDGE('',*,*,#833,.T.);
#1170=ORIENTED_EDGE('',*,*,#830,.T.);
#1171=ORIENTED_EDGE('',*,*,#838,.T.);
#1172=ORIENTED_EDGE('',*,*,#828,.T.);
#1173=ORIENTED_EDGE('',*,*,#832,.T.);
#1174=ORIENTED_EDGE('',*,*,#835,.T.);
#1175=ORIENTED_EDGE('',*,*,#784,.T.);
#1176=ORIENTED_EDGE('',*,*,#839,.T.);
#1177=ORIENTED_EDGE('',*,*,#840,.T.);
#1178=ORIENTED_EDGE('',*,*,#841,.T.);
#1179=ORIENTED_EDGE('',*,*,#842,.T.);
#1180=ORIENTED_EDGE('',*,*,#843,.T.);
#1181=ORIENTED_EDGE('',*,*,#789,.F.);
#1182=ORIENTED_EDGE('',*,*,#778,.F.);
#1183=ORIENTED_EDGE('',*,*,#804,.F.);
#1184=ORIENTED_EDGE('',*,*,#795,.F.);
#1185=ORIENTED_EDGE('',*,*,#805,.T.);
#1186=ORIENTED_EDGE('',*,*,#803,.T.);
#1187=ORIENTED_EDGE('',*,*,#766,.F.);
#1188=ORIENTED_EDGE('',*,*,#807,.F.);
#1189=ORIENTED_EDGE('',*,*,#816,.T.);
#1190=ORIENTED_EDGE('',*,*,#815,.T.);
#1191=ORIENTED_EDGE('',*,*,#770,.F.);
#1192=ORIENTED_EDGE('',*,*,#818,.F.);
#1193=ORIENTED_EDGE('',*,*,#827,.T.);
#1194=ORIENTED_EDGE('',*,*,#826,.T.);
#1195=ORIENTED_EDGE('',*,*,#774,.F.);
#1196=ORIENTED_EDGE('',*,*,#829,.F.);
#1197=ORIENTED_EDGE('',*,*,#838,.F.);
#1198=ORIENTED_EDGE('',*,*,#837,.T.);
#1199=ORIENTED_EDGE('',*,*,#792,.F.);
#1200=ORIENTED_EDGE('',*,*,#844,.F.);
#1201=ORIENTED_EDGE('',*,*,#845,.T.);
#1202=ORIENTED_EDGE('',*,*,#844,.T.);
#1203=ORIENTED_EDGE('',*,*,#791,.F.);
#1204=ORIENTED_EDGE('',*,*,#841,.F.);
#1205=ORIENTED_EDGE('',*,*,#846,.F.);
#1206=ORIENTED_EDGE('',*,*,#847,.T.);
#1207=ORIENTED_EDGE('',*,*,#846,.T.);
#1208=ORIENTED_EDGE('',*,*,#840,.F.);
#1209=ORIENTED_EDGE('',*,*,#848,.F.);
#1210=ORIENTED_EDGE('',*,*,#849,.T.);
#1211=ORIENTED_EDGE('',*,*,#848,.T.);
#1212=ORIENTED_EDGE('',*,*,#839,.F.);
#1213=ORIENTED_EDGE('',*,*,#783,.T.);
#1214=ORIENTED_EDGE('',*,*,#790,.F.);
#1215=ORIENTED_EDGE('',*,*,#843,.F.);
#1216=ORIENTED_EDGE('',*,*,#849,.F.);
#1217=ORIENTED_EDGE('',*,*,#842,.F.);
#1218=ORIENTED_EDGE('',*,*,#845,.F.);
#1219=ORIENTED_EDGE('',*,*,#847,.F.);
#1220=PLANE('',#1390);
#1221=PLANE('',#1391);
#1222=PLANE('',#1392);
#1223=PLANE('',#1393);
#1224=PLANE('',#1394);
#1225=PLANE('',#1395);
#1226=PLANE('',#1396);
#1227=PLANE('',#1397);
#1228=PLANE('',#1398);
#1229=PLANE('',#1399);
#1230=PLANE('',#1400);
#1231=PLANE('',#1401);
#1232=PLANE('',#1402);
#1233=PLANE('',#1403);
#1234=PLANE('',#1404);
#1235=PLANE('',#1405);
#1236=PLANE('',#1406);
#1237=PLANE('',#1407);
#1238=PLANE('',#1408);
#1239=PLANE('',#1409);
#1240=PLANE('',#1410);
#1241=PLANE('',#1411);
#1242=PLANE('',#1412);
#1243=PLANE('',#1413);
#1244=PLANE('',#1414);
#1245=PLANE('',#1415);
#1246=PLANE('',#1416);
#1247=PLANE('',#1417);
#1248=PLANE('',#1418);
#1249=PLANE('',#1419);
#1250=PLANE('',#1420);
#1251=PLANE('',#1421);
#1252=PLANE('',#1422);
#1253=PLANE('',#1423);
#1254=PLANE('',#1424);
#1255=PLANE('',#1425);
#1256=PLANE('',#1426);
#1257=PLANE('',#1427);
#1258=PLANE('',#1428);
#1259=PLANE('',#1429);
#1260=PLANE('',#1430);
#1261=PLANE('',#1431);
#1262=PLANE('',#1432);
#1263=PLANE('',#1433);
#1264=PLANE('',#1434);
#1265=PLANE('',#1435);
#1266=PLANE('',#1436);
#1267=PLANE('',#1437);
#1268=PLANE('',#1438);
#1269=PLANE('',#1439);
#1270=PLANE('',#1440);
#1271=PLANE('',#1441);
#1272=PLANE('',#1442);
#1273=PLANE('',#1443);
#1274=PLANE('',#1444);
#1275=PLANE('',#1445);
#1276=PLANE('',#1446);
#1277=PLANE('',#1447);
#1278=PLANE('',#1448);
#1279=PLANE('',#1449);
#1280=PLANE('',#1450);
#1281=PLANE('',#1451);
#1282=PLANE('',#1452);
#1283=PLANE('',#1453);
#1284=PLANE('',#1454);
#1285=PLANE('',#1455);
#1286=PLANE('',#1456);
#1287=PLANE('',#1457);
#1288=PLANE('',#1458);
#1289=PLANE('',#1459);
#1290=PLANE('',#1460);
#1291=PLANE('',#1461);
#1292=PLANE('',#1462);
#1293=PLANE('',#1463);
#1294=PLANE('',#1464);
#1295=PLANE('',#1465);
#1296=PLANE('',#1466);
#1297=PLANE('',#1467);
#1298=ADVANCED_FACE('',(#20),#1220,.T.);
#1299=ADVANCED_FACE('',(#21),#1221,.T.);
#1300=ADVANCED_FACE('',(#22),#1222,.T.);
#1301=ADVANCED_FACE('',(#23),#1223,.T.);
#1302=ADVANCED_FACE('',(#24),#1224,.T.);
#1303=ADVANCED_FACE('',(#25),#1225,.T.);
#1304=ADVANCED_FACE('',(#26),#1226,.T.);
#1305=ADVANCED_FACE('',(#27),#1227,.T.);
#1306=ADVANCED_FACE('',(#28),#1228,.T.);
#1307=ADVANCED_FACE('',(#29),#1229,.T.);
#1308=ADVANCED_FACE('',(#30),#1230,.T.);
#1309=ADVANCED_FACE('',(#31),#1231,.T.);
#1310=ADVANCED_FACE('',(#32),#1232,.T.);
#1311=ADVANCED_FACE('',(#33),#1233,.T.);
#1312=ADVANCED_FACE('',(#34),#1234,.T.);
#1313=ADVANCED_FACE('',(#35),#1235,.T.);
#1314=ADVANCED_FACE('',(#36),#1236,.T.);
#1315=ADVANCED_FACE('',(#37),#1237,.T.);
#1316=ADVANCED_FACE('',(#38),#1238,.T.);
#1317=ADVANCED_FACE('',(#39),#1239,.T.);
#1318=ADVANCED_FACE('',(#40),#1240,.T.);
#1319=ADVANCED_FACE('',(#41),#1241,.T.);
#1320=ADVANCED_FACE('',(#42),#1242,.T.);
#1321=ADVANCED_FACE('',(#43),#1243,.T.);
#1322=ADVANCED_FACE('',(#44),#1244,.T.);
#1323=ADVANCED_FACE('',(#45),#1245,.T.);
#1324=ADVANCED_FACE('',(#46),#1246,.T.);
#1325=ADVANCED_FACE('',(#47),#1247,.T.);
#1326=ADVANCED_FACE('',(#48),#1248,.T.);
#1327=ADVANCED_FACE('',(#49),#1249,.T.);
#1328=ADVANCED_FACE('',(#50),#1250,.T.);
#1329=ADVANCED_FACE('',(#51),#1251,.T.);
#1330=ADVANCED_FACE('',(#52),#1252,.T.);
#1331=ADVANCED_FACE('',(#53),#1253,.T.);
#1332=ADVANCED_FACE('',(#54),#1254,.T.);
#1333=ADVANCED_FACE('',(#55),#1255,.T.);
#1334=ADVANCED_FACE('',(#56),#1256,.T.);
#1335=ADVANCED_FACE('',(#57),#1257,.T.);
#1336=ADVANCED_FACE('',(#58),#1258,.T.);
#1337=ADVANCED_FACE('',(#59),#1259,.T.);
#1338=ADVANCED_FACE('',(#60),#1260,.T.);
#1339=ADVANCED_FACE('',(#61),#1261,.T.);
#1340=ADVANCED_FACE('',(#62),#1262,.T.);
#1341=ADVANCED_FACE('',(#63),#1263,.T.);
#1342=ADVANCED_FACE('',(#64),#1264,.T.);
#1343=ADVANCED_FACE('',(#65),#1265,.F.);
#1344=ADVANCED_FACE('',(#66),#1266,.F.);
#1345=ADVANCED_FACE('',(#67),#1267,.F.);
#1346=ADVANCED_FACE('',(#68),#1268,.T.);
#1347=ADVANCED_FACE('',(#69),#1269,.T.);
#1348=ADVANCED_FACE('',(#70,#15,#16,#17,#18,#19),#1270,.T.);
#1349=ADVANCED_FACE('',(#71),#1271,.F.);
#1350=ADVANCED_FACE('',(#72),#1272,.T.);
#1351=ADVANCED_FACE('',(#73),#1273,.T.);
#1352=ADVANCED_FACE('',(#74),#1274,.T.);
#1353=ADVANCED_FACE('',(#75),#1275,.T.);
#1354=ADVANCED_FACE('',(#76),#1276,.F.);
#1355=ADVANCED_FACE('',(#77),#1277,.T.);
#1356=ADVANCED_FACE('',(#78),#1278,.T.);
#1357=ADVANCED_FACE('',(#79),#1279,.T.);
#1358=ADVANCED_FACE('',(#80),#1280,.T.);
#1359=ADVANCED_FACE('',(#81),#1281,.F.);
#1360=ADVANCED_FACE('',(#82),#1282,.T.);
#1361=ADVANCED_FACE('',(#83),#1283,.T.);
#1362=ADVANCED_FACE('',(#84),#1284,.T.);
#1363=ADVANCED_FACE('',(#85),#1285,.T.);
#1364=ADVANCED_FACE('',(#86),#1286,.F.);
#1365=ADVANCED_FACE('',(#87),#1287,.T.);
#1366=ADVANCED_FACE('',(#88),#1288,.T.);
#1367=ADVANCED_FACE('',(#89),#1289,.T.);
#1368=ADVANCED_FACE('',(#90),#1290,.T.);
#1369=ADVANCED_FACE('',(#91),#1291,.F.);
#1370=ADVANCED_FACE('',(#92),#1292,.T.);
#1371=ADVANCED_FACE('',(#93),#1293,.T.);
#1372=ADVANCED_FACE('',(#94),#1294,.T.);
#1373=ADVANCED_FACE('',(#95),#1295,.T.);
#1374=ADVANCED_FACE('',(#96),#1296,.T.);
#1375=ADVANCED_FACE('',(#97),#1297,.F.);
#1376=CLOSED_SHELL('',(#1298,#1299,#1300,#1301,#1302,#1303,#1304,#1305,
#1306,#1307,#1308,#1309,#1310,#1311,#1312,#1313,#1314,#1315,#1316,#1317,
#1318,#1319,#1320,#1321,#1322,#1323,#1324,#1325,#1326,#1327,#1328,#1329,
#1330,#1331,#1332,#1333,#1334,#1335,#1336,#1337,#1338,#1339,#1340,#1341,
#1342,#1343,#1344,#1345,#1346,#1347,#1348,#1349,#1350,#1351,#1352,#1353,
#1354,#1355,#1356,#1357,#1358,#1359,#1360,#1361,#1362,#1363,#1364,#1365,
#1366,#1367,#1368,#1369,#1370,#1371,#1372,#1373,#1374,#1375));
#1377=DERIVED_UNIT_ELEMENT(#1379,1.);
#1378=DERIVED_UNIT_ELEMENT(#2194,-3.);
#1379=(
MASS_UNIT()
NAMED_UNIT(*)
SI_UNIT(.KILO.,.GRAM.)
);
#1380=DERIVED_UNIT((#1377,#1378));
#1381=MEASURE_REPRESENTATION_ITEM('density measure',
POSITIVE_RATIO_MEASURE(7850.),#1380);
#1382=PROPERTY_DEFINITION_REPRESENTATION(#1387,#1384);
#1383=PROPERTY_DEFINITION_REPRESENTATION(#1388,#1385);
#1384=REPRESENTATION('material name',(#1386),#2191);
#1385=REPRESENTATION('density',(#1381),#2191);
#1386=DESCRIPTIVE_REPRESENTATION_ITEM('Steel','Steel');
#1387=PROPERTY_DEFINITION('material property','material name',#2201);
#1388=PROPERTY_DEFINITION('material property','density of part',#2201);
#1389=AXIS2_PLACEMENT_3D('',#1811,#1468,#1469);
#1390=AXIS2_PLACEMENT_3D('',#1812,#1470,#1471);
#1391=AXIS2_PLACEMENT_3D('',#1821,#1476,#1477);
#1392=AXIS2_PLACEMENT_3D('',#1827,#1481,#1482);
#1393=AXIS2_PLACEMENT_3D('',#1833,#1486,#1487);
#1394=AXIS2_PLACEMENT_3D('',#1836,#1490,#1491);
#1395=AXIS2_PLACEMENT_3D('',#1842,#1495,#1496);
#1396=AXIS2_PLACEMENT_3D('',#1846,#1499,#1500);
#1397=AXIS2_PLACEMENT_3D('',#1847,#1501,#1502);
#1398=AXIS2_PLACEMENT_3D('',#1856,#1507,#1508);
#1399=AXIS2_PLACEMENT_3D('',#1862,#1512,#1513);
#1400=AXIS2_PLACEMENT_3D('',#1868,#1517,#1518);
#1401=AXIS2_PLACEMENT_3D('',#1871,#1521,#1522);
#1402=AXIS2_PLACEMENT_3D('',#1877,#1526,#1527);
#1403=AXIS2_PLACEMENT_3D('',#1881,#1530,#1531);
#1404=AXIS2_PLACEMENT_3D('',#1882,#1532,#1533);
#1405=AXIS2_PLACEMENT_3D('',#1891,#1538,#1539);
#1406=AXIS2_PLACEMENT_3D('',#1897,#1543,#1544);
#1407=AXIS2_PLACEMENT_3D('',#1903,#1548,#1549);
#1408=AXIS2_PLACEMENT_3D('',#1906,#1552,#1553);
#1409=AXIS2_PLACEMENT_3D('',#1912,#1557,#1558);
#1410=AXIS2_PLACEMENT_3D('',#1916,#1561,#1562);
#1411=AXIS2_PLACEMENT_3D('',#1917,#1563,#1564);
#1412=AXIS2_PLACEMENT_3D('',#1926,#1569,#1570);
#1413=AXIS2_PLACEMENT_3D('',#1932,#1574,#1575);
#1414=AXIS2_PLACEMENT_3D('',#1938,#1579,#1580);
#1415=AXIS2_PLACEMENT_3D('',#1941,#1583,#1584);
#1416=AXIS2_PLACEMENT_3D('',#1947,#1588,#1589);
#1417=AXIS2_PLACEMENT_3D('',#1951,#1592,#1593);
#1418=AXIS2_PLACEMENT_3D('',#1952,#1594,#1595);
#1419=AXIS2_PLACEMENT_3D('',#1961,#1600,#1601);
#1420=AXIS2_PLACEMENT_3D('',#1967,#1605,#1606);
#1421=AXIS2_PLACEMENT_3D('',#1973,#1610,#1611);
#1422=AXIS2_PLACEMENT_3D('',#1976,#1614,#1615);
#1423=AXIS2_PLACEMENT_3D('',#1982,#1619,#1620);
#1424=AXIS2_PLACEMENT_3D('',#1986,#1623,#1624);
#1425=AXIS2_PLACEMENT_3D('',#1987,#1625,#1626);
#1426=AXIS2_PLACEMENT_3D('',#1991,#1629,#1630);
#1427=AXIS2_PLACEMENT_3D('',#1993,#1632,#1633);
#1428=AXIS2_PLACEMENT_3D('',#1997,#1636,#1637);
#1429=AXIS2_PLACEMENT_3D('',#1999,#1639,#1640);
#1430=AXIS2_PLACEMENT_3D('',#2003,#1643,#1644);
#1431=AXIS2_PLACEMENT_3D('',#2005,#1646,#1647);
#1432=AXIS2_PLACEMENT_3D('',#2009,#1650,#1651);
#1433=AXIS2_PLACEMENT_3D('',#2011,#1653,#1654);
#1434=AXIS2_PLACEMENT_3D('',#2015,#1657,#1658);
#1435=AXIS2_PLACEMENT_3D('',#2017,#1660,#1661);
#1436=AXIS2_PLACEMENT_3D('',#2026,#1666,#1667);
#1437=AXIS2_PLACEMENT_3D('',#2035,#1672,#1673);
#1438=AXIS2_PLACEMENT_3D('',#2044,#1678,#1679);
#1439=AXIS2_PLACEMENT_3D('',#2053,#1684,#1685);
#1440=AXIS2_PLACEMENT_3D('',#2066,#1694,#1695);
#1441=AXIS2_PLACEMENT_3D('',#2070,#1698,#1699);
#1442=AXIS2_PLACEMENT_3D('',#2076,#1703,#1704);
#1443=AXIS2_PLACEMENT_3D('',#2085,#1709,#1710);
#1444=AXIS2_PLACEMENT_3D('',#2091,#1714,#1715);
#1445=AXIS2_PLACEMENT_3D('',#2096,#1719,#1720);
#1446=AXIS2_PLACEMENT_3D('',#2098,#1722,#1723);
#1447=AXIS2_PLACEMENT_3D('',#2100,#1725,#1726);
#1448=AXIS2_PLACEMENT_3D('',#2108,#1731,#1732);
#1449=AXIS2_PLACEMENT_3D('',#2114,#1736,#1737);
#1450=AXIS2_PLACEMENT_3D('',#2119,#1741,#1742);
#1451=AXIS2_PLACEMENT_3D('',#2120,#1743,#1744);
#1452=AXIS2_PLACEMENT_3D('',#2122,#1746,#1747);
#1453=AXIS2_PLACEMENT_3D('',#2130,#1752,#1753);
#1454=AXIS2_PLACEMENT_3D('',#2136,#1757,#1758);
#1455=AXIS2_PLACEMENT_3D('',#2141,#1762,#1763);
#1456=AXIS2_PLACEMENT_3D('',#2142,#1764,#1765);
#1457=AXIS2_PLACEMENT_3D('',#2144,#1767,#1768);
#1458=AXIS2_PLACEMENT_3D('',#2152,#1773,#1774);
#1459=AXIS2_PLACEMENT_3D('',#2158,#1778,#1779);
#1460=AXIS2_PLACEMENT_3D('',#2163,#1783,#1784);
#1461=AXIS2_PLACEMENT_3D('',#2164,#1785,#1786);
#1462=AXIS2_PLACEMENT_3D('',#2166,#1788,#1789);
#1463=AXIS2_PLACEMENT_3D('',#2172,#1793,#1794);
#1464=AXIS2_PLACEMENT_3D('',#2178,#1798,#1799);
#1465=AXIS2_PLACEMENT_3D('',#2182,#1802,#1803);
#1466=AXIS2_PLACEMENT_3D('',#2186,#1806,#1807);
#1467=AXIS2_PLACEMENT_3D('',#2188,#1809,#1810);
#1468=DIRECTION('axis',(0.,0.,1.));
#1469=DIRECTION('refdir',(1.,0.,0.));
#1470=DIRECTION('center_axis',(-0.707106781186555,0.,-0.70710678118654));
#1471=DIRECTION('ref_axis',(-0.70710678118654,0.,0.707106781186555));
#1472=DIRECTION('',(0.,1.,0.));
#1473=DIRECTION('',(0.577350269189617,0.57735026918963,-0.57735026918963));
#1474=DIRECTION('',(0.,-1.,0.));
#1475=DIRECTION('',(0.577350269189617,-0.57735026918963,-0.57735026918963));
#1476=DIRECTION('center_axis',(-0.707106781186555,0.70710678118654,0.));
#1477=DIRECTION('ref_axis',(0.,0.,1.));
#1478=DIRECTION('',(0.,0.,1.));
#1479=DIRECTION('',(0.577350269189617,0.57735026918963,0.57735026918963));
#1480=DIRECTION('',(0.,0.,-1.));
#1481=DIRECTION('center_axis',(-0.707106781186555,0.,0.70710678118654));
#1482=DIRECTION('ref_axis',(0.70710678118654,0.,0.707106781186555));
#1483=DIRECTION('',(0.,-1.,0.));
#1484=DIRECTION('',(0.577350269189617,-0.57735026918963,0.57735026918963));
#1485=DIRECTION('',(0.,1.,0.));
#1486=DIRECTION('center_axis',(-0.707106781186555,-0.70710678118654,0.));
#1487=DIRECTION('ref_axis',(0.,0.,1.));
#1488=DIRECTION('',(0.,0.,1.));
#1489=DIRECTION('',(0.,0.,-1.));
#1490=DIRECTION('center_axis',(0.,-1.,0.));
#1491=DIRECTION('ref_axis',(0.,0.,1.));
#1492=DIRECTION('',(-1.,0.,0.));
#1493=DIRECTION('',(0.,0.,-1.));
#1494=DIRECTION('',(-1.,0.,0.));
#1495=DIRECTION('center_axis',(0.,0.,-1.));
#1496=DIRECTION('ref_axis',(0.,-1.,0.));
#1497=DIRECTION('',(-1.,0.,0.));
#1498=DIRECTION('',(0.,1.,0.));
#1499=DIRECTION('center_axis',(-1.,0.,0.));
#1500=DIRECTION('ref_axis',(0.,0.,1.));
#1501=DIRECTION('center_axis',(-0.707106781186555,0.,-0.70710678118654));
#1502=DIRECTION('ref_axis',(-0.70710678118654,0.,0.707106781186555));
#1503=DIRECTION('',(0.,1.,0.));
#1504=DIRECTION('',(0.577350269189617,0.57735026918963,-0.57735026918963));
#1505=DIRECTION('',(0.,-1.,0.));
#1506=DIRECTION('',(0.577350269189617,-0.57735026918963,-0.57735026918963));
#1507=DIRECTION('center_axis',(-0.707106781186555,0.70710678118654,0.));
#1508=DIRECTION('ref_axis',(0.,0.,1.));
#1509=DIRECTION('',(0.,0.,1.));
#1510=DIRECTION('',(0.577350269189617,0.57735026918963,0.57735026918963));
#1511=DIRECTION('',(0.,0.,-1.));
#1512=DIRECTION('center_axis',(-0.707106781186555,0.,0.70710678118654));
#1513=DIRECTION('ref_axis',(0.70710678118654,0.,0.707106781186555));
#1514=DIRECTION('',(0.,-1.,0.));
#1515=DIRECTION('',(0.577350269189617,-0.57735026918963,0.57735026918963));
#1516=DIRECTION('',(0.,1.,0.));
#1517=DIRECTION('center_axis',(-0.707106781186555,-0.70710678118654,0.));
#1518=DIRECTION('ref_axis',(0.,0.,1.));
#1519=DIRECTION('',(0.,0.,1.));
#1520=DIRECTION('',(0.,0.,-1.));
#1521=DIRECTION('center_axis',(0.,-1.,0.));
#1522=DIRECTION('ref_axis',(0.,0.,1.));
#1523=DIRECTION('',(-1.,0.,0.));
#1524=DIRECTION('',(0.,0.,-1.));
#1525=DIRECTION('',(-1.,0.,0.));
#1526=DIRECTION('center_axis',(0.,0.,-1.));
#1527=DIRECTION('ref_axis',(0.,-1.,0.));
#1528=DIRECTION('',(-1.,0.,0.));
#1529=DIRECTION('',(0.,1.,0.));
#1530=DIRECTION('center_axis',(-1.,0.,0.));
#1531=DIRECTION('ref_axis',(0.,0.,1.));
#1532=DIRECTION('center_axis',(-0.707106781186555,0.,-0.70710678118654));
#1533=DIRECTION('ref_axis',(-0.70710678118654,0.,0.707106781186555));
#1534=DIRECTION('',(0.,1.,0.));
#1535=DIRECTION('',(0.577350269189617,0.57735026918963,-0.57735026918963));
#1536=DIRECTION('',(0.,-1.,0.));
#1537=DIRECTION('',(0.577350269189617,-0.57735026918963,-0.57735026918963));
#1538=DIRECTION('center_axis',(-0.707106781186555,0.70710678118654,0.));
#1539=DIRECTION('ref_axis',(0.,0.,1.));
#1540=DIRECTION('',(0.,0.,1.));
#1541=DIRECTION('',(0.577350269189617,0.57735026918963,0.57735026918963));
#1542=DIRECTION('',(0.,0.,-1.));
#1543=DIRECTION('center_axis',(-0.707106781186555,0.,0.70710678118654));
#1544=DIRECTION('ref_axis',(0.70710678118654,0.,0.707106781186555));
#1545=DIRECTION('',(0.,-1.,0.));
#1546=DIRECTION('',(0.577350269189617,-0.57735026918963,0.57735026918963));
#1547=DIRECTION('',(0.,1.,0.));
#1548=DIRECTION('center_axis',(-0.707106781186555,-0.70710678118654,0.));
#1549=DIRECTION('ref_axis',(0.,0.,1.));
#1550=DIRECTION('',(0.,0.,1.));
#1551=DIRECTION('',(0.,0.,-1.));
#1552=DIRECTION('center_axis',(0.,-1.,0.));
#1553=DIRECTION('ref_axis',(0.,0.,1.));
#1554=DIRECTION('',(-1.,0.,0.));
#1555=DIRECTION('',(0.,0.,-1.));
#1556=DIRECTION('',(-1.,0.,0.));
#1557=DIRECTION('center_axis',(0.,0.,-1.));
#1558=DIRECTION('ref_axis',(0.,-1.,0.));
#1559=DIRECTION('',(-1.,0.,0.));
#1560=DIRECTION('',(0.,1.,0.));
#1561=DIRECTION('center_axis',(-1.,0.,0.));
#1562=DIRECTION('ref_axis',(0.,0.,1.));
#1563=DIRECTION('center_axis',(-0.707106781186555,0.,-0.70710678118654));
#1564=DIRECTION('ref_axis',(-0.70710678118654,0.,0.707106781186555));
#1565=DIRECTION('',(0.,1.,0.));
#1566=DIRECTION('',(0.577350269189617,0.57735026918963,-0.57735026918963));
#1567=DIRECTION('',(0.,-1.,0.));
#1568=DIRECTION('',(0.577350269189617,-0.57735026918963,-0.57735026918963));
#1569=DIRECTION('center_axis',(-0.707106781186555,0.70710678118654,0.));
#1570=DIRECTION('ref_axis',(0.,0.,1.));
#1571=DIRECTION('',(0.,0.,1.));
#1572=DIRECTION('',(0.577350269189617,0.57735026918963,0.57735026918963));
#1573=DIRECTION('',(0.,0.,-1.));
#1574=DIRECTION('center_axis',(-0.707106781186555,0.,0.70710678118654));
#1575=DIRECTION('ref_axis',(0.70710678118654,0.,0.707106781186555));
#1576=DIRECTION('',(0.,-1.,0.));
#1577=DIRECTION('',(0.577350269189617,-0.57735026918963,0.57735026918963));
#1578=DIRECTION('',(0.,1.,0.));
#1579=DIRECTION('center_axis',(-0.707106781186555,-0.70710678118654,0.));
#1580=DIRECTION('ref_axis',(0.,0.,1.));
#1581=DIRECTION('',(0.,0.,1.));
#1582=DIRECTION('',(0.,0.,-1.));
#1583=DIRECTION('center_axis',(0.,-1.,0.));
#1584=DIRECTION('ref_axis',(0.,0.,1.));
#1585=DIRECTION('',(-1.,0.,0.));
#1586=DIRECTION('',(0.,0.,-1.));
#1587=DIRECTION('',(-1.,0.,0.));
#1588=DIRECTION('center_axis',(0.,0.,-1.));
#1589=DIRECTION('ref_axis',(0.,-1.,0.));
#1590=DIRECTION('',(-1.,0.,0.));
#1591=DIRECTION('',(0.,1.,0.));
#1592=DIRECTION('center_axis',(-1.,0.,0.));
#1593=DIRECTION('ref_axis',(0.,0.,1.));
#1594=DIRECTION('center_axis',(-0.707106781186555,0.,-0.70710678118654));
#1595=DIRECTION('ref_axis',(-0.70710678118654,0.,0.707106781186555));
#1596=DIRECTION('',(0.,1.,0.));
#1597=DIRECTION('',(0.577350269189617,0.57735026918963,-0.57735026918963));
#1598=DIRECTION('',(0.,-1.,0.));
#1599=DIRECTION('',(0.577350269189617,-0.57735026918963,-0.57735026918963));
#1600=DIRECTION('center_axis',(-0.707106781186555,0.70710678118654,0.));
#1601=DIRECTION('ref_axis',(0.,0.,1.));
#1602=DIRECTION('',(0.,0.,1.));
#1603=DIRECTION('',(0.577350269189617,0.57735026918963,0.57735026918963));
#1604=DIRECTION('',(0.,0.,-1.));
#1605=DIRECTION('center_axis',(-0.707106781186555,0.,0.70710678118654));
#1606=DIRECTION('ref_axis',(0.70710678118654,0.,0.707106781186555));
#1607=DIRECTION('',(0.,-1.,0.));
#1608=DIRECTION('',(0.577350269189617,-0.57735026918963,0.57735026918963));
#1609=DIRECTION('',(0.,1.,0.));
#1610=DIRECTION('center_axis',(-0.707106781186555,-0.70710678118654,0.));
#1611=DIRECTION('ref_axis',(0.,0.,1.));
#1612=DIRECTION('',(0.,0.,1.));
#1613=DIRECTION('',(0.,0.,-1.));
#1614=DIRECTION('center_axis',(0.,-1.,0.));
#1615=DIRECTION('ref_axis',(0.,0.,1.));
#1616=DIRECTION('',(-1.,0.,0.));
#1617=DIRECTION('',(0.,0.,-1.));
#1618=DIRECTION('',(-1.,0.,0.));
#1619=DIRECTION('center_axis',(0.,0.,-1.));
#1620=DIRECTION('ref_axis',(0.,-1.,0.));
#1621=DIRECTION('',(-1.,0.,0.));
#1622=DIRECTION('',(0.,1.,0.));
#1623=DIRECTION('center_axis',(-1.,0.,0.));
#1624=DIRECTION('ref_axis',(0.,0.,1.));
#1625=DIRECTION('center_axis',(0.,0.,1.));
#1626=DIRECTION('ref_axis',(0.,1.,0.));
#1627=DIRECTION('',(0.,-1.,0.));
#1628=DIRECTION('',(-1.,0.,0.));
#1629=DIRECTION('center_axis',(0.,1.,0.));
#1630=DIRECTION('ref_axis',(0.,0.,-1.));
#1631=DIRECTION('',(0.,0.,1.));
#1632=DIRECTION('center_axis',(0.,0.,1.));
#1633=DIRECTION('ref_axis',(0.,1.,0.));
#1634=DIRECTION('',(0.,-1.,0.));
#1635=DIRECTION('',(-1.,0.,0.));
#1636=DIRECTION('center_axis',(0.,1.,0.));
#1637=DIRECTION('ref_axis',(0.,0.,-1.));
#1638=DIRECTION('',(0.,0.,1.));
#1639=DIRECTION('center_axis',(0.,0.,1.));
#1640=DIRECTION('ref_axis',(0.,1.,0.));
#1641=DIRECTION('',(0.,-1.,0.));
#1642=DIRECTION('',(-1.,0.,0.));
#1643=DIRECTION('center_axis',(0.,1.,0.));
#1644=DIRECTION('ref_axis',(0.,0.,-1.));
#1645=DIRECTION('',(0.,0.,1.));
#1646=DIRECTION('center_axis',(0.,0.,1.));
#1647=DIRECTION('ref_axis',(0.,1.,0.));
#1648=DIRECTION('',(0.,-1.,0.));
#1649=DIRECTION('',(-1.,0.,0.));
#1650=DIRECTION('center_axis',(0.,1.,0.));
#1651=DIRECTION('ref_axis',(0.,0.,-1.));
#1652=DIRECTION('',(0.,0.,1.));
#1653=DIRECTION('center_axis',(0.,0.,1.));
#1654=DIRECTION('ref_axis',(0.,1.,0.));
#1655=DIRECTION('',(0.,-1.,0.));
#1656=DIRECTION('',(-1.,0.,0.));
#1657=DIRECTION('center_axis',(0.,1.,0.));
#1658=DIRECTION('ref_axis',(0.,0.,-1.));
#1659=DIRECTION('',(0.,0.,1.));
#1660=DIRECTION('center_axis',(-1.,0.,0.));
#1661=DIRECTION('ref_axis',(0.,-1.,0.));
#1662=DIRECTION('',(0.,0.,1.));
#1663=DIRECTION('',(0.,-1.,0.));
#1664=DIRECTION('',(0.,0.,-1.));
#1665=DIRECTION('',(0.,1.,0.));
#1666=DIRECTION('center_axis',(-1.,0.,0.));
#1667=DIRECTION('ref_axis',(0.,-1.,0.));
#1668=DIRECTION('',(0.,1.46081976924363E-16,1.));
#1669=DIRECTION('',(0.,-1.,0.));
#1670=DIRECTION('',(0.,0.,-1.));
#1671=DIRECTION('',(0.,1.,0.));
#1672=DIRECTION('center_axis',(-1.,0.,0.));
#1673=DIRECTION('ref_axis',(0.,-1.,0.));
#1674=DIRECTION('',(0.,0.,1.));
#1675=DIRECTION('',(0.,-1.,0.));
#1676=DIRECTION('',(0.,-1.46081976924363E-16,-1.));
#1677=DIRECTION('',(0.,1.,0.));
#1678=DIRECTION('center_axis',(0.,-1.,0.));
#1679=DIRECTION('ref_axis',(0.,0.,1.));
#1680=DIRECTION('',(0.,0.,-1.));
#1681=DIRECTION('',(-1.,0.,0.));
#1682=DIRECTION('',(0.,0.,1.));
#1683=DIRECTION('',(-1.,0.,0.));
#1684=DIRECTION('center_axis',(0.,0.,-1.));
#1685=DIRECTION('ref_axis',(0.,-1.,0.));
#1686=DIRECTION('',(0.,1.,0.));
#1687=DIRECTION('',(0.,-1.,0.));
#1688=DIRECTION('',(-1.,0.,0.));
#1689=DIRECTION('',(0.,1.,0.));
#1690=DIRECTION('',(0.,1.,0.));
#1691=DIRECTION('',(0.,1.,0.));
#1692=DIRECTION('',(0.,1.,0.));
#1693=DIRECTION('',(0.,1.,0.));
#1694=DIRECTION('center_axis',(-1.,0.,0.));
#1695=DIRECTION('ref_axis',(0.,0.,1.));
#1696=DIRECTION('',(0.,1.,0.));
#1697=DIRECTION('',(0.,0.,-1.));
#1698=DIRECTION('center_axis',(-1.,0.,0.));
#1699=DIRECTION('ref_axis',(0.,-1.,0.));
#1700=DIRECTION('',(0.,0.,1.));
#1701=DIRECTION('',(0.,-1.,0.));
#1702=DIRECTION('',(0.,0.,-1.));
#1703=DIRECTION('center_axis',(0.,-1.,0.));
#1704=DIRECTION('ref_axis',(0.,0.,1.));
#1705=DIRECTION('',(0.,0.,1.));
#1706=DIRECTION('',(-1.,0.,0.));
#1707=DIRECTION('',(0.,0.,1.));
#1708=DIRECTION('',(-1.,0.,0.));
#1709=DIRECTION('center_axis',(0.,0.,-1.));
#1710=DIRECTION('ref_axis',(0.,-1.,0.));
#1711=DIRECTION('',(0.,-1.,0.));
#1712=DIRECTION('',(0.,-1.,0.));
#1713=DIRECTION('',(-1.,0.,0.));
#1714=DIRECTION('center_axis',(0.,1.,0.));
#1715=DIRECTION('ref_axis',(0.,0.,-1.));
#1716=DIRECTION('',(0.,0.,-1.));
#1717=DIRECTION('',(0.,0.,-1.));
#1718=DIRECTION('',(-1.,0.,0.));
#1719=DIRECTION('center_axis',(-1.,0.,0.));
#1720=DIRECTION('ref_axis',(0.,0.,1.));
#1721=DIRECTION('',(0.,1.,0.));
#1722=DIRECTION('center_axis',(-1.,0.,0.));
#1723=DIRECTION('ref_axis',(0.,-1.,0.));
#1724=DIRECTION('',(0.,1.,0.));
#1725=DIRECTION('center_axis',(0.,-1.,0.));
#1726=DIRECTION('ref_axis',(0.,0.,1.));
#1727=DIRECTION('',(0.,0.,1.));
#1728=DIRECTION('',(-1.,0.,0.));
#1729=DIRECTION('',(0.,0.,1.));
#1730=DIRECTION('',(-1.,0.,0.));
#1731=DIRECTION('center_axis',(0.,0.,-1.));
#1732=DIRECTION('ref_axis',(0.,-1.,0.));
#1733=DIRECTION('',(0.,-1.,0.));
#1734=DIRECTION('',(0.,-1.,0.));
#1735=DIRECTION('',(-1.,0.,0.));
#1736=DIRECTION('center_axis',(0.,1.,0.));
#1737=DIRECTION('ref_axis',(0.,0.,-1.));
#1738=DIRECTION('',(0.,0.,-1.));
#1739=DIRECTION('',(0.,0.,-1.));
#1740=DIRECTION('',(-1.,0.,0.));
#1741=DIRECTION('center_axis',(-1.,0.,0.));
#1742=DIRECTION('ref_axis',(0.,0.,1.));
#1743=DIRECTION('center_axis',(-1.,0.,0.));
#1744=DIRECTION('ref_axis',(0.,-1.,0.));
#1745=DIRECTION('',(0.,1.,0.));
#1746=DIRECTION('center_axis',(0.,-1.,1.46081976924363E-16));
#1747=DIRECTION('ref_axis',(0.,1.46081976924363E-16,1.));
#1748=DIRECTION('',(0.,1.46081976924363E-16,1.));
#1749=DIRECTION('',(-1.,0.,0.));
#1750=DIRECTION('',(0.,1.46081976924363E-16,1.));
#1751=DIRECTION('',(-1.,0.,0.));
#1752=DIRECTION('center_axis',(0.,0.,-1.));
#1753=DIRECTION('ref_axis',(0.,-1.,0.));
#1754=DIRECTION('',(0.,-1.,0.));
#1755=DIRECTION('',(0.,-1.,0.));
#1756=DIRECTION('',(-1.,0.,0.));
#1757=DIRECTION('center_axis',(0.,1.,-1.46081976924363E-16));
#1758=DIRECTION('ref_axis',(0.,-1.46081976924363E-16,-1.));
#1759=DIRECTION('',(0.,-1.46081976924363E-16,-1.));
#1760=DIRECTION('',(0.,-1.46081976924363E-16,-1.));
#1761=DIRECTION('',(-1.,0.,0.));
#1762=DIRECTION('center_axis',(-1.,0.,0.));
#1763=DIRECTION('ref_axis',(0.,0.,1.));
#1764=DIRECTION('center_axis',(-1.,0.,0.));
#1765=DIRECTION('ref_axis',(0.,-1.,0.));
#1766=DIRECTION('',(0.,1.,0.));
#1767=DIRECTION('center_axis',(0.,-1.,0.));
#1768=DIRECTION('ref_axis',(0.,0.,1.));
#1769=DIRECTION('',(0.,0.,-1.));
#1770=DIRECTION('',(-1.,0.,0.));
#1771=DIRECTION('',(0.,0.,1.));
#1772=DIRECTION('',(-1.,0.,0.));
#1773=DIRECTION('center_axis',(0.,0.,-1.));
#1774=DIRECTION('ref_axis',(0.,-1.,0.));
#1775=DIRECTION('',(0.,1.,0.));
#1776=DIRECTION('',(0.,-1.,0.));
#1777=DIRECTION('',(-1.,0.,0.));
#1778=DIRECTION('center_axis',(0.,1.,0.));
#1779=DIRECTION('ref_axis',(0.,0.,-1.));
#1780=DIRECTION('',(0.,0.,1.));
#1781=DIRECTION('',(0.,0.,-1.));
#1782=DIRECTION('',(-1.,0.,0.));
#1783=DIRECTION('center_axis',(-1.,0.,0.));
#1784=DIRECTION('ref_axis',(0.,0.,1.));
#1785=DIRECTION('center_axis',(-1.,0.,0.));
#1786=DIRECTION('ref_axis',(0.,-1.,0.));
#1787=DIRECTION('',(0.,-1.,0.));
#1788=DIRECTION('center_axis',(-1.,0.,0.));
#1789=DIRECTION('ref_axis',(0.,0.,1.));
#1790=DIRECTION('',(0.,0.,-1.));
#1791=DIRECTION('',(0.,-1.,0.));
#1792=DIRECTION('',(0.,0.,1.));
#1793=DIRECTION('center_axis',(0.,0.,1.));
#1794=DIRECTION('ref_axis',(0.,1.,0.));
#1795=DIRECTION('',(0.,1.,0.));
#1796=DIRECTION('',(-1.,0.,0.));
#1797=DIRECTION('',(-1.,0.,0.));
#1798=DIRECTION('center_axis',(0.,-1.,0.));
#1799=DIRECTION('ref_axis',(0.,0.,1.));
#1800=DIRECTION('',(0.,0.,1.));
#1801=DIRECTION('',(-1.,0.,0.));
#1802=DIRECTION('center_axis',(0.,0.,-1.));
#1803=DIRECTION('ref_axis',(0.,-1.,0.));
#1804=DIRECTION('',(0.,-1.,0.));
#1805=DIRECTION('',(-1.,0.,0.));
#1806=DIRECTION('center_axis',(0.,1.,0.));
#1807=DIRECTION('ref_axis',(0.,0.,-1.));
#1808=DIRECTION('',(0.,0.,-1.));
#1809=DIRECTION('center_axis',(-1.,0.,0.));
#1810=DIRECTION('ref_axis',(0.,-1.,0.));
#1811=CARTESIAN_POINT('',(0.,0.,0.));
#1812=CARTESIAN_POINT('Origin',(-95.7998201025637,-11.85,5.61764853998156));
#1813=CARTESIAN_POINT('',(-95.9998201025637,-15.2,5.81764853998156));
#1814=CARTESIAN_POINT('',(-95.9998201025637,-11.,5.81764853998156));
#1815=CARTESIAN_POINT('',(-95.9998201025637,-11.85,5.81764853998156));
#1816=CARTESIAN_POINT('',(-95.5998201025637,-10.6,5.41764853998156));
#1817=CARTESIAN_POINT('',(-95.9998201025637,-11.,5.81764853998156));
#1818=CARTESIAN_POINT('',(-95.5998201025637,-15.6,5.41764853998156));
#1819=CARTESIAN_POINT('',(-95.5998201025637,-11.85,5.41764853998156));
#1820=CARTESIAN_POINT('',(-95.9998201025637,-15.2,5.81764853998156));
#1821=CARTESIAN_POINT('Origin',(-95.7998201025637,-10.8,7.96764853998156));
#1822=CARTESIAN_POINT('',(-95.9998201025637,-11.,8.41764853998156));
#1823=CARTESIAN_POINT('',(-95.9998201025637,-11.,7.96764853998156));
#1824=CARTESIAN_POINT('',(-95.5998201025637,-10.6,8.81764853998156));
#1825=CARTESIAN_POINT('',(-95.9998201025637,-11.,8.41764853998156));
#1826=CARTESIAN_POINT('',(-95.5998201025637,-10.6,7.96764853998156));
#1827=CARTESIAN_POINT('Origin',(-95.7998201025637,-14.35,8.61764853998156));
#1828=CARTESIAN_POINT('',(-95.9998201025637,-15.2,8.41764853998156));
#1829=CARTESIAN_POINT('',(-95.9998201025637,-14.35,8.41764853998156));
#1830=CARTESIAN_POINT('',(-95.5998201025637,-15.6,8.81764853998156));
#1831=CARTESIAN_POINT('',(-95.9998201025637,-15.2,8.41764853998156));
#1832=CARTESIAN_POINT('',(-95.5998201025637,-14.35,8.81764853998156));
#1833=CARTESIAN_POINT('Origin',(-95.7998201025637,-15.4,6.26764853998156));
#1834=CARTESIAN_POINT('',(-95.5998201025637,-15.6,6.26764853998156));
#1835=CARTESIAN_POINT('',(-95.9998201025637,-15.2,6.26764853998156));
#1836=CARTESIAN_POINT('Origin',(-91.9998201025637,-15.6,5.41764853998156));
#1837=CARTESIAN_POINT('',(-91.9998201025637,-15.6,5.41764853998156));
#1838=CARTESIAN_POINT('',(-91.9998201025637,-15.6,5.41764853998156));
#1839=CARTESIAN_POINT('',(-91.9998201025637,-15.6,8.81764853998156));
#1840=CARTESIAN_POINT('',(-91.9998201025637,-15.6,6.26868235513317));
#1841=CARTESIAN_POINT('',(-91.9998201025637,-15.6,8.81764853998156));
#1842=CARTESIAN_POINT('Origin',(-91.9998201025637,-10.6,5.41764853998156));
#1843=CARTESIAN_POINT('',(-91.9998201025637,-10.6,5.41764853998156));
#1844=CARTESIAN_POINT('',(-91.9998201025637,-10.6,5.41764853998156));
#1845=CARTESIAN_POINT('',(-91.9998201025637,-5.34671592856239,5.41764853998156));
#1846=CARTESIAN_POINT('Origin',(-95.9998201025637,-13.1,7.11764853998156));
#1847=CARTESIAN_POINT('Origin',(-95.7998201025637,-24.85,5.61764853998156));
#1848=CARTESIAN_POINT('',(-95.9998201025637,-28.2,5.81764853998156));
#1849=CARTESIAN_POINT('',(-95.9998201025637,-24.,5.81764853998156));
#1850=CARTESIAN_POINT('',(-95.9998201025637,-24.85,5.81764853998156));
#1851=CARTESIAN_POINT('',(-95.5998201025637,-23.6,5.41764853998156));
#1852=CARTESIAN_POINT('',(-95.9998201025637,-24.,5.81764853998156));
#1853=CARTESIAN_POINT('',(-95.5998201025637,-28.6,5.41764853998156));
#1854=CARTESIAN_POINT('',(-95.5998201025637,-24.85,5.41764853998156));
#1855=CARTESIAN_POINT('',(-95.9998201025637,-28.2,5.81764853998156));
#1856=CARTESIAN_POINT('Origin',(-95.7998201025637,-23.8,7.96764853998156));
#1857=CARTESIAN_POINT('',(-95.9998201025637,-24.,8.41764853998156));
#1858=CARTESIAN_POINT('',(-95.9998201025637,-24.,7.96764853998156));
#1859=CARTESIAN_POINT('',(-95.5998201025637,-23.6,8.81764853998156));
#1860=CARTESIAN_POINT('',(-95.9998201025637,-24.,8.41764853998156));
#1861=CARTESIAN_POINT('',(-95.5998201025637,-23.6,7.96764853998156));
#1862=CARTESIAN_POINT('Origin',(-95.7998201025637,-27.35,8.61764853998156));
#1863=CARTESIAN_POINT('',(-95.9998201025637,-28.2,8.41764853998156));
#1864=CARTESIAN_POINT('',(-95.9998201025637,-27.35,8.41764853998156));
#1865=CARTESIAN_POINT('',(-95.5998201025637,-28.6,8.81764853998156));
#1866=CARTESIAN_POINT('',(-95.9998201025637,-28.2,8.41764853998156));
#1867=CARTESIAN_POINT('',(-95.5998201025637,-27.35,8.81764853998156));
#1868=CARTESIAN_POINT('Origin',(-95.7998201025637,-28.4,6.26764853998156));
#1869=CARTESIAN_POINT('',(-95.5998201025637,-28.6,6.26764853998156));
#1870=CARTESIAN_POINT('',(-95.9998201025637,-28.2,6.26764853998156));
#1871=CARTESIAN_POINT('Origin',(-91.9998201025637,-28.6,5.41764853998156));
#1872=CARTESIAN_POINT('',(-91.9998201025637,-28.6,5.41764853998156));
#1873=CARTESIAN_POINT('',(-91.9998201025637,-28.6,5.41764853998156));
#1874=CARTESIAN_POINT('',(-91.9998201025637,-28.6,8.81764853998156));
#1875=CARTESIAN_POINT('',(-91.9998201025637,-28.6,6.26868235513317));
#1876=CARTESIAN_POINT('',(-91.9998201025637,-28.6,8.81764853998156));
#1877=CARTESIAN_POINT('Origin',(-91.9998201025637,-23.6,5.41764853998156));
#1878=CARTESIAN_POINT('',(-91.9998201025637,-23.6,5.41764853998156));
#1879=CARTESIAN_POINT('',(-91.9998201025637,-23.6,5.41764853998156));
#1880=CARTESIAN_POINT('',(-91.9998201025637,-11.8467159285624,5.41764853998156));
#1881=CARTESIAN_POINT('Origin',(-95.9998201025637,-26.1,7.11764853998156));
#1882=CARTESIAN_POINT('Origin',(-95.7998201025637,14.15,5.61764853998156));
#1883=CARTESIAN_POINT('',(-95.9998201025637,10.8,5.81764853998156));
#1884=CARTESIAN_POINT('',(-95.9998201025637,15.,5.81764853998156));
#1885=CARTESIAN_POINT('',(-95.9998201025637,14.15,5.81764853998156));
#1886=CARTESIAN_POINT('',(-95.5998201025637,15.4,5.41764853998156));
#1887=CARTESIAN_POINT('',(-95.9998201025637,15.,5.81764853998156));
#1888=CARTESIAN_POINT('',(-95.5998201025637,10.4,5.41764853998156));
#1889=CARTESIAN_POINT('',(-95.5998201025637,14.15,5.41764853998156));
#1890=CARTESIAN_POINT('',(-95.9998201025637,10.8,5.81764853998156));
#1891=CARTESIAN_POINT('Origin',(-95.7998201025637,15.2,7.96764853998156));
#1892=CARTESIAN_POINT('',(-95.9998201025637,15.,8.41764853998156));
#1893=CARTESIAN_POINT('',(-95.9998201025637,15.,7.96764853998156));
#1894=CARTESIAN_POINT('',(-95.5998201025637,15.4,8.81764853998156));
#1895=CARTESIAN_POINT('',(-95.9998201025637,15.,8.41764853998156));
#1896=CARTESIAN_POINT('',(-95.5998201025637,15.4,7.96764853998156));
#1897=CARTESIAN_POINT('Origin',(-95.7998201025637,11.65,8.61764853998156));
#1898=CARTESIAN_POINT('',(-95.9998201025637,10.8,8.41764853998156));
#1899=CARTESIAN_POINT('',(-95.9998201025637,11.65,8.41764853998156));
#1900=CARTESIAN_POINT('',(-95.5998201025637,10.4,8.81764853998156));
#1901=CARTESIAN_POINT('',(-95.9998201025637,10.8,8.41764853998156));
#1902=CARTESIAN_POINT('',(-95.5998201025637,11.65,8.81764853998156));
#1903=CARTESIAN_POINT('Origin',(-95.7998201025637,10.6,6.26764853998156));
#1904=CARTESIAN_POINT('',(-95.5998201025637,10.4,6.26764853998156));
#1905=CARTESIAN_POINT('',(-95.9998201025637,10.8,6.26764853998156));
#1906=CARTESIAN_POINT('Origin',(-91.9998201025637,10.4,5.41764853998156));
#1907=CARTESIAN_POINT('',(-91.9998201025637,10.4,5.41764853998156));
#1908=CARTESIAN_POINT('',(-91.9998201025637,10.4,5.41764853998156));
#1909=CARTESIAN_POINT('',(-91.9998201025637,10.4,8.81764853998156));
#1910=CARTESIAN_POINT('',(-91.9998201025637,10.4,6.26868235513317));
#1911=CARTESIAN_POINT('',(-91.9998201025637,10.4,8.81764853998156));
#1912=CARTESIAN_POINT('Origin',(-91.9998201025637,15.4,5.41764853998156));
#1913=CARTESIAN_POINT('',(-91.9998201025637,15.4,5.41764853998156));
#1914=CARTESIAN_POINT('',(-91.9998201025637,15.4,5.41764853998156));
#1915=CARTESIAN_POINT('',(-91.9998201025637,7.65328407143762,5.41764853998156));
#1916=CARTESIAN_POINT('Origin',(-95.9998201025637,12.9,7.11764853998156));
#1917=CARTESIAN_POINT('Origin',(-95.7998201025637,1.15,5.61764853998156));
#1918=CARTESIAN_POINT('',(-95.9998201025637,-2.2,5.81764853998156));
#1919=CARTESIAN_POINT('',(-95.9998201025637,2.,5.81764853998156));
#1920=CARTESIAN_POINT('',(-95.9998201025637,1.15,5.81764853998156));
#1921=CARTESIAN_POINT('',(-95.5998201025637,2.4,5.41764853998156));
#1922=CARTESIAN_POINT('',(-95.9998201025637,2.,5.81764853998156));
#1923=CARTESIAN_POINT('',(-95.5998201025637,-2.6,5.41764853998156));
#1924=CARTESIAN_POINT('',(-95.5998201025637,1.15,5.41764853998156));
#1925=CARTESIAN_POINT('',(-95.9998201025637,-2.2,5.81764853998156));
#1926=CARTESIAN_POINT('Origin',(-95.7998201025637,2.2,7.96764853998156));
#1927=CARTESIAN_POINT('',(-95.9998201025637,2.,8.41764853998156));
#1928=CARTESIAN_POINT('',(-95.9998201025637,2.,7.96764853998156));
#1929=CARTESIAN_POINT('',(-95.5998201025637,2.4,8.81764853998156));
#1930=CARTESIAN_POINT('',(-95.9998201025637,2.,8.41764853998156));
#1931=CARTESIAN_POINT('',(-95.5998201025637,2.4,7.96764853998156));
#1932=CARTESIAN_POINT('Origin',(-95.7998201025637,-1.35,8.61764853998156));
#1933=CARTESIAN_POINT('',(-95.9998201025637,-2.2,8.41764853998156));
#1934=CARTESIAN_POINT('',(-95.9998201025637,-1.35,8.41764853998156));
#1935=CARTESIAN_POINT('',(-95.5998201025637,-2.6,8.81764853998156));
#1936=CARTESIAN_POINT('',(-95.9998201025637,-2.2,8.41764853998156));
#1937=CARTESIAN_POINT('',(-95.5998201025637,-1.35,8.81764853998156));
#1938=CARTESIAN_POINT('Origin',(-95.7998201025637,-2.4,6.26764853998156));
#1939=CARTESIAN_POINT('',(-95.5998201025637,-2.6,6.26764853998156));
#1940=CARTESIAN_POINT('',(-95.9998201025637,-2.2,6.26764853998156));
#1941=CARTESIAN_POINT('Origin',(-91.9998201025637,-2.6,5.41764853998156));
#1942=CARTESIAN_POINT('',(-91.9998201025637,-2.6,5.41764853998156));
#1943=CARTESIAN_POINT('',(-91.9998201025637,-2.6,5.41764853998156));
#1944=CARTESIAN_POINT('',(-91.9998201025637,-2.6,8.81764853998156));
#1945=CARTESIAN_POINT('',(-91.9998201025637,-2.6,6.26868235513317));
#1946=CARTESIAN_POINT('',(-91.9998201025637,-2.6,8.81764853998156));
#1947=CARTESIAN_POINT('Origin',(-91.9998201025637,2.4,5.41764853998156));
#1948=CARTESIAN_POINT('',(-91.9998201025637,2.4,5.41764853998156));
#1949=CARTESIAN_POINT('',(-91.9998201025637,2.4,5.41764853998156));
#1950=CARTESIAN_POINT('',(-91.9998201025637,1.15328407143761,5.41764853998156));
#1951=CARTESIAN_POINT('Origin',(-95.9998201025637,-0.1,7.11764853998156));
#1952=CARTESIAN_POINT('Origin',(-95.7998201025637,27.15,5.61764853998156));
#1953=CARTESIAN_POINT('',(-95.9998201025637,23.8,5.81764853998156));
#1954=CARTESIAN_POINT('',(-95.9998201025637,28.,5.81764853998156));
#1955=CARTESIAN_POINT('',(-95.9998201025637,27.15,5.81764853998156));
#1956=CARTESIAN_POINT('',(-95.5998201025637,28.4,5.41764853998156));
#1957=CARTESIAN_POINT('',(-95.9998201025637,28.,5.81764853998156));
#1958=CARTESIAN_POINT('',(-95.5998201025637,23.4,5.41764853998156));
#1959=CARTESIAN_POINT('',(-95.5998201025637,27.15,5.41764853998156));
#1960=CARTESIAN_POINT('',(-95.9998201025637,23.8,5.81764853998156));
#1961=CARTESIAN_POINT('Origin',(-95.7998201025637,28.2,7.96764853998156));
#1962=CARTESIAN_POINT('',(-95.9998201025637,28.,8.41764853998156));
#1963=CARTESIAN_POINT('',(-95.9998201025637,28.,7.96764853998156));
#1964=CARTESIAN_POINT('',(-95.5998201025637,28.4,8.81764853998156));
#1965=CARTESIAN_POINT('',(-95.9998201025637,28.,8.41764853998156));
#1966=CARTESIAN_POINT('',(-95.5998201025637,28.4,7.96764853998156));
#1967=CARTESIAN_POINT('Origin',(-95.7998201025637,24.65,8.61764853998156));
#1968=CARTESIAN_POINT('',(-95.9998201025637,23.8,8.41764853998156));
#1969=CARTESIAN_POINT('',(-95.9998201025637,24.65,8.41764853998156));
#1970=CARTESIAN_POINT('',(-95.5998201025637,23.4,8.81764853998156));
#1971=CARTESIAN_POINT('',(-95.9998201025637,23.8,8.41764853998156));
#1972=CARTESIAN_POINT('',(-95.5998201025637,24.65,8.81764853998156));
#1973=CARTESIAN_POINT('Origin',(-95.7998201025637,23.6,6.26764853998156));
#1974=CARTESIAN_POINT('',(-95.5998201025637,23.4,6.26764853998156));
#1975=CARTESIAN_POINT('',(-95.9998201025637,23.8,6.26764853998156));
#1976=CARTESIAN_POINT('Origin',(-91.9998201025637,23.4,5.41764853998156));
#1977=CARTESIAN_POINT('',(-91.9998201025637,23.4,5.41764853998156));
#1978=CARTESIAN_POINT('',(-91.9998201025637,23.4,5.41764853998156));
#1979=CARTESIAN_POINT('',(-91.9998201025637,23.4,8.81764853998156));
#1980=CARTESIAN_POINT('',(-91.9998201025637,23.4,6.26868235513317));
#1981=CARTESIAN_POINT('',(-91.9998201025637,23.4,8.81764853998156));
#1982=CARTESIAN_POINT('Origin',(-91.9998201025637,28.4,5.41764853998156));
#1983=CARTESIAN_POINT('',(-91.9998201025637,28.4,5.41764853998156));
#1984=CARTESIAN_POINT('',(-91.9998201025637,28.4,5.41764853998156));
#1985=CARTESIAN_POINT('',(-91.9998201025637,14.1532840714376,5.41764853998156));
#1986=CARTESIAN_POINT('Origin',(-95.9998201025637,25.9,7.11764853998156));
#1987=CARTESIAN_POINT('Origin',(-91.9998201025637,10.4,8.81764853998156));
#1988=CARTESIAN_POINT('',(-91.9998201025637,15.4,8.81764853998156));
#1989=CARTESIAN_POINT('',(-91.9998201025637,5.15328407143761,8.81764853998155));
#1990=CARTESIAN_POINT('',(-91.9998201025637,15.4,8.81764853998156));
#1991=CARTESIAN_POINT('Origin',(-91.9998201025637,15.4,8.81764853998156));
#1992=CARTESIAN_POINT('',(-91.9998201025637,15.4,7.96868235513317));
#1993=CARTESIAN_POINT('Origin',(-91.9998201025637,-2.6,8.81764853998156));
#1994=CARTESIAN_POINT('',(-91.9998201025637,2.4,8.81764853998156));
#1995=CARTESIAN_POINT('',(-91.9998201025637,-1.34671592856239,8.81764853998155));
#1996=CARTESIAN_POINT('',(-91.9998201025637,2.4,8.81764853998156));
#1997=CARTESIAN_POINT('Origin',(-91.9998201025637,2.4,8.81764853998156));
#1998=CARTESIAN_POINT('',(-91.9998201025637,2.4,7.96868235513317));
#1999=CARTESIAN_POINT('Origin',(-91.9998201025637,23.4,8.81764853998156));
#2000=CARTESIAN_POINT('',(-91.9998201025637,28.4,8.81764853998156));
#2001=CARTESIAN_POINT('',(-91.9998201025637,11.6532840714376,8.81764853998155));
#2002=CARTESIAN_POINT('',(-91.9998201025637,28.4,8.81764853998156));
#2003=CARTESIAN_POINT('Origin',(-91.9998201025637,28.4,8.81764853998156));
#2004=CARTESIAN_POINT('',(-91.9998201025637,28.4,7.96868235513317));
#2005=CARTESIAN_POINT('Origin',(-91.9998201025637,-15.6,8.81764853998156));
#2006=CARTESIAN_POINT('',(-91.9998201025637,-10.6,8.81764853998156));
#2007=CARTESIAN_POINT('',(-91.9998201025637,-7.84671592856239,8.81764853998155));
#2008=CARTESIAN_POINT('',(-91.9998201025637,-10.6,8.81764853998156));
#2009=CARTESIAN_POINT('Origin',(-91.9998201025637,-10.6,8.81764853998156));
#2010=CARTESIAN_POINT('',(-91.9998201025637,-10.6,7.96868235513317));
#2011=CARTESIAN_POINT('Origin',(-91.9998201025637,-28.6,8.81764853998156));
#2012=CARTESIAN_POINT('',(-91.9998201025637,-23.6,8.81764853998156));
#2013=CARTESIAN_POINT('',(-91.9998201025637,-14.3467159285624,8.81764853998155));
#2014=CARTESIAN_POINT('',(-91.9998201025637,-23.6,8.81764853998156));
#2015=CARTESIAN_POINT('Origin',(-91.9998201025637,-23.6,8.81764853998156));
#2016=CARTESIAN_POINT('',(-91.9998201025637,-23.6,7.96868235513317));
#2017=CARTESIAN_POINT('Origin',(-88.9998201025637,-0.0934318571247728,7.11971617028479));
#2018=CARTESIAN_POINT('',(-88.9998201025637,-15.8,5.22178380058804));
#2019=CARTESIAN_POINT('',(-88.9998201025637,-15.8,9.01764853998155));
#2020=CARTESIAN_POINT('',(-88.9998201025637,-15.8,5.21764853998155));
#2021=CARTESIAN_POINT('',(-88.9998201025637,-23.4,9.01764853998155));
#2022=CARTESIAN_POINT('',(-88.9998201025637,28.6,9.01764853998155));
#2023=CARTESIAN_POINT('',(-88.9998201025637,-23.4,5.22178380058804));
#2024=CARTESIAN_POINT('',(-88.9998201025637,-23.4,9.01764853998155));
#2025=CARTESIAN_POINT('',(-88.9998201025637,-28.7868637142495,5.22178380058804));
#2026=CARTESIAN_POINT('Origin',(-88.9998201025637,-0.0934318571247728,7.11971617028479));
#2027=CARTESIAN_POINT('',(-88.9998201025637,-2.8,5.22178380058804));
#2028=CARTESIAN_POINT('',(-88.9998201025637,-2.8,9.01764853998155));
#2029=CARTESIAN_POINT('',(-88.9998201025637,-2.8,5.21764853998155));
#2030=CARTESIAN_POINT('',(-88.9998201025637,-10.4,9.01764853998155));
#2031=CARTESIAN_POINT('',(-88.9998201025637,28.6,9.01764853998155));
#2032=CARTESIAN_POINT('',(-88.9998201025637,-10.4,5.22178380058804));
#2033=CARTESIAN_POINT('',(-88.9998201025637,-10.4,9.01764853998155));
#2034=CARTESIAN_POINT('',(-88.9998201025637,-28.7868637142495,5.22178380058804));
#2035=CARTESIAN_POINT('Origin',(-88.9998201025637,-0.0934318571247728,7.11971617028479));
#2036=CARTESIAN_POINT('',(-88.9998201025637,10.2,5.22178380058804));
#2037=CARTESIAN_POINT('',(-88.9998201025637,10.2,9.01764853998155));
#2038=CARTESIAN_POINT('',(-88.9998201025637,10.2,9.01764853998155));
#2039=CARTESIAN_POINT('',(-88.9998201025637,2.6,9.01764853998155));
#2040=CARTESIAN_POINT('',(-88.9998201025637,28.6,9.01764853998155));
#2041=CARTESIAN_POINT('',(-88.9998201025637,2.6,5.22178380058804));
#2042=CARTESIAN_POINT('',(-88.9998201025637,2.6,9.01764853998155));
#2043=CARTESIAN_POINT('',(-88.9998201025637,-28.7868637142495,5.22178380058804));
#2044=CARTESIAN_POINT('Origin',(-88.9998201025637,-28.7868637142495,5.22178380058804));
#2045=CARTESIAN_POINT('',(-88.9998201025637,-28.7868637142495,9.01764853998155));
#2046=CARTESIAN_POINT('',(-88.9998201025637,-28.7868637142495,5.22178380058804));
#2047=CARTESIAN_POINT('',(-88.9998201025637,-28.7868637142495,6.16971617028479));
#2048=CARTESIAN_POINT('',(-91.9998201025637,-28.7868637142495,9.01764853998155));
#2049=CARTESIAN_POINT('',(-88.9998201025637,-28.7868637142495,9.01764853998155));
#2050=CARTESIAN_POINT('',(-91.9998201025637,-28.7868637142495,5.22178380058804));
#2051=CARTESIAN_POINT('',(-91.9998201025637,-28.7868637142495,9.01764853998155));
#2052=CARTESIAN_POINT('',(-88.9998201025637,-28.7868637142495,5.22178380058804));
#2053=CARTESIAN_POINT('Origin',(-88.9998201025637,28.6,5.22178380058804));
#2054=CARTESIAN_POINT('',(-88.9998201025637,1.25,5.22178380058804));
#2055=CARTESIAN_POINT('',(-91.9998201025637,28.6,5.22178380058804));
#2056=CARTESIAN_POINT('',(-91.9998201025637,-28.7868637142495,5.22178380058804));
#2057=CARTESIAN_POINT('',(-88.9998201025637,28.6,5.22178380058804));
#2058=CARTESIAN_POINT('',(-88.9998201025637,28.6,5.22178380058804));
#2059=CARTESIAN_POINT('',(-88.9998201025637,23.2,5.22178380058804));
#2060=CARTESIAN_POINT('',(-88.9998201025637,27.25,5.22178380058804));
#2061=CARTESIAN_POINT('',(-88.9998201025637,15.6,5.22178380058804));
#2062=CARTESIAN_POINT('',(-88.9998201025637,-28.7868637142495,5.22178380058804));
#2063=CARTESIAN_POINT('',(-88.9998201025637,20.75,5.22178380058804));
#2064=CARTESIAN_POINT('',(-88.9998201025637,14.25,5.22178380058804));
#2065=CARTESIAN_POINT('',(-88.9998201025637,7.75,5.22178380058804));
#2066=CARTESIAN_POINT('Origin',(-91.9998201025637,-0.0934318571247728,7.11971617028479));
#2067=CARTESIAN_POINT('',(-91.9998201025637,28.6,9.01764853998155));
#2068=CARTESIAN_POINT('',(-91.9998201025637,28.6,9.01764853998155));
#2069=CARTESIAN_POINT('',(-91.9998201025637,28.6,5.22178380058804));
#2070=CARTESIAN_POINT('Origin',(-88.9998201025637,-0.0934318571247728,7.11971617028479));
#2071=CARTESIAN_POINT('',(-88.9998201025637,23.2,9.01764853998155));
#2072=CARTESIAN_POINT('',(-88.9998201025637,23.2,5.21764853998155));
#2073=CARTESIAN_POINT('',(-88.9998201025637,15.6,9.01764853998155));
#2074=CARTESIAN_POINT('',(-88.9998201025637,28.6,9.01764853998155));
#2075=CARTESIAN_POINT('',(-88.9998201025637,15.6,5.21764853998155));
#2076=CARTESIAN_POINT('Origin',(-83.4998201025637,-28.8,5.21764853998155));
#2077=CARTESIAN_POINT('',(-83.4998201025637,-28.8,5.21764853998155));
#2078=CARTESIAN_POINT('',(-83.4998201025637,-28.8,9.01764853998155));
#2079=CARTESIAN_POINT('',(-83.4998201025637,-28.8,5.21764853998155));
#2080=CARTESIAN_POINT('',(-88.9998201025637,-28.8,9.01764853998155));
#2081=CARTESIAN_POINT('',(-83.4998201025637,-28.8,9.01764853998155));
#2082=CARTESIAN_POINT('',(-88.9998201025637,-28.8,5.21764853998155));
#2083=CARTESIAN_POINT('',(-88.9998201025637,-28.8,5.21764853998155));
#2084=CARTESIAN_POINT('',(-83.4998201025637,-28.8,5.21764853998155));
#2085=CARTESIAN_POINT('Origin',(-83.4998201025637,-23.4,5.21764853998155));
#2086=CARTESIAN_POINT('',(-83.4998201025637,-23.4,5.21764853998155));
#2087=CARTESIAN_POINT('',(-83.4998201025637,-23.4,5.21764853998155));
#2088=CARTESIAN_POINT('',(-88.9998201025637,-23.4,5.21764853998155));
#2089=CARTESIAN_POINT('',(-88.9998201025637,-23.4,5.21764853998155));
#2090=CARTESIAN_POINT('',(-83.4998201025637,-23.4,5.21764853998155));
#2091=CARTESIAN_POINT('Origin',(-83.4998201025637,-23.4,9.01764853998155));
#2092=CARTESIAN_POINT('',(-83.4998201025637,-23.4,9.01764853998155));
#2093=CARTESIAN_POINT('',(-83.4998201025637,-23.4,9.01764853998155));
#2094=CARTESIAN_POINT('',(-88.9998201025637,-23.4,9.01764853998155));
#2095=CARTESIAN_POINT('',(-83.4998201025637,-23.4,9.01764853998155));
#2096=CARTESIAN_POINT('Origin',(-88.9998201025637,-26.1,7.11764853998155));
#2097=CARTESIAN_POINT('',(-88.9998201025637,-28.8,9.01764853998155));
#2098=CARTESIAN_POINT('Origin',(-83.4998201025637,-26.1,7.11764853998155));
#2099=CARTESIAN_POINT('',(-83.4998201025637,-28.8,9.01764853998155));
#2100=CARTESIAN_POINT('Origin',(-83.4998201025637,-15.8,5.21764853998155));
#2101=CARTESIAN_POINT('',(-83.4998201025637,-15.8,5.21764853998155));
#2102=CARTESIAN_POINT('',(-83.4998201025637,-15.8,9.01764853998155));
#2103=CARTESIAN_POINT('',(-83.4998201025637,-15.8,5.21764853998155));
#2104=CARTESIAN_POINT('',(-83.4998201025637,-15.8,9.01764853998155));
#2105=CARTESIAN_POINT('',(-88.9998201025637,-15.8,5.21764853998155));
#2106=CARTESIAN_POINT('',(-88.9998201025637,-15.8,5.21764853998155));
#2107=CARTESIAN_POINT('',(-83.4998201025637,-15.8,5.21764853998155));
#2108=CARTESIAN_POINT('Origin',(-83.4998201025637,-10.4,5.21764853998155));
#2109=CARTESIAN_POINT('',(-83.4998201025637,-10.4,5.21764853998155));
#2110=CARTESIAN_POINT('',(-83.4998201025637,-10.4,5.21764853998155));
#2111=CARTESIAN_POINT('',(-88.9998201025637,-10.4,5.21764853998155));
#2112=CARTESIAN_POINT('',(-88.9998201025637,-10.4,5.21764853998155));
#2113=CARTESIAN_POINT('',(-83.4998201025637,-10.4,5.21764853998155));
#2114=CARTESIAN_POINT('Origin',(-83.4998201025637,-10.4,9.01764853998155));
#2115=CARTESIAN_POINT('',(-83.4998201025637,-10.4,9.01764853998155));
#2116=CARTESIAN_POINT('',(-83.4998201025637,-10.4,9.01764853998155));
#2117=CARTESIAN_POINT('',(-88.9998201025637,-10.4,9.01764853998155));
#2118=CARTESIAN_POINT('',(-83.4998201025637,-10.4,9.01764853998155));
#2119=CARTESIAN_POINT('Origin',(-88.9998201025637,-13.1,7.11764853998155));
#2120=CARTESIAN_POINT('Origin',(-83.4998201025637,-13.1,7.11764853998155));
#2121=CARTESIAN_POINT('',(-83.4998201025637,-15.8,9.01764853998155));
#2122=CARTESIAN_POINT('Origin',(-83.4998201025637,-2.8,5.21764853998155));
#2123=CARTESIAN_POINT('',(-83.4998201025637,-2.8,5.21764853998155));
#2124=CARTESIAN_POINT('',(-83.4998201025637,-2.8,9.01764853998155));
#2125=CARTESIAN_POINT('',(-83.4998201025637,-2.8,5.21764853998155));
#2126=CARTESIAN_POINT('',(-83.4998201025637,-2.8,9.01764853998155));
#2127=CARTESIAN_POINT('',(-88.9998201025637,-2.8,5.21764853998155));
#2128=CARTESIAN_POINT('',(-88.9998201025637,-2.8,5.21764853998155));
#2129=CARTESIAN_POINT('',(-83.4998201025637,-2.8,5.21764853998155));
#2130=CARTESIAN_POINT('Origin',(-83.4998201025637,2.6,5.21764853998155));
#2131=CARTESIAN_POINT('',(-83.4998201025637,2.6,5.21764853998155));
#2132=CARTESIAN_POINT('',(-83.4998201025637,2.6,5.21764853998155));
#2133=CARTESIAN_POINT('',(-88.9998201025637,2.6,5.21764853998155));
#2134=CARTESIAN_POINT('',(-88.9998201025637,2.6,5.21764853998155));
#2135=CARTESIAN_POINT('',(-83.4998201025637,2.6,5.21764853998155));
#2136=CARTESIAN_POINT('Origin',(-83.4998201025637,2.6,9.01764853998155));
#2137=CARTESIAN_POINT('',(-83.4998201025637,2.6,9.01764853998155));
#2138=CARTESIAN_POINT('',(-83.4998201025637,2.6,9.01764853998155));
#2139=CARTESIAN_POINT('',(-88.9998201025637,2.6,9.01764853998155));
#2140=CARTESIAN_POINT('',(-83.4998201025637,2.6,9.01764853998155));
#2141=CARTESIAN_POINT('Origin',(-88.9998201025637,-0.0999999999999995,7.11764853998155));
#2142=CARTESIAN_POINT('Origin',(-83.4998201025637,-0.0999999999999995,7.11764853998155));
#2143=CARTESIAN_POINT('',(-83.4998201025637,-2.8,9.01764853998155));
#2144=CARTESIAN_POINT('Origin',(-83.4998201025637,10.2,5.21764853998155));
#2145=CARTESIAN_POINT('',(-83.4998201025637,10.2,9.01764853998155));
#2146=CARTESIAN_POINT('',(-83.4998201025637,10.2,5.21764853998155));
#2147=CARTESIAN_POINT('',(-83.4998201025637,10.2,9.01764853998155));
#2148=CARTESIAN_POINT('',(-83.4998201025637,10.2,9.01764853998155));
#2149=CARTESIAN_POINT('',(-88.9998201025637,10.2,5.21764853998155));
#2150=CARTESIAN_POINT('',(-88.9998201025637,10.2,9.01764853998155));
#2151=CARTESIAN_POINT('',(-83.4998201025637,10.2,5.21764853998155));
#2152=CARTESIAN_POINT('Origin',(-83.4998201025637,15.6,5.21764853998155));
#2153=CARTESIAN_POINT('',(-83.4998201025637,15.6,5.21764853998155));
#2154=CARTESIAN_POINT('',(-83.4998201025637,10.2,5.21764853998155));
#2155=CARTESIAN_POINT('',(-88.9998201025637,15.6,5.21764853998155));
#2156=CARTESIAN_POINT('',(-88.9998201025637,10.2,5.21764853998155));
#2157=CARTESIAN_POINT('',(-83.4998201025637,15.6,5.21764853998155));
#2158=CARTESIAN_POINT('Origin',(-83.4998201025637,15.6,9.01764853998155));
#2159=CARTESIAN_POINT('',(-83.4998201025637,15.6,9.01764853998155));
#2160=CARTESIAN_POINT('',(-83.4998201025637,15.6,5.21764853998155));
#2161=CARTESIAN_POINT('',(-88.9998201025637,15.6,5.21764853998155));
#2162=CARTESIAN_POINT('',(-83.4998201025637,15.6,9.01764853998155));
#2163=CARTESIAN_POINT('Origin',(-88.9998201025637,12.9,7.11764853998155));
#2164=CARTESIAN_POINT('Origin',(-83.4998201025637,12.9,7.11764853998155));
#2165=CARTESIAN_POINT('',(-83.4998201025637,15.6,9.01764853998155));
#2166=CARTESIAN_POINT('Origin',(-88.9998201025637,25.9,7.11764853998155));
#2167=CARTESIAN_POINT('',(-88.9998201025637,28.6,5.21764853998155));
#2168=CARTESIAN_POINT('',(-88.9998201025637,28.6,9.01764853998155));
#2169=CARTESIAN_POINT('',(-88.9998201025637,23.2,5.21764853998155));
#2170=CARTESIAN_POINT('',(-88.9998201025637,28.6,5.21764853998155));
#2171=CARTESIAN_POINT('',(-88.9998201025637,23.2,5.21764853998155));
#2172=CARTESIAN_POINT('Origin',(-83.4998201025637,23.2,9.01764853998155));
#2173=CARTESIAN_POINT('',(-83.4998201025637,23.2,9.01764853998155));
#2174=CARTESIAN_POINT('',(-83.4998201025637,28.6,9.01764853998155));
#2175=CARTESIAN_POINT('',(-83.4998201025637,23.2,9.01764853998155));
#2176=CARTESIAN_POINT('',(-83.4998201025637,28.6,9.01764853998155));
#2177=CARTESIAN_POINT('',(-83.4998201025637,23.2,9.01764853998155));
#2178=CARTESIAN_POINT('Origin',(-83.4998201025637,23.2,5.21764853998155));
#2179=CARTESIAN_POINT('',(-83.4998201025637,23.2,5.21764853998155));
#2180=CARTESIAN_POINT('',(-83.4998201025637,23.2,5.21764853998155));
#2181=CARTESIAN_POINT('',(-83.4998201025637,23.2,5.21764853998155));
#2182=CARTESIAN_POINT('Origin',(-83.4998201025637,28.6,5.21764853998155));
#2183=CARTESIAN_POINT('',(-83.4998201025637,28.6,5.21764853998155));
#2184=CARTESIAN_POINT('',(-83.4998201025637,28.6,5.21764853998155));
#2185=CARTESIAN_POINT('',(-83.4998201025637,28.6,5.21764853998155));
#2186=CARTESIAN_POINT('Origin',(-83.4998201025637,28.6,9.01764853998155));
#2187=CARTESIAN_POINT('',(-83.4998201025637,28.6,9.01764853998155));
#2188=CARTESIAN_POINT('Origin',(-83.4998201025637,25.9,7.11764853998155));
#2189=UNCERTAINTY_MEASURE_WITH_UNIT(LENGTH_MEASURE(0.01),#2193,
'DISTANCE_ACCURACY_VALUE',
'Maximum model space distance between geometric entities at asserted c
onnectivities');
#2190=UNCERTAINTY_MEASURE_WITH_UNIT(LENGTH_MEASURE(0.01),#2193,
'DISTANCE_ACCURACY_VALUE',
'Maximum model space distance between geometric entities at asserted c
onnectivities');
#2191=(
GEOMETRIC_REPRESENTATION_CONTEXT(3)
GLOBAL_UNCERTAINTY_ASSIGNED_CONTEXT((#2189))
GLOBAL_UNIT_ASSIGNED_CONTEXT((#2193,#2195,#2196))
REPRESENTATION_CONTEXT('','3D')
);
#2192=(
GEOMETRIC_REPRESENTATION_CONTEXT(3)
GLOBAL_UNCERTAINTY_ASSIGNED_CONTEXT((#2190))
GLOBAL_UNIT_ASSIGNED_CONTEXT((#2193,#2195,#2196))
REPRESENTATION_CONTEXT('','3D')
);
#2193=(
LENGTH_UNIT()
NAMED_UNIT(*)
SI_UNIT(.MILLI.,.METRE.)
);
#2194=(
LENGTH_UNIT()
NAMED_UNIT(*)
SI_UNIT($,.METRE.)
);
#2195=(
NAMED_UNIT(*)
PLANE_ANGLE_UNIT()
SI_UNIT($,.RADIAN.)
);
#2196=(
NAMED_UNIT(*)
SI_UNIT($,.STERADIAN.)
SOLID_ANGLE_UNIT()
);
#2197=SHAPE_DEFINITION_REPRESENTATION(#2198,#2199);
#2198=PRODUCT_DEFINITION_SHAPE('',$,#2201);
#2199=SHAPE_REPRESENTATION('',(#1389),#2191);
#2200=PRODUCT_DEFINITION_CONTEXT('part definition',#2205,'design');
#2201=PRODUCT_DEFINITION('2026-10-10-10-59-04-323','BUTTON''S',#2202,#2200);
#2202=PRODUCT_DEFINITION_FORMATION('',$,#2207);
#2203=PRODUCT_RELATED_PRODUCT_CATEGORY('BUTTON''S','BUTTON''S',(#2207));
#2204=APPLICATION_PROTOCOL_DEFINITION('international standard',
'automotive_design',2009,#2205);
#2205=APPLICATION_CONTEXT(
'Core Data for Automotive Mechanical Design Process');
#2206=PRODUCT_CONTEXT('part definition',#2205,'mechanical');
#2207=PRODUCT('2026-10-10-10-59-04-323','BUTTON''S',$,(#2206));
#2208=PRESENTATION_STYLE_ASSIGNMENT((#2209));
#2209=SURFACE_STYLE_USAGE(.BOTH.,#2210);
#2210=SURFACE_SIDE_STYLE('',(#2211));
#2211=SURFACE_STYLE_FILL_AREA(#2212);
#2212=FILL_AREA_STYLE('Steel - Satin',(#2213));
#2213=FILL_AREA_STYLE_COLOUR('Steel - Satin',#2214);
#2214=COLOUR_RGB('Steel - Satin',0.627450980392157,0.627450980392157,0.627450980392157);
ENDSEC;
END-ISO-10303-21;
