M48
; DRILL file KiCad 10.0.6 date 2026-09-25T16:40:20
; FORMAT={-:-/ absolute / metric / decimal}
; #@! TF.CreationDate,2026-09-25T16:40:20+05:30
; #@! TF.GenerationSoftware,Kicad,Pcbnew,10.0.6
; #@! TF.FileFunction,NonPlated,1,2,NPTH
FMAT,2
METRIC
; #@! TA.AperFunction,NonPlated,NPTH,ComponentDrill
T1C1.100
; #@! TA.AperFunction,NonPlated,NPTH,ComponentDrill
T2C1.900
; #@! TA.AperFunction,NonPlated,NPTH,ComponentDrill
T3C3.450
%
G90
G05
T1
X204.44Y-50.57
T2
X24.5Y-62.5
X24.5Y-79.5
X24.5Y-96.5
X24.5Y-113.5
X24.5Y-130.5
X35.5Y-62.5
X35.5Y-79.5
X35.5Y-96.5
X35.5Y-113.5
X35.5Y-130.5
X42.5Y-62.5
X42.5Y-79.5
X42.5Y-96.5
X42.5Y-113.5
X42.5Y-130.5
X53.5Y-62.5
X53.5Y-79.5
X53.5Y-96.5
X53.5Y-113.5
X53.5Y-130.5
X60.5Y-62.5
X60.5Y-79.5
X60.5Y-96.5
X60.5Y-113.5
X60.5Y-130.5
X71.5Y-62.5
X71.5Y-79.5
X71.5Y-96.5
X71.5Y-113.5
X71.5Y-130.5
X78.5Y-62.5
X78.5Y-79.5
X78.5Y-96.5
X78.5Y-113.5
X78.5Y-130.5
X89.5Y-62.5
X89.5Y-79.5
X89.5Y-96.5
X89.5Y-113.5
X89.5Y-130.5
X96.5Y-62.5
X96.5Y-79.5
X96.5Y-96.5
X96.5Y-113.5
X96.5Y-130.5
X107.5Y-62.5
X107.5Y-79.5
X107.5Y-96.5
X107.5Y-113.5
X107.5Y-130.5
X114.5Y-62.5
X114.5Y-79.5
X114.5Y-96.5
X114.5Y-113.5
X114.5Y-130.5
X125.5Y-62.5
X125.5Y-79.5
X125.5Y-96.5
X125.5Y-113.5
X125.5Y-130.5
X132.5Y-62.5
X132.5Y-79.5
X132.5Y-96.5
X132.5Y-113.5
X132.5Y-130.5
X143.5Y-62.5
X143.5Y-79.5
X143.5Y-96.5
X143.5Y-113.5
X143.5Y-130.5
X150.5Y-62.5
X150.5Y-79.5
X150.5Y-96.5
X150.5Y-113.5
X150.5Y-130.5
X161.5Y-62.5
X161.5Y-79.5
X161.5Y-96.5
X161.5Y-113.5
X161.5Y-130.5
X168.5Y-62.5
X168.5Y-79.5
X168.5Y-96.5
X168.5Y-113.5
X168.5Y-130.5
X179.5Y-62.5
X179.5Y-79.5
X179.5Y-96.5
X179.5Y-113.5
X179.5Y-130.5
X186.5Y-62.5
X186.5Y-79.5
X186.5Y-96.5
X186.5Y-113.5
X186.5Y-130.5
X197.5Y-62.5
X197.5Y-79.5
X197.5Y-96.5
X197.5Y-113.5
X197.5Y-130.5
T3
X30.0Y-62.5
X30.0Y-79.5
X30.0Y-96.5
X30.0Y-113.5
X30.0Y-130.5
X48.0Y-62.5
X48.0Y-79.5
X48.0Y-96.5
X48.0Y-113.5
X48.0Y-130.5
X66.0Y-62.5
X66.0Y-79.5
X66.0Y-96.5
X66.0Y-113.5
X66.0Y-130.5
X84.0Y-62.5
X84.0Y-79.5
X84.0Y-96.5
X84.0Y-113.5
X84.0Y-130.5
X102.0Y-62.5
X102.0Y-79.5
X102.0Y-96.5
X102.0Y-113.5
X102.0Y-130.5
X120.0Y-62.5
X120.0Y-79.5
X120.0Y-96.5
X120.0Y-113.5
X120.0Y-130.5
X138.0Y-62.5
X138.0Y-79.5
X138.0Y-96.5
X138.0Y-113.5
X138.0Y-130.5
X156.0Y-62.5
X156.0Y-79.5
X156.0Y-96.5
X156.0Y-113.5
X156.0Y-130.5
X174.0Y-62.5
X174.0Y-79.5
X174.0Y-96.5
X174.0Y-113.5
X174.0Y-130.5
X192.0Y-62.5
X192.0Y-79.5
X192.0Y-96.5
X192.0Y-113.5
X192.0Y-130.5
M30
