M48
; DRILL file KiCad 10.0.6 date 2026-09-25T16:40:20
; FORMAT={-:-/ absolute / metric / decimal}
; #@! TF.CreationDate,2026-09-25T16:40:20+05:30
; #@! TF.GenerationSoftware,Kicad,Pcbnew,10.0.6
; #@! TF.FileFunction,Plated,1,2,PTH
FMAT,2
METRIC
; #@! TA.AperFunction,Plated,PTH,ViaDrill
T1C0.300
; #@! TA.AperFunction,Plated,PTH,ComponentDrill
T2C0.750
; #@! TA.AperFunction,Plated,PTH,ComponentDrill
T3C0.800
; #@! TA.AperFunction,Plated,PTH,ComponentDrill
T4C1.000
; #@! TA.AperFunction,Plated,PTH,ComponentDrill
T5C1.020
; #@! TA.AperFunction,Plated,PTH,ComponentDrill
T6C1.200
%
G90
G05
T1
X81.55Y-137.2
X84.68Y-158.05
X90.85Y-161.6
X93.0Y-153.65
X93.0Y-154.6
X93.6Y-157.1
X98.3Y-161.6
X98.75Y-163.2
X99.221Y-162.553
X101.3Y-161.55
X104.95Y-65.65
X107.25Y-51.45
X129.65Y-157.9
X155.6Y-157.45
X170.55Y-162.35
X173.8Y-143.45
X188.0Y-135.0
X189.7Y-162.85
T2
X83.0Y-49.0
X85.0Y-49.0
X90.5Y-49.0
X92.5Y-49.0
X94.5Y-49.0
X96.5Y-49.0
X98.5Y-49.0
X104.0Y-49.0
X106.0Y-49.0
T3
X39.0Y-58.69
X39.0Y-66.31
X39.0Y-76.0
X39.0Y-83.62
X39.0Y-92.69
X39.0Y-100.31
X39.0Y-109.69
X39.0Y-117.31
X39.0Y-126.69
X39.0Y-134.31
X57.0Y-58.69
X57.0Y-66.31
X57.0Y-75.69
X57.0Y-83.31
X57.0Y-92.69
X57.0Y-100.31
X57.0Y-109.88
X57.0Y-117.5
X57.0Y-126.88
X57.0Y-134.5
X75.0Y-58.69
X75.0Y-66.31
X75.0Y-75.69
X75.0Y-83.31
X75.0Y-92.69
X75.0Y-100.31
X75.0Y-109.88
X75.0Y-117.5
X75.0Y-126.69
X75.0Y-134.31
X93.0Y-58.69
X93.0Y-66.31
X93.0Y-75.69
X93.0Y-83.31
X93.0Y-92.69
X93.0Y-100.31
X93.0Y-109.19
X93.0Y-116.81
X93.0Y-126.69
X93.0Y-134.31
X111.0Y-59.0
X111.0Y-66.62
X111.0Y-75.69
X111.0Y-83.31
X111.0Y-92.69
X111.0Y-100.31
X111.0Y-109.88
X111.0Y-117.5
X111.0Y-126.69
X111.0Y-134.31
X129.0Y-58.5
X129.0Y-66.12
X129.0Y-75.69
X129.0Y-83.31
X129.0Y-92.88
X129.0Y-100.5
X129.0Y-109.69
X129.0Y-117.31
X129.0Y-126.69
X129.0Y-134.31
X147.0Y-58.69
X147.0Y-66.31
X147.0Y-75.69
X147.0Y-83.31
X147.0Y-92.69
X147.0Y-100.31
X147.0Y-109.69
X147.0Y-117.31
X147.0Y-126.69
X147.0Y-134.31
X165.0Y-58.5
X165.0Y-66.12
X165.0Y-75.69
X165.0Y-83.31
X165.0Y-92.69
X165.0Y-100.31
X165.0Y-109.69
X165.0Y-117.31
X165.0Y-126.69
X165.0Y-134.31
X183.0Y-58.69
X183.0Y-66.31
X183.0Y-75.69
X183.0Y-83.31
X183.0Y-92.69
X183.0Y-100.31
X183.0Y-109.88
X183.0Y-117.5
X183.0Y-126.88
X183.0Y-134.5
X202.5Y-58.69
X202.5Y-66.31
X202.5Y-75.69
X202.5Y-83.31
X202.5Y-92.69
X202.5Y-100.31
X202.5Y-109.69
X202.5Y-117.31
X202.5Y-126.69
X202.5Y-134.31
T4
X182.0Y-43.46
X182.0Y-46.0
X182.0Y-48.54
X182.0Y-51.08
T5
X74.52Y-148.61
X74.52Y-166.39
X74.75Y-154.96
X74.75Y-157.5
X74.75Y-160.04
X77.06Y-148.61
X77.06Y-166.39
X79.6Y-148.61
X79.6Y-166.39
X82.14Y-148.61
X82.14Y-166.39
X84.68Y-148.61
X84.68Y-166.39
X87.22Y-148.61
X87.22Y-166.39
X89.76Y-148.61
X89.76Y-166.39
X92.3Y-148.61
X92.3Y-166.39
X94.84Y-148.61
X94.84Y-166.39
X97.38Y-148.61
X97.38Y-166.39
X99.92Y-148.61
X99.92Y-166.39
X102.46Y-148.61
X102.46Y-166.39
X105.0Y-148.61
X105.0Y-166.39
X107.54Y-148.61
X107.54Y-166.39
X110.08Y-148.61
X110.08Y-166.39
X112.62Y-148.61
X112.62Y-166.39
X115.16Y-148.61
X115.16Y-166.39
X117.7Y-148.61
X117.7Y-166.39
X120.24Y-148.61
X120.24Y-166.39
X122.78Y-148.61
X122.78Y-166.39
X206.6Y-48.03
X206.6Y-50.57
X206.6Y-53.11
X206.6Y-55.65
T6
X30.0Y-56.6
X30.0Y-73.6
X30.0Y-90.6
X30.0Y-107.6
X30.0Y-124.6
X35.0Y-58.7
X35.0Y-75.7
X35.0Y-92.7
X35.0Y-109.7
X35.0Y-126.7
X48.0Y-56.6
X48.0Y-73.6
X48.0Y-90.6
X48.0Y-107.6
X48.0Y-124.6
X53.0Y-58.7
X53.0Y-75.7
X53.0Y-92.7
X53.0Y-109.7
X53.0Y-126.7
X66.0Y-56.6
X66.0Y-73.6
X66.0Y-90.6
X66.0Y-107.6
X66.0Y-124.6
X71.0Y-58.7
X71.0Y-75.7
X71.0Y-92.7
X71.0Y-109.7
X71.0Y-126.7
X84.0Y-56.6
X84.0Y-73.6
X84.0Y-90.6
X84.0Y-107.6
X84.0Y-124.6
X89.0Y-58.7
X89.0Y-75.7
X89.0Y-92.7
X89.0Y-109.7
X89.0Y-126.7
X102.0Y-56.6
X102.0Y-73.6
X102.0Y-90.6
X102.0Y-107.6
X102.0Y-124.6
X107.0Y-58.7
X107.0Y-75.7
X107.0Y-92.7
X107.0Y-109.7
X107.0Y-126.7
X120.0Y-56.6
X120.0Y-73.6
X120.0Y-90.6
X120.0Y-107.6
X120.0Y-124.6
X125.0Y-58.7
X125.0Y-75.7
X125.0Y-92.7
X125.0Y-109.7
X125.0Y-126.7
X138.0Y-56.6
X138.0Y-73.6
X138.0Y-90.6
X138.0Y-107.6
X138.0Y-124.6
X143.0Y-58.7
X143.0Y-75.7
X143.0Y-92.7
X143.0Y-109.7
X143.0Y-126.7
X156.0Y-56.6
X156.0Y-73.6
X156.0Y-90.6
X156.0Y-107.6
X156.0Y-124.6
X161.0Y-58.7
X161.0Y-75.7
X161.0Y-92.7
X161.0Y-109.7
X161.0Y-126.7
X174.0Y-56.6
X174.0Y-73.6
X174.0Y-90.6
X174.0Y-107.6
X174.0Y-124.6
X179.0Y-58.7
X179.0Y-75.7
X179.0Y-92.7
X179.0Y-109.7
X179.0Y-126.7
X192.0Y-56.6
X192.0Y-73.6
X192.0Y-90.6
X192.0Y-107.6
X192.0Y-124.6
X197.0Y-58.7
X197.0Y-75.7
X197.0Y-92.7
X197.0Y-109.7
X197.0Y-126.7
M30
