ISO-10303-21;
HEADER;
/* Generated by software containing ST-Developer
 * from STEP Tools, Inc. (www.steptools.com) 
 */

FILE_DESCRIPTION(
/* description */ (''),
/* implementation_level */ '2;1');

FILE_NAME(
/* name */ 'battery case.step',
/* time_stamp */ '2026-10-10T09:52:06+05:30',
/* author */ (''),
/* organization */ (''),
/* preprocessor_version */ 'ST-DEVELOPER v20.2',
/* originating_system */ 'Autodesk Translation Framework v15.15.0.0',
/* authorisation */ '');

FILE_SCHEMA (('AUTOMOTIVE_DESIGN { 1 0 10303 214 3 1 1 }'));
ENDSEC;

DATA;
#10=MECHANICAL_DESIGN_GEOMETRIC_PRESENTATION_REPRESENTATION('',(#13),#1363);
#11=SHAPE_REPRESENTATION_RELATIONSHIP('SRR','None',#1370,#12);
#12=ADVANCED_BREP_SHAPE_REPRESENTATION('',(#14),#1362);
#13=STYLED_ITEM('',(#1379),#14);
#14=MANIFOLD_SOLID_BREP('Body1',#787);
#15=ELLIPSE('',#848,0.707106781186549,0.5);
#16=ELLIPSE('',#849,0.707106781186546,0.5);
#17=ELLIPSE('',#851,0.707106781186543,0.5);
#18=ELLIPSE('',#852,0.707106781186553,0.5);
#19=ELLIPSE('',#856,0.707106781186549,0.5);
#20=ELLIPSE('',#857,0.707106781186546,0.5);
#21=ELLIPSE('',#859,0.707106781186549,0.5);
#22=ELLIPSE('',#860,0.707106781186546,0.5);
#23=ELLIPSE('',#864,0.707106781186549,0.5);
#24=ELLIPSE('',#865,0.707106781186546,0.5);
#25=ELLIPSE('',#867,0.707106781186549,0.5);
#26=ELLIPSE('',#868,0.707106781186546,0.5);
#27=ELLIPSE('',#872,0.707106781186547,0.5);
#28=ELLIPSE('',#873,0.707106781186548,0.5);
#29=ELLIPSE('',#875,0.707106781186547,0.5);
#30=ELLIPSE('',#876,0.707106781186548,0.5);
#31=PLANE('',#809);
#32=PLANE('',#810);
#33=PLANE('',#818);
#34=PLANE('',#831);
#35=PLANE('',#837);
#36=PLANE('',#846);
#37=PLANE('',#854);
#38=PLANE('',#862);
#39=PLANE('',#870);
#40=PLANE('',#878);
#41=PLANE('',#879);
#42=PLANE('',#880);
#43=PLANE('',#881);
#44=PLANE('',#882);
#45=PLANE('',#883);
#46=PLANE('',#884);
#47=PLANE('',#885);
#48=PLANE('',#886);
#49=LINE('',#1145,#121);
#50=LINE('',#1146,#122);
#51=LINE('',#1149,#123);
#52=LINE('',#1152,#124);
#53=LINE('',#1155,#125);
#54=LINE('',#1156,#126);
#55=LINE('',#1159,#127);
#56=LINE('',#1163,#128);
#57=LINE('',#1167,#129);
#58=LINE('',#1171,#130);
#59=LINE('',#1177,#131);
#60=LINE('',#1178,#132);
#61=LINE('',#1186,#133);
#62=LINE('',#1188,#134);
#63=LINE('',#1191,#135);
#64=LINE('',#1194,#136);
#65=LINE('',#1200,#137);
#66=LINE('',#1201,#138);
#67=LINE('',#1205,#139);
#68=LINE('',#1208,#140);
#69=LINE('',#1214,#141);
#70=LINE('',#1217,#142);
#71=LINE('',#1220,#143);
#72=LINE('',#1222,#144);
#73=LINE('',#1224,#145);
#74=LINE('',#1226,#146);
#75=LINE('',#1227,#147);
#76=LINE('',#1229,#148);
#77=LINE('',#1231,#149);
#78=LINE('',#1233,#150);
#79=LINE('',#1235,#151);
#80=LINE('',#1237,#152);
#81=LINE('',#1239,#153);
#82=LINE('',#1241,#154);
#83=LINE('',#1243,#155);
#84=LINE('',#1245,#156);
#85=LINE('',#1246,#157);
#86=LINE('',#1252,#158);
#87=LINE('',#1258,#159);
#88=LINE('',#1262,#160);
#89=LINE('',#1265,#161);
#90=LINE('',#1267,#162);
#91=LINE('',#1268,#163);
#92=LINE('',#1270,#164);
#93=LINE('',#1272,#165);
#94=LINE('',#1273,#166);
#95=LINE('',#1275,#167);
#96=LINE('',#1277,#168);
#97=LINE('',#1278,#169);
#98=LINE('',#1280,#170);
#99=LINE('',#1282,#171);
#100=LINE('',#1283,#172);
#101=LINE('',#1288,#173);
#102=LINE('',#1295,#174);
#103=LINE('',#1297,#175);
#104=LINE('',#1299,#176);
#105=LINE('',#1304,#177);
#106=LINE('',#1311,#178);
#107=LINE('',#1313,#179);
#108=LINE('',#1315,#180);
#109=LINE('',#1320,#181);
#110=LINE('',#1327,#182);
#111=LINE('',#1329,#183);
#112=LINE('',#1331,#184);
#113=LINE('',#1336,#185);
#114=LINE('',#1340,#186);
#115=LINE('',#1345,#187);
#116=LINE('',#1347,#188);
#117=LINE('',#1348,#189);
#118=LINE('',#1351,#190);
#119=LINE('',#1355,#191);
#120=LINE('',#1358,#192);
#121=VECTOR('',#901,10.);
#122=VECTOR('',#902,10.);
#123=VECTOR('',#905,10.);
#124=VECTOR('',#908,10.);
#125=VECTOR('',#911,10.);
#126=VECTOR('',#912,10.);
#127=VECTOR('',#915,10.);
#128=VECTOR('',#918,10.);
#129=VECTOR('',#921,10.);
#130=VECTOR('',#926,10.);
#131=VECTOR('',#935,10.);
#132=VECTOR('',#936,10.);
#133=VECTOR('',#947,10.);
#134=VECTOR('',#950,10.);
#135=VECTOR('',#953,10.);
#136=VECTOR('',#956,10.);
#137=VECTOR('',#965,10.);
#138=VECTOR('',#966,10.);
#139=VECTOR('',#971,10.);
#140=VECTOR('',#974,10.);
#141=VECTOR('',#979,10.);
#142=VECTOR('',#982,10.);
#143=VECTOR('',#985,10.);
#144=VECTOR('',#986,10.);
#145=VECTOR('',#987,10.);
#146=VECTOR('',#988,10.);
#147=VECTOR('',#989,10.);
#148=VECTOR('',#990,10.);
#149=VECTOR('',#991,10.);
#150=VECTOR('',#992,10.);
#151=VECTOR('',#993,10.);
#152=VECTOR('',#994,10.);
#153=VECTOR('',#995,10.);
#154=VECTOR('',#996,10.);
#155=VECTOR('',#997,10.);
#156=VECTOR('',#998,10.);
#157=VECTOR('',#999,10.);
#158=VECTOR('',#1006,10.);
#159=VECTOR('',#1013,10.);
#160=VECTOR('',#1018,10.);
#161=VECTOR('',#1021,10.);
#162=VECTOR('',#1022,10.);
#163=VECTOR('',#1023,10.);
#164=VECTOR('',#1024,10.);
#165=VECTOR('',#1025,10.);
#166=VECTOR('',#1026,10.);
#167=VECTOR('',#1027,10.);
#168=VECTOR('',#1028,10.);
#169=VECTOR('',#1029,10.);
#170=VECTOR('',#1030,10.);
#171=VECTOR('',#1031,10.);
#172=VECTOR('',#1032,10.);
#173=VECTOR('',#1037,10.);
#174=VECTOR('',#1046,10.);
#175=VECTOR('',#1049,10.);
#176=VECTOR('',#1052,10.);
#177=VECTOR('',#1057,10.);
#178=VECTOR('',#1066,10.);
#179=VECTOR('',#1069,10.);
#180=VECTOR('',#1072,10.);
#181=VECTOR('',#1077,10.);
#182=VECTOR('',#1086,10.);
#183=VECTOR('',#1089,10.);
#184=VECTOR('',#1092,10.);
#185=VECTOR('',#1097,10.);
#186=VECTOR('',#1102,10.);
#187=VECTOR('',#1109,10.);
#188=VECTOR('',#1112,10.);
#189=VECTOR('',#1113,10.);
#190=VECTOR('',#1118,10.);
#191=VECTOR('',#1125,10.);
#192=VECTOR('',#1130,10.);
#193=CYLINDRICAL_SURFACE('',#805,0.5);
#194=CYLINDRICAL_SURFACE('',#807,0.5);
#195=CYLINDRICAL_SURFACE('',#814,0.5);
#196=CYLINDRICAL_SURFACE('',#823,0.5);
#197=CYLINDRICAL_SURFACE('',#824,0.5);
#198=CYLINDRICAL_SURFACE('',#825,0.5);
#199=CYLINDRICAL_SURFACE('',#830,0.5);
#200=CYLINDRICAL_SURFACE('',#832,0.5);
#201=CYLINDRICAL_SURFACE('',#834,0.5);
#202=CYLINDRICAL_SURFACE('',#838,0.5);
#203=CYLINDRICAL_SURFACE('',#841,0.5);
#204=CYLINDRICAL_SURFACE('',#844,0.5);
#205=CYLINDRICAL_SURFACE('',#847,0.5);
#206=CYLINDRICAL_SURFACE('',#850,0.5);
#207=CYLINDRICAL_SURFACE('',#853,0.5);
#208=CYLINDRICAL_SURFACE('',#855,0.5);
#209=CYLINDRICAL_SURFACE('',#858,0.5);
#210=CYLINDRICAL_SURFACE('',#861,0.5);
#211=CYLINDRICAL_SURFACE('',#863,0.5);
#212=CYLINDRICAL_SURFACE('',#866,0.5);
#213=CYLINDRICAL_SURFACE('',#869,0.5);
#214=CYLINDRICAL_SURFACE('',#871,0.5);
#215=CYLINDRICAL_SURFACE('',#874,0.5);
#216=CYLINDRICAL_SURFACE('',#877,0.5);
#217=FACE_OUTER_BOUND('',#263,.T.);
#218=FACE_OUTER_BOUND('',#264,.T.);
#219=FACE_OUTER_BOUND('',#265,.T.);
#220=FACE_OUTER_BOUND('',#266,.T.);
#221=FACE_OUTER_BOUND('',#267,.T.);
#222=FACE_OUTER_BOUND('',#268,.T.);
#223=FACE_OUTER_BOUND('',#269,.T.);
#224=FACE_OUTER_BOUND('',#270,.T.);
#225=FACE_OUTER_BOUND('',#271,.T.);
#226=FACE_OUTER_BOUND('',#272,.T.);
#227=FACE_OUTER_BOUND('',#273,.T.);
#228=FACE_OUTER_BOUND('',#274,.T.);
#229=FACE_OUTER_BOUND('',#275,.T.);
#230=FACE_OUTER_BOUND('',#276,.T.);
#231=FACE_OUTER_BOUND('',#277,.T.);
#232=FACE_OUTER_BOUND('',#278,.T.);
#233=FACE_OUTER_BOUND('',#279,.T.);
#234=FACE_OUTER_BOUND('',#280,.T.);
#235=FACE_OUTER_BOUND('',#281,.T.);
#236=FACE_OUTER_BOUND('',#282,.T.);
#237=FACE_OUTER_BOUND('',#283,.T.);
#238=FACE_OUTER_BOUND('',#284,.T.);
#239=FACE_OUTER_BOUND('',#285,.T.);
#240=FACE_OUTER_BOUND('',#286,.T.);
#241=FACE_OUTER_BOUND('',#287,.T.);
#242=FACE_OUTER_BOUND('',#288,.T.);
#243=FACE_OUTER_BOUND('',#289,.T.);
#244=FACE_OUTER_BOUND('',#290,.T.);
#245=FACE_OUTER_BOUND('',#291,.T.);
#246=FACE_OUTER_BOUND('',#292,.T.);
#247=FACE_OUTER_BOUND('',#293,.T.);
#248=FACE_OUTER_BOUND('',#294,.T.);
#249=FACE_OUTER_BOUND('',#295,.T.);
#250=FACE_OUTER_BOUND('',#296,.T.);
#251=FACE_OUTER_BOUND('',#297,.T.);
#252=FACE_OUTER_BOUND('',#298,.T.);
#253=FACE_OUTER_BOUND('',#299,.T.);
#254=FACE_OUTER_BOUND('',#300,.T.);
#255=FACE_OUTER_BOUND('',#301,.T.);
#256=FACE_OUTER_BOUND('',#302,.T.);
#257=FACE_OUTER_BOUND('',#303,.T.);
#258=FACE_OUTER_BOUND('',#304,.T.);
#259=FACE_OUTER_BOUND('',#305,.T.);
#260=FACE_OUTER_BOUND('',#306,.T.);
#261=FACE_OUTER_BOUND('',#307,.T.);
#262=FACE_OUTER_BOUND('',#308,.T.);
#263=EDGE_LOOP('',(#513,#514,#515));
#264=EDGE_LOOP('',(#516,#517,#518,#519));
#265=EDGE_LOOP('',(#520,#521,#522,#523));
#266=EDGE_LOOP('',(#524,#525,#526,#527));
#267=EDGE_LOOP('',(#528,#529,#530,#531,#532,#533,#534,#535));
#268=EDGE_LOOP('',(#536,#537,#538,#539));
#269=EDGE_LOOP('',(#540,#541,#542));
#270=EDGE_LOOP('',(#543,#544,#545,#546));
#271=EDGE_LOOP('',(#547,#548,#549));
#272=EDGE_LOOP('',(#550,#551,#552,#553));
#273=EDGE_LOOP('',(#554,#555,#556,#557));
#274=EDGE_LOOP('',(#558,#559,#560,#561));
#275=EDGE_LOOP('',(#562,#563,#564));
#276=EDGE_LOOP('',(#565,#566,#567,#568));
#277=EDGE_LOOP('',(#569,#570,#571,#572));
#278=EDGE_LOOP('',(#573,#574,#575,#576));
#279=EDGE_LOOP('',(#577,#578,#579,#580));
#280=EDGE_LOOP('',(#581,#582,#583,#584,#585,#586,#587,#588,#589,#590,#591,
#592,#593,#594,#595,#596,#597,#598,#599,#600));
#281=EDGE_LOOP('',(#601,#602,#603,#604));
#282=EDGE_LOOP('',(#605,#606,#607,#608));
#283=EDGE_LOOP('',(#609,#610,#611,#612));
#284=EDGE_LOOP('',(#613,#614,#615,#616,#617,#618,#619,#620,#621,#622,#623,
#624,#625,#626,#627,#628,#629,#630,#631,#632));
#285=EDGE_LOOP('',(#633,#634,#635));
#286=EDGE_LOOP('',(#636,#637,#638,#639,#640,#641));
#287=EDGE_LOOP('',(#642,#643,#644));
#288=EDGE_LOOP('',(#645,#646,#647,#648,#649));
#289=EDGE_LOOP('',(#650,#651,#652));
#290=EDGE_LOOP('',(#653,#654,#655,#656,#657,#658));
#291=EDGE_LOOP('',(#659,#660,#661));
#292=EDGE_LOOP('',(#662,#663,#664,#665,#666));
#293=EDGE_LOOP('',(#667,#668,#669));
#294=EDGE_LOOP('',(#670,#671,#672,#673,#674,#675));
#295=EDGE_LOOP('',(#676,#677,#678));
#296=EDGE_LOOP('',(#679,#680,#681,#682,#683));
#297=EDGE_LOOP('',(#684,#685,#686));
#298=EDGE_LOOP('',(#687,#688,#689,#690,#691,#692));
#299=EDGE_LOOP('',(#693,#694,#695));
#300=EDGE_LOOP('',(#696,#697,#698,#699));
#301=EDGE_LOOP('',(#700,#701,#702,#703,#704));
#302=EDGE_LOOP('',(#705,#706,#707,#708,#709));
#303=EDGE_LOOP('',(#710,#711,#712,#713));
#304=EDGE_LOOP('',(#714,#715,#716,#717,#718));
#305=EDGE_LOOP('',(#719,#720,#721,#722,#723));
#306=EDGE_LOOP('',(#724,#725,#726,#727));
#307=EDGE_LOOP('',(#728,#729,#730,#731));
#308=EDGE_LOOP('',(#732,#733,#734,#735,#736));
#309=CIRCLE('',#802,0.5);
#310=CIRCLE('',#803,0.5);
#311=CIRCLE('',#804,0.5);
#312=CIRCLE('',#806,0.5);
#313=CIRCLE('',#808,0.5);
#314=CIRCLE('',#811,0.5);
#315=CIRCLE('',#812,0.5);
#316=CIRCLE('',#813,0.5);
#317=CIRCLE('',#815,0.500000000000007);
#318=CIRCLE('',#817,0.499999999999998);
#319=CIRCLE('',#820,0.500000000000007);
#320=CIRCLE('',#821,0.499999999999998);
#321=CIRCLE('',#822,0.499999999999998);
#322=CIRCLE('',#826,0.499999999999998);
#323=CIRCLE('',#828,0.500000000000007);
#324=CIRCLE('',#829,0.5);
#325=CIRCLE('',#833,0.5);
#326=CIRCLE('',#835,0.5);
#327=CIRCLE('',#836,0.5);
#328=CIRCLE('',#839,0.5);
#329=CIRCLE('',#840,0.5);
#330=CIRCLE('',#842,0.5);
#331=CIRCLE('',#843,0.5);
#332=CIRCLE('',#845,0.5);
#333=VERTEX_POINT('',#1135);
#334=VERTEX_POINT('',#1136);
#335=VERTEX_POINT('',#1138);
#336=VERTEX_POINT('',#1142);
#337=VERTEX_POINT('',#1143);
#338=VERTEX_POINT('',#1148);
#339=VERTEX_POINT('',#1150);
#340=VERTEX_POINT('',#1154);
#341=VERTEX_POINT('',#1158);
#342=VERTEX_POINT('',#1160);
#343=VERTEX_POINT('',#1162);
#344=VERTEX_POINT('',#1164);
#345=VERTEX_POINT('',#1166);
#346=VERTEX_POINT('',#1170);
#347=VERTEX_POINT('',#1176);
#348=VERTEX_POINT('',#1180);
#349=VERTEX_POINT('',#1182);
#350=VERTEX_POINT('',#1190);
#351=VERTEX_POINT('',#1192);
#352=VERTEX_POINT('',#1196);
#353=VERTEX_POINT('',#1204);
#354=VERTEX_POINT('',#1206);
#355=VERTEX_POINT('',#1210);
#356=VERTEX_POINT('',#1211);
#357=VERTEX_POINT('',#1213);
#358=VERTEX_POINT('',#1215);
#359=VERTEX_POINT('',#1219);
#360=VERTEX_POINT('',#1221);
#361=VERTEX_POINT('',#1223);
#362=VERTEX_POINT('',#1225);
#363=VERTEX_POINT('',#1228);
#364=VERTEX_POINT('',#1230);
#365=VERTEX_POINT('',#1232);
#366=VERTEX_POINT('',#1234);
#367=VERTEX_POINT('',#1236);
#368=VERTEX_POINT('',#1238);
#369=VERTEX_POINT('',#1240);
#370=VERTEX_POINT('',#1242);
#371=VERTEX_POINT('',#1244);
#372=VERTEX_POINT('',#1248);
#373=VERTEX_POINT('',#1250);
#374=VERTEX_POINT('',#1254);
#375=VERTEX_POINT('',#1256);
#376=VERTEX_POINT('',#1260);
#377=VERTEX_POINT('',#1264);
#378=VERTEX_POINT('',#1266);
#379=VERTEX_POINT('',#1269);
#380=VERTEX_POINT('',#1271);
#381=VERTEX_POINT('',#1274);
#382=VERTEX_POINT('',#1276);
#383=VERTEX_POINT('',#1279);
#384=VERTEX_POINT('',#1281);
#385=VERTEX_POINT('',#1285);
#386=VERTEX_POINT('',#1286);
#387=VERTEX_POINT('',#1291);
#388=VERTEX_POINT('',#1293);
#389=VERTEX_POINT('',#1301);
#390=VERTEX_POINT('',#1302);
#391=VERTEX_POINT('',#1307);
#392=VERTEX_POINT('',#1309);
#393=VERTEX_POINT('',#1317);
#394=VERTEX_POINT('',#1318);
#395=VERTEX_POINT('',#1323);
#396=VERTEX_POINT('',#1325);
#397=VERTEX_POINT('',#1333);
#398=VERTEX_POINT('',#1335);
#399=VERTEX_POINT('',#1339);
#400=VERTEX_POINT('',#1341);
#401=EDGE_CURVE('',#333,#334,#309,.T.);
#402=EDGE_CURVE('',#334,#335,#310,.T.);
#403=EDGE_CURVE('',#335,#333,#311,.T.);
#404=EDGE_CURVE('',#336,#337,#312,.T.);
#405=EDGE_CURVE('',#337,#334,#49,.T.);
#406=EDGE_CURVE('',#333,#336,#50,.T.);
#407=EDGE_CURVE('',#334,#338,#51,.T.);
#408=EDGE_CURVE('',#339,#338,#313,.T.);
#409=EDGE_CURVE('',#339,#335,#52,.T.);
#410=EDGE_CURVE('',#340,#337,#53,.T.);
#411=EDGE_CURVE('',#338,#340,#54,.T.);
#412=EDGE_CURVE('',#336,#341,#55,.T.);
#413=EDGE_CURVE('',#342,#341,#314,.T.);
#414=EDGE_CURVE('',#342,#343,#56,.T.);
#415=EDGE_CURVE('',#344,#343,#315,.T.);
#416=EDGE_CURVE('',#344,#345,#57,.T.);
#417=EDGE_CURVE('',#340,#345,#316,.T.);
#418=EDGE_CURVE('',#345,#346,#58,.T.);
#419=EDGE_CURVE('',#346,#338,#317,.T.);
#420=EDGE_CURVE('',#346,#339,#318,.T.);
#421=EDGE_CURVE('',#347,#344,#59,.T.);
#422=EDGE_CURVE('',#346,#347,#60,.T.);
#423=EDGE_CURVE('',#347,#348,#319,.T.);
#424=EDGE_CURVE('',#348,#349,#320,.T.);
#425=EDGE_CURVE('',#349,#347,#321,.T.);
#426=EDGE_CURVE('',#343,#348,#61,.T.);
#427=EDGE_CURVE('',#349,#339,#62,.T.);
#428=EDGE_CURVE('',#348,#350,#63,.T.);
#429=EDGE_CURVE('',#351,#350,#322,.T.);
#430=EDGE_CURVE('',#351,#349,#64,.T.);
#431=EDGE_CURVE('',#350,#352,#323,.T.);
#432=EDGE_CURVE('',#352,#351,#324,.T.);
#433=EDGE_CURVE('',#341,#352,#65,.T.);
#434=EDGE_CURVE('',#350,#342,#66,.T.);
#435=EDGE_CURVE('',#352,#353,#67,.T.);
#436=EDGE_CURVE('',#353,#354,#325,.F.);
#437=EDGE_CURVE('',#354,#351,#68,.T.);
#438=EDGE_CURVE('',#355,#356,#326,.F.);
#439=EDGE_CURVE('',#356,#357,#69,.T.);
#440=EDGE_CURVE('',#357,#358,#327,.F.);
#441=EDGE_CURVE('',#358,#355,#70,.T.);
#442=EDGE_CURVE('',#357,#359,#71,.T.);
#443=EDGE_CURVE('',#356,#360,#72,.T.);
#444=EDGE_CURVE('',#361,#360,#73,.T.);
#445=EDGE_CURVE('',#362,#361,#74,.T.);
#446=EDGE_CURVE('',#335,#362,#75,.T.);
#447=EDGE_CURVE('',#354,#363,#76,.T.);
#448=EDGE_CURVE('',#364,#363,#77,.T.);
#449=EDGE_CURVE('',#365,#364,#78,.T.);
#450=EDGE_CURVE('',#366,#365,#79,.T.);
#451=EDGE_CURVE('',#366,#367,#80,.T.);
#452=EDGE_CURVE('',#368,#367,#81,.T.);
#453=EDGE_CURVE('',#369,#368,#82,.T.);
#454=EDGE_CURVE('',#370,#369,#83,.T.);
#455=EDGE_CURVE('',#370,#371,#84,.T.);
#456=EDGE_CURVE('',#359,#371,#85,.T.);
#457=EDGE_CURVE('',#372,#370,#328,.F.);
#458=EDGE_CURVE('',#369,#373,#329,.F.);
#459=EDGE_CURVE('',#373,#372,#86,.T.);
#460=EDGE_CURVE('',#374,#366,#330,.F.);
#461=EDGE_CURVE('',#365,#375,#331,.F.);
#462=EDGE_CURVE('',#375,#374,#87,.T.);
#463=EDGE_CURVE('',#362,#376,#332,.F.);
#464=EDGE_CURVE('',#376,#333,#88,.T.);
#465=EDGE_CURVE('',#376,#377,#89,.T.);
#466=EDGE_CURVE('',#377,#378,#90,.T.);
#467=EDGE_CURVE('',#378,#355,#91,.T.);
#468=EDGE_CURVE('',#358,#379,#92,.T.);
#469=EDGE_CURVE('',#379,#380,#93,.T.);
#470=EDGE_CURVE('',#380,#372,#94,.T.);
#471=EDGE_CURVE('',#373,#381,#95,.T.);
#472=EDGE_CURVE('',#381,#382,#96,.T.);
#473=EDGE_CURVE('',#382,#374,#97,.T.);
#474=EDGE_CURVE('',#375,#383,#98,.T.);
#475=EDGE_CURVE('',#383,#384,#99,.T.);
#476=EDGE_CURVE('',#384,#353,#100,.T.);
#477=EDGE_CURVE('',#385,#386,#15,.T.);
#478=EDGE_CURVE('',#386,#364,#101,.T.);
#479=EDGE_CURVE('',#385,#364,#16,.T.);
#480=EDGE_CURVE('',#387,#363,#17,.T.);
#481=EDGE_CURVE('',#387,#388,#18,.T.);
#482=EDGE_CURVE('',#388,#386,#102,.T.);
#483=EDGE_CURVE('',#363,#388,#103,.T.);
#484=EDGE_CURVE('',#383,#386,#104,.T.);
#485=EDGE_CURVE('',#389,#390,#19,.T.);
#486=EDGE_CURVE('',#390,#368,#105,.T.);
#487=EDGE_CURVE('',#389,#368,#20,.T.);
#488=EDGE_CURVE('',#391,#367,#21,.T.);
#489=EDGE_CURVE('',#391,#392,#22,.T.);
#490=EDGE_CURVE('',#392,#390,#106,.T.);
#491=EDGE_CURVE('',#367,#392,#107,.T.);
#492=EDGE_CURVE('',#381,#390,#108,.T.);
#493=EDGE_CURVE('',#393,#394,#23,.T.);
#494=EDGE_CURVE('',#394,#359,#109,.T.);
#495=EDGE_CURVE('',#393,#359,#24,.T.);
#496=EDGE_CURVE('',#395,#371,#25,.T.);
#497=EDGE_CURVE('',#395,#396,#26,.T.);
#498=EDGE_CURVE('',#396,#394,#110,.T.);
#499=EDGE_CURVE('',#371,#396,#111,.T.);
#500=EDGE_CURVE('',#379,#394,#112,.T.);
#501=EDGE_CURVE('',#397,#360,#27,.T.);
#502=EDGE_CURVE('',#360,#398,#113,.T.);
#503=EDGE_CURVE('',#397,#398,#28,.T.);
#504=EDGE_CURVE('',#398,#399,#114,.T.);
#505=EDGE_CURVE('',#400,#399,#29,.T.);
#506=EDGE_CURVE('',#400,#361,#30,.T.);
#507=EDGE_CURVE('',#399,#361,#115,.T.);
#508=EDGE_CURVE('',#378,#398,#116,.T.);
#509=EDGE_CURVE('',#377,#399,#117,.T.);
#510=EDGE_CURVE('',#384,#388,#118,.T.);
#511=EDGE_CURVE('',#382,#392,#119,.T.);
#512=EDGE_CURVE('',#380,#396,#120,.T.);
#513=ORIENTED_EDGE('',*,*,#401,.T.);
#514=ORIENTED_EDGE('',*,*,#402,.T.);
#515=ORIENTED_EDGE('',*,*,#403,.T.);
#516=ORIENTED_EDGE('',*,*,#404,.T.);
#517=ORIENTED_EDGE('',*,*,#405,.T.);
#518=ORIENTED_EDGE('',*,*,#401,.F.);
#519=ORIENTED_EDGE('',*,*,#406,.T.);
#520=ORIENTED_EDGE('',*,*,#402,.F.);
#521=ORIENTED_EDGE('',*,*,#407,.T.);
#522=ORIENTED_EDGE('',*,*,#408,.F.);
#523=ORIENTED_EDGE('',*,*,#409,.T.);
#524=ORIENTED_EDGE('',*,*,#405,.F.);
#525=ORIENTED_EDGE('',*,*,#410,.F.);
#526=ORIENTED_EDGE('',*,*,#411,.F.);
#527=ORIENTED_EDGE('',*,*,#407,.F.);
#528=ORIENTED_EDGE('',*,*,#404,.F.);
#529=ORIENTED_EDGE('',*,*,#412,.T.);
#530=ORIENTED_EDGE('',*,*,#413,.F.);
#531=ORIENTED_EDGE('',*,*,#414,.T.);
#532=ORIENTED_EDGE('',*,*,#415,.F.);
#533=ORIENTED_EDGE('',*,*,#416,.T.);
#534=ORIENTED_EDGE('',*,*,#417,.F.);
#535=ORIENTED_EDGE('',*,*,#410,.T.);
#536=ORIENTED_EDGE('',*,*,#417,.T.);
#537=ORIENTED_EDGE('',*,*,#418,.T.);
#538=ORIENTED_EDGE('',*,*,#419,.T.);
#539=ORIENTED_EDGE('',*,*,#411,.T.);
#540=ORIENTED_EDGE('',*,*,#419,.F.);
#541=ORIENTED_EDGE('',*,*,#420,.T.);
#542=ORIENTED_EDGE('',*,*,#408,.T.);
#543=ORIENTED_EDGE('',*,*,#418,.F.);
#544=ORIENTED_EDGE('',*,*,#416,.F.);
#545=ORIENTED_EDGE('',*,*,#421,.F.);
#546=ORIENTED_EDGE('',*,*,#422,.F.);
#547=ORIENTED_EDGE('',*,*,#423,.T.);
#548=ORIENTED_EDGE('',*,*,#424,.T.);
#549=ORIENTED_EDGE('',*,*,#425,.T.);
#550=ORIENTED_EDGE('',*,*,#415,.T.);
#551=ORIENTED_EDGE('',*,*,#426,.T.);
#552=ORIENTED_EDGE('',*,*,#423,.F.);
#553=ORIENTED_EDGE('',*,*,#421,.T.);
#554=ORIENTED_EDGE('',*,*,#420,.F.);
#555=ORIENTED_EDGE('',*,*,#422,.T.);
#556=ORIENTED_EDGE('',*,*,#425,.F.);
#557=ORIENTED_EDGE('',*,*,#427,.T.);
#558=ORIENTED_EDGE('',*,*,#424,.F.);
#559=ORIENTED_EDGE('',*,*,#428,.T.);
#560=ORIENTED_EDGE('',*,*,#429,.F.);
#561=ORIENTED_EDGE('',*,*,#430,.T.);
#562=ORIENTED_EDGE('',*,*,#431,.T.);
#563=ORIENTED_EDGE('',*,*,#432,.T.);
#564=ORIENTED_EDGE('',*,*,#429,.T.);
#565=ORIENTED_EDGE('',*,*,#413,.T.);
#566=ORIENTED_EDGE('',*,*,#433,.T.);
#567=ORIENTED_EDGE('',*,*,#431,.F.);
#568=ORIENTED_EDGE('',*,*,#434,.T.);
#569=ORIENTED_EDGE('',*,*,#426,.F.);
#570=ORIENTED_EDGE('',*,*,#414,.F.);
#571=ORIENTED_EDGE('',*,*,#434,.F.);
#572=ORIENTED_EDGE('',*,*,#428,.F.);
#573=ORIENTED_EDGE('',*,*,#432,.F.);
#574=ORIENTED_EDGE('',*,*,#435,.T.);
#575=ORIENTED_EDGE('',*,*,#436,.T.);
#576=ORIENTED_EDGE('',*,*,#437,.T.);
#577=ORIENTED_EDGE('',*,*,#438,.T.);
#578=ORIENTED_EDGE('',*,*,#439,.T.);
#579=ORIENTED_EDGE('',*,*,#440,.T.);
#580=ORIENTED_EDGE('',*,*,#441,.T.);
#581=ORIENTED_EDGE('',*,*,#442,.F.);
#582=ORIENTED_EDGE('',*,*,#439,.F.);
#583=ORIENTED_EDGE('',*,*,#443,.T.);
#584=ORIENTED_EDGE('',*,*,#444,.F.);
#585=ORIENTED_EDGE('',*,*,#445,.F.);
#586=ORIENTED_EDGE('',*,*,#446,.F.);
#587=ORIENTED_EDGE('',*,*,#409,.F.);
#588=ORIENTED_EDGE('',*,*,#427,.F.);
#589=ORIENTED_EDGE('',*,*,#430,.F.);
#590=ORIENTED_EDGE('',*,*,#437,.F.);
#591=ORIENTED_EDGE('',*,*,#447,.T.);
#592=ORIENTED_EDGE('',*,*,#448,.F.);
#593=ORIENTED_EDGE('',*,*,#449,.F.);
#594=ORIENTED_EDGE('',*,*,#450,.F.);
#595=ORIENTED_EDGE('',*,*,#451,.T.);
#596=ORIENTED_EDGE('',*,*,#452,.F.);
#597=ORIENTED_EDGE('',*,*,#453,.F.);
#598=ORIENTED_EDGE('',*,*,#454,.F.);
#599=ORIENTED_EDGE('',*,*,#455,.T.);
#600=ORIENTED_EDGE('',*,*,#456,.F.);
#601=ORIENTED_EDGE('',*,*,#457,.T.);
#602=ORIENTED_EDGE('',*,*,#454,.T.);
#603=ORIENTED_EDGE('',*,*,#458,.T.);
#604=ORIENTED_EDGE('',*,*,#459,.T.);
#605=ORIENTED_EDGE('',*,*,#460,.T.);
#606=ORIENTED_EDGE('',*,*,#450,.T.);
#607=ORIENTED_EDGE('',*,*,#461,.T.);
#608=ORIENTED_EDGE('',*,*,#462,.T.);
#609=ORIENTED_EDGE('',*,*,#403,.F.);
#610=ORIENTED_EDGE('',*,*,#446,.T.);
#611=ORIENTED_EDGE('',*,*,#463,.T.);
#612=ORIENTED_EDGE('',*,*,#464,.T.);
#613=ORIENTED_EDGE('',*,*,#406,.F.);
#614=ORIENTED_EDGE('',*,*,#464,.F.);
#615=ORIENTED_EDGE('',*,*,#465,.T.);
#616=ORIENTED_EDGE('',*,*,#466,.T.);
#617=ORIENTED_EDGE('',*,*,#467,.T.);
#618=ORIENTED_EDGE('',*,*,#441,.F.);
#619=ORIENTED_EDGE('',*,*,#468,.T.);
#620=ORIENTED_EDGE('',*,*,#469,.T.);
#621=ORIENTED_EDGE('',*,*,#470,.T.);
#622=ORIENTED_EDGE('',*,*,#459,.F.);
#623=ORIENTED_EDGE('',*,*,#471,.T.);
#624=ORIENTED_EDGE('',*,*,#472,.T.);
#625=ORIENTED_EDGE('',*,*,#473,.T.);
#626=ORIENTED_EDGE('',*,*,#462,.F.);
#627=ORIENTED_EDGE('',*,*,#474,.T.);
#628=ORIENTED_EDGE('',*,*,#475,.T.);
#629=ORIENTED_EDGE('',*,*,#476,.T.);
#630=ORIENTED_EDGE('',*,*,#435,.F.);
#631=ORIENTED_EDGE('',*,*,#433,.F.);
#632=ORIENTED_EDGE('',*,*,#412,.F.);
#633=ORIENTED_EDGE('',*,*,#477,.T.);
#634=ORIENTED_EDGE('',*,*,#478,.T.);
#635=ORIENTED_EDGE('',*,*,#479,.F.);
#636=ORIENTED_EDGE('',*,*,#479,.T.);
#637=ORIENTED_EDGE('',*,*,#448,.T.);
#638=ORIENTED_EDGE('',*,*,#480,.F.);
#639=ORIENTED_EDGE('',*,*,#481,.T.);
#640=ORIENTED_EDGE('',*,*,#482,.T.);
#641=ORIENTED_EDGE('',*,*,#477,.F.);
#642=ORIENTED_EDGE('',*,*,#480,.T.);
#643=ORIENTED_EDGE('',*,*,#483,.T.);
#644=ORIENTED_EDGE('',*,*,#481,.F.);
#645=ORIENTED_EDGE('',*,*,#478,.F.);
#646=ORIENTED_EDGE('',*,*,#484,.F.);
#647=ORIENTED_EDGE('',*,*,#474,.F.);
#648=ORIENTED_EDGE('',*,*,#461,.F.);
#649=ORIENTED_EDGE('',*,*,#449,.T.);
#650=ORIENTED_EDGE('',*,*,#485,.T.);
#651=ORIENTED_EDGE('',*,*,#486,.T.);
#652=ORIENTED_EDGE('',*,*,#487,.F.);
#653=ORIENTED_EDGE('',*,*,#487,.T.);
#654=ORIENTED_EDGE('',*,*,#452,.T.);
#655=ORIENTED_EDGE('',*,*,#488,.F.);
#656=ORIENTED_EDGE('',*,*,#489,.T.);
#657=ORIENTED_EDGE('',*,*,#490,.T.);
#658=ORIENTED_EDGE('',*,*,#485,.F.);
#659=ORIENTED_EDGE('',*,*,#488,.T.);
#660=ORIENTED_EDGE('',*,*,#491,.T.);
#661=ORIENTED_EDGE('',*,*,#489,.F.);
#662=ORIENTED_EDGE('',*,*,#486,.F.);
#663=ORIENTED_EDGE('',*,*,#492,.F.);
#664=ORIENTED_EDGE('',*,*,#471,.F.);
#665=ORIENTED_EDGE('',*,*,#458,.F.);
#666=ORIENTED_EDGE('',*,*,#453,.T.);
#667=ORIENTED_EDGE('',*,*,#493,.T.);
#668=ORIENTED_EDGE('',*,*,#494,.T.);
#669=ORIENTED_EDGE('',*,*,#495,.F.);
#670=ORIENTED_EDGE('',*,*,#495,.T.);
#671=ORIENTED_EDGE('',*,*,#456,.T.);
#672=ORIENTED_EDGE('',*,*,#496,.F.);
#673=ORIENTED_EDGE('',*,*,#497,.T.);
#674=ORIENTED_EDGE('',*,*,#498,.T.);
#675=ORIENTED_EDGE('',*,*,#493,.F.);
#676=ORIENTED_EDGE('',*,*,#496,.T.);
#677=ORIENTED_EDGE('',*,*,#499,.T.);
#678=ORIENTED_EDGE('',*,*,#497,.F.);
#679=ORIENTED_EDGE('',*,*,#494,.F.);
#680=ORIENTED_EDGE('',*,*,#500,.F.);
#681=ORIENTED_EDGE('',*,*,#468,.F.);
#682=ORIENTED_EDGE('',*,*,#440,.F.);
#683=ORIENTED_EDGE('',*,*,#442,.T.);
#684=ORIENTED_EDGE('',*,*,#501,.T.);
#685=ORIENTED_EDGE('',*,*,#502,.T.);
#686=ORIENTED_EDGE('',*,*,#503,.F.);
#687=ORIENTED_EDGE('',*,*,#503,.T.);
#688=ORIENTED_EDGE('',*,*,#504,.T.);
#689=ORIENTED_EDGE('',*,*,#505,.F.);
#690=ORIENTED_EDGE('',*,*,#506,.T.);
#691=ORIENTED_EDGE('',*,*,#444,.T.);
#692=ORIENTED_EDGE('',*,*,#501,.F.);
#693=ORIENTED_EDGE('',*,*,#505,.T.);
#694=ORIENTED_EDGE('',*,*,#507,.T.);
#695=ORIENTED_EDGE('',*,*,#506,.F.);
#696=ORIENTED_EDGE('',*,*,#504,.F.);
#697=ORIENTED_EDGE('',*,*,#508,.F.);
#698=ORIENTED_EDGE('',*,*,#466,.F.);
#699=ORIENTED_EDGE('',*,*,#509,.T.);
#700=ORIENTED_EDGE('',*,*,#502,.F.);
#701=ORIENTED_EDGE('',*,*,#443,.F.);
#702=ORIENTED_EDGE('',*,*,#438,.F.);
#703=ORIENTED_EDGE('',*,*,#467,.F.);
#704=ORIENTED_EDGE('',*,*,#508,.T.);
#705=ORIENTED_EDGE('',*,*,#483,.F.);
#706=ORIENTED_EDGE('',*,*,#447,.F.);
#707=ORIENTED_EDGE('',*,*,#436,.F.);
#708=ORIENTED_EDGE('',*,*,#476,.F.);
#709=ORIENTED_EDGE('',*,*,#510,.T.);
#710=ORIENTED_EDGE('',*,*,#482,.F.);
#711=ORIENTED_EDGE('',*,*,#510,.F.);
#712=ORIENTED_EDGE('',*,*,#475,.F.);
#713=ORIENTED_EDGE('',*,*,#484,.T.);
#714=ORIENTED_EDGE('',*,*,#507,.F.);
#715=ORIENTED_EDGE('',*,*,#509,.F.);
#716=ORIENTED_EDGE('',*,*,#465,.F.);
#717=ORIENTED_EDGE('',*,*,#463,.F.);
#718=ORIENTED_EDGE('',*,*,#445,.T.);
#719=ORIENTED_EDGE('',*,*,#491,.F.);
#720=ORIENTED_EDGE('',*,*,#451,.F.);
#721=ORIENTED_EDGE('',*,*,#460,.F.);
#722=ORIENTED_EDGE('',*,*,#473,.F.);
#723=ORIENTED_EDGE('',*,*,#511,.T.);
#724=ORIENTED_EDGE('',*,*,#490,.F.);
#725=ORIENTED_EDGE('',*,*,#511,.F.);
#726=ORIENTED_EDGE('',*,*,#472,.F.);
#727=ORIENTED_EDGE('',*,*,#492,.T.);
#728=ORIENTED_EDGE('',*,*,#498,.F.);
#729=ORIENTED_EDGE('',*,*,#512,.F.);
#730=ORIENTED_EDGE('',*,*,#469,.F.);
#731=ORIENTED_EDGE('',*,*,#500,.T.);
#732=ORIENTED_EDGE('',*,*,#499,.F.);
#733=ORIENTED_EDGE('',*,*,#455,.F.);
#734=ORIENTED_EDGE('',*,*,#457,.F.);
#735=ORIENTED_EDGE('',*,*,#470,.F.);
#736=ORIENTED_EDGE('',*,*,#512,.T.);
#737=SPHERICAL_SURFACE('',#801,0.5);
#738=SPHERICAL_SURFACE('',#816,0.5);
#739=SPHERICAL_SURFACE('',#819,0.5);
#740=SPHERICAL_SURFACE('',#827,0.5);
#741=ADVANCED_FACE('',(#217),#737,.T.);
#742=ADVANCED_FACE('',(#218),#193,.T.);
#743=ADVANCED_FACE('',(#219),#194,.T.);
#744=ADVANCED_FACE('',(#220),#31,.T.);
#745=ADVANCED_FACE('',(#221),#32,.T.);
#746=ADVANCED_FACE('',(#222),#195,.T.);
#747=ADVANCED_FACE('',(#223),#738,.T.);
#748=ADVANCED_FACE('',(#224),#33,.T.);
#749=ADVANCED_FACE('',(#225),#739,.T.);
#750=ADVANCED_FACE('',(#226),#196,.T.);
#751=ADVANCED_FACE('',(#227),#197,.T.);
#752=ADVANCED_FACE('',(#228),#198,.T.);
#753=ADVANCED_FACE('',(#229),#740,.T.);
#754=ADVANCED_FACE('',(#230),#199,.T.);
#755=ADVANCED_FACE('',(#231),#34,.T.);
#756=ADVANCED_FACE('',(#232),#200,.T.);
#757=ADVANCED_FACE('',(#233),#201,.T.);
#758=ADVANCED_FACE('',(#234),#35,.F.);
#759=ADVANCED_FACE('',(#235),#202,.T.);
#760=ADVANCED_FACE('',(#236),#203,.T.);
#761=ADVANCED_FACE('',(#237),#204,.T.);
#762=ADVANCED_FACE('',(#238),#36,.T.);
#763=ADVANCED_FACE('',(#239),#205,.T.);
#764=ADVANCED_FACE('',(#240),#206,.T.);
#765=ADVANCED_FACE('',(#241),#207,.T.);
#766=ADVANCED_FACE('',(#242),#37,.T.);
#767=ADVANCED_FACE('',(#243),#208,.T.);
#768=ADVANCED_FACE('',(#244),#209,.T.);
#769=ADVANCED_FACE('',(#245),#210,.T.);
#770=ADVANCED_FACE('',(#246),#38,.T.);
#771=ADVANCED_FACE('',(#247),#211,.T.);
#772=ADVANCED_FACE('',(#248),#212,.T.);
#773=ADVANCED_FACE('',(#249),#213,.T.);
#774=ADVANCED_FACE('',(#250),#39,.T.);
#775=ADVANCED_FACE('',(#251),#214,.T.);
#776=ADVANCED_FACE('',(#252),#215,.T.);
#777=ADVANCED_FACE('',(#253),#216,.T.);
#778=ADVANCED_FACE('',(#254),#40,.T.);
#779=ADVANCED_FACE('',(#255),#41,.T.);
#780=ADVANCED_FACE('',(#256),#42,.T.);
#781=ADVANCED_FACE('',(#257),#43,.T.);
#782=ADVANCED_FACE('',(#258),#44,.T.);
#783=ADVANCED_FACE('',(#259),#45,.T.);
#784=ADVANCED_FACE('',(#260),#46,.T.);
#785=ADVANCED_FACE('',(#261),#47,.T.);
#786=ADVANCED_FACE('',(#262),#48,.T.);
#787=CLOSED_SHELL('',(#741,#742,#743,#744,#745,#746,#747,#748,#749,#750,
#751,#752,#753,#754,#755,#756,#757,#758,#759,#760,#761,#762,#763,#764,#765,
#766,#767,#768,#769,#770,#771,#772,#773,#774,#775,#776,#777,#778,#779,#780,
#781,#782,#783,#784,#785,#786));
#788=DERIVED_UNIT_ELEMENT(#790,1.);
#789=DERIVED_UNIT_ELEMENT(#1365,-3.);
#790=(
MASS_UNIT()
NAMED_UNIT(*)
SI_UNIT(.KILO.,.GRAM.)
);
#791=DERIVED_UNIT((#788,#789));
#792=MEASURE_REPRESENTATION_ITEM('density measure',
POSITIVE_RATIO_MEASURE(7850.),#791);
#793=PROPERTY_DEFINITION_REPRESENTATION(#798,#795);
#794=PROPERTY_DEFINITION_REPRESENTATION(#799,#796);
#795=REPRESENTATION('material name',(#797),#1362);
#796=REPRESENTATION('density',(#792),#1362);
#797=DESCRIPTIVE_REPRESENTATION_ITEM('Steel','Steel');
#798=PROPERTY_DEFINITION('material property','material name',#1372);
#799=PROPERTY_DEFINITION('material property','density of part',#1372);
#800=AXIS2_PLACEMENT_3D('',#1133,#887,#888);
#801=AXIS2_PLACEMENT_3D('',#1134,#889,#890);
#802=AXIS2_PLACEMENT_3D('',#1137,#891,#892);
#803=AXIS2_PLACEMENT_3D('',#1139,#893,#894);
#804=AXIS2_PLACEMENT_3D('',#1140,#895,#896);
#805=AXIS2_PLACEMENT_3D('',#1141,#897,#898);
#806=AXIS2_PLACEMENT_3D('',#1144,#899,#900);
#807=AXIS2_PLACEMENT_3D('',#1147,#903,#904);
#808=AXIS2_PLACEMENT_3D('',#1151,#906,#907);
#809=AXIS2_PLACEMENT_3D('',#1153,#909,#910);
#810=AXIS2_PLACEMENT_3D('',#1157,#913,#914);
#811=AXIS2_PLACEMENT_3D('',#1161,#916,#917);
#812=AXIS2_PLACEMENT_3D('',#1165,#919,#920);
#813=AXIS2_PLACEMENT_3D('',#1168,#922,#923);
#814=AXIS2_PLACEMENT_3D('',#1169,#924,#925);
#815=AXIS2_PLACEMENT_3D('',#1172,#927,#928);
#816=AXIS2_PLACEMENT_3D('',#1173,#929,#930);
#817=AXIS2_PLACEMENT_3D('',#1174,#931,#932);
#818=AXIS2_PLACEMENT_3D('',#1175,#933,#934);
#819=AXIS2_PLACEMENT_3D('',#1179,#937,#938);
#820=AXIS2_PLACEMENT_3D('',#1181,#939,#940);
#821=AXIS2_PLACEMENT_3D('',#1183,#941,#942);
#822=AXIS2_PLACEMENT_3D('',#1184,#943,#944);
#823=AXIS2_PLACEMENT_3D('',#1185,#945,#946);
#824=AXIS2_PLACEMENT_3D('',#1187,#948,#949);
#825=AXIS2_PLACEMENT_3D('',#1189,#951,#952);
#826=AXIS2_PLACEMENT_3D('',#1193,#954,#955);
#827=AXIS2_PLACEMENT_3D('',#1195,#957,#958);
#828=AXIS2_PLACEMENT_3D('',#1197,#959,#960);
#829=AXIS2_PLACEMENT_3D('',#1198,#961,#962);
#830=AXIS2_PLACEMENT_3D('',#1199,#963,#964);
#831=AXIS2_PLACEMENT_3D('',#1202,#967,#968);
#832=AXIS2_PLACEMENT_3D('',#1203,#969,#970);
#833=AXIS2_PLACEMENT_3D('',#1207,#972,#973);
#834=AXIS2_PLACEMENT_3D('',#1209,#975,#976);
#835=AXIS2_PLACEMENT_3D('',#1212,#977,#978);
#836=AXIS2_PLACEMENT_3D('',#1216,#980,#981);
#837=AXIS2_PLACEMENT_3D('',#1218,#983,#984);
#838=AXIS2_PLACEMENT_3D('',#1247,#1000,#1001);
#839=AXIS2_PLACEMENT_3D('',#1249,#1002,#1003);
#840=AXIS2_PLACEMENT_3D('',#1251,#1004,#1005);
#841=AXIS2_PLACEMENT_3D('',#1253,#1007,#1008);
#842=AXIS2_PLACEMENT_3D('',#1255,#1009,#1010);
#843=AXIS2_PLACEMENT_3D('',#1257,#1011,#1012);
#844=AXIS2_PLACEMENT_3D('',#1259,#1014,#1015);
#845=AXIS2_PLACEMENT_3D('',#1261,#1016,#1017);
#846=AXIS2_PLACEMENT_3D('',#1263,#1019,#1020);
#847=AXIS2_PLACEMENT_3D('',#1284,#1033,#1034);
#848=AXIS2_PLACEMENT_3D('',#1287,#1035,#1036);
#849=AXIS2_PLACEMENT_3D('',#1289,#1038,#1039);
#850=AXIS2_PLACEMENT_3D('',#1290,#1040,#1041);
#851=AXIS2_PLACEMENT_3D('',#1292,#1042,#1043);
#852=AXIS2_PLACEMENT_3D('',#1294,#1044,#1045);
#853=AXIS2_PLACEMENT_3D('',#1296,#1047,#1048);
#854=AXIS2_PLACEMENT_3D('',#1298,#1050,#1051);
#855=AXIS2_PLACEMENT_3D('',#1300,#1053,#1054);
#856=AXIS2_PLACEMENT_3D('',#1303,#1055,#1056);
#857=AXIS2_PLACEMENT_3D('',#1305,#1058,#1059);
#858=AXIS2_PLACEMENT_3D('',#1306,#1060,#1061);
#859=AXIS2_PLACEMENT_3D('',#1308,#1062,#1063);
#860=AXIS2_PLACEMENT_3D('',#1310,#1064,#1065);
#861=AXIS2_PLACEMENT_3D('',#1312,#1067,#1068);
#862=AXIS2_PLACEMENT_3D('',#1314,#1070,#1071);
#863=AXIS2_PLACEMENT_3D('',#1316,#1073,#1074);
#864=AXIS2_PLACEMENT_3D('',#1319,#1075,#1076);
#865=AXIS2_PLACEMENT_3D('',#1321,#1078,#1079);
#866=AXIS2_PLACEMENT_3D('',#1322,#1080,#1081);
#867=AXIS2_PLACEMENT_3D('',#1324,#1082,#1083);
#868=AXIS2_PLACEMENT_3D('',#1326,#1084,#1085);
#869=AXIS2_PLACEMENT_3D('',#1328,#1087,#1088);
#870=AXIS2_PLACEMENT_3D('',#1330,#1090,#1091);
#871=AXIS2_PLACEMENT_3D('',#1332,#1093,#1094);
#872=AXIS2_PLACEMENT_3D('',#1334,#1095,#1096);
#873=AXIS2_PLACEMENT_3D('',#1337,#1098,#1099);
#874=AXIS2_PLACEMENT_3D('',#1338,#1100,#1101);
#875=AXIS2_PLACEMENT_3D('',#1342,#1103,#1104);
#876=AXIS2_PLACEMENT_3D('',#1343,#1105,#1106);
#877=AXIS2_PLACEMENT_3D('',#1344,#1107,#1108);
#878=AXIS2_PLACEMENT_3D('',#1346,#1110,#1111);
#879=AXIS2_PLACEMENT_3D('',#1349,#1114,#1115);
#880=AXIS2_PLACEMENT_3D('',#1350,#1116,#1117);
#881=AXIS2_PLACEMENT_3D('',#1352,#1119,#1120);
#882=AXIS2_PLACEMENT_3D('',#1353,#1121,#1122);
#883=AXIS2_PLACEMENT_3D('',#1354,#1123,#1124);
#884=AXIS2_PLACEMENT_3D('',#1356,#1126,#1127);
#885=AXIS2_PLACEMENT_3D('',#1357,#1128,#1129);
#886=AXIS2_PLACEMENT_3D('',#1359,#1131,#1132);
#887=DIRECTION('axis',(0.,0.,1.));
#888=DIRECTION('refdir',(1.,0.,0.));
#889=DIRECTION('center_axis',(0.408248290463862,-0.816496580927727,0.408248290463863));
#890=DIRECTION('ref_axis',(-0.577350269189625,-0.577350269189625,-0.577350269189627));
#891=DIRECTION('center_axis',(0.,0.,-1.));
#892=DIRECTION('ref_axis',(0.,-1.,0.));
#893=DIRECTION('center_axis',(0.,-1.,0.));
#894=DIRECTION('ref_axis',(-0.707106781186546,0.,-0.707106781186549));
#895=DIRECTION('center_axis',(-1.,0.,0.));
#896=DIRECTION('ref_axis',(0.,-0.707106781186546,-0.707106781186549));
#897=DIRECTION('center_axis',(0.,0.,1.));
#898=DIRECTION('ref_axis',(-0.707106781186549,-0.707106781186546,0.));
#899=DIRECTION('center_axis',(0.,0.,-1.));
#900=DIRECTION('ref_axis',(-0.707106781186549,-0.707106781186546,0.));
#901=DIRECTION('',(0.,0.,-1.));
#902=DIRECTION('',(0.,0.,1.));
#903=DIRECTION('center_axis',(0.,-1.,0.));
#904=DIRECTION('ref_axis',(-0.707106781186546,0.,-0.707106781186549));
#905=DIRECTION('',(0.,1.,0.));
#906=DIRECTION('center_axis',(0.,1.,0.));
#907=DIRECTION('ref_axis',(-0.707106781186546,0.,-0.707106781186549));
#908=DIRECTION('',(0.,-1.,0.));
#909=DIRECTION('center_axis',(-1.,0.,0.));
#910=DIRECTION('ref_axis',(0.,-1.,0.));
#911=DIRECTION('',(0.,-1.,0.));
#912=DIRECTION('',(0.,0.,1.));
#913=DIRECTION('center_axis',(0.,0.,1.));
#914=DIRECTION('ref_axis',(1.,0.,0.));
#915=DIRECTION('',(1.,0.,0.));
#916=DIRECTION('center_axis',(0.,0.,-1.));
#917=DIRECTION('ref_axis',(0.707106781186553,-0.707106781186543,0.));
#918=DIRECTION('',(0.,1.,0.));
#919=DIRECTION('center_axis',(0.,0.,-1.));
#920=DIRECTION('ref_axis',(0.707106781186548,0.707106781186548,0.));
#921=DIRECTION('',(-1.,0.,0.));
#922=DIRECTION('center_axis',(0.,0.,-1.));
#923=DIRECTION('ref_axis',(-0.707106781186541,0.707106781186554,0.));
#924=DIRECTION('center_axis',(0.,0.,1.));
#925=DIRECTION('ref_axis',(-0.707106781186541,0.707106781186554,0.));
#926=DIRECTION('',(0.,0.,-1.));
#927=DIRECTION('center_axis',(0.,0.,1.));
#928=DIRECTION('ref_axis',(0.,1.,0.));
#929=DIRECTION('center_axis',(-0.81649658092773,-0.40824829046386,0.408248290463858));
#930=DIRECTION('ref_axis',(-0.577350269189625,0.577350269189626,-0.577350269189627));
#931=DIRECTION('center_axis',(-1.,0.,0.));
#932=DIRECTION('ref_axis',(0.,0.707106781186549,-0.707106781186546));
#933=DIRECTION('center_axis',(0.,1.,0.));
#934=DIRECTION('ref_axis',(-1.,0.,0.));
#935=DIRECTION('',(0.,0.,1.));
#936=DIRECTION('',(1.,0.,0.));
#937=DIRECTION('center_axis',(-0.816496580927725,0.408248290463863,-0.408248290463865));
#938=DIRECTION('ref_axis',(0.577350269189627,0.577350269189627,-0.577350269189624));
#939=DIRECTION('center_axis',(0.,0.,-1.));
#940=DIRECTION('ref_axis',(0.,1.,0.));
#941=DIRECTION('center_axis',(0.,1.,0.));
#942=DIRECTION('ref_axis',(0.707106781186549,0.,-0.707106781186546));
#943=DIRECTION('center_axis',(1.,0.,0.));
#944=DIRECTION('ref_axis',(0.,0.707106781186549,-0.707106781186546));
#945=DIRECTION('center_axis',(0.,0.,1.));
#946=DIRECTION('ref_axis',(0.707106781186548,0.707106781186548,0.));
#947=DIRECTION('',(0.,0.,-1.));
#948=DIRECTION('center_axis',(-1.,0.,0.));
#949=DIRECTION('ref_axis',(0.,0.707106781186553,-0.707106781186543));
#950=DIRECTION('',(-1.,0.,0.));
#951=DIRECTION('center_axis',(0.,1.,0.));
#952=DIRECTION('ref_axis',(0.707106781186553,0.,-0.707106781186543));
#953=DIRECTION('',(0.,-1.,0.));
#954=DIRECTION('center_axis',(0.,-1.,0.));
#955=DIRECTION('ref_axis',(0.707106781186549,0.,-0.707106781186546));
#956=DIRECTION('',(0.,1.,0.));
#957=DIRECTION('center_axis',(-0.408248290463861,0.408248290463859,-0.816496580927729));
#958=DIRECTION('ref_axis',(0.577350269189626,-0.577350269189625,-0.577350269189627));
#959=DIRECTION('center_axis',(0.,0.,-1.));
#960=DIRECTION('ref_axis',(1.,0.,0.));
#961=DIRECTION('center_axis',(1.,0.,0.));
#962=DIRECTION('ref_axis',(0.,-0.707106781186546,-0.707106781186549));
#963=DIRECTION('center_axis',(0.,0.,1.));
#964=DIRECTION('ref_axis',(0.707106781186553,-0.707106781186543,0.));
#965=DIRECTION('',(0.,0.,-1.));
#966=DIRECTION('',(0.,0.,1.));
#967=DIRECTION('center_axis',(1.,0.,0.));
#968=DIRECTION('ref_axis',(0.,1.,0.));
#969=DIRECTION('center_axis',(1.,0.,0.));
#970=DIRECTION('ref_axis',(0.,-0.707106781186546,-0.707106781186549));
#971=DIRECTION('',(-1.,0.,0.));
#972=DIRECTION('center_axis',(-1.,0.,0.));
#973=DIRECTION('ref_axis',(0.,-0.707106781186546,-0.707106781186549));
#974=DIRECTION('',(1.,0.,0.));
#975=DIRECTION('center_axis',(1.,0.,0.));
#976=DIRECTION('ref_axis',(0.,-0.707106781186546,-0.707106781186549));
#977=DIRECTION('center_axis',(-1.,0.,0.));
#978=DIRECTION('ref_axis',(0.,-0.707106781186546,-0.707106781186549));
#979=DIRECTION('',(1.,0.,0.));
#980=DIRECTION('center_axis',(1.,0.,0.));
#981=DIRECTION('ref_axis',(0.,-0.707106781186546,-0.707106781186549));
#982=DIRECTION('',(-1.,0.,0.));
#983=DIRECTION('center_axis',(0.,0.,1.));
#984=DIRECTION('ref_axis',(1.,0.,0.));
#985=DIRECTION('',(0.,-1.,0.));
#986=DIRECTION('',(0.,-1.,0.));
#987=DIRECTION('',(1.,0.,0.));
#988=DIRECTION('',(0.,-1.,0.));
#989=DIRECTION('',(1.,0.,0.));
#990=DIRECTION('',(0.,-1.,0.));
#991=DIRECTION('',(1.,0.,0.));
#992=DIRECTION('',(0.,-1.,0.));
#993=DIRECTION('',(1.,0.,0.));
#994=DIRECTION('',(0.,-1.,0.));
#995=DIRECTION('',(1.,0.,0.));
#996=DIRECTION('',(0.,-1.,0.));
#997=DIRECTION('',(1.,0.,0.));
#998=DIRECTION('',(0.,-1.,0.));
#999=DIRECTION('',(1.,0.,0.));
#1000=DIRECTION('center_axis',(1.,0.,0.));
#1001=DIRECTION('ref_axis',(0.,-0.707106781186546,-0.707106781186549));
#1002=DIRECTION('center_axis',(-1.,0.,0.));
#1003=DIRECTION('ref_axis',(0.,-0.707106781186546,-0.707106781186549));
#1004=DIRECTION('center_axis',(1.,0.,0.));
#1005=DIRECTION('ref_axis',(0.,-0.707106781186546,-0.707106781186549));
#1006=DIRECTION('',(-1.,0.,0.));
#1007=DIRECTION('center_axis',(1.,0.,0.));
#1008=DIRECTION('ref_axis',(0.,-0.707106781186546,-0.707106781186549));
#1009=DIRECTION('center_axis',(-1.,0.,0.));
#1010=DIRECTION('ref_axis',(0.,-0.707106781186546,-0.707106781186549));
#1011=DIRECTION('center_axis',(1.,0.,0.));
#1012=DIRECTION('ref_axis',(0.,-0.707106781186546,-0.707106781186549));
#1013=DIRECTION('',(-1.,0.,0.));
#1014=DIRECTION('center_axis',(1.,0.,0.));
#1015=DIRECTION('ref_axis',(0.,-0.707106781186546,-0.707106781186549));
#1016=DIRECTION('center_axis',(1.,0.,0.));
#1017=DIRECTION('ref_axis',(0.,-0.707106781186546,-0.707106781186549));
#1018=DIRECTION('',(-1.,0.,0.));
#1019=DIRECTION('center_axis',(0.,-1.,0.));
#1020=DIRECTION('ref_axis',(1.,0.,0.));
#1021=DIRECTION('',(0.,0.,1.));
#1022=DIRECTION('',(1.,0.,0.));
#1023=DIRECTION('',(0.,0.,-1.));
#1024=DIRECTION('',(0.,0.,1.));
#1025=DIRECTION('',(1.,0.,0.));
#1026=DIRECTION('',(0.,0.,-1.));
#1027=DIRECTION('',(0.,0.,1.));
#1028=DIRECTION('',(1.,0.,0.));
#1029=DIRECTION('',(0.,0.,-1.));
#1030=DIRECTION('',(0.,0.,1.));
#1031=DIRECTION('',(1.,0.,0.));
#1032=DIRECTION('',(0.,0.,-1.));
#1033=DIRECTION('center_axis',(0.,0.,-1.));
#1034=DIRECTION('ref_axis',(-0.70710678118654,-0.707106781186555,0.));
#1035=DIRECTION('center_axis',(-0.707106781186549,0.,-0.707106781186546));
#1036=DIRECTION('ref_axis',(-0.707106781186546,0.,0.707106781186549));
#1037=DIRECTION('',(0.,0.,-1.));
#1038=DIRECTION('center_axis',(0.707106781186549,0.,-0.707106781186546));
#1039=DIRECTION('ref_axis',(-0.707106781186546,0.,-0.707106781186549));
#1040=DIRECTION('center_axis',(-1.,0.,0.));
#1041=DIRECTION('ref_axis',(0.,-0.707106781186547,0.707106781186548));
#1042=DIRECTION('center_axis',(0.707106781186543,0.,0.707106781186553));
#1043=DIRECTION('ref_axis',(0.707106781186553,0.,-0.707106781186543));
#1044=DIRECTION('center_axis',(-0.707106781186543,0.,0.707106781186553));
#1045=DIRECTION('ref_axis',(0.707106781186553,0.,0.707106781186543));
#1046=DIRECTION('',(-1.,0.,0.));
#1047=DIRECTION('center_axis',(0.,0.,1.));
#1048=DIRECTION('ref_axis',(0.707106781186553,-0.707106781186542,0.));
#1049=DIRECTION('',(0.,0.,1.));
#1050=DIRECTION('center_axis',(-1.,0.,0.));
#1051=DIRECTION('ref_axis',(0.,0.,-1.));
#1052=DIRECTION('',(0.,-1.,0.));
#1053=DIRECTION('center_axis',(0.,0.,-1.));
#1054=DIRECTION('ref_axis',(-0.70710678118654,-0.707106781186555,0.));
#1055=DIRECTION('center_axis',(-0.707106781186549,0.,-0.707106781186546));
#1056=DIRECTION('ref_axis',(-0.707106781186546,0.,0.707106781186549));
#1057=DIRECTION('',(0.,0.,-1.));
#1058=DIRECTION('center_axis',(0.707106781186549,0.,-0.707106781186546));
#1059=DIRECTION('ref_axis',(-0.707106781186546,0.,-0.707106781186549));
#1060=DIRECTION('center_axis',(-1.,0.,0.));
#1061=DIRECTION('ref_axis',(0.,-0.707106781186547,0.707106781186548));
#1062=DIRECTION('center_axis',(0.707106781186549,0.,0.707106781186546));
#1063=DIRECTION('ref_axis',(0.707106781186546,0.,-0.707106781186549));
#1064=DIRECTION('center_axis',(-0.707106781186549,0.,0.707106781186546));
#1065=DIRECTION('ref_axis',(0.707106781186546,0.,0.707106781186549));
#1066=DIRECTION('',(-1.,0.,0.));
#1067=DIRECTION('center_axis',(0.,0.,1.));
#1068=DIRECTION('ref_axis',(0.70710678118654,-0.707106781186555,0.));
#1069=DIRECTION('',(0.,0.,1.));
#1070=DIRECTION('center_axis',(-1.,0.,0.));
#1071=DIRECTION('ref_axis',(0.,0.,-1.));
#1072=DIRECTION('',(0.,-1.,0.));
#1073=DIRECTION('center_axis',(0.,0.,-1.));
#1074=DIRECTION('ref_axis',(-0.707106781186547,-0.707106781186548,0.));
#1075=DIRECTION('center_axis',(-0.707106781186549,0.,-0.707106781186546));
#1076=DIRECTION('ref_axis',(-0.707106781186546,0.,0.707106781186549));
#1077=DIRECTION('',(0.,0.,-1.));
#1078=DIRECTION('center_axis',(0.707106781186549,0.,-0.707106781186546));
#1079=DIRECTION('ref_axis',(-0.707106781186546,0.,-0.707106781186549));
#1080=DIRECTION('center_axis',(-1.,0.,0.));
#1081=DIRECTION('ref_axis',(0.,-0.707106781186547,0.707106781186548));
#1082=DIRECTION('center_axis',(0.707106781186549,0.,0.707106781186546));
#1083=DIRECTION('ref_axis',(0.707106781186546,0.,-0.707106781186549));
#1084=DIRECTION('center_axis',(-0.707106781186549,0.,0.707106781186546));
#1085=DIRECTION('ref_axis',(0.707106781186546,0.,0.707106781186549));
#1086=DIRECTION('',(-1.,0.,0.));
#1087=DIRECTION('center_axis',(0.,0.,1.));
#1088=DIRECTION('ref_axis',(0.707106781186547,-0.707106781186548,0.));
#1089=DIRECTION('',(0.,0.,1.));
#1090=DIRECTION('center_axis',(-1.,0.,0.));
#1091=DIRECTION('ref_axis',(0.,0.,-1.));
#1092=DIRECTION('',(0.,-1.,0.));
#1093=DIRECTION('center_axis',(0.,0.,1.));
#1094=DIRECTION('ref_axis',(0.70710678118655,-0.707106781186545,0.));
#1095=DIRECTION('center_axis',(0.707106781186547,0.,0.707106781186548));
#1096=DIRECTION('ref_axis',(0.707106781186548,0.,-0.707106781186547));
#1097=DIRECTION('',(0.,0.,1.));
#1098=DIRECTION('center_axis',(-0.707106781186547,0.,0.707106781186548));
#1099=DIRECTION('ref_axis',(0.707106781186548,0.,0.707106781186547));
#1100=DIRECTION('center_axis',(1.,0.,0.));
#1101=DIRECTION('ref_axis',(0.,-0.707106781186548,-0.707106781186547));
#1102=DIRECTION('',(-1.,0.,0.));
#1103=DIRECTION('center_axis',(-0.707106781186547,0.,-0.707106781186548));
#1104=DIRECTION('ref_axis',(-0.707106781186548,0.,0.707106781186547));
#1105=DIRECTION('center_axis',(0.707106781186547,0.,-0.707106781186548));
#1106=DIRECTION('ref_axis',(-0.707106781186548,0.,-0.707106781186547));
#1107=DIRECTION('center_axis',(0.,0.,-1.));
#1108=DIRECTION('ref_axis',(-0.70710678118655,-0.707106781186545,0.));
#1109=DIRECTION('',(0.,0.,-1.));
#1110=DIRECTION('center_axis',(0.,0.,1.));
#1111=DIRECTION('ref_axis',(-1.,0.,0.));
#1112=DIRECTION('',(0.,-1.,0.));
#1113=DIRECTION('',(0.,-1.,0.));
#1114=DIRECTION('center_axis',(1.,0.,0.));
#1115=DIRECTION('ref_axis',(0.,0.,1.));
#1116=DIRECTION('center_axis',(1.,0.,0.));
#1117=DIRECTION('ref_axis',(0.,0.,1.));
#1118=DIRECTION('',(0.,-1.,0.));
#1119=DIRECTION('center_axis',(0.,0.,1.));
#1120=DIRECTION('ref_axis',(-1.,0.,0.));
#1121=DIRECTION('center_axis',(-1.,0.,0.));
#1122=DIRECTION('ref_axis',(0.,0.,-1.));
#1123=DIRECTION('center_axis',(1.,0.,0.));
#1124=DIRECTION('ref_axis',(0.,0.,1.));
#1125=DIRECTION('',(0.,-1.,0.));
#1126=DIRECTION('center_axis',(0.,0.,1.));
#1127=DIRECTION('ref_axis',(-1.,0.,0.));
#1128=DIRECTION('center_axis',(0.,0.,1.));
#1129=DIRECTION('ref_axis',(-1.,0.,0.));
#1130=DIRECTION('',(0.,-1.,0.));
#1131=DIRECTION('center_axis',(1.,0.,0.));
#1132=DIRECTION('ref_axis',(0.,0.,1.));
#1133=CARTESIAN_POINT('',(0.,0.,0.));
#1134=CARTESIAN_POINT('Origin',(0.499999999999998,0.499999999999998,0.5));
#1135=CARTESIAN_POINT('',(0.499999999999998,0.,0.5));
#1136=CARTESIAN_POINT('',(0.,0.499999999999998,0.5));
#1137=CARTESIAN_POINT('Origin',(0.499999999999998,0.499999999999998,0.5));
#1138=CARTESIAN_POINT('',(0.499999999999998,0.499999999999998,0.));
#1139=CARTESIAN_POINT('Origin',(0.499999999999998,0.499999999999998,0.5));
#1140=CARTESIAN_POINT('Origin',(0.499999999999998,0.499999999999998,0.5));
#1141=CARTESIAN_POINT('Origin',(0.5,0.499999999999998,0.));
#1142=CARTESIAN_POINT('',(0.5,0.,2.));
#1143=CARTESIAN_POINT('',(0.,0.500000000000007,2.));
#1144=CARTESIAN_POINT('Origin',(0.5,0.499999999999998,2.));
#1145=CARTESIAN_POINT('',(0.,0.499999999999998,0.));
#1146=CARTESIAN_POINT('',(0.5,0.,0.));
#1147=CARTESIAN_POINT('Origin',(0.499999999999998,66.,0.5));
#1148=CARTESIAN_POINT('',(0.,87.5,0.5));
#1149=CARTESIAN_POINT('',(0.,66.,0.5));
#1150=CARTESIAN_POINT('',(0.499999999999998,87.5,0.));
#1151=CARTESIAN_POINT('Origin',(0.499999999999998,87.5,0.5));
#1152=CARTESIAN_POINT('',(0.499999999999998,66.,0.));
#1153=CARTESIAN_POINT('Origin',(0.,88.,0.));
#1154=CARTESIAN_POINT('',(0.,87.5,2.));
#1155=CARTESIAN_POINT('',(0.,88.,2.));
#1156=CARTESIAN_POINT('',(0.,87.5,0.));
#1157=CARTESIAN_POINT('Origin',(46.5,44.,2.));
#1158=CARTESIAN_POINT('',(92.5,0.,2.));
#1159=CARTESIAN_POINT('',(0.,0.,2.));
#1160=CARTESIAN_POINT('',(93.,0.5,2.));
#1161=CARTESIAN_POINT('Origin',(92.5,0.5,2.));
#1162=CARTESIAN_POINT('',(93.,87.5,2.));
#1163=CARTESIAN_POINT('',(93.,0.,2.));
#1164=CARTESIAN_POINT('',(92.5,88.,2.));
#1165=CARTESIAN_POINT('Origin',(92.5,87.5,2.));
#1166=CARTESIAN_POINT('',(0.500000000000007,88.,2.));
#1167=CARTESIAN_POINT('',(93.,88.,2.));
#1168=CARTESIAN_POINT('Origin',(0.499999999999998,87.5,2.));
#1169=CARTESIAN_POINT('Origin',(0.499999999999998,87.5,0.));
#1170=CARTESIAN_POINT('',(0.499999999999998,88.,0.5));
#1171=CARTESIAN_POINT('',(0.499999999999998,88.,0.));
#1172=CARTESIAN_POINT('Origin',(0.499999999999998,87.5,0.5));
#1173=CARTESIAN_POINT('Origin',(0.499999999999998,87.5,0.5));
#1174=CARTESIAN_POINT('Origin',(0.499999999999998,87.5,0.5));
#1175=CARTESIAN_POINT('Origin',(93.,88.,0.));
#1176=CARTESIAN_POINT('',(92.5,88.,0.5));
#1177=CARTESIAN_POINT('',(92.5,88.,0.));
#1178=CARTESIAN_POINT('',(69.75,88.,0.5));
#1179=CARTESIAN_POINT('Origin',(92.5,87.5,0.5));
#1180=CARTESIAN_POINT('',(93.,87.5,0.5));
#1181=CARTESIAN_POINT('Origin',(92.5,87.5,0.5));
#1182=CARTESIAN_POINT('',(92.5,87.5,0.));
#1183=CARTESIAN_POINT('Origin',(92.5,87.5,0.5));
#1184=CARTESIAN_POINT('Origin',(92.5,87.5,0.5));
#1185=CARTESIAN_POINT('Origin',(92.5,87.5,0.));
#1186=CARTESIAN_POINT('',(93.,87.5,0.));
#1187=CARTESIAN_POINT('Origin',(69.75,87.5,0.5));
#1188=CARTESIAN_POINT('',(69.75,87.5,0.));
#1189=CARTESIAN_POINT('Origin',(92.5,22.,0.5));
#1190=CARTESIAN_POINT('',(93.,0.499999999999998,0.5));
#1191=CARTESIAN_POINT('',(93.,22.,0.5));
#1192=CARTESIAN_POINT('',(92.5,0.499999999999998,0.));
#1193=CARTESIAN_POINT('Origin',(92.5,0.499999999999998,0.5));
#1194=CARTESIAN_POINT('',(92.5,22.,0.));
#1195=CARTESIAN_POINT('Origin',(92.5,0.499999999999998,0.5));
#1196=CARTESIAN_POINT('',(92.5,0.,0.5));
#1197=CARTESIAN_POINT('Origin',(92.5,0.499999999999998,0.5));
#1198=CARTESIAN_POINT('Origin',(92.5,0.499999999999998,0.5));
#1199=CARTESIAN_POINT('Origin',(92.5,0.5,0.));
#1200=CARTESIAN_POINT('',(92.5,0.,0.));
#1201=CARTESIAN_POINT('',(93.,0.5,0.));
#1202=CARTESIAN_POINT('Origin',(93.,0.,0.));
#1203=CARTESIAN_POINT('Origin',(23.25,0.499999999999998,0.5));
#1204=CARTESIAN_POINT('',(83.,0.,0.5));
#1205=CARTESIAN_POINT('',(23.25,0.,0.5));
#1206=CARTESIAN_POINT('',(83.,0.499999999999998,0.));
#1207=CARTESIAN_POINT('Origin',(83.,0.499999999999998,0.5));
#1208=CARTESIAN_POINT('',(23.25,0.499999999999998,0.));
#1209=CARTESIAN_POINT('Origin',(23.25,0.499999999999998,0.5));
#1210=CARTESIAN_POINT('',(15.,0.,0.5));
#1211=CARTESIAN_POINT('',(15.,0.499999999999998,0.));
#1212=CARTESIAN_POINT('Origin',(15.,0.499999999999998,0.5));
#1213=CARTESIAN_POINT('',(30.,0.499999999999998,0.));
#1214=CARTESIAN_POINT('',(23.25,0.499999999999998,0.));
#1215=CARTESIAN_POINT('',(30.,0.,0.5));
#1216=CARTESIAN_POINT('Origin',(30.,0.499999999999998,0.5));
#1217=CARTESIAN_POINT('',(23.25,0.,0.5));
#1218=CARTESIAN_POINT('Origin',(46.5,44.,0.));
#1219=CARTESIAN_POINT('',(30.,-2.5,0.));
#1220=CARTESIAN_POINT('',(30.,0.,0.));
#1221=CARTESIAN_POINT('',(15.,-2.5,0.));
#1222=CARTESIAN_POINT('',(15.,0.,0.));
#1223=CARTESIAN_POINT('',(10.,-2.5,0.));
#1224=CARTESIAN_POINT('',(29.5,-2.5,0.));
#1225=CARTESIAN_POINT('',(10.,0.499999999999998,0.));
#1226=CARTESIAN_POINT('',(10.,0.,0.));
#1227=CARTESIAN_POINT('',(23.25,0.499999999999998,0.));
#1228=CARTESIAN_POINT('',(83.,-2.5,0.));
#1229=CARTESIAN_POINT('',(83.,0.,0.));
#1230=CARTESIAN_POINT('',(78.,-2.5,0.));
#1231=CARTESIAN_POINT('',(63.5,-2.5,0.));
#1232=CARTESIAN_POINT('',(78.,0.499999999999998,0.));
#1233=CARTESIAN_POINT('',(78.,0.,0.));
#1234=CARTESIAN_POINT('',(63.,0.499999999999998,0.));
#1235=CARTESIAN_POINT('',(23.25,0.499999999999998,0.));
#1236=CARTESIAN_POINT('',(63.,-2.5,0.));
#1237=CARTESIAN_POINT('',(63.,0.,0.));
#1238=CARTESIAN_POINT('',(58.,-2.5,0.));
#1239=CARTESIAN_POINT('',(53.5,-2.5,0.));
#1240=CARTESIAN_POINT('',(58.,0.499999999999998,0.));
#1241=CARTESIAN_POINT('',(58.,0.,0.));
#1242=CARTESIAN_POINT('',(35.,0.499999999999998,0.));
#1243=CARTESIAN_POINT('',(23.25,0.499999999999998,0.));
#1244=CARTESIAN_POINT('',(35.,-2.5,0.));
#1245=CARTESIAN_POINT('',(35.,0.,0.));
#1246=CARTESIAN_POINT('',(39.5,-2.5,0.));
#1247=CARTESIAN_POINT('Origin',(23.25,0.499999999999998,0.5));
#1248=CARTESIAN_POINT('',(35.,0.,0.5));
#1249=CARTESIAN_POINT('Origin',(35.,0.499999999999998,0.5));
#1250=CARTESIAN_POINT('',(58.,0.,0.5));
#1251=CARTESIAN_POINT('Origin',(58.,0.499999999999998,0.5));
#1252=CARTESIAN_POINT('',(23.25,0.,0.5));
#1253=CARTESIAN_POINT('Origin',(23.25,0.499999999999998,0.5));
#1254=CARTESIAN_POINT('',(63.,0.,0.5));
#1255=CARTESIAN_POINT('Origin',(63.,0.499999999999998,0.5));
#1256=CARTESIAN_POINT('',(78.,0.,0.5));
#1257=CARTESIAN_POINT('Origin',(78.,0.499999999999998,0.5));
#1258=CARTESIAN_POINT('',(23.25,0.,0.5));
#1259=CARTESIAN_POINT('Origin',(23.25,0.499999999999998,0.5));
#1260=CARTESIAN_POINT('',(10.,0.,0.5));
#1261=CARTESIAN_POINT('Origin',(10.,0.499999999999998,0.5));
#1262=CARTESIAN_POINT('',(23.25,0.,0.5));
#1263=CARTESIAN_POINT('Origin',(0.,0.,0.));
#1264=CARTESIAN_POINT('',(10.,0.,1.));
#1265=CARTESIAN_POINT('',(10.,0.,0.5));
#1266=CARTESIAN_POINT('',(15.,0.,1.));
#1267=CARTESIAN_POINT('',(7.5,0.,1.));
#1268=CARTESIAN_POINT('',(15.,0.,0.));
#1269=CARTESIAN_POINT('',(30.,0.,1.));
#1270=CARTESIAN_POINT('',(30.,0.,0.5));
#1271=CARTESIAN_POINT('',(35.,0.,1.));
#1272=CARTESIAN_POINT('',(17.5,0.,1.));
#1273=CARTESIAN_POINT('',(35.,0.,0.));
#1274=CARTESIAN_POINT('',(58.,0.,1.));
#1275=CARTESIAN_POINT('',(58.,0.,0.5));
#1276=CARTESIAN_POINT('',(63.,0.,1.));
#1277=CARTESIAN_POINT('',(31.5,0.,1.));
#1278=CARTESIAN_POINT('',(63.,0.,0.));
#1279=CARTESIAN_POINT('',(78.,0.,1.));
#1280=CARTESIAN_POINT('',(78.,0.,0.5));
#1281=CARTESIAN_POINT('',(83.,0.,1.));
#1282=CARTESIAN_POINT('',(41.5,0.,1.));
#1283=CARTESIAN_POINT('',(83.,0.,0.));
#1284=CARTESIAN_POINT('Origin',(78.5,-2.5,0.75));
#1285=CARTESIAN_POINT('',(78.5,-3.,0.5));
#1286=CARTESIAN_POINT('',(78.,-2.5,1.));
#1287=CARTESIAN_POINT('Origin',(78.5,-2.5,0.5));
#1288=CARTESIAN_POINT('',(78.,-2.5,0.75));
#1289=CARTESIAN_POINT('Origin',(78.5,-2.5,0.5));
#1290=CARTESIAN_POINT('Origin',(81.75,-2.5,0.5));
#1291=CARTESIAN_POINT('',(82.5,-3.,0.5));
#1292=CARTESIAN_POINT('Origin',(82.5,-2.5,0.5));
#1293=CARTESIAN_POINT('',(83.,-2.5,1.));
#1294=CARTESIAN_POINT('Origin',(82.5,-2.5,0.5));
#1295=CARTESIAN_POINT('',(81.75,-2.5,1.));
#1296=CARTESIAN_POINT('Origin',(82.5,-2.5,0.25));
#1297=CARTESIAN_POINT('',(83.,-2.5,0.25));
#1298=CARTESIAN_POINT('Origin',(78.,0.,1.));
#1299=CARTESIAN_POINT('',(78.,0.,1.));
#1300=CARTESIAN_POINT('Origin',(58.5,-2.5,0.75));
#1301=CARTESIAN_POINT('',(58.5,-3.,0.5));
#1302=CARTESIAN_POINT('',(58.,-2.5,1.));
#1303=CARTESIAN_POINT('Origin',(58.5,-2.5,0.5));
#1304=CARTESIAN_POINT('',(58.,-2.5,0.75));
#1305=CARTESIAN_POINT('Origin',(58.5,-2.5,0.5));
#1306=CARTESIAN_POINT('Origin',(61.75,-2.5,0.5));
#1307=CARTESIAN_POINT('',(62.5,-3.,0.5));
#1308=CARTESIAN_POINT('Origin',(62.5,-2.5,0.5));
#1309=CARTESIAN_POINT('',(63.,-2.5,1.));
#1310=CARTESIAN_POINT('Origin',(62.5,-2.5,0.5));
#1311=CARTESIAN_POINT('',(61.75,-2.5,1.));
#1312=CARTESIAN_POINT('Origin',(62.5,-2.5,0.25));
#1313=CARTESIAN_POINT('',(63.,-2.5,0.25));
#1314=CARTESIAN_POINT('Origin',(58.,0.,1.));
#1315=CARTESIAN_POINT('',(58.,0.,1.));
#1316=CARTESIAN_POINT('Origin',(30.5,-2.5,0.75));
#1317=CARTESIAN_POINT('',(30.5,-3.,0.5));
#1318=CARTESIAN_POINT('',(30.,-2.5,1.));
#1319=CARTESIAN_POINT('Origin',(30.5,-2.5,0.5));
#1320=CARTESIAN_POINT('',(30.,-2.5,0.75));
#1321=CARTESIAN_POINT('Origin',(30.5,-2.5,0.5));
#1322=CARTESIAN_POINT('Origin',(33.75,-2.5,0.5));
#1323=CARTESIAN_POINT('',(34.5,-3.,0.5));
#1324=CARTESIAN_POINT('Origin',(34.5,-2.5,0.5));
#1325=CARTESIAN_POINT('',(35.,-2.5,1.));
#1326=CARTESIAN_POINT('Origin',(34.5,-2.5,0.5));
#1327=CARTESIAN_POINT('',(33.75,-2.5,1.));
#1328=CARTESIAN_POINT('Origin',(34.5,-2.5,0.25));
#1329=CARTESIAN_POINT('',(35.,-2.5,0.25));
#1330=CARTESIAN_POINT('Origin',(30.,0.,1.));
#1331=CARTESIAN_POINT('',(30.,0.,1.));
#1332=CARTESIAN_POINT('Origin',(14.5,-2.5,0.25));
#1333=CARTESIAN_POINT('',(14.5,-3.,0.5));
#1334=CARTESIAN_POINT('Origin',(14.5,-2.5,0.5));
#1335=CARTESIAN_POINT('',(15.,-2.5,1.));
#1336=CARTESIAN_POINT('',(15.,-2.5,0.25));
#1337=CARTESIAN_POINT('Origin',(14.5,-2.5,0.5));
#1338=CARTESIAN_POINT('Origin',(29.5,-2.5,0.5));
#1339=CARTESIAN_POINT('',(10.,-2.5,1.));
#1340=CARTESIAN_POINT('',(13.75,-2.5,1.));
#1341=CARTESIAN_POINT('',(10.5,-3.,0.5));
#1342=CARTESIAN_POINT('Origin',(10.5,-2.5,0.5));
#1343=CARTESIAN_POINT('Origin',(10.5,-2.5,0.5));
#1344=CARTESIAN_POINT('Origin',(10.5,-2.5,0.75));
#1345=CARTESIAN_POINT('',(10.,-2.5,0.75));
#1346=CARTESIAN_POINT('Origin',(15.,0.,1.));
#1347=CARTESIAN_POINT('',(15.,0.,1.));
#1348=CARTESIAN_POINT('',(10.,0.,1.));
#1349=CARTESIAN_POINT('Origin',(15.,0.,0.));
#1350=CARTESIAN_POINT('Origin',(83.,0.,0.));
#1351=CARTESIAN_POINT('',(83.,0.,1.));
#1352=CARTESIAN_POINT('Origin',(83.,0.,1.));
#1353=CARTESIAN_POINT('Origin',(10.,0.,1.));
#1354=CARTESIAN_POINT('Origin',(63.,0.,0.));
#1355=CARTESIAN_POINT('',(63.,0.,1.));
#1356=CARTESIAN_POINT('Origin',(63.,0.,1.));
#1357=CARTESIAN_POINT('Origin',(35.,0.,1.));
#1358=CARTESIAN_POINT('',(35.,0.,1.));
#1359=CARTESIAN_POINT('Origin',(35.,0.,0.));
#1360=UNCERTAINTY_MEASURE_WITH_UNIT(LENGTH_MEASURE(0.01),#1364,
'DISTANCE_ACCURACY_VALUE',
'Maximum model space distance between geometric entities at asserted c
onnectivities');
#1361=UNCERTAINTY_MEASURE_WITH_UNIT(LENGTH_MEASURE(0.01),#1364,
'DISTANCE_ACCURACY_VALUE',
'Maximum model space distance between geometric entities at asserted c
onnectivities');
#1362=(
GEOMETRIC_REPRESENTATION_CONTEXT(3)
GLOBAL_UNCERTAINTY_ASSIGNED_CONTEXT((#1360))
GLOBAL_UNIT_ASSIGNED_CONTEXT((#1364,#1366,#1367))
REPRESENTATION_CONTEXT('','3D')
);
#1363=(
GEOMETRIC_REPRESENTATION_CONTEXT(3)
GLOBAL_UNCERTAINTY_ASSIGNED_CONTEXT((#1361))
GLOBAL_UNIT_ASSIGNED_CONTEXT((#1364,#1366,#1367))
REPRESENTATION_CONTEXT('','3D')
);
#1364=(
LENGTH_UNIT()
NAMED_UNIT(*)
SI_UNIT(.MILLI.,.METRE.)
);
#1365=(
LENGTH_UNIT()
NAMED_UNIT(*)
SI_UNIT($,.METRE.)
);
#1366=(
NAMED_UNIT(*)
PLANE_ANGLE_UNIT()
SI_UNIT($,.RADIAN.)
);
#1367=(
NAMED_UNIT(*)
SI_UNIT($,.STERADIAN.)
SOLID_ANGLE_UNIT()
);
#1368=SHAPE_DEFINITION_REPRESENTATION(#1369,#1370);
#1369=PRODUCT_DEFINITION_SHAPE('',$,#1372);
#1370=SHAPE_REPRESENTATION('',(#800),#1362);
#1371=PRODUCT_DEFINITION_CONTEXT('part definition',#1376,'design');
#1372=PRODUCT_DEFINITION('2026-10-10-09-52-05-910','battery case',#1373,
#1371);
#1373=PRODUCT_DEFINITION_FORMATION('',$,#1378);
#1374=PRODUCT_RELATED_PRODUCT_CATEGORY('battery case','battery case',(#1378));
#1375=APPLICATION_PROTOCOL_DEFINITION('international standard',
'automotive_design',2009,#1376);
#1376=APPLICATION_CONTEXT(
'Core Data for Automotive Mechanical Design Process');
#1377=PRODUCT_CONTEXT('part definition',#1376,'mechanical');
#1378=PRODUCT('2026-10-10-09-52-05-910','battery case',$,(#1377));
#1379=PRESENTATION_STYLE_ASSIGNMENT((#1380));
#1380=SURFACE_STYLE_USAGE(.BOTH.,#1381);
#1381=SURFACE_SIDE_STYLE('',(#1382));
#1382=SURFACE_STYLE_FILL_AREA(#1383);
#1383=FILL_AREA_STYLE('Steel - Satin',(#1384));
#1384=FILL_AREA_STYLE_COLOUR('Steel - Satin',#1385);
#1385=COLOUR_RGB('Steel - Satin',0.627450980392157,0.627450980392157,0.627450980392157);
ENDSEC;
END-ISO-10303-21;
