ISO-10303-21;
HEADER;
/* Generated by software containing ST-Developer
 * from STEP Tools, Inc. (www.steptools.com) 
 */

FILE_DESCRIPTION(
/* description */ (''),
/* implementation_level */ '2;1');

FILE_NAME(
/* name */ 'LS-COVER.step',
/* time_stamp */ '2026-10-10T09:50:04+05:30',
/* author */ (''),
/* organization */ (''),
/* preprocessor_version */ 'ST-DEVELOPER v20.2',
/* originating_system */ 'Autodesk Translation Framework v15.15.0.0',
/* authorisation */ '');

FILE_SCHEMA (('AUTOMOTIVE_DESIGN { 1 0 10303 214 3 1 1 }'));
ENDSEC;

DATA;
#10=MECHANICAL_DESIGN_GEOMETRIC_PRESENTATION_REPRESENTATION('',(#13),#862);
#11=SHAPE_REPRESENTATION_RELATIONSHIP('SRR','None',#869,#12);
#12=ADVANCED_BREP_SHAPE_REPRESENTATION('',(#14),#861);
#13=STYLED_ITEM('',(#878),#14);
#14=MANIFOLD_SOLID_BREP('Body1',#522);
#15=CYLINDRICAL_SURFACE('',#558,0.75);
#16=CYLINDRICAL_SURFACE('',#560,0.75);
#17=CYLINDRICAL_SURFACE('',#562,0.750000000000002);
#18=CYLINDRICAL_SURFACE('',#564,0.75);
#19=CYLINDRICAL_SURFACE('',#566,0.750000000000002);
#20=CYLINDRICAL_SURFACE('',#568,0.899999999999999);
#21=CYLINDRICAL_SURFACE('',#570,0.900000000000001);
#22=CYLINDRICAL_SURFACE('',#572,0.900000000000001);
#23=CYLINDRICAL_SURFACE('',#574,0.899999999999999);
#24=CIRCLE('',#543,0.899999999999999);
#25=CIRCLE('',#544,0.900000000000001);
#26=CIRCLE('',#545,0.900000000000001);
#27=CIRCLE('',#546,0.899999999999999);
#28=CIRCLE('',#547,0.750000000000002);
#29=CIRCLE('',#548,0.75);
#30=CIRCLE('',#549,0.750000000000002);
#31=CIRCLE('',#550,0.75);
#32=CIRCLE('',#551,0.75);
#33=CIRCLE('',#559,0.75);
#34=CIRCLE('',#561,0.75);
#35=CIRCLE('',#563,0.750000000000002);
#36=CIRCLE('',#565,0.75);
#37=CIRCLE('',#567,0.750000000000002);
#38=CIRCLE('',#569,0.899999999999999);
#39=CIRCLE('',#571,0.900000000000001);
#40=CIRCLE('',#573,0.900000000000001);
#41=CIRCLE('',#575,0.899999999999999);
#42=FACE_BOUND('',#96,.T.);
#43=FACE_BOUND('',#97,.T.);
#44=FACE_BOUND('',#98,.T.);
#45=FACE_BOUND('',#99,.T.);
#46=FACE_BOUND('',#100,.T.);
#47=FACE_BOUND('',#101,.T.);
#48=FACE_BOUND('',#102,.T.);
#49=FACE_BOUND('',#103,.T.);
#50=FACE_BOUND('',#104,.T.);
#51=FACE_BOUND('',#105,.T.);
#52=FACE_BOUND('',#126,.T.);
#53=FACE_BOUND('',#127,.T.);
#54=FACE_BOUND('',#128,.T.);
#55=FACE_BOUND('',#129,.T.);
#56=FACE_BOUND('',#130,.T.);
#57=FACE_BOUND('',#131,.T.);
#58=FACE_BOUND('',#132,.T.);
#59=FACE_BOUND('',#133,.T.);
#60=FACE_BOUND('',#134,.T.);
#61=FACE_BOUND('',#135,.T.);
#62=FACE_OUTER_BOUND('',#89,.T.);
#63=FACE_OUTER_BOUND('',#90,.T.);
#64=FACE_OUTER_BOUND('',#91,.T.);
#65=FACE_OUTER_BOUND('',#92,.T.);
#66=FACE_OUTER_BOUND('',#93,.T.);
#67=FACE_OUTER_BOUND('',#94,.T.);
#68=FACE_OUTER_BOUND('',#95,.T.);
#69=FACE_OUTER_BOUND('',#106,.T.);
#70=FACE_OUTER_BOUND('',#107,.T.);
#71=FACE_OUTER_BOUND('',#108,.T.);
#72=FACE_OUTER_BOUND('',#109,.T.);
#73=FACE_OUTER_BOUND('',#110,.T.);
#74=FACE_OUTER_BOUND('',#111,.T.);
#75=FACE_OUTER_BOUND('',#112,.T.);
#76=FACE_OUTER_BOUND('',#113,.T.);
#77=FACE_OUTER_BOUND('',#114,.T.);
#78=FACE_OUTER_BOUND('',#115,.T.);
#79=FACE_OUTER_BOUND('',#116,.T.);
#80=FACE_OUTER_BOUND('',#117,.T.);
#81=FACE_OUTER_BOUND('',#118,.T.);
#82=FACE_OUTER_BOUND('',#119,.T.);
#83=FACE_OUTER_BOUND('',#120,.T.);
#84=FACE_OUTER_BOUND('',#121,.T.);
#85=FACE_OUTER_BOUND('',#122,.T.);
#86=FACE_OUTER_BOUND('',#123,.T.);
#87=FACE_OUTER_BOUND('',#124,.T.);
#88=FACE_OUTER_BOUND('',#125,.T.);
#89=EDGE_LOOP('',(#343,#344,#345,#346));
#90=EDGE_LOOP('',(#347,#348,#349,#350));
#91=EDGE_LOOP('',(#351,#352,#353,#354));
#92=EDGE_LOOP('',(#355,#356,#357,#358));
#93=EDGE_LOOP('',(#359,#360,#361,#362));
#94=EDGE_LOOP('',(#363,#364,#365,#366));
#95=EDGE_LOOP('',(#367,#368,#369,#370));
#96=EDGE_LOOP('',(#371,#372,#373,#374));
#97=EDGE_LOOP('',(#375));
#98=EDGE_LOOP('',(#376));
#99=EDGE_LOOP('',(#377));
#100=EDGE_LOOP('',(#378));
#101=EDGE_LOOP('',(#379));
#102=EDGE_LOOP('',(#380));
#103=EDGE_LOOP('',(#381));
#104=EDGE_LOOP('',(#382));
#105=EDGE_LOOP('',(#383));
#106=EDGE_LOOP('',(#384,#385,#386,#387));
#107=EDGE_LOOP('',(#388,#389,#390,#391));
#108=EDGE_LOOP('',(#392,#393,#394,#395));
#109=EDGE_LOOP('',(#396,#397,#398,#399));
#110=EDGE_LOOP('',(#400,#401,#402,#403));
#111=EDGE_LOOP('',(#404,#405,#406,#407));
#112=EDGE_LOOP('',(#408,#409,#410,#411));
#113=EDGE_LOOP('',(#412,#413,#414,#415));
#114=EDGE_LOOP('',(#416,#417,#418,#419));
#115=EDGE_LOOP('',(#420,#421,#422,#423));
#116=EDGE_LOOP('',(#424,#425,#426,#427));
#117=EDGE_LOOP('',(#428,#429,#430,#431));
#118=EDGE_LOOP('',(#432,#433,#434,#435));
#119=EDGE_LOOP('',(#436,#437,#438,#439));
#120=EDGE_LOOP('',(#440,#441,#442,#443));
#121=EDGE_LOOP('',(#444,#445,#446,#447));
#122=EDGE_LOOP('',(#448,#449,#450,#451));
#123=EDGE_LOOP('',(#452,#453,#454,#455));
#124=EDGE_LOOP('',(#456,#457,#458,#459));
#125=EDGE_LOOP('',(#460,#461,#462,#463));
#126=EDGE_LOOP('',(#464));
#127=EDGE_LOOP('',(#465));
#128=EDGE_LOOP('',(#466));
#129=EDGE_LOOP('',(#467));
#130=EDGE_LOOP('',(#468,#469,#470,#471));
#131=EDGE_LOOP('',(#472));
#132=EDGE_LOOP('',(#473));
#133=EDGE_LOOP('',(#474));
#134=EDGE_LOOP('',(#475));
#135=EDGE_LOOP('',(#476));
#136=LINE('',#726,#185);
#137=LINE('',#728,#186);
#138=LINE('',#730,#187);
#139=LINE('',#731,#188);
#140=LINE('',#734,#189);
#141=LINE('',#736,#190);
#142=LINE('',#737,#191);
#143=LINE('',#740,#192);
#144=LINE('',#742,#193);
#145=LINE('',#743,#194);
#146=LINE('',#745,#195);
#147=LINE('',#746,#196);
#148=LINE('',#749,#197);
#149=LINE('',#751,#198);
#150=LINE('',#752,#199);
#151=LINE('',#755,#200);
#152=LINE('',#756,#201);
#153=LINE('',#760,#202);
#154=LINE('',#762,#203);
#155=LINE('',#764,#204);
#156=LINE('',#765,#205);
#157=LINE('',#786,#206);
#158=LINE('',#788,#207);
#159=LINE('',#789,#208);
#160=LINE('',#792,#209);
#161=LINE('',#793,#210);
#162=LINE('',#796,#211);
#163=LINE('',#797,#212);
#164=LINE('',#799,#213);
#165=LINE('',#802,#214);
#166=LINE('',#804,#215);
#167=LINE('',#805,#216);
#168=LINE('',#808,#217);
#169=LINE('',#809,#218);
#170=LINE('',#812,#219);
#171=LINE('',#816,#220);
#172=LINE('',#820,#221);
#173=LINE('',#824,#222);
#174=LINE('',#828,#223);
#175=LINE('',#832,#224);
#176=LINE('',#836,#225);
#177=LINE('',#840,#226);
#178=LINE('',#844,#227);
#179=LINE('',#848,#228);
#180=LINE('',#849,#229);
#181=LINE('',#851,#230);
#182=LINE('',#854,#231);
#183=LINE('',#855,#232);
#184=LINE('',#857,#233);
#185=VECTOR('',#585,10.);
#186=VECTOR('',#586,10.);
#187=VECTOR('',#587,10.);
#188=VECTOR('',#588,10.);
#189=VECTOR('',#591,10.);
#190=VECTOR('',#592,10.);
#191=VECTOR('',#593,10.);
#192=VECTOR('',#596,10.);
#193=VECTOR('',#597,10.);
#194=VECTOR('',#598,10.);
#195=VECTOR('',#601,10.);
#196=VECTOR('',#602,10.);
#197=VECTOR('',#605,10.);
#198=VECTOR('',#606,10.);
#199=VECTOR('',#607,10.);
#200=VECTOR('',#610,10.);
#201=VECTOR('',#611,10.);
#202=VECTOR('',#614,10.);
#203=VECTOR('',#615,10.);
#204=VECTOR('',#616,10.);
#205=VECTOR('',#617,10.);
#206=VECTOR('',#638,10.);
#207=VECTOR('',#639,10.);
#208=VECTOR('',#640,10.);
#209=VECTOR('',#643,10.);
#210=VECTOR('',#644,10.);
#211=VECTOR('',#647,10.);
#212=VECTOR('',#648,10.);
#213=VECTOR('',#651,10.);
#214=VECTOR('',#654,10.);
#215=VECTOR('',#655,10.);
#216=VECTOR('',#656,10.);
#217=VECTOR('',#659,10.);
#218=VECTOR('',#660,10.);
#219=VECTOR('',#663,0.75);
#220=VECTOR('',#668,0.75);
#221=VECTOR('',#673,0.750000000000002);
#222=VECTOR('',#678,0.75);
#223=VECTOR('',#683,0.750000000000002);
#224=VECTOR('',#688,0.899999999999999);
#225=VECTOR('',#693,0.900000000000001);
#226=VECTOR('',#698,0.900000000000001);
#227=VECTOR('',#703,0.899999999999999);
#228=VECTOR('',#708,10.);
#229=VECTOR('',#709,10.);
#230=VECTOR('',#712,10.);
#231=VECTOR('',#715,10.);
#232=VECTOR('',#716,10.);
#233=VECTOR('',#719,10.);
#234=VERTEX_POINT('',#724);
#235=VERTEX_POINT('',#725);
#236=VERTEX_POINT('',#727);
#237=VERTEX_POINT('',#729);
#238=VERTEX_POINT('',#733);
#239=VERTEX_POINT('',#735);
#240=VERTEX_POINT('',#739);
#241=VERTEX_POINT('',#741);
#242=VERTEX_POINT('',#748);
#243=VERTEX_POINT('',#750);
#244=VERTEX_POINT('',#754);
#245=VERTEX_POINT('',#758);
#246=VERTEX_POINT('',#759);
#247=VERTEX_POINT('',#761);
#248=VERTEX_POINT('',#763);
#249=VERTEX_POINT('',#766);
#250=VERTEX_POINT('',#768);
#251=VERTEX_POINT('',#770);
#252=VERTEX_POINT('',#772);
#253=VERTEX_POINT('',#774);
#254=VERTEX_POINT('',#776);
#255=VERTEX_POINT('',#778);
#256=VERTEX_POINT('',#780);
#257=VERTEX_POINT('',#782);
#258=VERTEX_POINT('',#785);
#259=VERTEX_POINT('',#787);
#260=VERTEX_POINT('',#791);
#261=VERTEX_POINT('',#795);
#262=VERTEX_POINT('',#801);
#263=VERTEX_POINT('',#803);
#264=VERTEX_POINT('',#807);
#265=VERTEX_POINT('',#811);
#266=VERTEX_POINT('',#815);
#267=VERTEX_POINT('',#819);
#268=VERTEX_POINT('',#823);
#269=VERTEX_POINT('',#827);
#270=VERTEX_POINT('',#831);
#271=VERTEX_POINT('',#835);
#272=VERTEX_POINT('',#839);
#273=VERTEX_POINT('',#843);
#274=VERTEX_POINT('',#847);
#275=VERTEX_POINT('',#853);
#276=EDGE_CURVE('',#234,#235,#136,.T.);
#277=EDGE_CURVE('',#235,#236,#137,.T.);
#278=EDGE_CURVE('',#236,#237,#138,.T.);
#279=EDGE_CURVE('',#234,#237,#139,.T.);
#280=EDGE_CURVE('',#238,#236,#140,.T.);
#281=EDGE_CURVE('',#235,#239,#141,.T.);
#282=EDGE_CURVE('',#239,#238,#142,.T.);
#283=EDGE_CURVE('',#240,#238,#143,.T.);
#284=EDGE_CURVE('',#239,#241,#144,.T.);
#285=EDGE_CURVE('',#241,#240,#145,.T.);
#286=EDGE_CURVE('',#237,#240,#146,.T.);
#287=EDGE_CURVE('',#241,#234,#147,.T.);
#288=EDGE_CURVE('',#242,#237,#148,.T.);
#289=EDGE_CURVE('',#243,#242,#149,.T.);
#290=EDGE_CURVE('',#243,#240,#150,.T.);
#291=EDGE_CURVE('',#244,#236,#151,.T.);
#292=EDGE_CURVE('',#242,#244,#152,.T.);
#293=EDGE_CURVE('',#245,#246,#153,.T.);
#294=EDGE_CURVE('',#247,#245,#154,.T.);
#295=EDGE_CURVE('',#248,#247,#155,.T.);
#296=EDGE_CURVE('',#246,#248,#156,.T.);
#297=EDGE_CURVE('',#249,#249,#24,.T.);
#298=EDGE_CURVE('',#250,#250,#25,.T.);
#299=EDGE_CURVE('',#251,#251,#26,.T.);
#300=EDGE_CURVE('',#252,#252,#27,.T.);
#301=EDGE_CURVE('',#253,#253,#28,.T.);
#302=EDGE_CURVE('',#254,#254,#29,.T.);
#303=EDGE_CURVE('',#255,#255,#30,.T.);
#304=EDGE_CURVE('',#256,#256,#31,.T.);
#305=EDGE_CURVE('',#257,#257,#32,.T.);
#306=EDGE_CURVE('',#246,#258,#157,.T.);
#307=EDGE_CURVE('',#258,#259,#158,.T.);
#308=EDGE_CURVE('',#259,#245,#159,.T.);
#309=EDGE_CURVE('',#260,#258,#160,.T.);
#310=EDGE_CURVE('',#260,#248,#161,.T.);
#311=EDGE_CURVE('',#259,#261,#162,.T.);
#312=EDGE_CURVE('',#261,#247,#163,.T.);
#313=EDGE_CURVE('',#261,#260,#164,.T.);
#314=EDGE_CURVE('',#259,#262,#165,.T.);
#315=EDGE_CURVE('',#263,#262,#166,.T.);
#316=EDGE_CURVE('',#261,#263,#167,.T.);
#317=EDGE_CURVE('',#258,#264,#168,.T.);
#318=EDGE_CURVE('',#262,#264,#169,.T.);
#319=EDGE_CURVE('',#257,#265,#170,.T.);
#320=EDGE_CURVE('',#265,#265,#33,.T.);
#321=EDGE_CURVE('',#256,#266,#171,.T.);
#322=EDGE_CURVE('',#266,#266,#34,.T.);
#323=EDGE_CURVE('',#255,#267,#172,.T.);
#324=EDGE_CURVE('',#267,#267,#35,.T.);
#325=EDGE_CURVE('',#254,#268,#173,.T.);
#326=EDGE_CURVE('',#268,#268,#36,.T.);
#327=EDGE_CURVE('',#253,#269,#174,.T.);
#328=EDGE_CURVE('',#269,#269,#37,.T.);
#329=EDGE_CURVE('',#249,#270,#175,.T.);
#330=EDGE_CURVE('',#270,#270,#38,.T.);
#331=EDGE_CURVE('',#250,#271,#176,.T.);
#332=EDGE_CURVE('',#271,#271,#39,.T.);
#333=EDGE_CURVE('',#251,#272,#177,.T.);
#334=EDGE_CURVE('',#272,#272,#40,.T.);
#335=EDGE_CURVE('',#252,#273,#178,.T.);
#336=EDGE_CURVE('',#273,#273,#41,.T.);
#337=EDGE_CURVE('',#274,#263,#179,.T.);
#338=EDGE_CURVE('',#260,#274,#180,.T.);
#339=EDGE_CURVE('',#264,#274,#181,.T.);
#340=EDGE_CURVE('',#275,#243,#182,.T.);
#341=EDGE_CURVE('',#275,#238,#183,.T.);
#342=EDGE_CURVE('',#244,#275,#184,.T.);
#343=ORIENTED_EDGE('',*,*,#276,.T.);
#344=ORIENTED_EDGE('',*,*,#277,.T.);
#345=ORIENTED_EDGE('',*,*,#278,.T.);
#346=ORIENTED_EDGE('',*,*,#279,.F.);
#347=ORIENTED_EDGE('',*,*,#280,.T.);
#348=ORIENTED_EDGE('',*,*,#277,.F.);
#349=ORIENTED_EDGE('',*,*,#281,.T.);
#350=ORIENTED_EDGE('',*,*,#282,.T.);
#351=ORIENTED_EDGE('',*,*,#283,.T.);
#352=ORIENTED_EDGE('',*,*,#282,.F.);
#353=ORIENTED_EDGE('',*,*,#284,.T.);
#354=ORIENTED_EDGE('',*,*,#285,.T.);
#355=ORIENTED_EDGE('',*,*,#286,.T.);
#356=ORIENTED_EDGE('',*,*,#285,.F.);
#357=ORIENTED_EDGE('',*,*,#287,.T.);
#358=ORIENTED_EDGE('',*,*,#279,.T.);
#359=ORIENTED_EDGE('',*,*,#286,.F.);
#360=ORIENTED_EDGE('',*,*,#288,.F.);
#361=ORIENTED_EDGE('',*,*,#289,.F.);
#362=ORIENTED_EDGE('',*,*,#290,.T.);
#363=ORIENTED_EDGE('',*,*,#278,.F.);
#364=ORIENTED_EDGE('',*,*,#291,.F.);
#365=ORIENTED_EDGE('',*,*,#292,.F.);
#366=ORIENTED_EDGE('',*,*,#288,.T.);
#367=ORIENTED_EDGE('',*,*,#276,.F.);
#368=ORIENTED_EDGE('',*,*,#287,.F.);
#369=ORIENTED_EDGE('',*,*,#284,.F.);
#370=ORIENTED_EDGE('',*,*,#281,.F.);
#371=ORIENTED_EDGE('',*,*,#293,.F.);
#372=ORIENTED_EDGE('',*,*,#294,.F.);
#373=ORIENTED_EDGE('',*,*,#295,.F.);
#374=ORIENTED_EDGE('',*,*,#296,.F.);
#375=ORIENTED_EDGE('',*,*,#297,.T.);
#376=ORIENTED_EDGE('',*,*,#298,.T.);
#377=ORIENTED_EDGE('',*,*,#299,.T.);
#378=ORIENTED_EDGE('',*,*,#300,.T.);
#379=ORIENTED_EDGE('',*,*,#301,.T.);
#380=ORIENTED_EDGE('',*,*,#302,.T.);
#381=ORIENTED_EDGE('',*,*,#303,.T.);
#382=ORIENTED_EDGE('',*,*,#304,.T.);
#383=ORIENTED_EDGE('',*,*,#305,.T.);
#384=ORIENTED_EDGE('',*,*,#293,.T.);
#385=ORIENTED_EDGE('',*,*,#306,.T.);
#386=ORIENTED_EDGE('',*,*,#307,.T.);
#387=ORIENTED_EDGE('',*,*,#308,.T.);
#388=ORIENTED_EDGE('',*,*,#309,.T.);
#389=ORIENTED_EDGE('',*,*,#306,.F.);
#390=ORIENTED_EDGE('',*,*,#296,.T.);
#391=ORIENTED_EDGE('',*,*,#310,.F.);
#392=ORIENTED_EDGE('',*,*,#294,.T.);
#393=ORIENTED_EDGE('',*,*,#308,.F.);
#394=ORIENTED_EDGE('',*,*,#311,.T.);
#395=ORIENTED_EDGE('',*,*,#312,.T.);
#396=ORIENTED_EDGE('',*,*,#295,.T.);
#397=ORIENTED_EDGE('',*,*,#312,.F.);
#398=ORIENTED_EDGE('',*,*,#313,.T.);
#399=ORIENTED_EDGE('',*,*,#310,.T.);
#400=ORIENTED_EDGE('',*,*,#311,.F.);
#401=ORIENTED_EDGE('',*,*,#314,.T.);
#402=ORIENTED_EDGE('',*,*,#315,.F.);
#403=ORIENTED_EDGE('',*,*,#316,.F.);
#404=ORIENTED_EDGE('',*,*,#307,.F.);
#405=ORIENTED_EDGE('',*,*,#317,.T.);
#406=ORIENTED_EDGE('',*,*,#318,.F.);
#407=ORIENTED_EDGE('',*,*,#314,.F.);
#408=ORIENTED_EDGE('',*,*,#305,.F.);
#409=ORIENTED_EDGE('',*,*,#319,.T.);
#410=ORIENTED_EDGE('',*,*,#320,.F.);
#411=ORIENTED_EDGE('',*,*,#319,.F.);
#412=ORIENTED_EDGE('',*,*,#304,.F.);
#413=ORIENTED_EDGE('',*,*,#321,.T.);
#414=ORIENTED_EDGE('',*,*,#322,.F.);
#415=ORIENTED_EDGE('',*,*,#321,.F.);
#416=ORIENTED_EDGE('',*,*,#303,.F.);
#417=ORIENTED_EDGE('',*,*,#323,.T.);
#418=ORIENTED_EDGE('',*,*,#324,.F.);
#419=ORIENTED_EDGE('',*,*,#323,.F.);
#420=ORIENTED_EDGE('',*,*,#302,.F.);
#421=ORIENTED_EDGE('',*,*,#325,.T.);
#422=ORIENTED_EDGE('',*,*,#326,.F.);
#423=ORIENTED_EDGE('',*,*,#325,.F.);
#424=ORIENTED_EDGE('',*,*,#301,.F.);
#425=ORIENTED_EDGE('',*,*,#327,.T.);
#426=ORIENTED_EDGE('',*,*,#328,.F.);
#427=ORIENTED_EDGE('',*,*,#327,.F.);
#428=ORIENTED_EDGE('',*,*,#297,.F.);
#429=ORIENTED_EDGE('',*,*,#329,.T.);
#430=ORIENTED_EDGE('',*,*,#330,.F.);
#431=ORIENTED_EDGE('',*,*,#329,.F.);
#432=ORIENTED_EDGE('',*,*,#298,.F.);
#433=ORIENTED_EDGE('',*,*,#331,.T.);
#434=ORIENTED_EDGE('',*,*,#332,.F.);
#435=ORIENTED_EDGE('',*,*,#331,.F.);
#436=ORIENTED_EDGE('',*,*,#299,.F.);
#437=ORIENTED_EDGE('',*,*,#333,.T.);
#438=ORIENTED_EDGE('',*,*,#334,.F.);
#439=ORIENTED_EDGE('',*,*,#333,.F.);
#440=ORIENTED_EDGE('',*,*,#300,.F.);
#441=ORIENTED_EDGE('',*,*,#335,.T.);
#442=ORIENTED_EDGE('',*,*,#336,.F.);
#443=ORIENTED_EDGE('',*,*,#335,.F.);
#444=ORIENTED_EDGE('',*,*,#313,.F.);
#445=ORIENTED_EDGE('',*,*,#316,.T.);
#446=ORIENTED_EDGE('',*,*,#337,.F.);
#447=ORIENTED_EDGE('',*,*,#338,.F.);
#448=ORIENTED_EDGE('',*,*,#309,.F.);
#449=ORIENTED_EDGE('',*,*,#338,.T.);
#450=ORIENTED_EDGE('',*,*,#339,.F.);
#451=ORIENTED_EDGE('',*,*,#317,.F.);
#452=ORIENTED_EDGE('',*,*,#283,.F.);
#453=ORIENTED_EDGE('',*,*,#290,.F.);
#454=ORIENTED_EDGE('',*,*,#340,.F.);
#455=ORIENTED_EDGE('',*,*,#341,.T.);
#456=ORIENTED_EDGE('',*,*,#280,.F.);
#457=ORIENTED_EDGE('',*,*,#341,.F.);
#458=ORIENTED_EDGE('',*,*,#342,.F.);
#459=ORIENTED_EDGE('',*,*,#291,.T.);
#460=ORIENTED_EDGE('',*,*,#292,.T.);
#461=ORIENTED_EDGE('',*,*,#342,.T.);
#462=ORIENTED_EDGE('',*,*,#340,.T.);
#463=ORIENTED_EDGE('',*,*,#289,.T.);
#464=ORIENTED_EDGE('',*,*,#330,.T.);
#465=ORIENTED_EDGE('',*,*,#332,.T.);
#466=ORIENTED_EDGE('',*,*,#334,.T.);
#467=ORIENTED_EDGE('',*,*,#336,.T.);
#468=ORIENTED_EDGE('',*,*,#318,.T.);
#469=ORIENTED_EDGE('',*,*,#339,.T.);
#470=ORIENTED_EDGE('',*,*,#337,.T.);
#471=ORIENTED_EDGE('',*,*,#315,.T.);
#472=ORIENTED_EDGE('',*,*,#328,.T.);
#473=ORIENTED_EDGE('',*,*,#326,.T.);
#474=ORIENTED_EDGE('',*,*,#324,.T.);
#475=ORIENTED_EDGE('',*,*,#322,.T.);
#476=ORIENTED_EDGE('',*,*,#320,.T.);
#477=PLANE('',#536);
#478=PLANE('',#537);
#479=PLANE('',#538);
#480=PLANE('',#539);
#481=PLANE('',#540);
#482=PLANE('',#541);
#483=PLANE('',#542);
#484=PLANE('',#552);
#485=PLANE('',#553);
#486=PLANE('',#554);
#487=PLANE('',#555);
#488=PLANE('',#556);
#489=PLANE('',#557);
#490=PLANE('',#576);
#491=PLANE('',#577);
#492=PLANE('',#578);
#493=PLANE('',#579);
#494=PLANE('',#580);
#495=ADVANCED_FACE('',(#62),#477,.T.);
#496=ADVANCED_FACE('',(#63),#478,.T.);
#497=ADVANCED_FACE('',(#64),#479,.T.);
#498=ADVANCED_FACE('',(#65),#480,.T.);
#499=ADVANCED_FACE('',(#66),#481,.F.);
#500=ADVANCED_FACE('',(#67),#482,.F.);
#501=ADVANCED_FACE('',(#68,#42,#43,#44,#45,#46,#47,#48,#49,#50,#51),#483,
 .F.);
#502=ADVANCED_FACE('',(#69),#484,.T.);
#503=ADVANCED_FACE('',(#70),#485,.T.);
#504=ADVANCED_FACE('',(#71),#486,.T.);
#505=ADVANCED_FACE('',(#72),#487,.T.);
#506=ADVANCED_FACE('',(#73),#488,.T.);
#507=ADVANCED_FACE('',(#74),#489,.T.);
#508=ADVANCED_FACE('',(#75),#15,.F.);
#509=ADVANCED_FACE('',(#76),#16,.F.);
#510=ADVANCED_FACE('',(#77),#17,.F.);
#511=ADVANCED_FACE('',(#78),#18,.F.);
#512=ADVANCED_FACE('',(#79),#19,.F.);
#513=ADVANCED_FACE('',(#80),#20,.F.);
#514=ADVANCED_FACE('',(#81),#21,.F.);
#515=ADVANCED_FACE('',(#82),#22,.F.);
#516=ADVANCED_FACE('',(#83),#23,.F.);
#517=ADVANCED_FACE('',(#84),#490,.T.);
#518=ADVANCED_FACE('',(#85),#491,.T.);
#519=ADVANCED_FACE('',(#86),#492,.F.);
#520=ADVANCED_FACE('',(#87),#493,.F.);
#521=ADVANCED_FACE('',(#88,#52,#53,#54,#55,#56,#57,#58,#59,#60,#61),#494,
 .T.);
#522=CLOSED_SHELL('',(#495,#496,#497,#498,#499,#500,#501,#502,#503,#504,
#505,#506,#507,#508,#509,#510,#511,#512,#513,#514,#515,#516,#517,#518,#519,
#520,#521));
#523=DERIVED_UNIT_ELEMENT(#525,1.);
#524=DERIVED_UNIT_ELEMENT(#864,-3.);
#525=(
MASS_UNIT()
NAMED_UNIT(*)
SI_UNIT(.KILO.,.GRAM.)
);
#526=DERIVED_UNIT((#523,#524));
#527=MEASURE_REPRESENTATION_ITEM('density measure',
POSITIVE_RATIO_MEASURE(7850.),#526);
#528=PROPERTY_DEFINITION_REPRESENTATION(#533,#530);
#529=PROPERTY_DEFINITION_REPRESENTATION(#534,#531);
#530=REPRESENTATION('material name',(#532),#861);
#531=REPRESENTATION('density',(#527),#861);
#532=DESCRIPTIVE_REPRESENTATION_ITEM('Steel','Steel');
#533=PROPERTY_DEFINITION('material property','material name',#871);
#534=PROPERTY_DEFINITION('material property','density of part',#871);
#535=AXIS2_PLACEMENT_3D('',#722,#581,#582);
#536=AXIS2_PLACEMENT_3D('',#723,#583,#584);
#537=AXIS2_PLACEMENT_3D('',#732,#589,#590);
#538=AXIS2_PLACEMENT_3D('',#738,#594,#595);
#539=AXIS2_PLACEMENT_3D('',#744,#599,#600);
#540=AXIS2_PLACEMENT_3D('',#747,#603,#604);
#541=AXIS2_PLACEMENT_3D('',#753,#608,#609);
#542=AXIS2_PLACEMENT_3D('',#757,#612,#613);
#543=AXIS2_PLACEMENT_3D('',#767,#618,#619);
#544=AXIS2_PLACEMENT_3D('',#769,#620,#621);
#545=AXIS2_PLACEMENT_3D('',#771,#622,#623);
#546=AXIS2_PLACEMENT_3D('',#773,#624,#625);
#547=AXIS2_PLACEMENT_3D('',#775,#626,#627);
#548=AXIS2_PLACEMENT_3D('',#777,#628,#629);
#549=AXIS2_PLACEMENT_3D('',#779,#630,#631);
#550=AXIS2_PLACEMENT_3D('',#781,#632,#633);
#551=AXIS2_PLACEMENT_3D('',#783,#634,#635);
#552=AXIS2_PLACEMENT_3D('',#784,#636,#637);
#553=AXIS2_PLACEMENT_3D('',#790,#641,#642);
#554=AXIS2_PLACEMENT_3D('',#794,#645,#646);
#555=AXIS2_PLACEMENT_3D('',#798,#649,#650);
#556=AXIS2_PLACEMENT_3D('',#800,#652,#653);
#557=AXIS2_PLACEMENT_3D('',#806,#657,#658);
#558=AXIS2_PLACEMENT_3D('',#810,#661,#662);
#559=AXIS2_PLACEMENT_3D('',#813,#664,#665);
#560=AXIS2_PLACEMENT_3D('',#814,#666,#667);
#561=AXIS2_PLACEMENT_3D('',#817,#669,#670);
#562=AXIS2_PLACEMENT_3D('',#818,#671,#672);
#563=AXIS2_PLACEMENT_3D('',#821,#674,#675);
#564=AXIS2_PLACEMENT_3D('',#822,#676,#677);
#565=AXIS2_PLACEMENT_3D('',#825,#679,#680);
#566=AXIS2_PLACEMENT_3D('',#826,#681,#682);
#567=AXIS2_PLACEMENT_3D('',#829,#684,#685);
#568=AXIS2_PLACEMENT_3D('',#830,#686,#687);
#569=AXIS2_PLACEMENT_3D('',#833,#689,#690);
#570=AXIS2_PLACEMENT_3D('',#834,#691,#692);
#571=AXIS2_PLACEMENT_3D('',#837,#694,#695);
#572=AXIS2_PLACEMENT_3D('',#838,#696,#697);
#573=AXIS2_PLACEMENT_3D('',#841,#699,#700);
#574=AXIS2_PLACEMENT_3D('',#842,#701,#702);
#575=AXIS2_PLACEMENT_3D('',#845,#704,#705);
#576=AXIS2_PLACEMENT_3D('',#846,#706,#707);
#577=AXIS2_PLACEMENT_3D('',#850,#710,#711);
#578=AXIS2_PLACEMENT_3D('',#852,#713,#714);
#579=AXIS2_PLACEMENT_3D('',#856,#717,#718);
#580=AXIS2_PLACEMENT_3D('',#858,#720,#721);
#581=DIRECTION('axis',(0.,0.,1.));
#582=DIRECTION('refdir',(1.,0.,0.));
#583=DIRECTION('center_axis',(0.707106781186543,0.,0.707106781186552));
#584=DIRECTION('ref_axis',(0.707106781186552,0.,-0.707106781186543));
#585=DIRECTION('',(0.,-1.,0.));
#586=DIRECTION('',(0.577350269189632,-0.577350269189622,-0.577350269189624));
#587=DIRECTION('',(0.,1.,0.));
#588=DIRECTION('',(0.577350269189632,0.577350269189622,-0.577350269189624));
#589=DIRECTION('center_axis',(0.,-0.707106781186549,0.707106781186546));
#590=DIRECTION('ref_axis',(1.,0.,0.));
#591=DIRECTION('',(1.,0.,0.));
#592=DIRECTION('',(-1.,0.,0.));
#593=DIRECTION('',(-0.577350269189632,-0.577350269189622,-0.577350269189624));
#594=DIRECTION('center_axis',(-0.707106781186543,0.,0.707106781186552));
#595=DIRECTION('ref_axis',(0.707106781186552,0.,0.707106781186543));
#596=DIRECTION('',(0.,-1.,0.));
#597=DIRECTION('',(0.,1.,0.));
#598=DIRECTION('',(-0.577350269189632,0.577350269189622,-0.577350269189624));
#599=DIRECTION('center_axis',(0.,0.707106781186549,0.707106781186546));
#600=DIRECTION('ref_axis',(1.,0.,0.));
#601=DIRECTION('',(-1.,0.,0.));
#602=DIRECTION('',(1.,0.,0.));
#603=DIRECTION('center_axis',(0.,-1.,0.));
#604=DIRECTION('ref_axis',(1.,0.,0.));
#605=DIRECTION('',(0.,0.,1.));
#606=DIRECTION('',(1.,0.,0.));
#607=DIRECTION('',(0.,0.,1.));
#608=DIRECTION('center_axis',(-1.,0.,0.));
#609=DIRECTION('ref_axis',(0.,-1.,0.));
#610=DIRECTION('',(0.,0.,1.));
#611=DIRECTION('',(0.,-1.,0.));
#612=DIRECTION('center_axis',(0.,0.,-1.));
#613=DIRECTION('ref_axis',(-1.,0.,0.));
#614=DIRECTION('',(1.,0.,0.));
#615=DIRECTION('',(0.,-1.,0.));
#616=DIRECTION('',(-1.,-2.22044604925031E-16,0.));
#617=DIRECTION('',(-5.55111512312578E-17,1.,0.));
#618=DIRECTION('center_axis',(0.,0.,-1.));
#619=DIRECTION('ref_axis',(1.,0.,0.));
#620=DIRECTION('center_axis',(0.,0.,-1.));
#621=DIRECTION('ref_axis',(1.,0.,0.));
#622=DIRECTION('center_axis',(0.,0.,-1.));
#623=DIRECTION('ref_axis',(1.,0.,0.));
#624=DIRECTION('center_axis',(0.,0.,-1.));
#625=DIRECTION('ref_axis',(1.,0.,0.));
#626=DIRECTION('center_axis',(0.,0.,-1.));
#627=DIRECTION('ref_axis',(1.,0.,0.));
#628=DIRECTION('center_axis',(0.,0.,-1.));
#629=DIRECTION('ref_axis',(1.,0.,0.));
#630=DIRECTION('center_axis',(0.,0.,-1.));
#631=DIRECTION('ref_axis',(1.,0.,0.));
#632=DIRECTION('center_axis',(0.,0.,-1.));
#633=DIRECTION('ref_axis',(1.,0.,0.));
#634=DIRECTION('center_axis',(0.,0.,-1.));
#635=DIRECTION('ref_axis',(1.,0.,0.));
#636=DIRECTION('center_axis',(0.,0.707106781186548,0.707106781186548));
#637=DIRECTION('ref_axis',(1.,0.,0.));
#638=DIRECTION('',(-0.57735026918963,0.577350269189625,-0.577350269189622));
#639=DIRECTION('',(-1.,0.,0.));
#640=DIRECTION('',(-0.577350269189624,-0.577350269189627,0.577350269189627));
#641=DIRECTION('center_axis',(-0.707106781186543,-3.92523114670941E-17,
0.707106781186552));
#642=DIRECTION('ref_axis',(0.707106781186552,0.,0.707106781186543));
#643=DIRECTION('',(5.55111512312578E-17,-1.,0.));
#644=DIRECTION('',(0.577350269189631,0.577350269189623,0.577350269189623));
#645=DIRECTION('center_axis',(0.707106781186549,0.,0.707106781186546));
#646=DIRECTION('ref_axis',(0.707106781186546,0.,-0.707106781186549));
#647=DIRECTION('',(0.,1.,0.));
#648=DIRECTION('',(-0.577350269189624,0.577350269189627,0.577350269189627));
#649=DIRECTION('center_axis',(1.57009245868378E-16,-0.707106781186548,0.707106781186548));
#650=DIRECTION('ref_axis',(1.,0.,-2.22044604925031E-16));
#651=DIRECTION('',(1.,2.22044604925031E-16,0.));
#652=DIRECTION('center_axis',(1.,0.,0.));
#653=DIRECTION('ref_axis',(0.,-1.,0.));
#654=DIRECTION('',(0.,0.,-1.));
#655=DIRECTION('',(0.,-1.,0.));
#656=DIRECTION('',(0.,0.,-1.));
#657=DIRECTION('center_axis',(0.,1.,0.));
#658=DIRECTION('ref_axis',(1.,0.,0.));
#659=DIRECTION('',(0.,0.,-1.));
#660=DIRECTION('',(1.,0.,0.));
#661=DIRECTION('center_axis',(0.,0.,1.));
#662=DIRECTION('ref_axis',(1.,0.,0.));
#663=DIRECTION('',(0.,0.,-1.));
#664=DIRECTION('center_axis',(0.,0.,1.));
#665=DIRECTION('ref_axis',(1.,0.,0.));
#666=DIRECTION('center_axis',(0.,0.,1.));
#667=DIRECTION('ref_axis',(1.,0.,0.));
#668=DIRECTION('',(0.,0.,-1.));
#669=DIRECTION('center_axis',(0.,0.,1.));
#670=DIRECTION('ref_axis',(1.,0.,0.));
#671=DIRECTION('center_axis',(0.,0.,1.));
#672=DIRECTION('ref_axis',(1.,0.,0.));
#673=DIRECTION('',(0.,0.,-1.));
#674=DIRECTION('center_axis',(0.,0.,1.));
#675=DIRECTION('ref_axis',(1.,0.,0.));
#676=DIRECTION('center_axis',(0.,0.,1.));
#677=DIRECTION('ref_axis',(1.,0.,0.));
#678=DIRECTION('',(0.,0.,-1.));
#679=DIRECTION('center_axis',(0.,0.,1.));
#680=DIRECTION('ref_axis',(1.,0.,0.));
#681=DIRECTION('center_axis',(0.,0.,1.));
#682=DIRECTION('ref_axis',(1.,0.,0.));
#683=DIRECTION('',(0.,0.,-1.));
#684=DIRECTION('center_axis',(0.,0.,1.));
#685=DIRECTION('ref_axis',(1.,0.,0.));
#686=DIRECTION('center_axis',(0.,0.,1.));
#687=DIRECTION('ref_axis',(1.,0.,0.));
#688=DIRECTION('',(0.,0.,-1.));
#689=DIRECTION('center_axis',(0.,0.,1.));
#690=DIRECTION('ref_axis',(1.,0.,0.));
#691=DIRECTION('center_axis',(0.,0.,1.));
#692=DIRECTION('ref_axis',(1.,0.,0.));
#693=DIRECTION('',(0.,0.,-1.));
#694=DIRECTION('center_axis',(0.,0.,1.));
#695=DIRECTION('ref_axis',(1.,0.,0.));
#696=DIRECTION('center_axis',(0.,0.,1.));
#697=DIRECTION('ref_axis',(1.,0.,0.));
#698=DIRECTION('',(0.,0.,-1.));
#699=DIRECTION('center_axis',(0.,0.,1.));
#700=DIRECTION('ref_axis',(1.,0.,0.));
#701=DIRECTION('center_axis',(0.,0.,1.));
#702=DIRECTION('ref_axis',(1.,0.,0.));
#703=DIRECTION('',(0.,0.,-1.));
#704=DIRECTION('center_axis',(0.,0.,1.));
#705=DIRECTION('ref_axis',(1.,0.,0.));
#706=DIRECTION('center_axis',(2.22044604925031E-16,-1.,0.));
#707=DIRECTION('ref_axis',(-1.,-2.22044604925031E-16,0.));
#708=DIRECTION('',(-1.,-2.22044604925031E-16,0.));
#709=DIRECTION('',(0.,0.,-1.));
#710=DIRECTION('center_axis',(-1.,-5.55111512312578E-17,0.));
#711=DIRECTION('ref_axis',(-5.55111512312578E-17,1.,0.));
#712=DIRECTION('',(-5.55111512312578E-17,1.,0.));
#713=DIRECTION('center_axis',(1.,0.,0.));
#714=DIRECTION('ref_axis',(0.,1.,0.));
#715=DIRECTION('',(0.,1.,0.));
#716=DIRECTION('',(0.,0.,1.));
#717=DIRECTION('center_axis',(0.,1.,0.));
#718=DIRECTION('ref_axis',(-1.,0.,0.));
#719=DIRECTION('',(-1.,0.,0.));
#720=DIRECTION('center_axis',(0.,0.,-1.));
#721=DIRECTION('ref_axis',(1.,0.,0.));
#722=CARTESIAN_POINT('',(0.,0.,0.));
#723=CARTESIAN_POINT('Origin',(173.186525637862,4.,11.75));
#724=CARTESIAN_POINT('',(172.936525637862,18.5,12.));
#725=CARTESIAN_POINT('',(172.936525637862,-40.5,12.));
#726=CARTESIAN_POINT('',(172.936525637862,4.,12.));
#727=CARTESIAN_POINT('',(173.436525637862,-41.,11.5));
#728=CARTESIAN_POINT('',(172.936525637862,-40.5,12.));
#729=CARTESIAN_POINT('',(173.436525637862,19.,11.5));
#730=CARTESIAN_POINT('',(173.436525637862,4.,11.5));
#731=CARTESIAN_POINT('',(172.936525637862,18.5,12.));
#732=CARTESIAN_POINT('Origin',(163.436525637862,-40.75,11.75));
#733=CARTESIAN_POINT('',(133.436525637862,-41.,11.5));
#734=CARTESIAN_POINT('',(163.436525637862,-41.,11.5));
#735=CARTESIAN_POINT('',(133.936525637862,-40.5,12.));
#736=CARTESIAN_POINT('',(163.436525637862,-40.5,12.));
#737=CARTESIAN_POINT('',(133.936525637862,-40.5,12.));
#738=CARTESIAN_POINT('Origin',(133.686525637862,-26.,11.75));
#739=CARTESIAN_POINT('',(133.436525637862,19.,11.5));
#740=CARTESIAN_POINT('',(133.436525637862,-26.,11.5));
#741=CARTESIAN_POINT('',(133.936525637862,18.5,12.));
#742=CARTESIAN_POINT('',(133.936525637862,-26.,12.));
#743=CARTESIAN_POINT('',(133.936525637862,18.5,12.));
#744=CARTESIAN_POINT('Origin',(143.436525637862,18.75,11.75));
#745=CARTESIAN_POINT('',(143.436525637862,19.,11.5));
#746=CARTESIAN_POINT('',(143.436525637862,18.5,12.));
#747=CARTESIAN_POINT('Origin',(133.436525637862,19.,9.));
#748=CARTESIAN_POINT('',(173.436525637862,19.,9.));
#749=CARTESIAN_POINT('',(173.436525637862,19.,9.));
#750=CARTESIAN_POINT('',(133.436525637862,19.,9.));
#751=CARTESIAN_POINT('',(133.436525637862,19.,9.));
#752=CARTESIAN_POINT('',(133.436525637862,19.,9.));
#753=CARTESIAN_POINT('Origin',(173.436525637862,19.,9.));
#754=CARTESIAN_POINT('',(173.436525637862,-41.,9.));
#755=CARTESIAN_POINT('',(173.436525637862,-41.,9.));
#756=CARTESIAN_POINT('',(173.436525637862,19.,9.));
#757=CARTESIAN_POINT('Origin',(153.436525637862,-11.,12.));
#758=CARTESIAN_POINT('',(141.851838970661,-30.8344019497387,12.));
#759=CARTESIAN_POINT('',(163.851838970661,-30.8344019497387,12.));
#760=CARTESIAN_POINT('',(148.144182304261,-30.8344019497387,12.));
#761=CARTESIAN_POINT('',(141.851838970661,11.1655980502613,12.));
#762=CARTESIAN_POINT('',(141.851838970661,-0.417200974869325,12.));
#763=CARTESIAN_POINT('',(163.851838970661,11.1655980502614,12.));
#764=CARTESIAN_POINT('',(158.144182304261,11.1655980502614,12.));
#765=CARTESIAN_POINT('',(163.851838970661,-20.4172009748693,12.));
#766=CARTESIAN_POINT('',(139.951838970661,-31.8344019497387,12.));
#767=CARTESIAN_POINT('Origin',(140.851838970661,-31.8344019497387,12.));
#768=CARTESIAN_POINT('',(163.951838970661,12.1655980502613,12.));
#769=CARTESIAN_POINT('Origin',(164.851838970661,12.1655980502613,12.));
#770=CARTESIAN_POINT('',(163.951838970661,-31.8344019497387,12.));
#771=CARTESIAN_POINT('Origin',(164.851838970661,-31.8344019497387,12.));
#772=CARTESIAN_POINT('',(139.951838970661,12.1655980502613,12.));
#773=CARTESIAN_POINT('Origin',(140.851838970661,12.1655980502613,12.));
#774=CARTESIAN_POINT('',(135.126418292403,-38.5,12.));
#775=CARTESIAN_POINT('Origin',(135.876418292403,-38.5,12.));
#776=CARTESIAN_POINT('',(170.186525637862,16.5,12.));
#777=CARTESIAN_POINT('Origin',(170.936525637862,16.5,12.));
#778=CARTESIAN_POINT('',(152.656471965133,-38.5,12.));
#779=CARTESIAN_POINT('Origin',(153.406471965133,-38.5,12.));
#780=CARTESIAN_POINT('',(170.186525637862,-11.,12.));
#781=CARTESIAN_POINT('Origin',(170.936525637862,-11.,12.));
#782=CARTESIAN_POINT('',(170.186525637862,-38.5,12.));
#783=CARTESIAN_POINT('Origin',(170.936525637862,-38.5,12.));
#784=CARTESIAN_POINT('Origin',(148.144182304261,-30.3344019497387,11.5));
#785=CARTESIAN_POINT('',(162.851838970661,-29.8344019497386,11.));
#786=CARTESIAN_POINT('',(163.851838970661,-30.8344019497387,12.));
#787=CARTESIAN_POINT('',(142.851838970661,-29.8344019497387,11.));
#788=CARTESIAN_POINT('',(148.144182304261,-29.8344019497387,11.));
#789=CARTESIAN_POINT('',(142.851838970661,-29.8344019497387,11.));
#790=CARTESIAN_POINT('Origin',(163.351838970661,-20.4172009748693,11.5));
#791=CARTESIAN_POINT('',(162.851838970661,10.1655980502614,11.));
#792=CARTESIAN_POINT('',(162.851838970661,-20.4172009748693,11.));
#793=CARTESIAN_POINT('',(162.851838970661,10.1655980502614,11.));
#794=CARTESIAN_POINT('Origin',(142.351838970661,-0.417200974869325,11.5));
#795=CARTESIAN_POINT('',(142.851838970661,10.1655980502613,11.));
#796=CARTESIAN_POINT('',(142.851838970661,-0.417200974869325,11.));
#797=CARTESIAN_POINT('',(142.851838970661,10.1655980502613,11.));
#798=CARTESIAN_POINT('Origin',(158.144182304261,10.6655980502614,11.5));
#799=CARTESIAN_POINT('',(158.144182304261,10.1655980502614,11.));
#800=CARTESIAN_POINT('Origin',(142.851838970661,10.1655980502613,12.));
#801=CARTESIAN_POINT('',(142.851838970661,-29.8344019497387,9.));
#802=CARTESIAN_POINT('',(142.851838970661,-29.8344019497387,12.));
#803=CARTESIAN_POINT('',(142.851838970661,10.1655980502613,9.));
#804=CARTESIAN_POINT('',(142.851838970661,-0.417200974869325,9.));
#805=CARTESIAN_POINT('',(142.851838970661,10.1655980502613,12.));
#806=CARTESIAN_POINT('Origin',(142.851838970661,-29.8344019497387,12.));
#807=CARTESIAN_POINT('',(162.851838970661,-29.8344019497386,9.));
#808=CARTESIAN_POINT('',(162.851838970661,-29.8344019497386,12.));
#809=CARTESIAN_POINT('',(148.144182304261,-29.8344019497387,9.));
#810=CARTESIAN_POINT('Origin',(170.936525637862,-38.5,12.));
#811=CARTESIAN_POINT('',(170.186525637862,-38.5,9.));
#812=CARTESIAN_POINT('',(170.186525637862,-38.5,12.));
#813=CARTESIAN_POINT('Origin',(170.936525637862,-38.5,9.));
#814=CARTESIAN_POINT('Origin',(170.936525637862,-11.,12.));
#815=CARTESIAN_POINT('',(170.186525637862,-11.,9.));
#816=CARTESIAN_POINT('',(170.186525637862,-11.,12.));
#817=CARTESIAN_POINT('Origin',(170.936525637862,-11.,9.));
#818=CARTESIAN_POINT('Origin',(153.406471965133,-38.5,12.));
#819=CARTESIAN_POINT('',(152.656471965133,-38.5,9.));
#820=CARTESIAN_POINT('',(152.656471965133,-38.5,12.));
#821=CARTESIAN_POINT('Origin',(153.406471965133,-38.5,9.));
#822=CARTESIAN_POINT('Origin',(170.936525637862,16.5,12.));
#823=CARTESIAN_POINT('',(170.186525637862,16.5,9.));
#824=CARTESIAN_POINT('',(170.186525637862,16.5,12.));
#825=CARTESIAN_POINT('Origin',(170.936525637862,16.5,9.));
#826=CARTESIAN_POINT('Origin',(135.876418292403,-38.5,12.));
#827=CARTESIAN_POINT('',(135.126418292403,-38.5,9.));
#828=CARTESIAN_POINT('',(135.126418292403,-38.5,12.));
#829=CARTESIAN_POINT('Origin',(135.876418292403,-38.5,9.));
#830=CARTESIAN_POINT('Origin',(140.851838970661,-31.8344019497387,12.));
#831=CARTESIAN_POINT('',(139.951838970661,-31.8344019497387,9.));
#832=CARTESIAN_POINT('',(139.951838970661,-31.8344019497387,12.));
#833=CARTESIAN_POINT('Origin',(140.851838970661,-31.8344019497387,9.));
#834=CARTESIAN_POINT('Origin',(164.851838970661,12.1655980502613,12.));
#835=CARTESIAN_POINT('',(163.951838970661,12.1655980502613,9.));
#836=CARTESIAN_POINT('',(163.951838970661,12.1655980502613,12.));
#837=CARTESIAN_POINT('Origin',(164.851838970661,12.1655980502613,9.));
#838=CARTESIAN_POINT('Origin',(164.851838970661,-31.8344019497387,12.));
#839=CARTESIAN_POINT('',(163.951838970661,-31.8344019497387,9.));
#840=CARTESIAN_POINT('',(163.951838970661,-31.8344019497387,12.));
#841=CARTESIAN_POINT('Origin',(164.851838970661,-31.8344019497387,9.));
#842=CARTESIAN_POINT('Origin',(140.851838970661,12.1655980502613,12.));
#843=CARTESIAN_POINT('',(139.951838970661,12.1655980502613,9.));
#844=CARTESIAN_POINT('',(139.951838970661,12.1655980502613,12.));
#845=CARTESIAN_POINT('Origin',(140.851838970661,12.1655980502613,9.));
#846=CARTESIAN_POINT('Origin',(162.851838970661,10.1655980502614,12.));
#847=CARTESIAN_POINT('',(162.851838970661,10.1655980502614,9.));
#848=CARTESIAN_POINT('',(158.144182304261,10.1655980502614,9.));
#849=CARTESIAN_POINT('',(162.851838970661,10.1655980502614,12.));
#850=CARTESIAN_POINT('Origin',(162.851838970661,-29.8344019497386,12.));
#851=CARTESIAN_POINT('',(162.851838970661,-20.4172009748693,9.));
#852=CARTESIAN_POINT('Origin',(133.436525637862,-41.,9.));
#853=CARTESIAN_POINT('',(133.436525637862,-41.,9.));
#854=CARTESIAN_POINT('',(133.436525637862,-41.,9.));
#855=CARTESIAN_POINT('',(133.436525637862,-41.,9.));
#856=CARTESIAN_POINT('Origin',(173.436525637862,-41.,9.));
#857=CARTESIAN_POINT('',(173.436525637862,-41.,9.));
#858=CARTESIAN_POINT('Origin',(153.436525637862,-11.,9.));
#859=UNCERTAINTY_MEASURE_WITH_UNIT(LENGTH_MEASURE(0.01),#863,
'DISTANCE_ACCURACY_VALUE',
'Maximum model space distance between geometric entities at asserted c
onnectivities');
#860=UNCERTAINTY_MEASURE_WITH_UNIT(LENGTH_MEASURE(0.01),#863,
'DISTANCE_ACCURACY_VALUE',
'Maximum model space distance between geometric entities at asserted c
onnectivities');
#861=(
GEOMETRIC_REPRESENTATION_CONTEXT(3)
GLOBAL_UNCERTAINTY_ASSIGNED_CONTEXT((#859))
GLOBAL_UNIT_ASSIGNED_CONTEXT((#863,#865,#866))
REPRESENTATION_CONTEXT('','3D')
);
#862=(
GEOMETRIC_REPRESENTATION_CONTEXT(3)
GLOBAL_UNCERTAINTY_ASSIGNED_CONTEXT((#860))
GLOBAL_UNIT_ASSIGNED_CONTEXT((#863,#865,#866))
REPRESENTATION_CONTEXT('','3D')
);
#863=(
LENGTH_UNIT()
NAMED_UNIT(*)
SI_UNIT(.MILLI.,.METRE.)
);
#864=(
LENGTH_UNIT()
NAMED_UNIT(*)
SI_UNIT($,.METRE.)
);
#865=(
NAMED_UNIT(*)
PLANE_ANGLE_UNIT()
SI_UNIT($,.RADIAN.)
);
#866=(
NAMED_UNIT(*)
SI_UNIT($,.STERADIAN.)
SOLID_ANGLE_UNIT()
);
#867=SHAPE_DEFINITION_REPRESENTATION(#868,#869);
#868=PRODUCT_DEFINITION_SHAPE('',$,#871);
#869=SHAPE_REPRESENTATION('',(#535),#861);
#870=PRODUCT_DEFINITION_CONTEXT('part definition',#875,'design');
#871=PRODUCT_DEFINITION('2026-10-10-09-50-04-540','LS-COVER',#872,#870);
#872=PRODUCT_DEFINITION_FORMATION('',$,#877);
#873=PRODUCT_RELATED_PRODUCT_CATEGORY('LS-COVER','LS-COVER',(#877));
#874=APPLICATION_PROTOCOL_DEFINITION('international standard',
'automotive_design',2009,#875);
#875=APPLICATION_CONTEXT(
'Core Data for Automotive Mechanical Design Process');
#876=PRODUCT_CONTEXT('part definition',#875,'mechanical');
#877=PRODUCT('2026-10-10-09-50-04-540','LS-COVER',$,(#876));
#878=PRESENTATION_STYLE_ASSIGNMENT((#879));
#879=SURFACE_STYLE_USAGE(.BOTH.,#880);
#880=SURFACE_SIDE_STYLE('',(#881));
#881=SURFACE_STYLE_FILL_AREA(#882);
#882=FILL_AREA_STYLE('Steel - Satin',(#883));
#883=FILL_AREA_STYLE_COLOUR('Steel - Satin',#884);
#884=COLOUR_RGB('Steel - Satin',0.627450980392157,0.627450980392157,0.627450980392157);
ENDSEC;
END-ISO-10303-21;
