%TF.GenerationSoftware,KiCad,Pcbnew,10.0.6*%
%TF.CreationDate,2026-10-11T11:05:20+05:30*%
%TF.ProjectId,carrier-orange pi zero 3w,63617272-6965-4722-9d6f-72616e676520,rev?*%
%TF.SameCoordinates,Original*%
%TF.FileFunction,Copper,L4,Bot*%
%TF.FilePolarity,Positive*%
%FSLAX46Y46*%
G04 Gerber Fmt 4.6, Leading zero omitted, Abs format (unit mm)*
G04 Created by KiCad (PCBNEW 10.0.6) date 2026-10-11 11:05:20*
%MOMM*%
%LPD*%
G01*
G04 APERTURE LIST*
G04 Aperture macros list*
%AMRoundRect*
0 Rectangle with rounded corners*
0 $1 Rounding radius*
0 $2 $3 $4 $5 $6 $7 $8 $9 X,Y pos of 4 corners*
0 Add a 4 corners polygon primitive as box body*
4,1,4,$2,$3,$4,$5,$6,$7,$8,$9,$2,$3,0*
0 Add four circle primitives for the rounded corners*
1,1,$1+$1,$2,$3*
1,1,$1+$1,$4,$5*
1,1,$1+$1,$6,$7*
1,1,$1+$1,$8,$9*
0 Add four rect primitives between the rounded corners*
20,1,$1+$1,$2,$3,$4,$5,0*
20,1,$1+$1,$4,$5,$6,$7,0*
20,1,$1+$1,$6,$7,$8,$9,0*
20,1,$1+$1,$8,$9,$2,$3,0*%
G04 Aperture macros list end*
%TA.AperFunction,ComponentPad*%
%ADD10O,1.300000X3.200000*%
%TD*%
%TA.AperFunction,ComponentPad*%
%ADD11RoundRect,0.250000X-0.550000X-0.550000X0.550000X-0.550000X0.550000X0.550000X-0.550000X0.550000X0*%
%TD*%
%TA.AperFunction,ComponentPad*%
%ADD12C,1.600000*%
%TD*%
%TA.AperFunction,ComponentPad*%
%ADD13R,1.700000X1.700000*%
%TD*%
%TA.AperFunction,ComponentPad*%
%ADD14C,1.700000*%
%TD*%
%TA.AperFunction,WasherPad*%
%ADD15C,3.400000*%
%TD*%
%TA.AperFunction,ComponentPad*%
%ADD16RoundRect,0.250001X-1.099999X-1.099999X1.099999X-1.099999X1.099999X1.099999X-1.099999X1.099999X0*%
%TD*%
%TA.AperFunction,ComponentPad*%
%ADD17C,2.700000*%
%TD*%
%TA.AperFunction,SMDPad,CuDef*%
%ADD18RoundRect,0.500000X-0.750000X-0.750000X0.750000X-0.750000X0.750000X0.750000X-0.750000X0.750000X0*%
%TD*%
%TA.AperFunction,SMDPad,CuDef*%
%ADD19RoundRect,0.360000X-0.540000X-0.540000X0.540000X-0.540000X0.540000X0.540000X-0.540000X0.540000X0*%
%TD*%
%TA.AperFunction,ViaPad*%
%ADD20C,0.500000*%
%TD*%
%TA.AperFunction,ViaPad*%
%ADD21C,0.600000*%
%TD*%
%TA.AperFunction,ViaPad*%
%ADD22C,1.000000*%
%TD*%
%TA.AperFunction,ViaPad*%
%ADD23C,0.800000*%
%TD*%
%TA.AperFunction,ViaPad*%
%ADD24C,0.700000*%
%TD*%
%TA.AperFunction,Conductor*%
%ADD25C,0.400000*%
%TD*%
%TA.AperFunction,Conductor*%
%ADD26C,0.700000*%
%TD*%
%TA.AperFunction,Conductor*%
%ADD27C,0.200000*%
%TD*%
%TA.AperFunction,Conductor*%
%ADD28C,0.500000*%
%TD*%
G04 APERTURE END LIST*
D10*
%TO.P,J7,SH,Shield_SH*%
%TO.N,GND*%
X80450000Y-38800000D03*
X92150000Y-38800000D03*
%TD*%
D11*
%TO.P,C4,1*%
%TO.N,+5V_OPI*%
X165890000Y-83870000D03*
D12*
%TO.P,C4,2*%
%TO.N,GND*%
X168390000Y-83870000D03*
%TD*%
D13*
%TO.P,J6,1,Pin_1_1*%
%TO.N,+5V_PERIPH*%
X177700000Y-87480000D03*
D14*
%TO.P,J6,2,Pin_2_2*%
%TO.N,GND*%
X180240000Y-87480000D03*
%TD*%
D15*
%TO.P,,*%
%TO.N,*%
X156905200Y-40885889D03*
%TD*%
%TO.P,,*%
%TO.N,*%
X156955200Y-63885889D03*
%TD*%
%TO.P,,*%
%TO.N,*%
X214905200Y-63835889D03*
%TD*%
D13*
%TO.P,J19,1,Pin_1_1*%
%TO.N,+5V_PERIPH*%
X99450000Y-87020000D03*
D14*
%TO.P,J19,2,Pin_2_2*%
%TO.N,GND*%
X99450000Y-84480000D03*
%TO.P,J19,3,Pin_3_3*%
%TO.N,+3V3_MAIN*%
X101990000Y-87020000D03*
%TO.P,J19,4,Pin_4_4*%
%TO.N,GND*%
X101990000Y-84480000D03*
%TO.P,J19,5,Pin_5_5*%
%TO.N,SDA*%
X104530000Y-87020000D03*
%TO.P,J19,6,Pin_6_6*%
%TO.N,SCL*%
X104530000Y-84480000D03*
%TO.P,J19,7,Pin_7_7*%
%TO.N,SPI3_MOSI *%
X107070000Y-87020000D03*
%TO.P,J19,8,Pin_8_8*%
%TO.N,SPI3_MISO*%
X107070000Y-84480000D03*
%TO.P,J19,9,Pin_9_9*%
%TO.N,SPI3_SCK*%
X109610000Y-87020000D03*
%TO.P,J19,10,Pin_10_10*%
%TO.N,SPI_CS_EXT*%
X109610000Y-84480000D03*
%TO.P,J19,11,Pin_11_11*%
%TO.N,UART_TX*%
X112150000Y-87020000D03*
%TO.P,J19,12,Pin_12_12*%
%TO.N,UART_RX*%
X112150000Y-84480000D03*
%TO.P,J19,13,Pin_13_13*%
%TO.N,GPIO_EXT1*%
X114690000Y-87020000D03*
%TO.P,J19,14,Pin_14_14*%
%TO.N,GPIO_EXT2*%
X114690000Y-84480000D03*
%TO.P,J19,15,Pin_15_15*%
%TO.N,GPIO_EXT3*%
X117230000Y-87020000D03*
%TO.P,J19,16,Pin_16_16*%
%TO.N,GPIO_EXT4*%
X117230000Y-84480000D03*
%TO.P,J19,17,Pin_17_17*%
%TO.N,GPIO_EXT5 {slash} INT*%
X119770000Y-87020000D03*
%TO.P,J19,18,Pin_18_18*%
%TO.N,GPIO_EXT6 {slash} INT*%
X119770000Y-84480000D03*
%TO.P,J19,19,Pin_19_19*%
%TO.N,GND*%
X122310000Y-87020000D03*
%TO.P,J19,20,Pin_20_20*%
X122310000Y-84480000D03*
%TD*%
D13*
%TO.P,J1,1,Pin_1_1*%
%TO.N,+3V3_MAIN*%
X151250000Y-51260000D03*
D14*
%TO.P,J1,2,Pin_2_2*%
%TO.N,GND*%
X151250000Y-53800000D03*
%TO.P,J1,3,Pin_3_3*%
%TO.N,SPI3_MOSI *%
X151250000Y-56340000D03*
%TO.P,J1,4,Pin_4_4*%
%TO.N,SPI3_SCK*%
X151250000Y-58880000D03*
%TO.P,J1,5,Pin_5_5*%
%TO.N,EPAPER_CS*%
X151250000Y-61420000D03*
%TO.P,J1,6,Pin_6_6*%
%TO.N,EPAPER_DC*%
X151250000Y-63960000D03*
%TO.P,J1,7,Pin_7_7*%
%TO.N,EPAPER_RST*%
X151250000Y-66500000D03*
%TO.P,J1,8,Pin_8_8*%
%TO.N,EPAPER_BUSY*%
X151250000Y-69040000D03*
%TD*%
D15*
%TO.P,,*%
%TO.N,*%
X214955200Y-40935889D03*
%TD*%
D16*
%TO.P,J18,1,Pin_1_1*%
%TO.N,Net-(J18-Pin_1)*%
X243640000Y-55850000D03*
D17*
%TO.P,J18,2,Pin_2_2*%
%TO.N,Net-(J18-Pin_2)*%
X247600000Y-55850000D03*
%TD*%
D13*
%TO.P,J3,1,Pin_1_1*%
%TO.N,unconnected-(J3-Pin_1-Pad1)*%
X161622494Y-41975560D03*
D14*
%TO.P,J3,2,Pin_2_2*%
%TO.N,+5V_OPI*%
X161622494Y-39435560D03*
%TO.P,J3,3,Pin_3_3*%
%TO.N,SDA*%
X164162494Y-41975560D03*
%TO.P,J3,4,Pin_4_4*%
%TO.N,+5V_OPI*%
X164162494Y-39435560D03*
%TO.P,J3,5,Pin_5_5*%
%TO.N,SCL*%
X166702494Y-41975560D03*
%TO.P,J3,6,Pin_6_6*%
%TO.N,GND*%
X166702494Y-39435560D03*
%TO.P,J3,7,Pin_7_7*%
%TO.N,SPI_CS_EXT*%
X169242494Y-41975560D03*
%TO.P,J3,8,Pin_8_8*%
%TO.N,unconnected-(J3-Pin_8-Pad8)*%
X169242494Y-39435560D03*
%TO.P,J3,9,Pin_9_9*%
%TO.N,GND*%
X171782494Y-41975560D03*
%TO.P,J3,10,Pin_10_10*%
%TO.N,unconnected-(J3-Pin_10-Pad10)*%
X171782494Y-39435560D03*
%TO.P,J3,11,Pin_11_11*%
%TO.N,UART_TX*%
X174322494Y-41975560D03*
%TO.P,J3,12,Pin_12_12*%
%TO.N,I2S_BCLK*%
X174322494Y-39435560D03*
%TO.P,J3,13,Pin_13_13*%
%TO.N,UART_RX*%
X176862494Y-41975560D03*
%TO.P,J3,14,Pin_14_14*%
%TO.N,unconnected-(J3-Pin_14-Pad14)*%
X176862494Y-39435560D03*
%TO.P,J3,15,Pin_15_15*%
%TO.N,EPAPER_DC*%
X179402494Y-41975560D03*
%TO.P,J3,16,Pin_16_16*%
%TO.N,unconnected-(J3-Pin_16-Pad16)*%
X179402494Y-39435560D03*
%TO.P,J3,17,Pin_17_17*%
%TO.N,unconnected-(J3-Pin_17-Pad17)*%
X181942494Y-41975560D03*
%TO.P,J3,18,Pin_18_18*%
%TO.N,unconnected-(J3-Pin_18-Pad18)*%
X181942494Y-39435560D03*
%TO.P,J3,19,Pin_19_19*%
%TO.N,SPI3_MOSI *%
X184482494Y-41975560D03*
%TO.P,J3,20,Pin_20_20*%
%TO.N,unconnected-(J3-Pin_20-Pad20)*%
X184482494Y-39435560D03*
%TO.P,J3,21,Pin_21_21*%
%TO.N,SPI3_MISO*%
X187022494Y-41975560D03*
%TO.P,J3,22,Pin_22_22*%
%TO.N,BUSY*%
X187022494Y-39435560D03*
%TO.P,J3,23,Pin_23_23*%
%TO.N,SPI3_SCK*%
X189562494Y-41975560D03*
%TO.P,J3,24,Pin_24_24*%
%TO.N,EPAPER_CS*%
X189562494Y-39435560D03*
%TO.P,J3,25,Pin_25_25*%
%TO.N,GND*%
X192102494Y-41975560D03*
%TO.P,J3,26,Pin_26_26*%
%TO.N,LORA_CS*%
X192102494Y-39435560D03*
%TO.P,J3,27,Pin_27_27*%
%TO.N,RESET*%
X194642494Y-41975560D03*
%TO.P,J3,28,Pin_28_28*%
%TO.N,DIO1*%
X194642494Y-39435560D03*
%TO.P,J3,29,Pin_29_29*%
%TO.N,EPAPER_RST*%
X197182494Y-41975560D03*
%TO.P,J3,30,Pin_30_30*%
%TO.N,unconnected-(J3-Pin_30-Pad30)*%
X197182494Y-39435560D03*
%TO.P,J3,31,Pin_31_31*%
%TO.N,EPAPER_BUSY*%
X199722494Y-41975560D03*
%TO.P,J3,32,Pin_32_32*%
%TO.N,RXEN*%
X199722494Y-39435560D03*
%TO.P,J3,33,Pin_33_33*%
%TO.N,FAN1_PWM*%
X202262494Y-41975560D03*
%TO.P,J3,34,Pin_34_34*%
%TO.N,unconnected-(J3-Pin_34-Pad34)*%
X202262494Y-39435560D03*
%TO.P,J3,35,Pin_35_35*%
%TO.N,I2S_LRCLK*%
X204802494Y-41975560D03*
%TO.P,J3,36,Pin_36_36*%
%TO.N,TXEN*%
X204802494Y-39435560D03*
%TO.P,J3,37,Pin_37_37*%
%TO.N,FAN2_PWM*%
X207342494Y-41975560D03*
%TO.P,J3,38,Pin_38_38*%
%TO.N,I2S_DIN*%
X207342494Y-39435560D03*
%TO.P,J3,39,Pin_39_39*%
%TO.N,unconnected-(J3-Pin_39-Pad39)*%
X209882494Y-41975560D03*
%TO.P,J3,40,Pin_40_40*%
%TO.N,MCP_INT*%
X209882494Y-39435560D03*
%TD*%
D13*
%TO.P,J14,1,VBUS_1*%
%TO.N,+5V_USB*%
X234480000Y-35550000D03*
D14*
%TO.P,J14,2,D-_2*%
%TO.N,/USB/USB2DM*%
X237020000Y-35550000D03*
%TO.P,J14,3,D+_3*%
%TO.N,/USB/USB2DP*%
X239560000Y-35550000D03*
%TO.P,J14,4,GND_4*%
%TO.N,GND*%
X242100000Y-35550000D03*
%TD*%
D13*
%TO.P,J8,1,Pin_1_1*%
%TO.N,OPI_USB_VBUS*%
X187080000Y-70600000D03*
D14*
%TO.P,J8,2,Pin_2_2*%
%TO.N,OPI_USB_DM*%
X184540000Y-70600000D03*
%TO.P,J8,3,Pin_3_3*%
%TO.N,OPI_USB_DP*%
X182000000Y-70600000D03*
%TO.P,J8,4,Pin_4_4*%
%TO.N,GND*%
X179460000Y-70600000D03*
%TD*%
D10*
%TO.P,J11,SH,Shield_SH*%
%TO.N,GND*%
X125600000Y-38800000D03*
X137300000Y-38800000D03*
%TD*%
%TO.P,J10,SH,Shield_SH*%
%TO.N,GND*%
X110550000Y-38800000D03*
X122250000Y-38800000D03*
%TD*%
D13*
%TO.P,J13,1,VBUS_1*%
%TO.N,+5V_USB*%
X67670000Y-87250000D03*
D14*
%TO.P,J13,2,D-_2*%
%TO.N,/USB/USB7DM*%
X70210000Y-87250000D03*
%TO.P,J13,3,D+_3*%
%TO.N,/USB/USB7DP*%
X72750000Y-87250000D03*
%TO.P,J13,4,GND_4*%
%TO.N,GND*%
X75290000Y-87250000D03*
%TD*%
D16*
%TO.P,J16,1,Pin_1_1*%
%TO.N,+5V_FAN*%
X243640000Y-68200000D03*
D17*
%TO.P,J16,2,Pin_2_2*%
%TO.N,/FAN/FAN2_SW*%
X247600000Y-68200000D03*
%TD*%
D16*
%TO.P,J17,1,Pin_1_1*%
%TO.N,Net-(J17-Pin_1)*%
X64080000Y-56320000D03*
D17*
%TO.P,J17,2,Pin_2_2*%
%TO.N,Net-(J17-Pin_2)*%
X68040000Y-56320000D03*
%TD*%
D13*
%TO.P,J12,1,VBUS_1*%
%TO.N,+5V_PERIPH*%
X83450000Y-87200000D03*
D14*
%TO.P,J12,2,D-_2*%
%TO.N,/USB/USB6DM*%
X85990000Y-87200000D03*
%TO.P,J12,3,D+_3*%
%TO.N,/USB/USB6DP*%
X88530000Y-87200000D03*
%TO.P,J12,4,GND_4*%
%TO.N,GND*%
X91070000Y-87200000D03*
%TD*%
D10*
%TO.P,J9,SH,Shield_SH*%
%TO.N,GND*%
X95500000Y-38800000D03*
X107200000Y-38800000D03*
%TD*%
D16*
%TO.P,J15,1,Pin_1_1*%
%TO.N,+5V_FAN*%
X64200000Y-68200000D03*
D17*
%TO.P,J15,2,Pin_2_2*%
%TO.N,/FAN/FAN1_SW*%
X68160000Y-68200000D03*
%TD*%
D15*
%TO.P,J4,*%
%TO.N,*%
X64870000Y-33480000D03*
X64870000Y-82480000D03*
X145870000Y-33480000D03*
X145870000Y-82480000D03*
D18*
%TO.P,J4,1,Pin_1_1*%
%TO.N,GND*%
X130840000Y-81210000D03*
D19*
%TO.P,J4,2,Pin_2_2*%
%TO.N,SCL*%
X135920000Y-81210000D03*
%TO.P,J4,3,Pin_3_3*%
%TO.N,SDA*%
X138460000Y-81210000D03*
D18*
%TO.P,J4,4,Pin_4_4*%
%TO.N,+5V_MAIN*%
X141000000Y-83750000D03*
%TD*%
D20*
%TO.N,/USB/USB1DM*%
X98830000Y-52380000D03*
X121680000Y-52330000D03*
D21*
X85300000Y-43170000D03*
X181579909Y-55000001D03*
X162560000Y-52220000D03*
X175320000Y-52230000D03*
%TO.N,/USB/USB1DP*%
X87300000Y-43110000D03*
X177370000Y-53290000D03*
X174500000Y-49090000D03*
X183740000Y-51250000D03*
%TO.N,GND*%
X156650000Y-83420000D03*
X145860000Y-62260000D03*
X154870000Y-72590000D03*
X189830000Y-62590000D03*
X134930000Y-39970000D03*
X73910000Y-61790000D03*
X94760000Y-66620000D03*
X248570000Y-77980000D03*
X146200000Y-75880000D03*
X191950000Y-71250000D03*
X237890000Y-78750000D03*
X74770000Y-53510000D03*
X68470000Y-76750000D03*
X125280000Y-87050000D03*
X172570000Y-87930000D03*
X133680000Y-68450000D03*
X188600000Y-56470251D03*
X237890000Y-81290000D03*
X236690000Y-54800000D03*
X108910000Y-75130000D03*
X186940000Y-49770000D03*
X188525000Y-65050000D03*
X109400000Y-64930000D03*
X191700000Y-53740000D03*
X77530000Y-55770000D03*
X178575000Y-64670000D03*
X231800000Y-54400000D03*
X193010000Y-60040000D03*
X156670000Y-54380000D03*
X189740000Y-63350000D03*
X220110000Y-78750000D03*
X107680000Y-75170000D03*
X190645000Y-49085000D03*
X77150000Y-66870000D03*
X171475000Y-58575000D03*
X145860000Y-65000000D03*
X247840000Y-80670000D03*
X177574258Y-49190000D03*
X179760000Y-66640000D03*
X80260000Y-66750000D03*
X185010000Y-47960000D03*
X169412500Y-61990000D03*
X191780000Y-54790000D03*
X172990000Y-50500000D03*
X173260000Y-63225000D03*
X146550000Y-79340000D03*
X175472616Y-54065000D03*
X77640000Y-61560000D03*
X133740000Y-67590000D03*
X104840000Y-39850000D03*
X234000000Y-52400000D03*
X72560000Y-56250000D03*
X182370000Y-47510000D03*
X235400000Y-59900000D03*
X190040000Y-53700000D03*
X171450000Y-56590000D03*
X237890000Y-66050000D03*
X141190000Y-71030000D03*
X89860000Y-40000000D03*
X179750000Y-47540000D03*
X173270000Y-65150000D03*
X160020000Y-70560000D03*
X119940000Y-39840000D03*
X157340000Y-85690000D03*
X95720000Y-66630000D03*
X132220000Y-74390000D03*
X114260000Y-64530000D03*
X106020000Y-78200000D03*
X154670000Y-54380000D03*
X69760000Y-75930000D03*
X162440000Y-71430000D03*
X133973504Y-81826496D03*
X174540000Y-83930000D03*
X233440000Y-59890000D03*
%TO.N,+5V_PERIPH*%
X154605000Y-86760000D03*
X164450000Y-86780000D03*
X96620000Y-80270000D03*
%TO.N,/USB/RBIAS*%
X177085082Y-55703610D03*
X183760000Y-50400000D03*
D22*
%TO.N,+5V_MAIN*%
X141000000Y-83750000D03*
X146530000Y-86820000D03*
D23*
X137970000Y-68270000D03*
X140230000Y-76570000D03*
D21*
%TO.N,+5V_AUDIO*%
X131840000Y-83260000D03*
X137990000Y-88530000D03*
D23*
X231400000Y-58200000D03*
D21*
X73050000Y-58930000D03*
%TO.N,+5V_PPROTECTED*%
X168590000Y-75870000D03*
X169940000Y-71790000D03*
%TO.N,+3V3_MAIN*%
X186950000Y-52800000D03*
D23*
X141090000Y-58450000D03*
D24*
X172825000Y-61460000D03*
D21*
X108040000Y-78360000D03*
D20*
X72960000Y-57600000D03*
D21*
X179626411Y-49650000D03*
X228380000Y-59140000D03*
D24*
X174500000Y-56575000D03*
D20*
X78550000Y-66720001D03*
D21*
X183240000Y-62665000D03*
X178575000Y-63194071D03*
X182260000Y-50638528D03*
X190962501Y-58322829D03*
X182223600Y-59270000D03*
D24*
X158120000Y-51360000D03*
D21*
X183150000Y-64290000D03*
X112415000Y-71335000D03*
X187537500Y-59220000D03*
%TO.N,/USB/PRT_SWP3*%
X186587500Y-65050000D03*
X181454972Y-58870000D03*
D23*
%TO.N,+5V_OPI*%
X165740000Y-53140000D03*
D21*
%TO.N,/USB/XTAL1{slash}CLKIN*%
X184210000Y-54620000D03*
X191770000Y-49720000D03*
X188590000Y-48920000D03*
%TO.N,/USB/XTAL2*%
X188730000Y-52620000D03*
X183340000Y-55030000D03*
%TO.N,/USB/PRT_SWP1*%
X190050000Y-59020000D03*
X180680000Y-57230000D03*
%TO.N,Net-(U2-SUSP_IND{slash}LOCAL_PWR{slash}NON_REM0)*%
X180580000Y-58470000D03*
X186533833Y-61029881D03*
%TO.N,SDA*%
X107880000Y-71390000D03*
D20*
X107280000Y-66480000D03*
D21*
X110850000Y-79400000D03*
X100315000Y-79215000D03*
%TO.N,SCL*%
X148780000Y-46251751D03*
X108600000Y-69510000D03*
X135920000Y-81210000D03*
X101397995Y-78843077D03*
%TO.N,SPI3_MOSI *%
X198770000Y-44300000D03*
X150460000Y-46251751D03*
X198600000Y-80200000D03*
X195950000Y-44370000D03*
X222400000Y-77400000D03*
%TO.N,SPI3_SCK*%
X103860000Y-77820000D03*
X104610000Y-68760000D03*
X205830000Y-56630000D03*
X220110000Y-73670000D03*
%TO.N,SPI_CS_EXT*%
X192829265Y-46210738D03*
X193542566Y-86020178D03*
%TO.N,UART_TX*%
X193657107Y-85057107D03*
X179902494Y-44240000D03*
X191975000Y-46205000D03*
%TO.N,UART_RX*%
X191075000Y-46205000D03*
%TO.N,I2S_DIN*%
X72600000Y-55230000D03*
X207270000Y-36935000D03*
X195400000Y-36680000D03*
%TO.N,I2S_LRCLK*%
X75750000Y-53470000D03*
%TO.N,I2S_BCLK*%
X73920000Y-53580000D03*
X233232505Y-52625734D03*
%TO.N,OPI_USB_DP*%
X182676967Y-55600000D03*
X178280000Y-60340000D03*
%TO.N,OPI_USB_DM*%
X183750000Y-56380000D03*
%TO.N,MCP_INT*%
X112370000Y-75440000D03*
%TO.N,/USB/CFG_SEL1*%
X182295329Y-63944071D03*
X178672049Y-59530248D03*
X186675000Y-63075000D03*
%TO.N,EPAPER_CS*%
X165125913Y-49570000D03*
%TO.N,EPAPER_DC*%
X166095000Y-49590000D03*
%TO.N,EPAPER_RST*%
X171454314Y-46251751D03*
X169693801Y-49545000D03*
%TO.N,EPAPER_BUSY*%
X167070000Y-49610000D03*
%TO.N,FAN1_PWM*%
X69730000Y-80130000D03*
%TO.N,Net-(U2-LED_B3_N{slash}GANG_EN)*%
X177410000Y-60280000D03*
X175350000Y-61410000D03*
%TO.N,Net-(U1-BOOT)*%
X137180000Y-70670000D03*
X138420000Y-66780000D03*
%TO.N,Net-(U1-SW)*%
X135990000Y-66130000D03*
X135960000Y-74070000D03*
%TO.N,BUSY*%
X220110000Y-63510000D03*
%TO.N,LORA_CS*%
X206550000Y-58390000D03*
%TO.N,RESET*%
X208850000Y-58340000D03*
%TO.N,DIO1*%
X237890000Y-68590000D03*
X199895905Y-36894095D03*
%TO.N,/USB/USB2DM*%
X183403887Y-53126114D03*
%TO.N,/USB/USB2DP*%
X178488527Y-55000000D03*
%TO.N,/USB/USB3DM*%
X181450733Y-53575054D03*
X100425000Y-43338033D03*
%TO.N,/USB/USB3DP*%
X177611841Y-55000000D03*
X102350000Y-43460000D03*
%TO.N,/USB/USB4DM*%
X115400000Y-43280000D03*
X181190000Y-46330000D03*
%TO.N,/USB/USB4DP*%
X180250733Y-53346887D03*
X117420000Y-43420000D03*
X176960000Y-47280000D03*
X172760000Y-48320000D03*
%TO.N,/USB/USB5DM*%
X179451464Y-53312641D03*
X172747880Y-47520089D03*
X130450000Y-43390000D03*
X175540000Y-47281141D03*
%TO.N,/USB/USB5DP*%
X178654265Y-53245735D03*
X132355000Y-43390000D03*
%TO.N,/USB/PRT_SWP6*%
X137033000Y-61722000D03*
X164211000Y-59563000D03*
%TO.N,/USB/PRTPWR1*%
X177682230Y-59520000D03*
X164858603Y-66451397D03*
%TO.N,/USB/CFG_SEL0*%
X179094127Y-60258565D03*
X178870000Y-65740000D03*
%TO.N,/USB/VBUS_DET*%
X179737561Y-58854390D03*
X181410000Y-66290000D03*
D23*
X191950000Y-69425000D03*
D21*
%TO.N,Net-(U2-LED_B2_N{slash}BOOST1)*%
X185140000Y-61620000D03*
X190100000Y-61125000D03*
%TO.N,/USB/PRT_SWP2*%
X187187500Y-67075000D03*
X185610000Y-60940000D03*
%TO.N,Net-(U2-LED_B1_N{slash}BOOST0)*%
X178529975Y-58129975D03*
X192560000Y-62900000D03*
%TO.N,/USB/USB6DM*%
X184129826Y-58330000D03*
X197688628Y-80800000D03*
X197280000Y-58350000D03*
%TO.N,/USB/USB6DP*%
X185945328Y-57777535D03*
X178080000Y-58800000D03*
%TO.N,/USB/USB7DM*%
X179420000Y-57264184D03*
X196300000Y-57170000D03*
%TO.N,/USB/USB7DP*%
X177964258Y-56664184D03*
%TD*%
%TO.N,OPI_USB_DP*%
D25*
X177875000Y-67175000D02*
X181300000Y-70600000D01*
X177875000Y-60804950D02*
X177875000Y-67175000D01*
X178280000Y-60399950D02*
X177875000Y-60804950D01*
X178280000Y-60340000D02*
X178280000Y-60399950D01*
X181300000Y-70600000D02*
X182000000Y-70600000D01*
%TO.N,/USB/VBUS_DET*%
D26*
X180460000Y-65340000D02*
X181410000Y-66290000D01*
X180460000Y-59576829D02*
X180460000Y-65340000D01*
X179737561Y-58854390D02*
X180460000Y-59576829D01*
%TO.N,/USB/USB1DM*%
D27*
X86030000Y-52380000D02*
X85300000Y-51650000D01*
X121680000Y-52330000D02*
X121760000Y-52410000D01*
X175320000Y-52230000D02*
X176194314Y-52230000D01*
X85300000Y-51650000D02*
X85300000Y-43170000D01*
X181579909Y-55280091D02*
X181579909Y-55000001D01*
X176370000Y-55837057D02*
X176962943Y-56430000D01*
X176194314Y-52230000D02*
X176370000Y-52405686D01*
X181240000Y-55620000D02*
X181579909Y-55280091D01*
X177349913Y-56430000D02*
X178159913Y-55620000D01*
X121760000Y-52410000D02*
X162370000Y-52410000D01*
X162370000Y-52410000D02*
X162560000Y-52220000D01*
X178159913Y-55620000D02*
X181240000Y-55620000D01*
X176370000Y-52405686D02*
X176370000Y-55837057D01*
X98830000Y-52380000D02*
X86030000Y-52380000D01*
X176962943Y-56430000D02*
X177349913Y-56430000D01*
%TO.N,/USB/USB1DP*%
X177170000Y-51760000D02*
X174500000Y-49090000D01*
X177170000Y-53090000D02*
X177170000Y-51760000D01*
X177370000Y-53290000D02*
X177170000Y-53090000D01*
%TO.N,GND*%
X131456496Y-81826496D02*
X130840000Y-81210000D01*
X133973504Y-81826496D02*
X131456496Y-81826496D01*
%TO.N,/USB/PRT_SWP3*%
X183840000Y-62810000D02*
X183840000Y-62416471D01*
X185722754Y-64185254D02*
X185215254Y-64185254D01*
X182930000Y-61506471D02*
X182930000Y-59127871D01*
X182930000Y-59127871D02*
X182472129Y-58670000D01*
X182472129Y-58670000D02*
X181654972Y-58670000D01*
X185215254Y-64185254D02*
X183840000Y-62810000D01*
X186587500Y-65050000D02*
X185722754Y-64185254D01*
X181654972Y-58670000D02*
X181454972Y-58870000D01*
X183840000Y-62416471D02*
X182930000Y-61506471D01*
%TO.N,/USB/XTAL1{slash}CLKIN*%
X184540000Y-53190000D02*
X184540000Y-54560000D01*
X188590000Y-48920000D02*
X188590000Y-49220000D01*
X189090000Y-49720000D02*
X191770000Y-49720000D01*
X188590000Y-49140000D02*
X184540000Y-53190000D01*
X184540000Y-54560000D02*
X184480000Y-54620000D01*
X188590000Y-48920000D02*
X188590000Y-49140000D01*
X188590000Y-49220000D02*
X189090000Y-49720000D01*
X184480000Y-54620000D02*
X184210000Y-54620000D01*
%TO.N,/USB/XTAL2*%
X183570000Y-55260000D02*
X183340000Y-55030000D01*
X184418529Y-55260000D02*
X183570000Y-55260000D01*
X188730000Y-52620000D02*
X188730000Y-52870000D01*
X188730000Y-52870000D02*
X186760000Y-54840000D01*
X186760000Y-54840000D02*
X184838529Y-54840000D01*
X184838529Y-54840000D02*
X184418529Y-55260000D01*
%TO.N,/USB/PRT_SWP1*%
X181930000Y-57030000D02*
X181730000Y-57230000D01*
X184270000Y-57030000D02*
X181930000Y-57030000D01*
X190050000Y-59020000D02*
X189950000Y-59020000D01*
X189550000Y-58620000D02*
X185860000Y-58620000D01*
X181730000Y-57230000D02*
X180680000Y-57230000D01*
X185860000Y-58620000D02*
X184270000Y-57030000D01*
X189950000Y-59020000D02*
X189550000Y-58620000D01*
%TO.N,Net-(U2-SUSP_IND{slash}LOCAL_PWR{slash}NON_REM0)*%
X180580000Y-58470000D02*
X180620000Y-58470000D01*
X180820000Y-58270000D02*
X182637815Y-58270000D01*
X182637815Y-58270000D02*
X183330000Y-58962186D01*
X184329826Y-59855512D02*
X184694315Y-60220000D01*
X183645512Y-59855512D02*
X184329826Y-59855512D01*
X180620000Y-58470000D02*
X180820000Y-58270000D01*
X183330000Y-59540000D02*
X183645512Y-59855512D01*
X186400000Y-60220000D02*
X186662500Y-60482500D01*
X183330000Y-58962186D02*
X183330000Y-59540000D01*
X184694315Y-60220000D02*
X186400000Y-60220000D01*
X186662500Y-60901214D02*
X186533833Y-61029881D01*
X186662500Y-60482500D02*
X186662500Y-60901214D01*
%TO.N,SDA*%
X137830000Y-79660000D02*
X110760000Y-79660000D01*
X156316443Y-43125560D02*
X163012494Y-43125560D01*
X163012494Y-43125560D02*
X164162494Y-41975560D01*
X99590000Y-42800000D02*
X100115000Y-42275000D01*
X107280000Y-66480000D02*
X100570000Y-66480000D01*
X109710000Y-79660000D02*
X109510000Y-79460000D01*
X99590000Y-65500000D02*
X99590000Y-42800000D01*
X109510000Y-79460000D02*
X109510000Y-71380000D01*
X100570000Y-66480000D02*
X99590000Y-65500000D01*
X107890000Y-71380000D02*
X107880000Y-71390000D01*
X100115000Y-42275000D02*
X155465883Y-42275000D01*
X110760000Y-79660000D02*
X109710000Y-79660000D01*
X138460000Y-81210000D02*
X138460000Y-80290000D01*
X138460000Y-80290000D02*
X137830000Y-79660000D01*
X110760000Y-79660000D02*
X110760000Y-79490000D01*
X110760000Y-79490000D02*
X110850000Y-79400000D01*
X155465883Y-42275000D02*
X156316443Y-43125560D01*
X109510000Y-71380000D02*
X107890000Y-71380000D01*
%TO.N,SCL*%
X101397995Y-78843077D02*
X101397995Y-76712005D01*
X148780000Y-46251751D02*
X148780000Y-45490000D01*
X108365686Y-82850000D02*
X130581471Y-82850000D01*
X101397995Y-78843077D02*
X104358763Y-78843077D01*
X104358763Y-78843077D02*
X108365686Y-82850000D01*
X148780000Y-45490000D02*
X148890000Y-45380000D01*
X130581471Y-82850000D02*
X131591471Y-83860000D01*
X148890000Y-45380000D02*
X163298054Y-45380000D01*
X163298054Y-45380000D02*
X166702494Y-41975560D01*
X131591471Y-83860000D02*
X134050000Y-83860000D01*
X101397995Y-76712005D02*
X108600000Y-69510000D01*
X135920000Y-81990000D02*
X135920000Y-81210000D01*
X134050000Y-83860000D02*
X135920000Y-81990000D01*
%TO.N,SPI3_MOSI *%
X150460000Y-46251751D02*
X150608249Y-46251751D01*
X196550000Y-84992644D02*
X196550000Y-81015686D01*
X198770000Y-44300000D02*
X196020000Y-44300000D01*
X107840000Y-89800000D02*
X136905785Y-89800000D01*
X192512645Y-89030000D02*
X196550000Y-84992644D01*
X107070000Y-87020000D02*
X107070000Y-89030000D01*
X196550000Y-81015686D02*
X197365686Y-80200000D01*
X107070000Y-89030000D02*
X107840000Y-89800000D01*
X137035786Y-89930001D02*
X192661371Y-89930001D01*
X192512645Y-89781275D02*
X192512645Y-89030000D01*
X197600000Y-80200000D02*
X221365686Y-80200000D01*
X221365686Y-80200000D02*
X222400000Y-79165686D01*
X192661371Y-89930001D02*
X192512645Y-89781275D01*
X197365686Y-80200000D02*
X197600000Y-80200000D01*
X150608249Y-46251751D02*
X150780000Y-46080000D01*
X136905785Y-89800000D02*
X137035786Y-89930001D01*
X196020000Y-44300000D02*
X195950000Y-44370000D01*
X170777537Y-46080000D02*
X171557537Y-45300000D01*
X222400000Y-79165686D02*
X222400000Y-77400000D01*
X171557537Y-45300000D02*
X181158054Y-45300000D01*
X181158054Y-45300000D02*
X184482494Y-41975560D01*
X150780000Y-46080000D02*
X170777537Y-46080000D01*
%TO.N,SPI3_SCK*%
X110678529Y-65130000D02*
X107528529Y-68280000D01*
X192346959Y-88630000D02*
X196150000Y-84826959D01*
X148380000Y-58880000D02*
X142130000Y-65130000D01*
X109610000Y-88150000D02*
X110860000Y-89400000D01*
X105090000Y-68280000D02*
X104610000Y-68760000D01*
X197600000Y-79400000D02*
X221600000Y-79400000D01*
X109610000Y-87020000D02*
X109610000Y-88150000D01*
X107528529Y-68280000D02*
X105090000Y-68280000D01*
X174355686Y-88630000D02*
X192346959Y-88630000D01*
X196150000Y-80850000D02*
X197600000Y-79400000D01*
X221600000Y-75160000D02*
X220110000Y-73670000D01*
X142130000Y-65130000D02*
X110678529Y-65130000D01*
X137071470Y-89400000D02*
X137201471Y-89530000D01*
X221600000Y-79400000D02*
X221600000Y-75160000D01*
X137201471Y-89530000D02*
X173455686Y-89530000D01*
X196150000Y-84826959D02*
X196150000Y-80850000D01*
X173455686Y-89530000D02*
X174355686Y-88630000D01*
X151250000Y-58880000D02*
X148380000Y-58880000D01*
X110860000Y-89400000D02*
X137071470Y-89400000D01*
%TO.N,SPI_CS_EXT*%
X193542566Y-86020178D02*
X193729822Y-86020178D01*
X195340000Y-84410000D02*
X195340000Y-49904314D01*
X193729822Y-86020178D02*
X195340000Y-84410000D01*
X195340000Y-49904314D02*
X192829265Y-47393579D01*
X192829265Y-47393579D02*
X192829265Y-46210738D01*
%TO.N,UART_TX*%
X179902494Y-44240000D02*
X176586934Y-44240000D01*
X176586934Y-44240000D02*
X174322494Y-41975560D01*
%TO.N,UART_RX*%
X158178529Y-85700000D02*
X155948529Y-87930000D01*
X191075000Y-46205000D02*
X194940000Y-50070000D01*
X113380000Y-87880000D02*
X113380000Y-85710000D01*
X113380000Y-85710000D02*
X112150000Y-84480000D01*
X194940000Y-82925686D02*
X192165685Y-85700000D01*
X113700000Y-88200000D02*
X113380000Y-87880000D01*
X137471471Y-88200000D02*
X113700000Y-88200000D01*
X137741471Y-87930000D02*
X137471471Y-88200000D01*
X192165685Y-85700000D02*
X158178529Y-85700000D01*
X155948529Y-87930000D02*
X137741471Y-87930000D01*
X194940000Y-50070000D02*
X194940000Y-82925686D01*
%TO.N,I2S_DIN*%
X194300000Y-36140000D02*
X147358428Y-36140000D01*
X195400000Y-36680000D02*
X194840000Y-36680000D01*
X77380000Y-33490000D02*
X72600000Y-38270000D01*
X143000000Y-35480000D02*
X141010000Y-33490000D01*
X72600000Y-38270000D02*
X72600000Y-55230000D01*
X141010000Y-33490000D02*
X77380000Y-33490000D01*
X194840000Y-36680000D02*
X194300000Y-36140000D01*
X147358428Y-36140000D02*
X146698428Y-35480000D01*
X146698428Y-35480000D02*
X143000000Y-35480000D01*
%TO.N,I2S_LRCLK*%
X203652494Y-43125560D02*
X204802494Y-41975560D01*
X75750000Y-39350000D02*
X80810000Y-34290000D01*
X161386148Y-40825560D02*
X200228054Y-40825560D01*
X140590000Y-34290000D02*
X143387843Y-37087843D01*
X201112494Y-42451906D02*
X201786148Y-43125560D01*
X80810000Y-34290000D02*
X140590000Y-34290000D01*
X201112494Y-41710000D02*
X201112494Y-42451906D01*
X75750000Y-53470000D02*
X75750000Y-39350000D01*
X201786148Y-43125560D02*
X203652494Y-43125560D01*
X200228054Y-40825560D02*
X201112494Y-41710000D01*
X157648431Y-37087843D02*
X161386148Y-40825560D01*
X143387843Y-37087843D02*
X157648431Y-37087843D01*
%TO.N,I2S_BCLK*%
X79080000Y-33890000D02*
X140755686Y-33890000D01*
X173830000Y-36540000D02*
X174322494Y-37032494D01*
X73920000Y-39050000D02*
X79080000Y-33890000D01*
X73920000Y-53580000D02*
X73920000Y-39050000D01*
X140755686Y-33890000D02*
X143405686Y-36540000D01*
X174322494Y-37032494D02*
X174322494Y-39435560D01*
X143405686Y-36540000D02*
X173830000Y-36540000D01*
%TO.N,OPI_USB_DM*%
D28*
X193760000Y-62850000D02*
X187340000Y-69270000D01*
X185870000Y-69270000D02*
X184540000Y-70600000D01*
X183850000Y-56480000D02*
X187549088Y-56480000D01*
X187340000Y-69270000D02*
X185870000Y-69270000D01*
X187549088Y-56480000D02*
X188289339Y-57220251D01*
X191250912Y-57220251D02*
X193760000Y-59729339D01*
X193760000Y-59729339D02*
X193760000Y-62850000D01*
X183750000Y-56380000D02*
X183850000Y-56480000D01*
X188289339Y-57220251D02*
X191250912Y-57220251D01*
%TO.N,/USB/CFG_SEL1*%
D27*
X179810000Y-60125909D02*
X179214339Y-59530248D01*
X182295329Y-63944071D02*
X182295329Y-66323909D01*
X182440000Y-66179238D02*
X181679238Y-66940000D01*
X181679238Y-66940000D02*
X181140762Y-66940000D01*
X182445833Y-64120000D02*
X182440000Y-64125833D01*
X182295329Y-66323909D02*
X181679238Y-66940000D01*
X182440000Y-64125833D02*
X182440000Y-66179238D01*
X179214339Y-59530248D02*
X178672049Y-59530248D01*
X179810000Y-65609238D02*
X179810000Y-60125909D01*
X181140762Y-66940000D02*
X179810000Y-65609238D01*
%TO.N,EPAPER_CS*%
X165125913Y-49570000D02*
X165125913Y-50579061D01*
X154284974Y-61420000D02*
X151250000Y-61420000D01*
X165125913Y-50579061D02*
X154284974Y-61420000D01*
%TO.N,EPAPER_DC*%
X166095000Y-49590000D02*
X166095000Y-50175660D01*
X166095000Y-50175660D02*
X152310660Y-63960000D01*
X152310660Y-63960000D02*
X151250000Y-63960000D01*
%TO.N,EPAPER_RST*%
X194418054Y-44740000D02*
X197182494Y-41975560D01*
X166440000Y-52510000D02*
X166440000Y-59220000D01*
X150773654Y-70190000D02*
X150100000Y-69516346D01*
X171454314Y-46251751D02*
X171976065Y-45730000D01*
X188515786Y-44740000D02*
X194418054Y-44740000D01*
X150100000Y-67650000D02*
X151250000Y-66500000D01*
X169693801Y-49545000D02*
X169405000Y-49545000D01*
X155470000Y-70190000D02*
X150773654Y-70190000D01*
X171976065Y-45730000D02*
X187525786Y-45730000D01*
X187525786Y-45730000D02*
X188515786Y-44740000D01*
X150100000Y-69516346D02*
X150100000Y-67650000D01*
X166440000Y-59220000D02*
X155470000Y-70190000D01*
X169405000Y-49545000D02*
X166440000Y-52510000D01*
%TO.N,EPAPER_BUSY*%
X152400000Y-64436346D02*
X152400000Y-66976346D01*
X152400000Y-66976346D02*
X151250000Y-68126346D01*
X151250000Y-68126346D02*
X151250000Y-69040000D01*
X167070000Y-49610000D02*
X167070000Y-49766346D01*
X167070000Y-49766346D02*
X152400000Y-64436346D01*
%TO.N,FAN1_PWM*%
X60792500Y-69584744D02*
X60792500Y-54915256D01*
X60850000Y-79930000D02*
X60850000Y-69642244D01*
X146698428Y-31480000D02*
X150958428Y-35740000D01*
X201112494Y-40825560D02*
X202262494Y-41975560D01*
X60950000Y-32960000D02*
X62440000Y-31470000D01*
X69730000Y-80130000D02*
X61050000Y-80130000D01*
X150958428Y-35740000D02*
X197893280Y-35740000D01*
X60950000Y-54757756D02*
X60950000Y-32960000D01*
X62440000Y-31470000D02*
X62960000Y-31470000D01*
X62960000Y-31470000D02*
X62970000Y-31480000D01*
X197893280Y-35740000D02*
X201112494Y-38959214D01*
X61050000Y-80130000D02*
X60850000Y-79930000D01*
X201112494Y-38959214D02*
X201112494Y-40825560D01*
X60792500Y-54915256D02*
X60950000Y-54757756D01*
X60850000Y-69642244D02*
X60792500Y-69584744D01*
X62970000Y-31480000D02*
X146698428Y-31480000D01*
%TO.N,Net-(U2-LED_B3_N{slash}GANG_EN)*%
X176050000Y-61410000D02*
X175350000Y-61410000D01*
X177180000Y-60280000D02*
X176050000Y-61410000D01*
X177410000Y-60280000D02*
X177180000Y-60280000D01*
%TO.N,Net-(U1-BOOT)*%
X138420000Y-66780000D02*
X137180000Y-68020000D01*
X137180000Y-68020000D02*
X137180000Y-70670000D01*
%TO.N,Net-(U1-SW)*%
X135990000Y-66130000D02*
X135990000Y-74040000D01*
X135990000Y-74040000D02*
X135960000Y-74070000D01*
%TO.N,DIO1*%
X207860000Y-36410000D02*
X230754315Y-36410000D01*
X237890000Y-68590000D02*
X240710000Y-65770000D01*
X240710000Y-65770000D02*
X240710000Y-35073654D01*
X230754315Y-36410000D02*
X233164315Y-34000000D01*
X199895905Y-36634095D02*
X200280000Y-36250000D01*
X239636346Y-34000000D02*
X240710000Y-35073654D01*
X207700000Y-36250000D02*
X207860000Y-36410000D01*
X200280000Y-36250000D02*
X207700000Y-36250000D01*
X233164315Y-34000000D02*
X239636346Y-34000000D01*
X199895905Y-36894095D02*
X199895905Y-36634095D01*
%TO.N,/USB/USB2DM*%
X183733886Y-53126114D02*
X184140000Y-52720000D01*
X184140000Y-52720000D02*
X184140000Y-52300453D01*
X184410000Y-52030453D02*
X184410000Y-49977157D01*
X227030000Y-45540000D02*
X237020000Y-35550000D01*
X188847157Y-45540000D02*
X227030000Y-45540000D01*
X183403887Y-53126114D02*
X183733886Y-53126114D01*
X184140000Y-52300453D02*
X184410000Y-52030453D01*
X184410000Y-49977157D02*
X188847157Y-45540000D01*
%TO.N,/USB/USB2DP*%
X188681472Y-45140000D02*
X203264400Y-45140000D01*
X184520000Y-48560000D02*
X185261471Y-48560000D01*
X181509999Y-54400001D02*
X182803887Y-53106113D01*
X181161381Y-54570000D02*
X181331380Y-54400001D01*
X238410000Y-34400000D02*
X239560000Y-35550000D01*
X233330000Y-38674314D02*
X233330000Y-34400000D01*
X233330000Y-34400000D02*
X238410000Y-34400000D01*
X226904314Y-45100000D02*
X233330000Y-38674314D01*
X182860000Y-50220000D02*
X184520000Y-48560000D01*
X178918527Y-54570000D02*
X181161381Y-54570000D01*
X182803887Y-52877585D02*
X182860000Y-52821472D01*
X203264400Y-45140000D02*
X203304400Y-45100000D01*
X182803887Y-53106113D02*
X182803887Y-52877585D01*
X203304400Y-45100000D02*
X226904314Y-45100000D01*
X185261471Y-48560000D02*
X188681472Y-45140000D01*
X178488527Y-55000000D02*
X178918527Y-54570000D01*
X181331380Y-54400001D02*
X181509999Y-54400001D01*
X182860000Y-52821472D02*
X182860000Y-50220000D01*
%TO.N,/USB/USB3DM*%
X182010003Y-50039997D02*
X182010003Y-48030003D01*
X100425000Y-43125000D02*
X100425000Y-43338033D01*
X181660000Y-50887057D02*
X181660000Y-50389999D01*
X100875000Y-42675000D02*
X100425000Y-43125000D01*
X181850000Y-53175784D02*
X181850000Y-51077057D01*
X181450733Y-53575054D02*
X181450733Y-53575051D01*
X181450733Y-53575051D02*
X181850000Y-53175784D01*
X171755805Y-46851751D02*
X133481751Y-46851751D01*
X181660000Y-50389999D02*
X182010003Y-50039997D01*
X174935686Y-46490000D02*
X174795686Y-46350000D01*
X181850000Y-51077057D02*
X181660000Y-50887057D01*
X182010003Y-48030003D02*
X180470000Y-46490000D01*
X132955000Y-43022537D02*
X132607463Y-42675000D01*
X132607463Y-42675000D02*
X100875000Y-42675000D01*
X174795686Y-46350000D02*
X172257557Y-46350000D01*
X132955000Y-46325000D02*
X132955000Y-43022537D01*
X180470000Y-46490000D02*
X174935686Y-46490000D01*
X133481751Y-46851751D02*
X132955000Y-46325000D01*
X172257557Y-46350000D02*
X171755805Y-46851751D01*
%TO.N,/USB/USB3DP*%
X176770000Y-52240001D02*
X173450000Y-48920000D01*
X177611841Y-55000000D02*
X177508231Y-55103610D01*
X102350000Y-48060000D02*
X102350000Y-43460000D01*
X176889296Y-55103610D02*
X176770000Y-54984314D01*
X103210000Y-48920000D02*
X102350000Y-48060000D01*
X176770000Y-54984314D02*
X176770000Y-52240001D01*
X173450000Y-48920000D02*
X103210000Y-48920000D01*
X177508231Y-55103610D02*
X176889296Y-55103610D01*
%TO.N,/USB/USB4DP*%
X176960000Y-47280000D02*
X177040000Y-47360000D01*
X117420000Y-47640000D02*
X118080000Y-48300000D01*
X180370000Y-49008529D02*
X180370000Y-53270000D01*
X180293113Y-53346887D02*
X180250733Y-53346887D01*
X117420000Y-43420000D02*
X117420000Y-47640000D01*
X118080000Y-48300000D02*
X172740000Y-48300000D01*
X177040000Y-47360000D02*
X178721471Y-47360000D01*
X178721471Y-47360000D02*
X180370000Y-49008529D01*
X172740000Y-48300000D02*
X172760000Y-48320000D01*
X180370000Y-53270000D02*
X180293113Y-53346887D01*
%TO.N,/USB/USB5DM*%
X179519361Y-50391479D02*
X179519361Y-52310639D01*
X179519361Y-52310639D02*
X179440000Y-52390000D01*
X179026411Y-49898529D02*
X179519361Y-50391479D01*
X130841751Y-47651751D02*
X172242537Y-47651751D01*
X179026411Y-48706411D02*
X179026411Y-49898529D01*
X176448859Y-48190000D02*
X178510000Y-48190000D01*
X178510000Y-48190000D02*
X179026411Y-48706411D01*
X130450000Y-43390000D02*
X130450000Y-47260000D01*
X179451464Y-53032296D02*
X179451464Y-53312641D01*
X172242537Y-47651751D02*
X172374199Y-47520089D01*
X179440000Y-53020832D02*
X179451464Y-53032296D01*
X130450000Y-47260000D02*
X130841751Y-47651751D01*
X175540000Y-47281141D02*
X176448859Y-48190000D01*
X179440000Y-52390000D02*
X179440000Y-53020832D01*
X172374199Y-47520089D02*
X172747880Y-47520089D01*
%TO.N,/USB/USB5DP*%
X178626411Y-50064215D02*
X178870000Y-50307804D01*
X174080000Y-46750000D02*
X175920000Y-48590000D01*
X172423242Y-46750000D02*
X174080000Y-46750000D01*
X133161751Y-47251751D02*
X171921490Y-47251751D01*
X175920000Y-48590000D02*
X178150000Y-48590000D01*
X132355000Y-43390000D02*
X132430000Y-43465000D01*
X178150000Y-48590000D02*
X178626411Y-49066411D01*
X171921490Y-47251751D02*
X172423242Y-46750000D01*
X132430000Y-46520000D02*
X133161751Y-47251751D01*
X132430000Y-43465000D02*
X132430000Y-46520000D01*
X178870000Y-50307804D02*
X178870000Y-53030000D01*
X178626411Y-49066411D02*
X178626411Y-50064215D01*
X178870000Y-53030000D02*
X178654265Y-53245735D01*
%TO.N,/USB/PRTPWR1*%
X164858603Y-66451397D02*
X164858603Y-63631397D01*
X164858603Y-63631397D02*
X167680000Y-60810000D01*
X177161471Y-59680000D02*
X177522230Y-59680000D01*
X177522230Y-59680000D02*
X177682230Y-59520000D01*
X167680000Y-60810000D02*
X176031471Y-60810000D01*
X176031471Y-60810000D02*
X177161471Y-59680000D01*
%TO.N,/USB/CFG_SEL0*%
X179396045Y-61196045D02*
X179410000Y-61210000D01*
X179094127Y-60258565D02*
X179396045Y-60560483D01*
X179410000Y-65200000D02*
X178870000Y-65740000D01*
X179396045Y-60560483D02*
X179396045Y-61196045D01*
X179410000Y-61210000D02*
X179410000Y-65200000D01*
%TO.N,Net-(U2-LED_B2_N{slash}BOOST1)*%
X186455393Y-61650000D02*
X186425393Y-61620000D01*
X186425393Y-61620000D02*
X185140000Y-61620000D01*
X189575000Y-61650000D02*
X186455393Y-61650000D01*
X190100000Y-61125000D02*
X189575000Y-61650000D01*
%TO.N,/USB/PRT_SWP2*%
X184891471Y-62220000D02*
X184891471Y-62701471D01*
X186640000Y-64450000D02*
X186836029Y-64450000D01*
X187187500Y-64801471D02*
X187187500Y-67075000D01*
X184540000Y-61860000D02*
X184540000Y-61868529D01*
X184380000Y-61193796D02*
X184380000Y-61700000D01*
X185610000Y-60940000D02*
X185490000Y-60820000D01*
X186836029Y-64450000D02*
X187187500Y-64801471D01*
X185490000Y-60820000D02*
X184753796Y-60820000D01*
X184891471Y-62701471D02*
X186640000Y-64450000D01*
X184380000Y-61700000D02*
X184540000Y-61860000D01*
X184753796Y-60820000D02*
X184380000Y-61193796D01*
X184540000Y-61868529D02*
X184891471Y-62220000D01*
%TO.N,Net-(U2-LED_B1_N{slash}BOOST0)*%
X179668529Y-57864184D02*
X179682713Y-57850000D01*
X184104314Y-57430000D02*
X184729826Y-58055512D01*
X182378529Y-57430000D02*
X184104314Y-57430000D01*
X181441471Y-57870000D02*
X181938529Y-57870000D01*
X191520000Y-59520000D02*
X192560000Y-60560000D01*
X178529975Y-58129975D02*
X178569949Y-58090000D01*
X178569949Y-58090000D02*
X178569949Y-58080051D01*
X190621471Y-59620000D02*
X190721471Y-59520000D01*
X181421471Y-57850000D02*
X181441471Y-57870000D01*
X178569949Y-58080051D02*
X178785816Y-57864184D01*
X181938529Y-57870000D02*
X182378529Y-57430000D01*
X184729826Y-58055512D02*
X184729826Y-59689826D01*
X190721471Y-59520000D02*
X191520000Y-59520000D01*
X179682713Y-57850000D02*
X181421471Y-57850000D01*
X184729826Y-59689826D02*
X184860000Y-59820000D01*
X192560000Y-60560000D02*
X192560000Y-62900000D01*
X189801471Y-59620000D02*
X190621471Y-59620000D01*
X189601471Y-59820000D02*
X189801471Y-59620000D01*
X178785816Y-57864184D02*
X179668529Y-57864184D01*
X184860000Y-59820000D02*
X189601471Y-59820000D01*
%TO.N,/USB/USB6DM*%
X197688628Y-80800000D02*
X196950000Y-81538628D01*
X87380000Y-87676346D02*
X87380000Y-86723654D01*
X192827056Y-90330001D02*
X90033654Y-90330000D01*
X196950000Y-81538628D02*
X196950000Y-86207057D01*
X196950000Y-86207057D02*
X192827056Y-90330001D01*
X86466346Y-86723654D02*
X85990000Y-87200000D01*
X87380000Y-86723654D02*
X86466346Y-86723654D01*
X90033654Y-90330000D02*
X87380000Y-87676346D01*
%TO.N,/USB/USB6DP*%
X171728529Y-59180000D02*
X171723529Y-59175000D01*
X150607968Y-70590000D02*
X145547968Y-65530000D01*
X173419239Y-58920000D02*
X173159239Y-59180000D01*
X155635686Y-70590000D02*
X150607968Y-70590000D01*
X81650000Y-69480000D02*
X69060000Y-82070000D01*
X69510000Y-89930000D02*
X77456000Y-89930000D01*
X178080000Y-58800000D02*
X177960000Y-58920000D01*
X145547968Y-65530000D02*
X111478529Y-65530000D01*
X177960000Y-58920000D02*
X173419239Y-58920000D01*
X167050686Y-59175000D02*
X155635686Y-70590000D01*
X173159239Y-59180000D02*
X171728529Y-59180000D01*
X82276000Y-85110000D02*
X87460000Y-85110000D01*
X87460000Y-85110000D02*
X88530000Y-86180000D01*
X69060000Y-82070000D02*
X69060000Y-89480000D01*
X69060000Y-89480000D02*
X69510000Y-89930000D01*
X88530000Y-86180000D02*
X88530000Y-87200000D01*
X111478529Y-65530000D02*
X107528529Y-69480000D01*
X77456000Y-89930000D02*
X82276000Y-85110000D01*
X171723529Y-59175000D02*
X167050686Y-59175000D01*
X107528529Y-69480000D02*
X81650000Y-69480000D01*
%TO.N,/USB/USB7DM*%
X193661273Y-86750000D02*
X193013899Y-86750000D01*
X180716346Y-86330000D02*
X176090000Y-86330000D01*
X193003899Y-86740000D02*
X181126346Y-86740000D01*
X195750000Y-84565685D02*
X194142566Y-86173119D01*
X193013899Y-86750000D02*
X193003899Y-86740000D01*
X176090000Y-86330000D02*
X173290000Y-89130000D01*
X137237156Y-89000000D02*
X112503654Y-89000000D01*
X81880000Y-84490000D02*
X76840000Y-89530000D01*
X70210000Y-89180000D02*
X70210000Y-87250000D01*
X195750000Y-57720000D02*
X195750000Y-84565685D01*
X194142566Y-86173119D02*
X194142566Y-86268707D01*
X110760000Y-87256346D02*
X110760000Y-86543654D01*
X112503654Y-89000000D02*
X110760000Y-87256346D01*
X196300000Y-57170000D02*
X195750000Y-57720000D01*
X70560000Y-89530000D02*
X70210000Y-89180000D01*
X137367156Y-89130000D02*
X137237156Y-89000000D01*
X194142566Y-86268707D02*
X193661273Y-86750000D01*
X76840000Y-89530000D02*
X70560000Y-89530000D01*
X98973654Y-85630000D02*
X97833654Y-84490000D01*
X173290000Y-89130000D02*
X137367156Y-89130000D01*
X110760000Y-86543654D02*
X109846346Y-85630000D01*
X181126346Y-86740000D02*
X180716346Y-86330000D01*
X109846346Y-85630000D02*
X98973654Y-85630000D01*
X97833654Y-84490000D02*
X81880000Y-84490000D01*
%TO.N,/USB/USB7DP*%
X157588529Y-85090000D02*
X157798529Y-85300000D01*
X182915496Y-56210000D02*
X178418442Y-56210000D01*
X130495785Y-83330000D02*
X132465785Y-85300000D01*
X184538586Y-55710000D02*
X183415496Y-55710000D01*
X184629296Y-55619290D02*
X184538586Y-55710000D01*
X156881471Y-85300000D02*
X157091471Y-85090000D01*
X76670000Y-83330000D02*
X130495785Y-83330000D01*
X192000000Y-85300000D02*
X194540000Y-82760000D01*
X72750000Y-87250000D02*
X76670000Y-83330000D01*
X157798529Y-85300000D02*
X192000000Y-85300000D01*
X193922290Y-55619290D02*
X184629296Y-55619290D01*
X194540000Y-82760000D02*
X194540000Y-56237000D01*
X183415496Y-55710000D02*
X182915496Y-56210000D01*
X132465785Y-85300000D02*
X156881471Y-85300000D01*
X157091471Y-85090000D02*
X157588529Y-85090000D01*
X178418442Y-56210000D02*
X177964258Y-56664184D01*
X194540000Y-56237000D02*
X193922290Y-55619290D01*
%TD*%
M02*
