%TF.GenerationSoftware,KiCad,Pcbnew,10.0.6*%
%TF.CreationDate,2026-10-11T11:05:19+05:30*%
%TF.ProjectId,carrier-orange pi zero 3w,63617272-6965-4722-9d6f-72616e676520,rev?*%
%TF.SameCoordinates,Original*%
%TF.FileFunction,Copper,L1,Top*%
%TF.FilePolarity,Positive*%
%FSLAX46Y46*%
G04 Gerber Fmt 4.6, Leading zero omitted, Abs format (unit mm)*
G04 Created by KiCad (PCBNEW 10.0.6) date 2026-10-11 11:05:19*
%MOMM*%
%LPD*%
G01*
G04 APERTURE LIST*
G04 Aperture macros list*
%AMRoundRect*
0 Rectangle with rounded corners*
0 $1 Rounding radius*
0 $2 $3 $4 $5 $6 $7 $8 $9 X,Y pos of 4 corners*
0 Add a 4 corners polygon primitive as box body*
4,1,4,$2,$3,$4,$5,$6,$7,$8,$9,$2,$3,0*
0 Add four circle primitives for the rounded corners*
1,1,$1+$1,$2,$3*
1,1,$1+$1,$4,$5*
1,1,$1+$1,$6,$7*
1,1,$1+$1,$8,$9*
0 Add four rect primitives between the rounded corners*
20,1,$1+$1,$2,$3,$4,$5,0*
20,1,$1+$1,$4,$5,$6,$7,0*
20,1,$1+$1,$6,$7,$8,$9,0*
20,1,$1+$1,$8,$9,$2,$3,0*%
G04 Aperture macros list end*
%TA.AperFunction,SMDPad,CuDef*%
%ADD10RoundRect,0.300000X0.300000X-0.700000X0.300000X0.700000X-0.300000X0.700000X-0.300000X-0.700000X0*%
%TD*%
%TA.AperFunction,ComponentPad*%
%ADD11O,1.300000X3.200000*%
%TD*%
%TA.AperFunction,SMDPad,CuDef*%
%ADD12RoundRect,0.250000X-0.250000X-0.475000X0.250000X-0.475000X0.250000X0.475000X-0.250000X0.475000X0*%
%TD*%
%TA.AperFunction,SMDPad,CuDef*%
%ADD13RoundRect,0.250000X-0.450000X0.262500X-0.450000X-0.262500X0.450000X-0.262500X0.450000X0.262500X0*%
%TD*%
%TA.AperFunction,SMDPad,CuDef*%
%ADD14RoundRect,0.250000X0.312500X1.450000X-0.312500X1.450000X-0.312500X-1.450000X0.312500X-1.450000X0*%
%TD*%
%TA.AperFunction,SMDPad,CuDef*%
%ADD15RoundRect,0.250000X0.262500X0.450000X-0.262500X0.450000X-0.262500X-0.450000X0.262500X-0.450000X0*%
%TD*%
%TA.AperFunction,SMDPad,CuDef*%
%ADD16RoundRect,0.250000X-0.712500X-2.475000X0.712500X-2.475000X0.712500X2.475000X-0.712500X2.475000X0*%
%TD*%
%TA.AperFunction,SMDPad,CuDef*%
%ADD17RoundRect,0.150000X-0.587500X-0.150000X0.587500X-0.150000X0.587500X0.150000X-0.587500X0.150000X0*%
%TD*%
%TA.AperFunction,SMDPad,CuDef*%
%ADD18RoundRect,0.250000X-0.262500X-0.450000X0.262500X-0.450000X0.262500X0.450000X-0.262500X0.450000X0*%
%TD*%
%TA.AperFunction,ComponentPad*%
%ADD19RoundRect,0.250000X-0.550000X-0.550000X0.550000X-0.550000X0.550000X0.550000X-0.550000X0.550000X0*%
%TD*%
%TA.AperFunction,ComponentPad*%
%ADD20C,1.600000*%
%TD*%
%TA.AperFunction,ComponentPad*%
%ADD21R,1.700000X1.700000*%
%TD*%
%TA.AperFunction,ComponentPad*%
%ADD22C,1.700000*%
%TD*%
%TA.AperFunction,SMDPad,CuDef*%
%ADD23RoundRect,0.200000X-0.200000X0.250000X-0.200000X-0.250000X0.200000X-0.250000X0.200000X0.250000X0*%
%TD*%
%TA.AperFunction,WasherPad*%
%ADD24C,3.400000*%
%TD*%
%TA.AperFunction,SMDPad,CuDef*%
%ADD25RoundRect,0.250000X-0.475000X0.250000X-0.475000X-0.250000X0.475000X-0.250000X0.475000X0.250000X0*%
%TD*%
%TA.AperFunction,SMDPad,CuDef*%
%ADD26RoundRect,0.250000X0.250000X0.475000X-0.250000X0.475000X-0.250000X-0.475000X0.250000X-0.475000X0*%
%TD*%
%TA.AperFunction,SMDPad,CuDef*%
%ADD27RoundRect,0.250000X-0.325000X-0.650000X0.325000X-0.650000X0.325000X0.650000X-0.325000X0.650000X0*%
%TD*%
%TA.AperFunction,SMDPad,CuDef*%
%ADD28RoundRect,0.250000X-0.312500X-1.450000X0.312500X-1.450000X0.312500X1.450000X-0.312500X1.450000X0*%
%TD*%
%TA.AperFunction,SMDPad,CuDef*%
%ADD29R,0.610000X2.000000*%
%TD*%
%TA.AperFunction,SMDPad,CuDef*%
%ADD30R,2.680000X3.600000*%
%TD*%
%TA.AperFunction,SMDPad,CuDef*%
%ADD31R,0.850000X0.300000*%
%TD*%
%TA.AperFunction,SMDPad,CuDef*%
%ADD32R,0.300000X0.850000*%
%TD*%
%TA.AperFunction,SMDPad,CuDef*%
%ADD33R,1.250000X1.250000*%
%TD*%
%TA.AperFunction,SMDPad,CuDef*%
%ADD34R,0.400000X0.450000*%
%TD*%
%TA.AperFunction,SMDPad,CuDef*%
%ADD35R,0.500000X0.450000*%
%TD*%
%TA.AperFunction,SMDPad,CuDef*%
%ADD36RoundRect,0.150000X-0.150000X0.875000X-0.150000X-0.875000X0.150000X-0.875000X0.150000X0.875000X0*%
%TD*%
%TA.AperFunction,SMDPad,CuDef*%
%ADD37RoundRect,0.250000X0.450000X-0.262500X0.450000X0.262500X-0.450000X0.262500X-0.450000X-0.262500X0*%
%TD*%
%TA.AperFunction,SMDPad,CuDef*%
%ADD38RoundRect,0.250000X-0.375000X-0.625000X0.375000X-0.625000X0.375000X0.625000X-0.375000X0.625000X0*%
%TD*%
%TA.AperFunction,SMDPad,CuDef*%
%ADD39RoundRect,0.250000X0.475000X-0.250000X0.475000X0.250000X-0.475000X0.250000X-0.475000X-0.250000X0*%
%TD*%
%TA.AperFunction,SMDPad,CuDef*%
%ADD40RoundRect,0.249999X-0.850001X-3.500001X0.850001X-3.500001X0.850001X3.500001X-0.850001X3.500001X0*%
%TD*%
%TA.AperFunction,ComponentPad*%
%ADD41RoundRect,0.250001X-1.099999X-1.099999X1.099999X-1.099999X1.099999X1.099999X-1.099999X1.099999X0*%
%TD*%
%TA.AperFunction,ComponentPad*%
%ADD42C,2.700000*%
%TD*%
%TA.AperFunction,SMDPad,CuDef*%
%ADD43RoundRect,0.062500X-0.062500X0.350000X-0.062500X-0.350000X0.062500X-0.350000X0.062500X0.350000X0*%
%TD*%
%TA.AperFunction,SMDPad,CuDef*%
%ADD44RoundRect,0.062500X-0.350000X0.062500X-0.350000X-0.062500X0.350000X-0.062500X0.350000X0.062500X0*%
%TD*%
%TA.AperFunction,SMDPad,CuDef*%
%ADD45RoundRect,0.150000X0.150000X-0.587500X0.150000X0.587500X-0.150000X0.587500X-0.150000X-0.587500X0*%
%TD*%
%TA.AperFunction,SMDPad,CuDef*%
%ADD46RoundRect,0.150000X-0.512500X-0.150000X0.512500X-0.150000X0.512500X0.150000X-0.512500X0.150000X0*%
%TD*%
%TA.AperFunction,SMDPad,CuDef*%
%ADD47RoundRect,0.250001X0.799999X-1.999999X0.799999X1.999999X-0.799999X1.999999X-0.799999X-1.999999X0*%
%TD*%
%TA.AperFunction,SMDPad,CuDef*%
%ADD48R,2.800000X1.600000*%
%TD*%
%TA.AperFunction,SMDPad,CuDef*%
%ADD49RoundRect,0.250000X1.500000X0.550000X-1.500000X0.550000X-1.500000X-0.550000X1.500000X-0.550000X0*%
%TD*%
%TA.AperFunction,SMDPad,CuDef*%
%ADD50RoundRect,0.250000X-0.650000X0.325000X-0.650000X-0.325000X0.650000X-0.325000X0.650000X0.325000X0*%
%TD*%
%TA.AperFunction,ViaPad*%
%ADD51C,0.500000*%
%TD*%
%TA.AperFunction,ViaPad*%
%ADD52C,0.600000*%
%TD*%
%TA.AperFunction,ViaPad*%
%ADD53C,1.000000*%
%TD*%
%TA.AperFunction,ViaPad*%
%ADD54C,0.800000*%
%TD*%
%TA.AperFunction,ViaPad*%
%ADD55C,0.700000*%
%TD*%
%TA.AperFunction,Conductor*%
%ADD56C,0.800000*%
%TD*%
%TA.AperFunction,Conductor*%
%ADD57C,0.600000*%
%TD*%
%TA.AperFunction,Conductor*%
%ADD58C,0.200000*%
%TD*%
%TA.AperFunction,Conductor*%
%ADD59C,1.000000*%
%TD*%
%TA.AperFunction,Conductor*%
%ADD60C,0.500000*%
%TD*%
%TA.AperFunction,Conductor*%
%ADD61C,0.400000*%
%TD*%
%TA.AperFunction,Conductor*%
%ADD62C,0.700000*%
%TD*%
G04 APERTURE END LIST*
D10*
%TO.P,J7,1,VBUS_1*%
%TO.N,+5V_USB*%
X82800000Y-41400000D03*
%TO.P,J7,2,D-_2*%
%TO.N,/USB/USB1DM*%
X85300000Y-41400000D03*
%TO.P,J7,3,D+_3*%
%TO.N,/USB/USB1DP*%
X87300000Y-41400000D03*
%TO.P,J7,4,GND_4*%
%TO.N,GND*%
X89800000Y-41400000D03*
D11*
%TO.P,J7,SH,Shield_SH*%
X80450000Y-38800000D03*
X92150000Y-38800000D03*
%TD*%
D12*
%TO.P,C3,1*%
%TO.N,+5V_PERIPH*%
X154585000Y-84790000D03*
%TO.P,C3,2*%
%TO.N,GND*%
X156485000Y-84790000D03*
%TD*%
D13*
%TO.P,R5,1*%
%TO.N,GND*%
X185000000Y-49087500D03*
%TO.P,R5,2*%
%TO.N,/USB/RBIAS*%
X185000000Y-50912500D03*
%TD*%
D14*
%TO.P,F4,1*%
%TO.N,+5V_MAIN*%
X145537500Y-87240000D03*
%TO.P,F4,2*%
%TO.N,+5V_AUDIO*%
X141262500Y-87240000D03*
%TD*%
D15*
%TO.P,R24,1*%
%TO.N,+5V_PPROTECTED*%
X169375000Y-70500000D03*
%TO.P,R24,2*%
%TO.N,/USB/Q1-PIN1*%
X167550000Y-70500000D03*
%TD*%
D16*
%TO.P,F2,1*%
%TO.N,+5V_PERIPH*%
X163547379Y-75995000D03*
%TO.P,F2,2*%
%TO.N,+5V_PPROTECTED*%
X170322379Y-75995000D03*
%TD*%
D17*
%TO.P,Q2,1,G_1*%
%TO.N,Net-(Q2-G)*%
X163812500Y-69575000D03*
%TO.P,Q2,2,S_2*%
%TO.N,GND*%
X163812500Y-71475000D03*
%TO.P,Q2,3,D_3*%
%TO.N,/USB/Q1-PIN1*%
X165687500Y-70525000D03*
%TD*%
D12*
%TO.P,C19,1*%
%TO.N,/USB/VDD18PLL*%
X186700000Y-54590000D03*
%TO.P,C19,2*%
%TO.N,GND*%
X188600000Y-54590000D03*
%TD*%
D18*
%TO.P,R10,1*%
%TO.N,+3V3_MAIN*%
X177762500Y-63200000D03*
%TO.P,R10,2*%
%TO.N,/USB/RESET_N*%
X179587500Y-63200000D03*
%TD*%
%TO.P,R16,1*%
%TO.N,/USB/PRT_SWP3*%
X186700000Y-65050000D03*
%TO.P,R16,2*%
%TO.N,GND*%
X188525000Y-65050000D03*
%TD*%
D19*
%TO.P,C4,1*%
%TO.N,+5V_OPI*%
X165890000Y-83870000D03*
D20*
%TO.P,C4,2*%
%TO.N,GND*%
X168390000Y-83870000D03*
%TD*%
D12*
%TO.P,C15,1*%
%TO.N,+3V3_MAIN*%
X183250000Y-63100000D03*
%TO.P,C15,2*%
%TO.N,GND*%
X185150000Y-63100000D03*
%TD*%
D21*
%TO.P,J6,1,Pin_1_1*%
%TO.N,+5V_PERIPH*%
X177700000Y-87480000D03*
D22*
%TO.P,J6,2,Pin_2_2*%
%TO.N,GND*%
X180240000Y-87480000D03*
%TD*%
D12*
%TO.P,C16,1*%
%TO.N,+3V3_MAIN*%
X186637500Y-59175000D03*
%TO.P,C16,2*%
%TO.N,GND*%
X188537500Y-59175000D03*
%TD*%
D23*
%TO.P,Y1,1,1_1*%
%TO.N,/USB/XTAL1{slash}CLKIN*%
X194475000Y-50975000D03*
%TO.P,Y1,2,2_2*%
%TO.N,/USB/XTAL2*%
X194475000Y-52375000D03*
%TO.P,Y1,3*%
%TO.N,N/C*%
X195575000Y-52375000D03*
%TO.P,Y1,4*%
X195575000Y-50975000D03*
%TD*%
D24*
%TO.P,,*%
%TO.N,*%
X156905200Y-40885889D03*
%TD*%
D25*
%TO.P,C33,1*%
%TO.N,+5V_AUDIO*%
X233440000Y-57990000D03*
%TO.P,C33,2*%
%TO.N,GND*%
X233440000Y-59890000D03*
%TD*%
D26*
%TO.P,C25,1*%
%TO.N,GND*%
X190630000Y-52620000D03*
%TO.P,C25,2*%
%TO.N,/USB/XTAL2*%
X188730000Y-52620000D03*
%TD*%
D18*
%TO.P,R14,1*%
%TO.N,/USB/PRT_SWP1*%
X190050000Y-59150000D03*
%TO.P,R14,2*%
%TO.N,GND*%
X191875000Y-59150000D03*
%TD*%
D24*
%TO.P,,*%
%TO.N,*%
X156955200Y-63885889D03*
%TD*%
D27*
%TO.P,C11,1*%
%TO.N,+3V3_MAIN*%
X141525000Y-62250000D03*
%TO.P,C11,2*%
%TO.N,GND*%
X144475000Y-62250000D03*
%TD*%
D28*
%TO.P,F1,1*%
%TO.N,+5V_MAIN*%
X158402500Y-83980000D03*
%TO.P,F1,2*%
%TO.N,+5V_OPI*%
X162677500Y-83980000D03*
%TD*%
D15*
%TO.P,R27,1*%
%TO.N,GND*%
X188487500Y-61150000D03*
%TO.P,R27,2*%
%TO.N,Net-(U2-SUSP_IND{slash}LOCAL_PWR{slash}NON_REM0)*%
X186662500Y-61150000D03*
%TD*%
D18*
%TO.P,R34,1*%
%TO.N,+3V3_MAIN*%
X229287500Y-55600000D03*
%TO.P,R34,2*%
%TO.N,Net-(U5-~{SD_MODE})*%
X231112500Y-55600000D03*
%TD*%
D24*
%TO.P,,*%
%TO.N,*%
X214905200Y-63835889D03*
%TD*%
D18*
%TO.P,R3,1*%
%TO.N,/power/FB*%
X139337500Y-70000000D03*
%TO.P,R3,2*%
%TO.N,GND*%
X141162500Y-70000000D03*
%TD*%
D29*
%TO.P,J5,1,Pin_1_1*%
%TO.N,+5V_PERIPH*%
X76750000Y-68500000D03*
%TO.P,J5,2,Pin_2_2*%
%TO.N,GND*%
X77750000Y-68500000D03*
%TO.P,J5,3,Pin_3_3*%
%TO.N,+3V3_MAIN*%
X78750000Y-68500000D03*
%TO.P,J5,4,Pin_4_4*%
%TO.N,GND*%
X79750000Y-68500000D03*
%TO.P,J5,5,Pin_5_5*%
%TO.N,SDA*%
X80750000Y-68500000D03*
%TO.P,J5,6,Pin_6_6*%
%TO.N,SCL*%
X81750000Y-68500000D03*
%TO.P,J5,7,Pin_7_7*%
%TO.N,SPI3_MOSI *%
X82750000Y-68500000D03*
%TO.P,J5,8,Pin_8_8*%
%TO.N,SPI3_MISO*%
X83750000Y-68500000D03*
%TO.P,J5,9,Pin_9_9*%
%TO.N,SPI3_SCK*%
X84750000Y-68500000D03*
%TO.P,J5,10,Pin_10_10*%
%TO.N,SPI_CS_EXT*%
X85750000Y-68500000D03*
%TO.P,J5,11,Pin_11_11*%
%TO.N,UART_TX*%
X86750000Y-68500000D03*
%TO.P,J5,12,Pin_12_12*%
%TO.N,UART_RX*%
X87750000Y-68500000D03*
%TO.P,J5,13,Pin_13_13*%
%TO.N,GPIO_EXT1*%
X88750000Y-68500000D03*
%TO.P,J5,14,Pin_14_14*%
%TO.N,GPIO_EXT2*%
X89750000Y-68500000D03*
%TO.P,J5,15,Pin_15_15*%
%TO.N,GPIO_EXT3*%
X90750000Y-68500000D03*
%TO.P,J5,16,Pin_16_16*%
%TO.N,GPIO_EXT4*%
X91750000Y-68500000D03*
%TO.P,J5,17,Pin_17_17*%
%TO.N,GPIO_EXT5 {slash} INT*%
X92750000Y-68500000D03*
%TO.P,J5,18,Pin_18_18*%
%TO.N,GPIO_EXT6 {slash} INT*%
X93750000Y-68500000D03*
%TO.P,J5,19,Pin_19_19*%
%TO.N,GND*%
X94750000Y-68500000D03*
%TO.P,J5,20,Pin_20_20*%
X95750000Y-68500000D03*
D30*
%TO.P,J5,MP*%
%TO.N,N/C*%
X73760000Y-71300000D03*
X98740000Y-71300000D03*
%TD*%
D15*
%TO.P,R17,1*%
%TO.N,/USB/PRT_SWP4*%
X176225000Y-65150000D03*
%TO.P,R17,2*%
%TO.N,GND*%
X174400000Y-65150000D03*
%TD*%
D31*
%TO.P,U4,1,DIN_1*%
%TO.N,I2S_DIN*%
X73565000Y-55260000D03*
%TO.P,U4,2,GAIN_SLOT_2*%
%TO.N,unconnected-(U4-GAIN_SLOT-Pad2)*%
X73590000Y-55760000D03*
%TO.P,U4,3,GND_1_3*%
%TO.N,GND*%
X73590000Y-56260000D03*
%TO.P,U4,4,~{SD_MODE}_4*%
%TO.N,+3V3_MAIN*%
X73565000Y-56760000D03*
D32*
%TO.P,U4,5,N.C._1_5*%
%TO.N,unconnected-(U4-N.C._1-Pad5)*%
X74290000Y-57485000D03*
%TO.P,U4,6,N.C._2_6*%
%TO.N,unconnected-(U4-N.C._2-Pad6)*%
X74790000Y-57460000D03*
%TO.P,U4,7,VDD_1_7*%
%TO.N,+5V_AUDIO*%
X75290000Y-57460000D03*
%TO.P,U4,8,VDD_2_8*%
X75790000Y-57485000D03*
D31*
%TO.P,U4,9,OUTP_9*%
%TO.N,Net-(J17-Pin_1)*%
X76515000Y-56760000D03*
%TO.P,U4,10,OUTN_10*%
%TO.N,Net-(J17-Pin_2)*%
X76490000Y-56260000D03*
%TO.P,U4,11,GND_2_11*%
%TO.N,GND*%
X76490000Y-55760000D03*
%TO.P,U4,12,N.C._3_12*%
%TO.N,unconnected-(U4-N.C._3-Pad12)*%
X76515000Y-55260000D03*
D32*
%TO.P,U4,13,N.C._4_13*%
%TO.N,unconnected-(U4-N.C._4-Pad13)*%
X75790000Y-54535000D03*
%TO.P,U4,14,LRCLK_14*%
%TO.N,I2S_LRCLK*%
X75290000Y-54560000D03*
%TO.P,U4,15,GND_3_15*%
%TO.N,GND*%
X74790000Y-54560000D03*
%TO.P,U4,16,BCLK_16*%
%TO.N,I2S_BCLK*%
X74290000Y-54535000D03*
D33*
%TO.P,U4,17,THERMAL_PAD_17*%
%TO.N,GND*%
X75040000Y-56010000D03*
%TD*%
D21*
%TO.P,J19,1,Pin_1_1*%
%TO.N,+5V_PERIPH*%
X99450000Y-87020000D03*
D22*
%TO.P,J19,2,Pin_2_2*%
%TO.N,GND*%
X99450000Y-84480000D03*
%TO.P,J19,3,Pin_3_3*%
%TO.N,+3V3_MAIN*%
X101990000Y-87020000D03*
%TO.P,J19,4,Pin_4_4*%
%TO.N,GND*%
X101990000Y-84480000D03*
%TO.P,J19,5,Pin_5_5*%
%TO.N,SDA*%
X104530000Y-87020000D03*
%TO.P,J19,6,Pin_6_6*%
%TO.N,SCL*%
X104530000Y-84480000D03*
%TO.P,J19,7,Pin_7_7*%
%TO.N,SPI3_MOSI *%
X107070000Y-87020000D03*
%TO.P,J19,8,Pin_8_8*%
%TO.N,SPI3_MISO*%
X107070000Y-84480000D03*
%TO.P,J19,9,Pin_9_9*%
%TO.N,SPI3_SCK*%
X109610000Y-87020000D03*
%TO.P,J19,10,Pin_10_10*%
%TO.N,SPI_CS_EXT*%
X109610000Y-84480000D03*
%TO.P,J19,11,Pin_11_11*%
%TO.N,UART_TX*%
X112150000Y-87020000D03*
%TO.P,J19,12,Pin_12_12*%
%TO.N,UART_RX*%
X112150000Y-84480000D03*
%TO.P,J19,13,Pin_13_13*%
%TO.N,GPIO_EXT1*%
X114690000Y-87020000D03*
%TO.P,J19,14,Pin_14_14*%
%TO.N,GPIO_EXT2*%
X114690000Y-84480000D03*
%TO.P,J19,15,Pin_15_15*%
%TO.N,GPIO_EXT3*%
X117230000Y-87020000D03*
%TO.P,J19,16,Pin_16_16*%
%TO.N,GPIO_EXT4*%
X117230000Y-84480000D03*
%TO.P,J19,17,Pin_17_17*%
%TO.N,GPIO_EXT5 {slash} INT*%
X119770000Y-87020000D03*
%TO.P,J19,18,Pin_18_18*%
%TO.N,GPIO_EXT6 {slash} INT*%
X119770000Y-84480000D03*
%TO.P,J19,19,Pin_19_19*%
%TO.N,GND*%
X122310000Y-87020000D03*
%TO.P,J19,20,Pin_20_20*%
X122310000Y-84480000D03*
%TD*%
D15*
%TO.P,R18,1*%
%TO.N,/USB/PRT_SWP5*%
X171237500Y-60650000D03*
%TO.P,R18,2*%
%TO.N,GND*%
X169412500Y-60650000D03*
%TD*%
D26*
%TO.P,C8,1*%
%TO.N,+3V3_MAIN*%
X139750000Y-72000000D03*
%TO.P,C8,2*%
%TO.N,/power/FB*%
X137850000Y-72000000D03*
%TD*%
D34*
%TO.P,U3,1,D+_1*%
%TO.N,OPI_USB_DP*%
X183000000Y-67950000D03*
%TO.P,U3,2,D-_2*%
%TO.N,OPI_USB_DM*%
X183800000Y-67950000D03*
D35*
%TO.P,U3,3,GND_3*%
%TO.N,GND*%
X183400000Y-66800000D03*
%TD*%
D26*
%TO.P,C20,1*%
%TO.N,+3V3_MAIN*%
X174500000Y-56575000D03*
%TO.P,C20,2*%
%TO.N,GND*%
X172600000Y-56575000D03*
%TD*%
D36*
%TO.P,U7,1,GPB0_1*%
%TO.N,unconnected-(U7-GPB0-Pad1)*%
X122510000Y-67250000D03*
%TO.P,U7,2,GPB1_2*%
%TO.N,unconnected-(U7-GPB1-Pad2)*%
X121240000Y-67250000D03*
%TO.P,U7,3,GPB2_3*%
%TO.N,unconnected-(U7-GPB2-Pad3)*%
X119970000Y-67250000D03*
%TO.P,U7,4,GPB3_4*%
%TO.N,unconnected-(U7-GPB3-Pad4)*%
X118700000Y-67250000D03*
%TO.P,U7,5,GPB4_5*%
%TO.N,unconnected-(U7-GPB4-Pad5)*%
X117430000Y-67250000D03*
%TO.P,U7,6,GPB5_6*%
%TO.N,unconnected-(U7-GPB5-Pad6)*%
X116160000Y-67250000D03*
%TO.P,U7,7,GPB6_7*%
%TO.N,unconnected-(U7-GPB6-Pad7)*%
X114890000Y-67250000D03*
%TO.P,U7,8,GPB7_8*%
%TO.N,unconnected-(U7-GPB7-Pad8)*%
X113620000Y-67250000D03*
%TO.P,U7,9,V_{DD}_9*%
%TO.N,+3V3_MAIN*%
X112350000Y-67250000D03*
%TO.P,U7,10,V_{SS}_10*%
%TO.N,GND*%
X111080000Y-67250000D03*
%TO.P,U7,11,NC_11*%
%TO.N,unconnected-(U7-NC-Pad11)*%
X109810000Y-67250000D03*
%TO.P,U7,12,SCK_12*%
%TO.N,SCL*%
X108540000Y-67250000D03*
%TO.P,U7,13,SDA_13*%
%TO.N,SDA*%
X107270000Y-67250000D03*
%TO.P,U7,14,NC_14*%
%TO.N,unconnected-(U7-NC-Pad14)*%
X106000000Y-67250000D03*
%TO.P,U7,15,A0_15*%
%TO.N,GND*%
X106000000Y-76550000D03*
%TO.P,U7,16,A1_16*%
X107270000Y-76550000D03*
%TO.P,U7,17,A2_17*%
X108540000Y-76550000D03*
%TO.P,U7,18,~{RESET}_18*%
%TO.N,Net-(U7-~{RESET})*%
X109810000Y-76550000D03*
%TO.P,U7,19,INTB_19*%
%TO.N,unconnected-(U7-INTB-Pad19)*%
X111080000Y-76550000D03*
%TO.P,U7,20,INTA_20*%
%TO.N,MCP_INT*%
X112350000Y-76550000D03*
%TO.P,U7,21,GPA0_21*%
%TO.N,GPIO_EXT1*%
X113620000Y-76550000D03*
%TO.P,U7,22,GPA1_22*%
%TO.N,GPIO_EXT2*%
X114890000Y-76550000D03*
%TO.P,U7,23,GPA2_23*%
%TO.N,GPIO_EXT3*%
X116160000Y-76550000D03*
%TO.P,U7,24,GPA3_24*%
%TO.N,GPIO_EXT4*%
X117430000Y-76550000D03*
%TO.P,U7,25,GPA4_25*%
%TO.N,GPIO_EXT5 {slash} INT*%
X118700000Y-76550000D03*
%TO.P,U7,26,GPA5_26*%
%TO.N,GPIO_EXT6 {slash} INT*%
X119970000Y-76550000D03*
%TO.P,U7,27,GPA6_27*%
%TO.N,unconnected-(U7-GPA6-Pad27)*%
X121240000Y-76550000D03*
%TO.P,U7,28,GPA7_28*%
%TO.N,unconnected-(U7-GPA7-Pad28)*%
X122510000Y-76550000D03*
%TD*%
D18*
%TO.P,R12,1*%
%TO.N,/USB/CFG_SEL1*%
X186675000Y-63075000D03*
%TO.P,R12,2*%
%TO.N,GND*%
X188500000Y-63075000D03*
%TD*%
%TO.P,R1,1*%
%TO.N,+3V3_MAIN*%
X107665000Y-79130000D03*
%TO.P,R1,2*%
%TO.N,Net-(U7-~{RESET})*%
X109490000Y-79130000D03*
%TD*%
D12*
%TO.P,C2,1*%
%TO.N,+5V_PERIPH*%
X154605000Y-86760000D03*
%TO.P,C2,2*%
%TO.N,GND*%
X156505000Y-86760000D03*
%TD*%
D21*
%TO.P,J1,1,Pin_1_1*%
%TO.N,+3V3_MAIN*%
X151250000Y-51260000D03*
D22*
%TO.P,J1,2,Pin_2_2*%
%TO.N,GND*%
X151250000Y-53800000D03*
%TO.P,J1,3,Pin_3_3*%
%TO.N,SPI3_MOSI *%
X151250000Y-56340000D03*
%TO.P,J1,4,Pin_4_4*%
%TO.N,SPI3_SCK*%
X151250000Y-58880000D03*
%TO.P,J1,5,Pin_5_5*%
%TO.N,EPAPER_CS*%
X151250000Y-61420000D03*
%TO.P,J1,6,Pin_6_6*%
%TO.N,EPAPER_DC*%
X151250000Y-63960000D03*
%TO.P,J1,7,Pin_7_7*%
%TO.N,EPAPER_RST*%
X151250000Y-66500000D03*
%TO.P,J1,8,Pin_8_8*%
%TO.N,EPAPER_BUSY*%
X151250000Y-69040000D03*
%TD*%
D37*
%TO.P,R33,1*%
%TO.N,FAN1_PWM*%
X69750000Y-78925000D03*
%TO.P,R33,2*%
%TO.N,GND*%
X69750000Y-77100000D03*
%TD*%
D25*
%TO.P,C13,1*%
%TO.N,+3V3_MAIN*%
X154690000Y-51370000D03*
%TO.P,C13,2*%
%TO.N,GND*%
X154690000Y-53270000D03*
%TD*%
D38*
%TO.P,F3,1*%
%TO.N,+5V_MAIN*%
X140200000Y-78010000D03*
%TO.P,F3,2*%
%TO.N,+5V_FAN*%
X143000000Y-78010000D03*
%TD*%
D18*
%TO.P,R32,1*%
%TO.N,Net-(Q3-G)*%
X65695000Y-79070000D03*
%TO.P,R32,2*%
%TO.N,FAN1_PWM*%
X67520000Y-79070000D03*
%TD*%
%TO.P,R23,1*%
%TO.N,+3V3_MAIN*%
X172825000Y-61325000D03*
%TO.P,R23,2*%
%TO.N,Net-(U2-LED_B3_N{slash}GANG_EN)*%
X174650000Y-61325000D03*
%TD*%
D24*
%TO.P,,*%
%TO.N,*%
X214955200Y-40935889D03*
%TD*%
D25*
%TO.P,C1,1*%
%TO.N,Net-(U1-BOOT)*%
X135850000Y-70975000D03*
%TO.P,C1,2*%
%TO.N,Net-(U1-SW)*%
X135850000Y-72875000D03*
%TD*%
D39*
%TO.P,C18,1*%
%TO.N,+3V3_MAIN*%
X182400000Y-50500000D03*
%TO.P,C18,2*%
%TO.N,GND*%
X182400000Y-48600000D03*
%TD*%
D15*
%TO.P,R2,1*%
%TO.N,+3V3_MAIN*%
X141162500Y-68000000D03*
%TO.P,R2,2*%
%TO.N,/power/FB*%
X139337500Y-68000000D03*
%TD*%
D40*
%TO.P,L1,1,1_1*%
%TO.N,Net-(U1-SW)*%
X133020000Y-60930000D03*
%TO.P,L1,2,2_2*%
%TO.N,+3V3_MAIN*%
X139020000Y-60930000D03*
%TD*%
D39*
%TO.P,C24,1*%
%TO.N,+3V3_MAIN*%
X190425000Y-56575000D03*
%TO.P,C24,2*%
%TO.N,GND*%
X190425000Y-54675000D03*
%TD*%
%TO.P,C23,1*%
%TO.N,+3V3_MAIN*%
X186950000Y-52800000D03*
%TO.P,C23,2*%
%TO.N,GND*%
X186950000Y-50900000D03*
%TD*%
D41*
%TO.P,J18,1,Pin_1_1*%
%TO.N,Net-(J18-Pin_1)*%
X243640000Y-55850000D03*
D42*
%TO.P,J18,2,Pin_2_2*%
%TO.N,Net-(J18-Pin_2)*%
X247600000Y-55850000D03*
%TD*%
D17*
%TO.P,Q1,1,G_1*%
%TO.N,/USB/Q1-PIN1*%
X173009879Y-73550000D03*
%TO.P,Q1,2,S_2*%
%TO.N,+5V_PPROTECTED*%
X173009879Y-75450000D03*
%TO.P,Q1,3,D_3*%
%TO.N,+5V_USB*%
X174884879Y-74500000D03*
%TD*%
D12*
%TO.P,C6,1*%
%TO.N,+5V_OPI*%
X169710000Y-87790000D03*
%TO.P,C6,2*%
%TO.N,GND*%
X171610000Y-87790000D03*
%TD*%
D21*
%TO.P,J3,1,Pin_1_1*%
%TO.N,unconnected-(J3-Pin_1-Pad1)*%
X161622494Y-41975560D03*
D22*
%TO.P,J3,2,Pin_2_2*%
%TO.N,+5V_OPI*%
X161622494Y-39435560D03*
%TO.P,J3,3,Pin_3_3*%
%TO.N,SDA*%
X164162494Y-41975560D03*
%TO.P,J3,4,Pin_4_4*%
%TO.N,+5V_OPI*%
X164162494Y-39435560D03*
%TO.P,J3,5,Pin_5_5*%
%TO.N,SCL*%
X166702494Y-41975560D03*
%TO.P,J3,6,Pin_6_6*%
%TO.N,GND*%
X166702494Y-39435560D03*
%TO.P,J3,7,Pin_7_7*%
%TO.N,SPI_CS_EXT*%
X169242494Y-41975560D03*
%TO.P,J3,8,Pin_8_8*%
%TO.N,unconnected-(J3-Pin_8-Pad8)*%
X169242494Y-39435560D03*
%TO.P,J3,9,Pin_9_9*%
%TO.N,GND*%
X171782494Y-41975560D03*
%TO.P,J3,10,Pin_10_10*%
%TO.N,unconnected-(J3-Pin_10-Pad10)*%
X171782494Y-39435560D03*
%TO.P,J3,11,Pin_11_11*%
%TO.N,UART_TX*%
X174322494Y-41975560D03*
%TO.P,J3,12,Pin_12_12*%
%TO.N,I2S_BCLK*%
X174322494Y-39435560D03*
%TO.P,J3,13,Pin_13_13*%
%TO.N,UART_RX*%
X176862494Y-41975560D03*
%TO.P,J3,14,Pin_14_14*%
%TO.N,unconnected-(J3-Pin_14-Pad14)*%
X176862494Y-39435560D03*
%TO.P,J3,15,Pin_15_15*%
%TO.N,EPAPER_DC*%
X179402494Y-41975560D03*
%TO.P,J3,16,Pin_16_16*%
%TO.N,unconnected-(J3-Pin_16-Pad16)*%
X179402494Y-39435560D03*
%TO.P,J3,17,Pin_17_17*%
%TO.N,unconnected-(J3-Pin_17-Pad17)*%
X181942494Y-41975560D03*
%TO.P,J3,18,Pin_18_18*%
%TO.N,unconnected-(J3-Pin_18-Pad18)*%
X181942494Y-39435560D03*
%TO.P,J3,19,Pin_19_19*%
%TO.N,SPI3_MOSI *%
X184482494Y-41975560D03*
%TO.P,J3,20,Pin_20_20*%
%TO.N,unconnected-(J3-Pin_20-Pad20)*%
X184482494Y-39435560D03*
%TO.P,J3,21,Pin_21_21*%
%TO.N,SPI3_MISO*%
X187022494Y-41975560D03*
%TO.P,J3,22,Pin_22_22*%
%TO.N,BUSY*%
X187022494Y-39435560D03*
%TO.P,J3,23,Pin_23_23*%
%TO.N,SPI3_SCK*%
X189562494Y-41975560D03*
%TO.P,J3,24,Pin_24_24*%
%TO.N,EPAPER_CS*%
X189562494Y-39435560D03*
%TO.P,J3,25,Pin_25_25*%
%TO.N,GND*%
X192102494Y-41975560D03*
%TO.P,J3,26,Pin_26_26*%
%TO.N,LORA_CS*%
X192102494Y-39435560D03*
%TO.P,J3,27,Pin_27_27*%
%TO.N,RESET*%
X194642494Y-41975560D03*
%TO.P,J3,28,Pin_28_28*%
%TO.N,DIO1*%
X194642494Y-39435560D03*
%TO.P,J3,29,Pin_29_29*%
%TO.N,EPAPER_RST*%
X197182494Y-41975560D03*
%TO.P,J3,30,Pin_30_30*%
%TO.N,unconnected-(J3-Pin_30-Pad30)*%
X197182494Y-39435560D03*
%TO.P,J3,31,Pin_31_31*%
%TO.N,EPAPER_BUSY*%
X199722494Y-41975560D03*
%TO.P,J3,32,Pin_32_32*%
%TO.N,RXEN*%
X199722494Y-39435560D03*
%TO.P,J3,33,Pin_33_33*%
%TO.N,FAN1_PWM*%
X202262494Y-41975560D03*
%TO.P,J3,34,Pin_34_34*%
%TO.N,unconnected-(J3-Pin_34-Pad34)*%
X202262494Y-39435560D03*
%TO.P,J3,35,Pin_35_35*%
%TO.N,I2S_LRCLK*%
X204802494Y-41975560D03*
%TO.P,J3,36,Pin_36_36*%
%TO.N,TXEN*%
X204802494Y-39435560D03*
%TO.P,J3,37,Pin_37_37*%
%TO.N,FAN2_PWM*%
X207342494Y-41975560D03*
%TO.P,J3,38,Pin_38_38*%
%TO.N,I2S_DIN*%
X207342494Y-39435560D03*
%TO.P,J3,39,Pin_39_39*%
%TO.N,unconnected-(J3-Pin_39-Pad39)*%
X209882494Y-41975560D03*
%TO.P,J3,40,Pin_40_40*%
%TO.N,MCP_INT*%
X209882494Y-39435560D03*
%TD*%
D12*
%TO.P,C30,1*%
%TO.N,+5V_FAN*%
X144660000Y-78000000D03*
%TO.P,C30,2*%
%TO.N,GND*%
X146560000Y-78000000D03*
%TD*%
D39*
%TO.P,C34,1*%
%TO.N,GND*%
X235400000Y-59900000D03*
%TO.P,C34,2*%
%TO.N,+5V_AUDIO*%
X235400000Y-58000000D03*
%TD*%
D18*
%TO.P,R28,1*%
%TO.N,GND*%
X174362500Y-63225000D03*
%TO.P,R28,2*%
%TO.N,Net-(U2-SDA{slash}SMBDATA{slash}NON_REM1)*%
X176187500Y-63225000D03*
%TD*%
D26*
%TO.P,C21,1*%
%TO.N,/USB/VDD18*%
X174500000Y-58575000D03*
%TO.P,C21,2*%
%TO.N,GND*%
X172600000Y-58575000D03*
%TD*%
D37*
%TO.P,R13,1*%
%TO.N,/USB/CFG_SEL2*%
X177775000Y-50525000D03*
%TO.P,R13,2*%
%TO.N,GND*%
X177775000Y-48700000D03*
%TD*%
D39*
%TO.P,C31,1*%
%TO.N,GND*%
X76570000Y-60810000D03*
%TO.P,C31,2*%
%TO.N,+5V_AUDIO*%
X76570000Y-58910000D03*
%TD*%
D12*
%TO.P,C10,1*%
%TO.N,+5V_MAIN*%
X130850000Y-68225000D03*
%TO.P,C10,2*%
%TO.N,GND*%
X132750000Y-68225000D03*
%TD*%
D43*
%TO.P,U2,1,USBDN1_DM/PRT_DIS_M1_1*%
%TO.N,/USB/USB1DM*%
X184365000Y-52377500D03*
%TO.P,U2,2,USBDN1_DP/PRT_DIS_P1_2*%
%TO.N,/USB/USB1DP*%
X183865000Y-52377500D03*
%TO.P,U2,3,USBDN2_DM/PRT_DIS_M2_3*%
%TO.N,/USB/USB2DM*%
X183365000Y-52377500D03*
%TO.P,U2,4,USBDN2_DP/PRT_DIS_P2_4*%
%TO.N,/USB/USB2DP*%
X182865000Y-52377500D03*
%TO.P,U2,5,VDDA33_1_5*%
%TO.N,+3V3_MAIN*%
X182365000Y-52377500D03*
%TO.P,U2,6,USBDN3_DM/PRT_DIS_M3_6*%
%TO.N,/USB/USB3DM*%
X181865000Y-52377500D03*
%TO.P,U2,7,USBDN3_DP/PRT_DIS_P3_7*%
%TO.N,/USB/USB3DP*%
X181365000Y-52377500D03*
%TO.P,U2,8,USBDN4_DM/PRT_DIS_M4_8*%
%TO.N,/USB/USB4DM*%
X180865000Y-52377500D03*
%TO.P,U2,9,USBDN4_DP/PRT_DIS_P4_9*%
%TO.N,/USB/USB4DP*%
X180365000Y-52377500D03*
%TO.P,U2,10,VDDA33_2_10*%
%TO.N,+3V3_MAIN*%
X179865000Y-52377500D03*
%TO.P,U2,11,USBDN5_DM/PRT_DIS_M5_11*%
%TO.N,/USB/USB5DM*%
X179365000Y-52377500D03*
%TO.P,U2,12,USBDN5_DP/PRT_DIS_P5_12*%
%TO.N,/USB/USB5DP*%
X178865000Y-52377500D03*
%TO.P,U2,13,CFG_SEL2_13*%
%TO.N,/USB/CFG_SEL2*%
X178365000Y-52377500D03*
%TO.P,U2,14,LED_B7_N_14*%
%TO.N,unconnected-(U2-LED_B7_N-Pad14)*%
X177865000Y-52377500D03*
%TO.P,U2,15,LED_A7_N/PRT_SWP7_15*%
%TO.N,/USB/PRT_SWP7*%
X177365000Y-52377500D03*
%TO.P,U2,16,LED_B6_N_16*%
%TO.N,unconnected-(U2-LED_B6_N-Pad16)*%
X176865000Y-52377500D03*
D44*
%TO.P,U2,17,LED_A6_N/PRT_SWP6_17*%
%TO.N,/USB/PRT_SWP6*%
X176177500Y-53065000D03*
%TO.P,U2,18,LED_B5_N_18*%
%TO.N,unconnected-(U2-LED_B5_N-Pad18)*%
X176177500Y-53565000D03*
%TO.P,U2,19,TEST_19*%
%TO.N,GND*%
X176177500Y-54065000D03*
%TO.P,U2,20,PRTPWR4_20*%
%TO.N,unconnected-(U2-PRTPWR4-Pad20)*%
X176177500Y-54565000D03*
%TO.P,U2,21,OCS4_N_21*%
%TO.N,unconnected-(U2-OCS4_N-Pad21)*%
X176177500Y-55065000D03*
%TO.P,U2,22,OCS3_N_22*%
%TO.N,unconnected-(U2-OCS3_N-Pad22)*%
X176177500Y-55565000D03*
%TO.P,U2,23,PRTPWR3_23*%
%TO.N,unconnected-(U2-PRTPWR3-Pad23)*%
X176177500Y-56065000D03*
%TO.P,U2,24,VDD33CR_24*%
%TO.N,+3V3_MAIN*%
X176177500Y-56565000D03*
%TO.P,U2,25,VDD18_25*%
%TO.N,/USB/VDD18*%
X176177500Y-57065000D03*
%TO.P,U2,26,PRTPWR2_26*%
%TO.N,unconnected-(U2-PRTPWR2-Pad26)*%
X176177500Y-57565000D03*
%TO.P,U2,27,OCS2_N_27*%
%TO.N,unconnected-(U2-OCS2_N-Pad27)*%
X176177500Y-58065000D03*
%TO.P,U2,28,OCS1_N_28*%
%TO.N,unconnected-(U2-OCS1_N-Pad28)*%
X176177500Y-58565000D03*
%TO.P,U2,29,PRTPWR1_29*%
%TO.N,/USB/PRTPWR1*%
X176177500Y-59065000D03*
%TO.P,U2,30,PRTPWR5_30*%
%TO.N,unconnected-(U2-PRTPWR5-Pad30)*%
X176177500Y-59565000D03*
%TO.P,U2,31,LED_A5_N/PRT_SWP5_31*%
%TO.N,/USB/PRT_SWP5*%
X176177500Y-60065000D03*
%TO.P,U2,32,LED_B4_N_32*%
%TO.N,unconnected-(U2-LED_B4_N-Pad32)*%
X176177500Y-60565000D03*
D43*
%TO.P,U2,33,LED_A4_N/PRT_SWP4_33*%
%TO.N,/USB/PRT_SWP4*%
X176865000Y-61252500D03*
%TO.P,U2,34,LED_B3_N/GANG_EN_34*%
%TO.N,Net-(U2-LED_B3_N{slash}GANG_EN)*%
X177365000Y-61252500D03*
%TO.P,U2,35,OCS5_N_35*%
%TO.N,unconnected-(U2-OCS5_N-Pad35)*%
X177865000Y-61252500D03*
%TO.P,U2,36,PRTPWR7_36*%
%TO.N,unconnected-(U2-PRTPWR7-Pad36)*%
X178365000Y-61252500D03*
%TO.P,U2,37,OCS7_N_37*%
%TO.N,unconnected-(U2-OCS7_N-Pad37)*%
X178865000Y-61252500D03*
%TO.P,U2,38,OCS6_N_38*%
%TO.N,unconnected-(U2-OCS6_N-Pad38)*%
X179365000Y-61252500D03*
%TO.P,U2,39,PRTPWR6_39*%
%TO.N,unconnected-(U2-PRTPWR6-Pad39)*%
X179865000Y-61252500D03*
%TO.P,U2,40,SDA/SMBDATA/NON_REM1_40*%
%TO.N,Net-(U2-SDA{slash}SMBDATA{slash}NON_REM1)*%
X180365000Y-61252500D03*
%TO.P,U2,41,SCL/SMBCLK/CFG_SEL0_41*%
%TO.N,/USB/CFG_SEL0*%
X180865000Y-61252500D03*
%TO.P,U2,42,HS_IND/CFG_SEL1_42*%
%TO.N,/USB/CFG_SEL1*%
X181365000Y-61252500D03*
%TO.P,U2,43,RESET_N_43*%
%TO.N,/USB/RESET_N*%
X181865000Y-61252500D03*
%TO.P,U2,44,VBUS_DET_44*%
%TO.N,/USB/VBUS_DET*%
X182365000Y-61252500D03*
%TO.P,U2,45,SUSP_IND/LOCAL_PWR/NON_REM0_45*%
%TO.N,Net-(U2-SUSP_IND{slash}LOCAL_PWR{slash}NON_REM0)*%
X182865000Y-61252500D03*
%TO.P,U2,46,VDD33_46*%
%TO.N,+3V3_MAIN*%
X183365000Y-61252500D03*
%TO.P,U2,47,LED_A3_N/PRT_SWP3_47*%
%TO.N,/USB/PRT_SWP3*%
X183865000Y-61252500D03*
%TO.P,U2,48,LED_B2_N/BOOST1_48*%
%TO.N,Net-(U2-LED_B2_N{slash}BOOST1)*%
X184365000Y-61252500D03*
D44*
%TO.P,U2,49,LED_A2_N/PRT_SWP2_49*%
%TO.N,/USB/PRT_SWP2*%
X185052500Y-60565000D03*
%TO.P,U2,50,LED_B1_N/BOOST0_50*%
%TO.N,Net-(U2-LED_B1_N{slash}BOOST0)*%
X185052500Y-60065000D03*
%TO.P,U2,51,LED_A1_N/PRT_SWP1_51*%
%TO.N,/USB/PRT_SWP1*%
X185052500Y-59565000D03*
%TO.P,U2,52,VDDA33_3_52*%
%TO.N,+3V3_MAIN*%
X185052500Y-59065000D03*
%TO.P,U2,53,USBDN6_DM/PRT_DIS_M6_53*%
%TO.N,/USB/USB6DM*%
X185052500Y-58565000D03*
%TO.P,U2,54,USBDN6_DP/PRT_DIS_P6_54*%
%TO.N,/USB/USB6DP*%
X185052500Y-58065000D03*
%TO.P,U2,55,USBDN7_DM/PRT_DIS_M7_55*%
%TO.N,/USB/USB7DM*%
X185052500Y-57565000D03*
%TO.P,U2,56,USBDN7_DP/PRT_DIS_P7_56*%
%TO.N,/USB/USB7DP*%
X185052500Y-57065000D03*
%TO.P,U2,57,VDDA33_4_57*%
%TO.N,+3V3_MAIN*%
X185052500Y-56565000D03*
%TO.P,U2,58,USBUP_DM_58*%
%TO.N,OPI_USB_DM*%
X185052500Y-56065000D03*
%TO.P,U2,59,USBUP_DP_59*%
%TO.N,OPI_USB_DP*%
X185052500Y-55565000D03*
%TO.P,U2,60,XTAL2_60*%
%TO.N,/USB/XTAL2*%
X185052500Y-55065000D03*
%TO.P,U2,61,XTAL1/CLKIN_61*%
%TO.N,/USB/XTAL1{slash}CLKIN*%
X185052500Y-54565000D03*
%TO.P,U2,62,VDD18PLL_62*%
%TO.N,/USB/VDD18PLL*%
X185052500Y-54065000D03*
%TO.P,U2,63,RBIAS_63*%
%TO.N,/USB/RBIAS*%
X185052500Y-53565000D03*
%TO.P,U2,64,VDD33PLL_64*%
%TO.N,+3V3_MAIN*%
X185052500Y-53065000D03*
%TD*%
D25*
%TO.P,C27,1*%
%TO.N,/USB/RESET_N*%
X181400000Y-62975000D03*
%TO.P,C27,2*%
%TO.N,GND*%
X181400000Y-64875000D03*
%TD*%
D15*
%TO.P,R15,1*%
%TO.N,/USB/PRT_SWP2*%
X187187500Y-67075000D03*
%TO.P,R15,2*%
%TO.N,GND*%
X185362500Y-67075000D03*
%TD*%
D21*
%TO.P,J14,1,VBUS_1*%
%TO.N,+5V_USB*%
X234480000Y-35550000D03*
D22*
%TO.P,J14,2,D-_2*%
%TO.N,/USB/USB2DM*%
X237020000Y-35550000D03*
%TO.P,J14,3,D+_3*%
%TO.N,/USB/USB2DP*%
X239560000Y-35550000D03*
%TO.P,J14,4,GND_4*%
%TO.N,GND*%
X242100000Y-35550000D03*
%TD*%
D45*
%TO.P,Q4,1,G_1*%
%TO.N,Net-(Q4-G)*%
X246670000Y-76600000D03*
%TO.P,Q4,2,S_2*%
%TO.N,GND*%
X248570000Y-76600000D03*
%TO.P,Q4,3,D_3*%
%TO.N,/FAN/FAN2_SW*%
X247620000Y-74725000D03*
%TD*%
D12*
%TO.P,C28,1*%
%TO.N,+3V3_MAIN*%
X183250000Y-65125000D03*
%TO.P,C28,2*%
%TO.N,GND*%
X185150000Y-65125000D03*
%TD*%
D46*
%TO.P,U1,1,GND_1*%
%TO.N,GND*%
X134862500Y-67250000D03*
%TO.P,U1,2,SW_2*%
%TO.N,Net-(U1-SW)*%
X134862500Y-68200000D03*
%TO.P,U1,3,VIN_3*%
%TO.N,+5V_MAIN*%
X134862500Y-69150000D03*
%TO.P,U1,4,FB_4*%
%TO.N,/power/FB*%
X137137500Y-69150000D03*
%TO.P,U1,5,EN_5*%
%TO.N,+5V_MAIN*%
X137137500Y-68200000D03*
%TO.P,U1,6,BOOT_6*%
%TO.N,Net-(U1-BOOT)*%
X137137500Y-67250000D03*
%TD*%
D21*
%TO.P,J8,1,Pin_1_1*%
%TO.N,OPI_USB_VBUS*%
X187080000Y-70600000D03*
D22*
%TO.P,J8,2,Pin_2_2*%
%TO.N,OPI_USB_DM*%
X184540000Y-70600000D03*
%TO.P,J8,3,Pin_3_3*%
%TO.N,OPI_USB_DP*%
X182000000Y-70600000D03*
%TO.P,J8,4,Pin_4_4*%
%TO.N,GND*%
X179460000Y-70600000D03*
%TD*%
D15*
%TO.P,R31,1*%
%TO.N,Net-(Q4-G)*%
X246455000Y-78650000D03*
%TO.P,R31,2*%
%TO.N,FAN2_PWM*%
X244630000Y-78650000D03*
%TD*%
D12*
%TO.P,C26,1*%
%TO.N,/USB/XTAL1{slash}CLKIN*%
X188720000Y-50420000D03*
%TO.P,C26,2*%
%TO.N,GND*%
X190620000Y-50420000D03*
%TD*%
D26*
%TO.P,C35,1*%
%TO.N,+3V3_MAIN*%
X112450000Y-64950000D03*
%TO.P,C35,2*%
%TO.N,GND*%
X110550000Y-64950000D03*
%TD*%
D45*
%TO.P,Q3,1,G_1*%
%TO.N,Net-(Q3-G)*%
X65470000Y-76780000D03*
%TO.P,Q3,2,S_2*%
%TO.N,GND*%
X67370000Y-76780000D03*
%TO.P,Q3,3,D_3*%
%TO.N,/FAN/FAN1_SW*%
X66420000Y-74905000D03*
%TD*%
D39*
%TO.P,C17,1*%
%TO.N,+3V3_MAIN*%
X179800000Y-50550000D03*
%TO.P,C17,2*%
%TO.N,GND*%
X179800000Y-48650000D03*
%TD*%
D10*
%TO.P,J11,1,VBUS_1*%
%TO.N,+5V_USB*%
X127950000Y-41400000D03*
%TO.P,J11,2,D-_2*%
%TO.N,/USB/USB5DM*%
X130450000Y-41400000D03*
%TO.P,J11,3,D+_3*%
%TO.N,/USB/USB5DP*%
X132450000Y-41400000D03*
%TO.P,J11,4,GND_4*%
%TO.N,GND*%
X134950000Y-41400000D03*
D11*
%TO.P,J11,SH,Shield_SH*%
X125600000Y-38800000D03*
X137300000Y-38800000D03*
%TD*%
D15*
%TO.P,R20,1*%
%TO.N,/USB/PRT_SWP7*%
X176025000Y-50550000D03*
%TO.P,R20,2*%
%TO.N,GND*%
X174200000Y-50550000D03*
%TD*%
D25*
%TO.P,C32,1*%
%TO.N,+5V_AUDIO*%
X74580000Y-58900000D03*
%TO.P,C32,2*%
%TO.N,GND*%
X74580000Y-60800000D03*
%TD*%
D15*
%TO.P,R19,1*%
%TO.N,/USB/PRT_SWP6*%
X117392500Y-64950000D03*
%TO.P,R19,2*%
%TO.N,GND*%
X115567500Y-64950000D03*
%TD*%
D10*
%TO.P,J10,1,VBUS_1*%
%TO.N,+5V_USB*%
X112900000Y-41400000D03*
%TO.P,J10,2,D-_2*%
%TO.N,/USB/USB4DM*%
X115400000Y-41400000D03*
%TO.P,J10,3,D+_3*%
%TO.N,/USB/USB4DP*%
X117400000Y-41400000D03*
%TO.P,J10,4,GND_4*%
%TO.N,GND*%
X119900000Y-41400000D03*
D11*
%TO.P,J10,SH,Shield_SH*%
X110550000Y-38800000D03*
X122250000Y-38800000D03*
%TD*%
D25*
%TO.P,C14,1*%
%TO.N,+3V3_MAIN*%
X156690000Y-51370000D03*
%TO.P,C14,2*%
%TO.N,GND*%
X156690000Y-53270000D03*
%TD*%
D31*
%TO.P,U5,1,DIN_1*%
%TO.N,I2S_DIN*%
X232725000Y-54250000D03*
%TO.P,U5,2,GAIN_SLOT_2*%
%TO.N,unconnected-(U5-GAIN_SLOT-Pad2)*%
X232750000Y-54750000D03*
%TO.P,U5,3,GND_1_3*%
%TO.N,GND*%
X232750000Y-55250000D03*
%TO.P,U5,4,~{SD_MODE}_4*%
%TO.N,Net-(U5-~{SD_MODE})*%
X232725000Y-55750000D03*
D32*
%TO.P,U5,5,N.C._1_5*%
%TO.N,unconnected-(U5-N.C._1-Pad5)*%
X233450000Y-56475000D03*
%TO.P,U5,6,N.C._2_6*%
%TO.N,unconnected-(U5-N.C._2-Pad6)*%
X233950000Y-56450000D03*
%TO.P,U5,7,VDD_1_7*%
%TO.N,+5V_AUDIO*%
X234450000Y-56450000D03*
%TO.P,U5,8,VDD_2_8*%
X234950000Y-56475000D03*
D31*
%TO.P,U5,9,OUTP_9*%
%TO.N,Net-(J18-Pin_1)*%
X235675000Y-55750000D03*
%TO.P,U5,10,OUTN_10*%
%TO.N,Net-(J18-Pin_2)*%
X235650000Y-55250000D03*
%TO.P,U5,11,GND_2_11*%
%TO.N,GND*%
X235650000Y-54750000D03*
%TO.P,U5,12,N.C._3_12*%
%TO.N,unconnected-(U5-N.C._3-Pad12)*%
X235675000Y-54250000D03*
D32*
%TO.P,U5,13,N.C._4_13*%
%TO.N,unconnected-(U5-N.C._4-Pad13)*%
X234950000Y-53525000D03*
%TO.P,U5,14,LRCLK_14*%
%TO.N,I2S_LRCLK*%
X234450000Y-53550000D03*
%TO.P,U5,15,GND_3_15*%
%TO.N,GND*%
X233950000Y-53550000D03*
%TO.P,U5,16,BCLK_16*%
%TO.N,I2S_BCLK*%
X233450000Y-53525000D03*
D33*
%TO.P,U5,17,THERMAL_PAD_17*%
%TO.N,GND*%
X234200000Y-55000000D03*
%TD*%
D37*
%TO.P,R7,1*%
%TO.N,GND*%
X191950000Y-71250000D03*
%TO.P,R7,2*%
%TO.N,/USB/VBUS_DET*%
X191950000Y-69425000D03*
%TD*%
D21*
%TO.P,J13,1,VBUS_1*%
%TO.N,+5V_USB*%
X67670000Y-87250000D03*
D22*
%TO.P,J13,2,D-_2*%
%TO.N,/USB/USB7DM*%
X70210000Y-87250000D03*
%TO.P,J13,3,D+_3*%
%TO.N,/USB/USB7DP*%
X72750000Y-87250000D03*
%TO.P,J13,4,GND_4*%
%TO.N,GND*%
X75290000Y-87250000D03*
%TD*%
D41*
%TO.P,J16,1,Pin_1_1*%
%TO.N,+5V_FAN*%
X243640000Y-68200000D03*
D42*
%TO.P,J16,2,Pin_2_2*%
%TO.N,/FAN/FAN2_SW*%
X247600000Y-68200000D03*
%TD*%
D41*
%TO.P,J17,1,Pin_1_1*%
%TO.N,Net-(J17-Pin_1)*%
X64080000Y-56320000D03*
D42*
%TO.P,J17,2,Pin_2_2*%
%TO.N,Net-(J17-Pin_2)*%
X68040000Y-56320000D03*
%TD*%
D21*
%TO.P,J12,1,VBUS_1*%
%TO.N,+5V_PERIPH*%
X83450000Y-87200000D03*
D22*
%TO.P,J12,2,D-_2*%
%TO.N,/USB/USB6DM*%
X85990000Y-87200000D03*
%TO.P,J12,3,D+_3*%
%TO.N,/USB/USB6DP*%
X88530000Y-87200000D03*
%TO.P,J12,4,GND_4*%
%TO.N,GND*%
X91070000Y-87200000D03*
%TD*%
D47*
%TO.P,C7,1*%
%TO.N,+5V_PERIPH*%
X152960000Y-81130000D03*
%TO.P,C7,2*%
%TO.N,GND*%
X152960000Y-73930000D03*
%TD*%
D28*
%TO.P,F5,1*%
%TO.N,+5V_MAIN*%
X148605000Y-85840000D03*
%TO.P,F5,2*%
%TO.N,+5V_PERIPH*%
X152880000Y-85840000D03*
%TD*%
D27*
%TO.P,C12,1*%
%TO.N,+3V3_MAIN*%
X141525000Y-65000000D03*
%TO.P,C12,2*%
%TO.N,GND*%
X144475000Y-65000000D03*
%TD*%
D37*
%TO.P,R21,1*%
%TO.N,GND*%
X191370000Y-64730000D03*
%TO.P,R21,2*%
%TO.N,Net-(U2-LED_B1_N{slash}BOOST0)*%
X191370000Y-62905000D03*
%TD*%
D13*
%TO.P,R4,1*%
%TO.N,/USB/XTAL1{slash}CLKIN*%
X192375000Y-50762500D03*
%TO.P,R4,2*%
%TO.N,/USB/XTAL2*%
X192375000Y-52587500D03*
%TD*%
D12*
%TO.P,C5,1*%
%TO.N,+5V_OPI*%
X171522379Y-83945000D03*
%TO.P,C5,2*%
%TO.N,GND*%
X173422379Y-83945000D03*
%TD*%
D18*
%TO.P,R30,1*%
%TO.N,FAN2_PWM*%
X244615000Y-80680000D03*
%TO.P,R30,2*%
%TO.N,GND*%
X246440000Y-80680000D03*
%TD*%
D15*
%TO.P,R11,1*%
%TO.N,/USB/CFG_SEL0*%
X179625000Y-65150000D03*
%TO.P,R11,2*%
%TO.N,GND*%
X177800000Y-65150000D03*
%TD*%
D48*
%TO.P,J2,1,Pin_1_1*%
%TO.N,unconnected-(J2-Pin_1-Pad1)*%
X220110000Y-81290000D03*
%TO.P,J2,2,Pin_2_2*%
%TO.N,GND*%
X237890000Y-81290000D03*
%TO.P,J2,3,Pin_3_3*%
X220110000Y-78750000D03*
%TO.P,J2,4,Pin_4_4*%
X237890000Y-78750000D03*
%TO.P,J2,5,Pin_5_5*%
%TO.N,LORA_CS*%
X220110000Y-76210000D03*
%TO.P,J2,6,Pin_6_6*%
%TO.N,RXEN*%
X237890000Y-76210000D03*
%TO.P,J2,7,Pin_7_7*%
%TO.N,SPI3_SCK*%
X220110000Y-73670000D03*
%TO.P,J2,8,Pin_8_8*%
%TO.N,TXEN*%
X237890000Y-73670000D03*
%TO.P,J2,9,Pin_9_9*%
%TO.N,SPI3_MOSI *%
X220110000Y-71130000D03*
%TO.P,J2,10,Pin_10_10*%
%TO.N,unconnected-(J2-Pin_10-Pad10)*%
X237890000Y-71130000D03*
%TO.P,J2,11,Pin_11_11*%
%TO.N,SPI3_MISO*%
X220110000Y-68590000D03*
%TO.P,J2,12,Pin_12_12*%
%TO.N,DIO1*%
X237890000Y-68590000D03*
%TO.P,J2,13,Pin_13_13*%
%TO.N,RESET*%
X220110000Y-66050000D03*
%TO.P,J2,14,Pin_14_14*%
%TO.N,GND*%
X237890000Y-66050000D03*
%TO.P,J2,15,Pin_15_15*%
%TO.N,BUSY*%
X220110000Y-63510000D03*
%TO.P,J2,16,Pin_16_16*%
%TO.N,+3V3_MAIN*%
X237890000Y-63510000D03*
%TD*%
D49*
%TO.P,C36,1*%
%TO.N,+5V_AUDIO*%
X133080000Y-87210000D03*
%TO.P,C36,2*%
%TO.N,GND*%
X127680000Y-87210000D03*
%TD*%
D13*
%TO.P,R25,1*%
%TO.N,/USB/PRTPWR1*%
X163600000Y-66137500D03*
%TO.P,R25,2*%
%TO.N,Net-(Q2-G)*%
X163600000Y-67962500D03*
%TD*%
D15*
%TO.P,R22,1*%
%TO.N,GND*%
X191925000Y-61125000D03*
%TO.P,R22,2*%
%TO.N,Net-(U2-LED_B2_N{slash}BOOST1)*%
X190100000Y-61125000D03*
%TD*%
D13*
%TO.P,R6,1*%
%TO.N,/USB/VBUS_DET*%
X190000000Y-69412500D03*
%TO.P,R6,2*%
%TO.N,OPI_USB_VBUS*%
X190000000Y-71237500D03*
%TD*%
D50*
%TO.P,C9,1*%
%TO.N,+5V_MAIN*%
X132250000Y-70250000D03*
%TO.P,C9,2*%
%TO.N,GND*%
X132250000Y-73200000D03*
%TD*%
D12*
%TO.P,C29,1*%
%TO.N,+5V_FAN*%
X143120000Y-75880000D03*
%TO.P,C29,2*%
%TO.N,GND*%
X145020000Y-75880000D03*
%TD*%
D10*
%TO.P,J9,1,VBUS_1*%
%TO.N,+5V_USB*%
X97850000Y-41400000D03*
%TO.P,J9,2,D-_2*%
%TO.N,/USB/USB3DM*%
X100350000Y-41400000D03*
%TO.P,J9,3,D+_3*%
%TO.N,/USB/USB3DP*%
X102350000Y-41400000D03*
%TO.P,J9,4,GND_4*%
%TO.N,GND*%
X104850000Y-41400000D03*
D11*
%TO.P,J9,SH,Shield_SH*%
X95500000Y-38800000D03*
X107200000Y-38800000D03*
%TD*%
D41*
%TO.P,J15,1,Pin_1_1*%
%TO.N,+5V_FAN*%
X64200000Y-68200000D03*
D42*
%TO.P,J15,2,Pin_2_2*%
%TO.N,/FAN/FAN1_SW*%
X68160000Y-68200000D03*
%TD*%
D12*
%TO.P,C22,1*%
%TO.N,+3V3_MAIN*%
X186700000Y-56575000D03*
%TO.P,C22,2*%
%TO.N,GND*%
X188600000Y-56575000D03*
%TD*%
D18*
%TO.P,R26,1*%
%TO.N,GND*%
X160037500Y-69475000D03*
%TO.P,R26,2*%
%TO.N,Net-(Q2-G)*%
X161862500Y-69475000D03*
%TD*%
D24*
%TO.P,J4,*%
%TO.N,*%
X64870000Y-33480000D03*
X64870000Y-82480000D03*
X145870000Y-33480000D03*
X145870000Y-82480000D03*
%TD*%
D51*
%TO.N,/USB/USB1DM*%
X98830000Y-52380000D03*
X121680000Y-52330000D03*
D52*
X85300000Y-43170000D03*
X181579909Y-55000001D03*
X162560000Y-52220000D03*
X175320000Y-52230000D03*
%TO.N,/USB/USB1DP*%
X87300000Y-43110000D03*
X177370000Y-53290000D03*
X174500000Y-49090000D03*
X183740000Y-51250000D03*
%TO.N,GND*%
X156650000Y-83420000D03*
X145860000Y-62260000D03*
X154870000Y-72590000D03*
X189830000Y-62590000D03*
X134930000Y-39970000D03*
X73910000Y-61790000D03*
X94760000Y-66620000D03*
X248570000Y-77980000D03*
X146200000Y-75880000D03*
X191950000Y-71250000D03*
X237890000Y-78750000D03*
X74770000Y-53510000D03*
X68470000Y-76750000D03*
X125280000Y-87050000D03*
X172570000Y-87930000D03*
X133680000Y-68450000D03*
X188600000Y-56470251D03*
X237890000Y-81290000D03*
X236690000Y-54800000D03*
X108910000Y-75130000D03*
X186940000Y-49770000D03*
X188525000Y-65050000D03*
X109400000Y-64930000D03*
X191700000Y-53740000D03*
X77530000Y-55770000D03*
X178575000Y-64670000D03*
X231800000Y-54400000D03*
X193010000Y-60040000D03*
X156670000Y-54380000D03*
X189740000Y-63350000D03*
X220110000Y-78750000D03*
X107680000Y-75170000D03*
X190645000Y-49085000D03*
X77150000Y-66870000D03*
X171475000Y-58575000D03*
X145860000Y-65000000D03*
X247840000Y-80670000D03*
X177574258Y-49190000D03*
X179760000Y-66640000D03*
X80260000Y-66750000D03*
X185010000Y-47960000D03*
X169412500Y-61990000D03*
X191780000Y-54790000D03*
X172990000Y-50500000D03*
X173260000Y-63225000D03*
X146550000Y-79340000D03*
X175472616Y-54065000D03*
X77640000Y-61560000D03*
X133740000Y-67590000D03*
X104840000Y-39850000D03*
X234000000Y-52400000D03*
X72560000Y-56250000D03*
X182370000Y-47510000D03*
X235400000Y-59900000D03*
X190040000Y-53700000D03*
X171450000Y-56590000D03*
X237890000Y-66050000D03*
X141190000Y-71030000D03*
X89860000Y-40000000D03*
X179750000Y-47540000D03*
X173270000Y-65150000D03*
X160020000Y-70560000D03*
X119940000Y-39840000D03*
X157340000Y-85690000D03*
X95720000Y-66630000D03*
X132220000Y-74390000D03*
X114260000Y-64530000D03*
X106020000Y-78200000D03*
X154670000Y-54380000D03*
X69760000Y-75930000D03*
X162440000Y-71430000D03*
X133973504Y-81826496D03*
X174540000Y-83930000D03*
X233440000Y-59890000D03*
%TO.N,+5V_PERIPH*%
X154605000Y-86760000D03*
X164450000Y-86780000D03*
X96620000Y-80270000D03*
%TO.N,/USB/RBIAS*%
X177085082Y-55703610D03*
X183760000Y-50400000D03*
D53*
%TO.N,+5V_MAIN*%
X141000000Y-83750000D03*
X146530000Y-86820000D03*
D54*
X137970000Y-68270000D03*
X140230000Y-76570000D03*
D52*
%TO.N,+5V_AUDIO*%
X131840000Y-83260000D03*
X137990000Y-88530000D03*
D54*
X231400000Y-58200000D03*
D52*
X73050000Y-58930000D03*
%TO.N,+5V_PPROTECTED*%
X168590000Y-75870000D03*
X169940000Y-71790000D03*
%TO.N,+3V3_MAIN*%
X186950000Y-52800000D03*
D54*
X141090000Y-58450000D03*
D55*
X172825000Y-61460000D03*
D52*
X108040000Y-78360000D03*
D51*
X72960000Y-57600000D03*
D52*
X179626411Y-49650000D03*
X228380000Y-59140000D03*
D55*
X174500000Y-56575000D03*
D51*
X78550000Y-66720001D03*
D52*
X183240000Y-62665000D03*
X178575000Y-63194071D03*
X182260000Y-50638528D03*
X190962501Y-58322829D03*
X182223600Y-59270000D03*
D55*
X158120000Y-51360000D03*
D52*
X183150000Y-64290000D03*
X112415000Y-71335000D03*
X187537500Y-59220000D03*
%TO.N,/USB/PRT_SWP3*%
X186587500Y-65050000D03*
X181454972Y-58870000D03*
D54*
%TO.N,+5V_OPI*%
X165740000Y-53140000D03*
D52*
%TO.N,/USB/XTAL1{slash}CLKIN*%
X184210000Y-54620000D03*
X191770000Y-49720000D03*
X188590000Y-48920000D03*
%TO.N,/USB/XTAL2*%
X188730000Y-52620000D03*
X183340000Y-55030000D03*
%TO.N,/USB/PRT_SWP1*%
X190050000Y-59020000D03*
X180680000Y-57230000D03*
%TO.N,Net-(U2-SUSP_IND{slash}LOCAL_PWR{slash}NON_REM0)*%
X180580000Y-58470000D03*
X186533833Y-61029881D03*
%TO.N,SDA*%
X107880000Y-71390000D03*
D51*
X107280000Y-66480000D03*
D52*
X110850000Y-79400000D03*
X100315000Y-79215000D03*
%TO.N,SCL*%
X148780000Y-46251751D03*
X108600000Y-69510000D03*
X135920000Y-81210000D03*
X101397995Y-78843077D03*
%TO.N,SPI3_MOSI *%
X198770000Y-44300000D03*
X150460000Y-46251751D03*
X198600000Y-80200000D03*
X195950000Y-44370000D03*
X222400000Y-77400000D03*
%TO.N,SPI3_SCK*%
X103860000Y-77820000D03*
X104610000Y-68760000D03*
X205830000Y-56630000D03*
X220110000Y-73670000D03*
%TO.N,SPI_CS_EXT*%
X192829265Y-46210738D03*
X193542566Y-86020178D03*
%TO.N,UART_TX*%
X193657107Y-85057107D03*
X179902494Y-44240000D03*
X191975000Y-46205000D03*
%TO.N,UART_RX*%
X191075000Y-46205000D03*
%TO.N,I2S_DIN*%
X72600000Y-55230000D03*
X207270000Y-36935000D03*
X195400000Y-36680000D03*
%TO.N,I2S_LRCLK*%
X75750000Y-53470000D03*
%TO.N,I2S_BCLK*%
X73920000Y-53580000D03*
X233232505Y-52625734D03*
%TO.N,OPI_USB_DP*%
X182676967Y-55600000D03*
X178280000Y-60340000D03*
%TO.N,OPI_USB_DM*%
X183750000Y-56380000D03*
%TO.N,MCP_INT*%
X112370000Y-75440000D03*
%TO.N,/USB/CFG_SEL1*%
X182295329Y-63944071D03*
X178672049Y-59530248D03*
X186675000Y-63075000D03*
%TO.N,EPAPER_CS*%
X165125913Y-49570000D03*
%TO.N,EPAPER_DC*%
X166095000Y-49590000D03*
%TO.N,EPAPER_RST*%
X171454314Y-46251751D03*
X169693801Y-49545000D03*
%TO.N,EPAPER_BUSY*%
X167070000Y-49610000D03*
%TO.N,FAN1_PWM*%
X69730000Y-80130000D03*
%TO.N,Net-(U2-LED_B3_N{slash}GANG_EN)*%
X177410000Y-60280000D03*
X175350000Y-61410000D03*
%TO.N,Net-(U1-BOOT)*%
X137180000Y-70670000D03*
X138420000Y-66780000D03*
%TO.N,Net-(U1-SW)*%
X135990000Y-66130000D03*
X135960000Y-74070000D03*
%TO.N,BUSY*%
X220110000Y-63510000D03*
%TO.N,LORA_CS*%
X206550000Y-58390000D03*
%TO.N,RESET*%
X208850000Y-58340000D03*
%TO.N,DIO1*%
X237890000Y-68590000D03*
X199895905Y-36894095D03*
%TO.N,/USB/USB2DM*%
X183403887Y-53126114D03*
%TO.N,/USB/USB2DP*%
X178488527Y-55000000D03*
%TO.N,/USB/USB3DM*%
X181450733Y-53575054D03*
X100425000Y-43338033D03*
%TO.N,/USB/USB3DP*%
X177611841Y-55000000D03*
X102350000Y-43460000D03*
%TO.N,/USB/USB4DM*%
X115400000Y-43280000D03*
X181190000Y-46330000D03*
%TO.N,/USB/USB4DP*%
X180250733Y-53346887D03*
X117420000Y-43420000D03*
X176960000Y-47280000D03*
X172760000Y-48320000D03*
%TO.N,/USB/USB5DM*%
X179451464Y-53312641D03*
X172747880Y-47520089D03*
X130450000Y-43390000D03*
X175540000Y-47281141D03*
%TO.N,/USB/USB5DP*%
X178654265Y-53245735D03*
X132355000Y-43390000D03*
%TO.N,/USB/PRT_SWP6*%
X137033000Y-61722000D03*
X164211000Y-59563000D03*
%TO.N,/USB/PRTPWR1*%
X177682230Y-59520000D03*
X164858603Y-66451397D03*
%TO.N,/USB/CFG_SEL0*%
X179094127Y-60258565D03*
X178870000Y-65740000D03*
%TO.N,/USB/VBUS_DET*%
X179737561Y-58854390D03*
X181410000Y-66290000D03*
D54*
X191950000Y-69425000D03*
D52*
%TO.N,Net-(U2-LED_B2_N{slash}BOOST1)*%
X185140000Y-61620000D03*
X190100000Y-61125000D03*
%TO.N,/USB/PRT_SWP2*%
X187187500Y-67075000D03*
X185610000Y-60940000D03*
%TO.N,Net-(U2-LED_B1_N{slash}BOOST0)*%
X178529975Y-58129975D03*
X192560000Y-62900000D03*
%TO.N,/USB/USB6DM*%
X184129826Y-58330000D03*
X197688628Y-80800000D03*
X197280000Y-58350000D03*
%TO.N,/USB/USB6DP*%
X185945328Y-57777535D03*
X178080000Y-58800000D03*
%TO.N,/USB/USB7DM*%
X179420000Y-57264184D03*
X196300000Y-57170000D03*
%TO.N,/USB/USB7DP*%
X177964258Y-56664184D03*
%TD*%
%TO.N,+5V_AUDIO*%
D56*
X131840000Y-85970000D02*
X133080000Y-87210000D01*
X131840000Y-83260000D02*
X131840000Y-85970000D01*
%TO.N,+3V3_MAIN*%
D57*
X101990000Y-89010000D02*
X101990000Y-87020000D01*
X97000000Y-89220000D02*
X101780000Y-89220000D01*
X92670000Y-84890000D02*
X97000000Y-89220000D01*
X78750000Y-78550000D02*
X85090000Y-84890000D01*
X85090000Y-84890000D02*
X92670000Y-84890000D01*
X78750000Y-68500000D02*
X78750000Y-78550000D01*
X101780000Y-89220000D02*
X101990000Y-89010000D01*
%TO.N,+5V_PERIPH*%
D56*
X76750000Y-68500000D02*
X76750000Y-80500000D01*
X76750000Y-80500000D02*
X83450000Y-87200000D01*
%TO.N,+3V3_MAIN*%
X113950000Y-55600000D02*
X112450000Y-57100000D01*
X140050000Y-55600000D02*
X113950000Y-55600000D01*
X141090000Y-56640000D02*
X140050000Y-55600000D01*
X112450000Y-57100000D02*
X112450000Y-64950000D01*
X141090000Y-58450000D02*
X141090000Y-56640000D01*
%TO.N,+5V_USB*%
X130700000Y-44290000D02*
X129580000Y-45410000D01*
X160030000Y-46360000D02*
X157960000Y-44290000D01*
X160030000Y-56850000D02*
X160030000Y-46360000D01*
X174884879Y-71704879D02*
X160030000Y-56850000D01*
X157960000Y-44290000D02*
X130700000Y-44290000D01*
X174884879Y-74500000D02*
X174884879Y-71704879D01*
X195950050Y-35780000D02*
X196180050Y-35550000D01*
X81280000Y-65050000D02*
X80610000Y-65720000D01*
X71050000Y-67090000D02*
X71050000Y-82090000D01*
X116910000Y-45410000D02*
X113660000Y-45410000D01*
X146462692Y-35780000D02*
X195950050Y-35780000D01*
X67670000Y-85470000D02*
X67670000Y-87250000D01*
X196180050Y-35550000D02*
X234480000Y-35550000D01*
X86810000Y-45410000D02*
X83090000Y-45410000D01*
X129455000Y-43780000D02*
X129965000Y-44290000D01*
X129965000Y-45025000D02*
X129965000Y-44290000D01*
X116910000Y-45410000D02*
X102460000Y-45410000D01*
X83090000Y-45410000D02*
X82800000Y-45120000D01*
X102460000Y-45410000D02*
X98940000Y-45410000D01*
X82530000Y-45410000D02*
X81280000Y-46660000D01*
X82800000Y-45120000D02*
X82800000Y-41400000D01*
X129580000Y-45410000D02*
X116910000Y-45410000D01*
X113660000Y-45410000D02*
X112900000Y-44650000D01*
X71050000Y-82090000D02*
X67670000Y-85470000D01*
X112900000Y-44650000D02*
X112900000Y-41400000D01*
X129455000Y-43780000D02*
X127950000Y-43780000D01*
X81280000Y-46660000D02*
X81280000Y-65050000D01*
X98940000Y-45410000D02*
X97850000Y-44320000D01*
X97850000Y-44320000D02*
X97850000Y-41400000D01*
X80610000Y-65720000D02*
X72420000Y-65720000D01*
X102460000Y-45410000D02*
X86810000Y-45410000D01*
X86810000Y-45410000D02*
X82530000Y-45410000D01*
X129965000Y-44290000D02*
X137952692Y-44290000D01*
X72420000Y-65720000D02*
X71050000Y-67090000D01*
X129580000Y-45410000D02*
X129965000Y-45025000D01*
X127950000Y-43780000D02*
X127950000Y-41400000D01*
X137952692Y-44290000D02*
X146462692Y-35780000D01*
%TO.N,/USB/USB1DM*%
D58*
X182560000Y-53880000D02*
X183498530Y-53880000D01*
X85300000Y-41400000D02*
X85300000Y-43170000D01*
X183498530Y-53880000D02*
X184340000Y-53038530D01*
X98830000Y-52380000D02*
X121630000Y-52380000D01*
X162580000Y-52240000D02*
X175310000Y-52240000D01*
X121630000Y-52380000D02*
X121680000Y-52330000D01*
X184340000Y-53038530D02*
X184340000Y-52402500D01*
X181579909Y-54860091D02*
X182560000Y-53880000D01*
X175310000Y-52240000D02*
X175320000Y-52230000D01*
X181579909Y-55000001D02*
X181579909Y-54860091D01*
X184340000Y-52402500D02*
X184365000Y-52377500D01*
X162560000Y-52220000D02*
X162580000Y-52240000D01*
%TO.N,/USB/USB1DP*%
X183868159Y-51378159D02*
X183868159Y-52374341D01*
X183868159Y-52374341D02*
X183865000Y-52377500D01*
X183740000Y-51250000D02*
X183868159Y-51378159D01*
X87300000Y-41400000D02*
X87300000Y-43110000D01*
%TO.N,GND*%
X190620000Y-49290000D02*
X190620000Y-50420000D01*
X188600000Y-57970000D02*
X188537500Y-58032500D01*
X178280000Y-64670000D02*
X177800000Y-65150000D01*
X182400000Y-47540000D02*
X182370000Y-47510000D01*
X189410000Y-53740000D02*
X190000000Y-53740000D01*
X182235256Y-65635256D02*
X183400000Y-66800000D01*
X125440000Y-87210000D02*
X125280000Y-87050000D01*
X146560000Y-78000000D02*
X146560000Y-79330000D01*
X145020000Y-75880000D02*
X146200000Y-75880000D01*
X77150000Y-66870000D02*
X77750000Y-67470000D01*
X232025000Y-55200000D02*
X232075000Y-55250000D01*
X190000000Y-53740000D02*
X190040000Y-53700000D01*
X133960000Y-67250000D02*
X134862500Y-67250000D01*
X172600000Y-56575000D02*
X171465000Y-56575000D01*
X234200000Y-55000000D02*
X234450000Y-54750000D01*
X67370000Y-76780000D02*
X68440000Y-76780000D01*
X191925000Y-61125000D02*
X191925000Y-60100000D01*
X174200000Y-50550000D02*
X173040000Y-50550000D01*
X162485000Y-71475000D02*
X162440000Y-71430000D01*
X188537500Y-58032500D02*
X188537500Y-59175000D01*
X114680000Y-64950000D02*
X114260000Y-64530000D01*
X156690000Y-53270000D02*
X156690000Y-54360000D01*
X106000000Y-78180000D02*
X106020000Y-78200000D01*
X72570000Y-56260000D02*
X72560000Y-56250000D01*
X132250000Y-74360000D02*
X132220000Y-74390000D01*
X188487500Y-61150000D02*
X188487500Y-61247500D01*
X110550000Y-64950000D02*
X109420000Y-64950000D01*
X190645000Y-49265000D02*
X190620000Y-49290000D01*
X248570000Y-76600000D02*
X248570000Y-77900000D01*
X188600000Y-56470251D02*
X188600000Y-56575000D01*
X68440000Y-76780000D02*
X68470000Y-76750000D01*
X185150000Y-65125000D02*
X185150000Y-63100000D01*
X171465000Y-56575000D02*
X171450000Y-56590000D01*
X163812500Y-71475000D02*
X162485000Y-71475000D01*
X119940000Y-41360000D02*
X119900000Y-41400000D01*
X133740000Y-67590000D02*
X133740000Y-67470000D01*
X157340000Y-85690000D02*
X157340000Y-86120000D01*
X190650000Y-52640000D02*
X190650000Y-52690000D01*
X179760000Y-66515000D02*
X181400000Y-64875000D01*
X183400000Y-66800000D02*
X185087500Y-66800000D01*
X160020000Y-69492500D02*
X160037500Y-69475000D01*
X173270000Y-65150000D02*
X174400000Y-65150000D01*
X109420000Y-64950000D02*
X109400000Y-64930000D01*
X106000000Y-76550000D02*
X106000000Y-78180000D01*
X133740000Y-67470000D02*
X133960000Y-67250000D01*
X175472616Y-54065000D02*
X176177500Y-54065000D01*
X157340000Y-86120000D02*
X156700000Y-86760000D01*
X69750000Y-75940000D02*
X69760000Y-75930000D01*
X77640000Y-61560000D02*
X77320000Y-61560000D01*
X80260000Y-66750000D02*
X79750000Y-67260000D01*
D56*
X172570000Y-87930000D02*
X171750000Y-87930000D01*
D58*
X181400000Y-64875000D02*
X181905256Y-65380256D01*
X185362500Y-65337500D02*
X185150000Y-65125000D01*
X231800000Y-54400000D02*
X231670000Y-54530000D01*
X156700000Y-86760000D02*
X156505000Y-86760000D01*
X152960000Y-73930000D02*
X154300000Y-72590000D01*
X232075000Y-55250000D02*
X232750000Y-55250000D01*
X154690000Y-54360000D02*
X154670000Y-54380000D01*
X190630000Y-52620000D02*
X190650000Y-52640000D01*
X188500000Y-63075000D02*
X189465000Y-63075000D01*
X74790000Y-56260000D02*
X75040000Y-56010000D01*
X134930000Y-39970000D02*
X134930000Y-41380000D01*
X190425000Y-54675000D02*
X191665000Y-54675000D01*
X177574258Y-48900742D02*
X177775000Y-48700000D01*
X133680000Y-68450000D02*
X133680000Y-68301442D01*
X185087500Y-66800000D02*
X185362500Y-67075000D01*
X177574258Y-49190000D02*
X177574258Y-48900742D01*
X79750000Y-67260000D02*
X79750000Y-68500000D01*
X192950000Y-60100000D02*
X193010000Y-60040000D01*
D56*
X171750000Y-87930000D02*
X171610000Y-87790000D01*
D58*
X154690000Y-53270000D02*
X154690000Y-54360000D01*
X185362500Y-67075000D02*
X185362500Y-65337500D01*
X179800000Y-47590000D02*
X179750000Y-47540000D01*
X115567500Y-64950000D02*
X114680000Y-64950000D01*
X77750000Y-67470000D02*
X77750000Y-68500000D01*
X132250000Y-73200000D02*
X132250000Y-74360000D01*
X191925000Y-59200000D02*
X191875000Y-59150000D01*
X146560000Y-79330000D02*
X146550000Y-79340000D01*
X191020000Y-65080000D02*
X191370000Y-64730000D01*
X174400000Y-65540000D02*
X174400000Y-65150000D01*
X231800000Y-54400000D02*
X232025000Y-54625000D01*
X190645000Y-50445000D02*
X190620000Y-50420000D01*
X188600000Y-54550000D02*
X189410000Y-53740000D01*
X74790000Y-54560000D02*
X74790000Y-53530000D01*
X89860000Y-40000000D02*
X89860000Y-41340000D01*
X74790000Y-55760000D02*
X75040000Y-56010000D01*
X169412500Y-61990000D02*
X169412500Y-60650000D01*
X190650000Y-52690000D02*
X191700000Y-53740000D01*
X107270000Y-75580000D02*
X107270000Y-76550000D01*
X179800000Y-48650000D02*
X179800000Y-47590000D01*
X232025000Y-54625000D02*
X232025000Y-55200000D01*
X141190000Y-71030000D02*
X141190000Y-70027500D01*
X69750000Y-77100000D02*
X69750000Y-75940000D01*
X145850000Y-62250000D02*
X145860000Y-62260000D01*
X108910000Y-75130000D02*
X108540000Y-75500000D01*
X95750000Y-68500000D02*
X95750000Y-66660000D01*
X77520000Y-55760000D02*
X77530000Y-55770000D01*
X185000000Y-47970000D02*
X185010000Y-47960000D01*
X104840000Y-41390000D02*
X104850000Y-41400000D01*
X189465000Y-63075000D02*
X189740000Y-63350000D01*
X234450000Y-54750000D02*
X235650000Y-54750000D01*
X73590000Y-56260000D02*
X74790000Y-56260000D01*
X77320000Y-61560000D02*
X76570000Y-60810000D01*
X156690000Y-54360000D02*
X156670000Y-54380000D01*
X133680000Y-68301442D02*
X133603558Y-68225000D01*
X171475000Y-58575000D02*
X172600000Y-58575000D01*
X235650000Y-54750000D02*
X236640000Y-54750000D01*
X173422379Y-83945000D02*
X174525000Y-83945000D01*
X94750000Y-66630000D02*
X94760000Y-66620000D01*
X191925000Y-60100000D02*
X191925000Y-59200000D01*
X110550000Y-64950000D02*
X110550000Y-66720000D01*
X236640000Y-54750000D02*
X236690000Y-54800000D01*
X134930000Y-41380000D02*
X134950000Y-41400000D01*
X156650000Y-84625000D02*
X156485000Y-84790000D01*
X89860000Y-41340000D02*
X89800000Y-41400000D01*
X182400000Y-48600000D02*
X182400000Y-47540000D01*
X174525000Y-83945000D02*
X174540000Y-83930000D01*
X188600000Y-54590000D02*
X188600000Y-54550000D01*
X156650000Y-83420000D02*
X156650000Y-84625000D01*
X127680000Y-87210000D02*
X125440000Y-87210000D01*
X234000000Y-52400000D02*
X233920000Y-52480000D01*
X74790000Y-54560000D02*
X74790000Y-55760000D01*
X94750000Y-68500000D02*
X94750000Y-66630000D01*
X181910256Y-65380256D02*
X182165256Y-65635256D01*
X191665000Y-54675000D02*
X191780000Y-54790000D01*
X246440000Y-80680000D02*
X247830000Y-80680000D01*
X104840000Y-39850000D02*
X104840000Y-41390000D01*
X73590000Y-56260000D02*
X72570000Y-56260000D01*
X174400000Y-63262500D02*
X174362500Y-63225000D01*
X154300000Y-72590000D02*
X154870000Y-72590000D01*
X183400000Y-66800000D02*
X183325000Y-66800000D01*
X110550000Y-66720000D02*
X111080000Y-67250000D01*
X234000000Y-53500000D02*
X233950000Y-53550000D01*
X188487500Y-61247500D02*
X189830000Y-62590000D01*
X108540000Y-75500000D02*
X108540000Y-76550000D01*
X95750000Y-66660000D02*
X95720000Y-66630000D01*
X76490000Y-55760000D02*
X77520000Y-55760000D01*
X181905256Y-65380256D02*
X181910256Y-65380256D01*
X133603558Y-68225000D02*
X132750000Y-68225000D01*
X74580000Y-61120000D02*
X74580000Y-60800000D01*
X144475000Y-62250000D02*
X145850000Y-62250000D01*
X188525000Y-65050000D02*
X188555000Y-65080000D01*
X173040000Y-50550000D02*
X172990000Y-50500000D01*
X188600000Y-56470251D02*
X188600000Y-57970000D01*
X247830000Y-80680000D02*
X247840000Y-80670000D01*
X107680000Y-75170000D02*
X107270000Y-75580000D01*
X141190000Y-70027500D02*
X141162500Y-70000000D01*
X119940000Y-39840000D02*
X119940000Y-41360000D01*
X74790000Y-53530000D02*
X74770000Y-53510000D01*
X179760000Y-66640000D02*
X179760000Y-66515000D01*
X76490000Y-55760000D02*
X75290000Y-55760000D01*
X186950000Y-49780000D02*
X186940000Y-49770000D01*
X186950000Y-50900000D02*
X186950000Y-49780000D01*
X182165256Y-65635256D02*
X182235256Y-65635256D01*
X178575000Y-64670000D02*
X178280000Y-64670000D01*
X234000000Y-52400000D02*
X234000000Y-53500000D01*
X173260000Y-63225000D02*
X174362500Y-63225000D01*
X185000000Y-49087500D02*
X185000000Y-47970000D01*
X190645000Y-49085000D02*
X190645000Y-49265000D01*
X75290000Y-55760000D02*
X75040000Y-56010000D01*
X73910000Y-61790000D02*
X74580000Y-61120000D01*
X191925000Y-60100000D02*
X192950000Y-60100000D01*
X188555000Y-65080000D02*
X191020000Y-65080000D01*
X160020000Y-70560000D02*
X160020000Y-69492500D01*
X144475000Y-65000000D02*
X145860000Y-65000000D01*
%TO.N,+5V_PERIPH*%
D56*
X96950000Y-87020000D02*
X99450000Y-87020000D01*
X154585000Y-84790000D02*
X152960000Y-83165000D01*
X161430000Y-76440000D02*
X163102379Y-76440000D01*
X164450000Y-87990000D02*
X165575000Y-89115000D01*
X158410000Y-79480000D02*
X158410000Y-79460000D01*
X153790000Y-85840000D02*
X154605000Y-86655000D01*
X96670000Y-86740000D02*
X96950000Y-87020000D01*
X158410000Y-79460000D02*
X161430000Y-76440000D01*
X152960000Y-83165000D02*
X152960000Y-81130000D01*
X154605000Y-86655000D02*
X154605000Y-86760000D01*
X165575000Y-89115000D02*
X176855000Y-89115000D01*
X163102379Y-76440000D02*
X163547379Y-75995000D01*
X152960000Y-81130000D02*
X156760000Y-81130000D01*
X153535000Y-85840000D02*
X154585000Y-84790000D01*
X152880000Y-85840000D02*
X153790000Y-85840000D01*
X176855000Y-89115000D02*
X177700000Y-88270000D01*
X164450000Y-86780000D02*
X164450000Y-87990000D01*
X96620000Y-80270000D02*
X96670000Y-80320000D01*
X96670000Y-80320000D02*
X96670000Y-86740000D01*
X156760000Y-81130000D02*
X158410000Y-79480000D01*
X152880000Y-85840000D02*
X153535000Y-85840000D01*
X177700000Y-88270000D02*
X177700000Y-87480000D01*
%TO.N,/USB/RBIAS*%
D58*
X184379216Y-53565000D02*
X185052500Y-53565000D01*
X184220000Y-50860000D02*
X184947500Y-50860000D01*
X183664216Y-54280000D02*
X184379216Y-53565000D01*
X177892780Y-55800000D02*
X181628439Y-55800000D01*
X184947500Y-50860000D02*
X185000000Y-50912500D01*
X183760000Y-50400000D02*
X184220000Y-50860000D01*
X177796390Y-55703610D02*
X177892780Y-55800000D01*
X181628439Y-55800000D02*
X183148439Y-54280000D01*
X183148439Y-54280000D02*
X183664216Y-54280000D01*
X177085082Y-55703610D02*
X177796390Y-55703610D01*
%TO.N,+5V_MAIN*%
D59*
X130850000Y-68225000D02*
X130850000Y-68850000D01*
X148605000Y-86945000D02*
X148605000Y-85840000D01*
X130850000Y-68850000D02*
X132250000Y-70250000D01*
X147950000Y-88240000D02*
X157435000Y-88240000D01*
X146530000Y-86820000D02*
X146860000Y-87150000D01*
D56*
X140230000Y-76570000D02*
X140200000Y-76600000D01*
D57*
X134862500Y-69150000D02*
X135551606Y-69150000D01*
X136501606Y-68200000D02*
X137137500Y-68200000D01*
X135551606Y-69150000D02*
X136501606Y-68200000D01*
D59*
X141000000Y-83750000D02*
X141000000Y-78810000D01*
D56*
X140200000Y-76600000D02*
X140200000Y-78010000D01*
D59*
X146200000Y-87150000D02*
X145627500Y-87150000D01*
D56*
X140200000Y-78010000D02*
X141000000Y-78810000D01*
D59*
X158402500Y-87272500D02*
X158402500Y-83980000D01*
X146530000Y-86820000D02*
X146200000Y-87150000D01*
X133812500Y-70250000D02*
X134862500Y-69200000D01*
X145627500Y-87150000D02*
X145537500Y-87240000D01*
X146530000Y-86820000D02*
X147950000Y-88240000D01*
X132250000Y-70250000D02*
X133812500Y-70250000D01*
D56*
X137900000Y-68200000D02*
X137970000Y-68270000D01*
X137137500Y-68200000D02*
X137900000Y-68200000D01*
D59*
X148400000Y-87150000D02*
X148605000Y-86945000D01*
X146860000Y-87150000D02*
X148400000Y-87150000D01*
X157435000Y-88240000D02*
X158402500Y-87272500D01*
%TO.N,+5V_AUDIO*%
D56*
X74580000Y-58900000D02*
X75305000Y-58900000D01*
X235400000Y-56925000D02*
X234950000Y-56475000D01*
X137690000Y-88230000D02*
X137690000Y-88037500D01*
X74580000Y-58900000D02*
X76560000Y-58900000D01*
X137690000Y-88037500D02*
X138487500Y-87240000D01*
X138487500Y-87240000D02*
X141262500Y-87240000D01*
X233440000Y-57990000D02*
X234185000Y-57990000D01*
X73050000Y-58930000D02*
X74550000Y-58930000D01*
X74550000Y-58930000D02*
X74580000Y-58900000D01*
X134100000Y-88230000D02*
X133080000Y-87210000D01*
X138487500Y-87240000D02*
X137497500Y-88230000D01*
X233230000Y-58200000D02*
X233440000Y-57990000D01*
X234185000Y-57990000D02*
X234700000Y-57475000D01*
X75540000Y-58665000D02*
X75540000Y-57460000D01*
X235390000Y-57990000D02*
X235400000Y-58000000D01*
X75305000Y-58900000D02*
X75540000Y-58665000D01*
X137990000Y-88530000D02*
X137690000Y-88230000D01*
X233440000Y-57990000D02*
X235390000Y-57990000D01*
X137497500Y-88230000D02*
X134100000Y-88230000D01*
X235400000Y-58000000D02*
X235400000Y-56925000D01*
X234700000Y-57475000D02*
X234700000Y-56450000D01*
X231400000Y-58200000D02*
X233230000Y-58200000D01*
X76560000Y-58900000D02*
X76570000Y-58910000D01*
%TO.N,+5V_PPROTECTED*%
X170322379Y-75995000D02*
X172464879Y-75995000D01*
X169375000Y-70500000D02*
X169375000Y-71225000D01*
X168715000Y-75995000D02*
X170322379Y-75995000D01*
X172464879Y-75995000D02*
X173009879Y-75450000D01*
X169375000Y-71225000D02*
X169940000Y-71790000D01*
X168590000Y-75870000D02*
X168715000Y-75995000D01*
%TO.N,/USB/Q1-PIN1*%
D58*
X170020000Y-72970000D02*
X167550000Y-70500000D01*
X172429879Y-72970000D02*
X170020000Y-72970000D01*
X173009879Y-73550000D02*
X172429879Y-72970000D01*
X165687500Y-70525000D02*
X167525000Y-70525000D01*
X167525000Y-70525000D02*
X167550000Y-70500000D01*
%TO.N,Net-(Q2-G)*%
X163812500Y-69575000D02*
X161962500Y-69575000D01*
X161962500Y-69575000D02*
X161862500Y-69475000D01*
X163600000Y-67962500D02*
X163600000Y-69362500D01*
X163600000Y-69362500D02*
X163812500Y-69575000D01*
%TO.N,/USB/VDD18PLL*%
X186700000Y-54590000D02*
X186175000Y-54065000D01*
X186175000Y-54065000D02*
X185052500Y-54065000D01*
%TO.N,+3V3_MAIN*%
D60*
X172825000Y-61460000D02*
X172825000Y-61325000D01*
D56*
X142650000Y-72000000D02*
X139750000Y-72000000D01*
D58*
X156580000Y-51260000D02*
X156690000Y-51370000D01*
D57*
X112350000Y-71270000D02*
X112350000Y-68274999D01*
X124340000Y-72060000D02*
X123660000Y-71380000D01*
X112460000Y-71380000D02*
X112415000Y-71335000D01*
D60*
X187537500Y-59220000D02*
X186682500Y-59220000D01*
D57*
X112415000Y-71335000D02*
X112350000Y-71270000D01*
X123370000Y-89220000D02*
X124340000Y-88250000D01*
D60*
X185701518Y-56575000D02*
X185691518Y-56565000D01*
D58*
X72960000Y-57600000D02*
X72960000Y-57390000D01*
D57*
X108040000Y-78360000D02*
X108040000Y-78755000D01*
D56*
X143350000Y-71300000D02*
X142650000Y-72000000D01*
D60*
X229287500Y-58232500D02*
X229287500Y-55600000D01*
X183240000Y-64200000D02*
X183150000Y-64290000D01*
D57*
X124340000Y-88250000D02*
X124340000Y-72060000D01*
D60*
X190962501Y-58322829D02*
X190370000Y-57730328D01*
X179800000Y-51673482D02*
X179865000Y-51738482D01*
X182365000Y-51738482D02*
X182365000Y-50743528D01*
D56*
X141525000Y-65000000D02*
X141525000Y-62250000D01*
D60*
X186850000Y-52800000D02*
X186660000Y-52990000D01*
D56*
X141090000Y-58450000D02*
X141090000Y-61815000D01*
X141742793Y-68000000D02*
X143350000Y-69607207D01*
D57*
X108040000Y-78755000D02*
X107665000Y-79130000D01*
D60*
X229090000Y-63510000D02*
X237890000Y-63510000D01*
X178575000Y-63194071D02*
X177768429Y-63194071D01*
D57*
X101990000Y-87020000D02*
X101990000Y-89100000D01*
D60*
X186700000Y-56575000D02*
X185701518Y-56575000D01*
X185801518Y-59175000D02*
X185691518Y-59065000D01*
D61*
X174510000Y-56565000D02*
X174500000Y-56575000D01*
D60*
X158110000Y-51370000D02*
X158120000Y-51360000D01*
X183250000Y-62675000D02*
X183240000Y-62665000D01*
X228380000Y-62800000D02*
X229090000Y-63510000D01*
X190370000Y-57730328D02*
X190370000Y-56630000D01*
D58*
X183390000Y-61227500D02*
X183365000Y-61252500D01*
D56*
X141525000Y-65000000D02*
X141525000Y-67637500D01*
D57*
X101990000Y-89100000D02*
X102110000Y-89220000D01*
D60*
X186660000Y-52990000D02*
X185052500Y-52990000D01*
X156690000Y-51370000D02*
X158110000Y-51370000D01*
D56*
X143350000Y-69607207D02*
X143350000Y-71300000D01*
D57*
X102110000Y-89220000D02*
X123370000Y-89220000D01*
D56*
X112450000Y-64950000D02*
X112450000Y-67150000D01*
D58*
X183390000Y-60436400D02*
X183390000Y-61227500D01*
D60*
X183240000Y-62665000D02*
X183240000Y-64200000D01*
X179626411Y-49650000D02*
X179626411Y-50376411D01*
X186682500Y-59220000D02*
X186637500Y-59175000D01*
D61*
X174500000Y-56575000D02*
X175599194Y-56575000D01*
D60*
X186637500Y-59175000D02*
X185801518Y-59175000D01*
X151250000Y-51260000D02*
X156580000Y-51260000D01*
D56*
X141090000Y-61815000D02*
X141525000Y-62250000D01*
D60*
X228380000Y-59140000D02*
X229287500Y-58232500D01*
X177768429Y-63194071D02*
X177762500Y-63200000D01*
X186950000Y-52800000D02*
X186850000Y-52800000D01*
D56*
X141162500Y-68000000D02*
X141742793Y-68000000D01*
D60*
X187537500Y-57412500D02*
X186700000Y-56575000D01*
D56*
X78750000Y-66920001D02*
X78750000Y-68500000D01*
D60*
X228380000Y-59140000D02*
X228380000Y-62800000D01*
X190370000Y-56630000D02*
X190425000Y-56575000D01*
D56*
X78550000Y-66720001D02*
X78750000Y-66920001D01*
D58*
X72960000Y-57390000D02*
X73590000Y-56760000D01*
D60*
X179800000Y-50550000D02*
X179800000Y-51673482D01*
X179626411Y-50376411D02*
X179800000Y-50550000D01*
X187537500Y-59220000D02*
X187537500Y-57412500D01*
D56*
X112350000Y-67250000D02*
X112350000Y-68274999D01*
D60*
X182365000Y-50743528D02*
X182260000Y-50638528D01*
D56*
X141090000Y-58450000D02*
X141090000Y-58860000D01*
D57*
X123660000Y-71380000D02*
X112460000Y-71380000D01*
D56*
X141525000Y-67637500D02*
X141162500Y-68000000D01*
D58*
X182223600Y-59270000D02*
X183390000Y-60436400D01*
D61*
X175599194Y-56575000D02*
X175609194Y-56565000D01*
D56*
X112450000Y-67150000D02*
X112350000Y-67250000D01*
%TO.N,/USB/RESET_N*%
D58*
X181865000Y-61679386D02*
X181865000Y-61252500D01*
X181400000Y-62144386D02*
X181865000Y-61679386D01*
X181175000Y-63200000D02*
X181400000Y-62975000D01*
X179587500Y-63200000D02*
X181175000Y-63200000D01*
X181400000Y-62975000D02*
X181400000Y-62144386D01*
%TO.N,/USB/PRT_SWP3*%
X183860000Y-61247500D02*
X183865000Y-61252500D01*
X182472129Y-58670000D02*
X183860000Y-60057871D01*
X183860000Y-60057871D02*
X183860000Y-61247500D01*
X181654972Y-58670000D02*
X182472129Y-58670000D01*
X181454972Y-58870000D02*
X181654972Y-58670000D01*
X186587500Y-65050000D02*
X186700000Y-65050000D01*
%TO.N,+5V_OPI*%
D56*
X165890000Y-85480000D02*
X166190000Y-85780000D01*
X162677500Y-83980000D02*
X165780000Y-83980000D01*
X169610000Y-87690000D02*
X165970000Y-87690000D01*
X165890000Y-83870000D02*
X165890000Y-85480000D01*
X170980000Y-85780000D02*
X171522379Y-85237621D01*
D57*
X159354440Y-39435560D02*
X161622494Y-39435560D01*
X159105200Y-44162408D02*
X159105200Y-39684800D01*
X161622494Y-39435560D02*
X164162494Y-39435560D01*
D56*
X166190000Y-85780000D02*
X170980000Y-85780000D01*
D57*
X162020000Y-53140000D02*
X160930000Y-52050000D01*
D56*
X165970000Y-87690000D02*
X165890000Y-87610000D01*
D57*
X160930000Y-45987208D02*
X159105200Y-44162408D01*
X160930000Y-52050000D02*
X160930000Y-45987208D01*
D56*
X171522379Y-85237621D02*
X171522379Y-83945000D01*
X165890000Y-87610000D02*
X165890000Y-83870000D01*
D57*
X165740000Y-53140000D02*
X162020000Y-53140000D01*
D56*
X169710000Y-87790000D02*
X169610000Y-87690000D01*
D57*
X159105200Y-39684800D02*
X159354440Y-39435560D01*
D56*
X165780000Y-83980000D02*
X165890000Y-83870000D01*
%TO.N,/USB/XTAL1{slash}CLKIN*%
D58*
X192375000Y-49795000D02*
X192300000Y-49720000D01*
X184210000Y-54620000D02*
X184997500Y-54620000D01*
X194475000Y-50975000D02*
X192587500Y-50975000D01*
X188590000Y-48920000D02*
X188550000Y-48960000D01*
X184997500Y-54620000D02*
X185052500Y-54565000D01*
X192375000Y-50762500D02*
X192375000Y-49795000D01*
X192300000Y-49720000D02*
X191770000Y-49720000D01*
X192587500Y-50975000D02*
X192375000Y-50762500D01*
X188550000Y-50250000D02*
X188720000Y-50420000D01*
X188550000Y-48960000D02*
X188550000Y-50250000D01*
%TO.N,/USB/XTAL2*%
X188950000Y-51500000D02*
X188730000Y-51720000D01*
X194270000Y-52580000D02*
X192382500Y-52580000D01*
X183340000Y-55030000D02*
X183557707Y-55247707D01*
X184377221Y-55247707D02*
X184384929Y-55240000D01*
X184625614Y-55065000D02*
X185052500Y-55065000D01*
X184450614Y-55240000D02*
X184625614Y-55065000D01*
X192382500Y-52580000D02*
X192375000Y-52587500D01*
X191287500Y-51500000D02*
X188950000Y-51500000D01*
X183557707Y-55247707D02*
X184377221Y-55247707D01*
X194475000Y-52375000D02*
X194270000Y-52580000D01*
X184384929Y-55240000D02*
X184450614Y-55240000D01*
X192375000Y-52587500D02*
X191287500Y-51500000D01*
X188730000Y-51720000D02*
X188730000Y-52620000D01*
%TO.N,/USB/PRT_SWP1*%
X182163499Y-57230000D02*
X184498499Y-59565000D01*
X180680000Y-57230000D02*
X182163499Y-57230000D01*
X184498499Y-59565000D02*
X185052500Y-59565000D01*
%TO.N,Net-(U2-SUSP_IND{slash}LOCAL_PWR{slash}NON_REM0)*%
X180580000Y-58470000D02*
X180580000Y-58840000D01*
X182690000Y-60590000D02*
X182865000Y-60765000D01*
X182690000Y-60584929D02*
X182690000Y-60590000D01*
X180936444Y-59200000D02*
X181406444Y-59670000D01*
X182865000Y-60765000D02*
X182865000Y-61252500D01*
X181775072Y-59670000D02*
X182690000Y-60584929D01*
X181406444Y-59670000D02*
X181775072Y-59670000D01*
X180580000Y-58840000D02*
X180936444Y-59196444D01*
X180936444Y-59196444D02*
X180936444Y-59200000D01*
%TO.N,Net-(U5-~{SD_MODE})*%
X231262500Y-55750000D02*
X232725000Y-55750000D01*
X231112500Y-55600000D02*
X231262500Y-55750000D01*
%TO.N,/power/FB*%
X137987500Y-70000000D02*
X137137500Y-69150000D01*
X139337500Y-70000000D02*
X137987500Y-70000000D01*
X139337500Y-70512500D02*
X139337500Y-70000000D01*
X137850000Y-72000000D02*
X139337500Y-70512500D01*
X139337500Y-68000000D02*
X139337500Y-70000000D01*
%TO.N,SDA*%
X107880000Y-71390000D02*
X107270000Y-70780000D01*
X103320000Y-85810000D02*
X103320000Y-80880000D01*
X104530000Y-87020000D02*
X103320000Y-85810000D01*
X99990000Y-78890000D02*
X89950000Y-78890000D01*
X101883077Y-79443077D02*
X100543077Y-79443077D01*
X89950000Y-78890000D02*
X80750000Y-69690000D01*
X103320000Y-80880000D02*
X101883077Y-79443077D01*
X100543077Y-79443077D02*
X99990000Y-78890000D01*
X107270000Y-70780000D02*
X107270000Y-67250000D01*
X80750000Y-69690000D02*
X80750000Y-68500000D01*
%TO.N,SCL*%
X102540686Y-78992058D02*
X101307942Y-78992058D01*
X104550000Y-84460000D02*
X104550000Y-81001372D01*
X101397995Y-78902005D02*
X101397995Y-78843077D01*
X100805884Y-78490000D02*
X90830000Y-78490000D01*
X108600000Y-69510000D02*
X108560000Y-69470000D01*
X108560000Y-67270000D02*
X108540000Y-67250000D01*
X135920000Y-79719950D02*
X135920000Y-81210000D01*
X90830000Y-78490000D02*
X82145000Y-69805000D01*
X82145000Y-68895000D02*
X81750000Y-68500000D01*
X148780000Y-46251751D02*
X148780000Y-66859950D01*
X101307942Y-78992058D02*
X100805884Y-78490000D01*
X101307942Y-78992058D02*
X101397995Y-78902005D01*
X104550000Y-81001372D02*
X102540686Y-78992058D01*
X108560000Y-69470000D02*
X108560000Y-67270000D01*
X82145000Y-69805000D02*
X82145000Y-68895000D01*
X104530000Y-84480000D02*
X104550000Y-84460000D01*
X148780000Y-66859950D02*
X135920000Y-79719950D01*
%TO.N,SPI3_MOSI *%
X198600000Y-80200000D02*
X198600000Y-63190000D01*
X150020000Y-56340000D02*
X151250000Y-56340000D01*
X185310000Y-44370000D02*
X184482494Y-43542494D01*
X184482494Y-43542494D02*
X184482494Y-41975560D01*
X105800000Y-85750000D02*
X107070000Y-87020000D01*
X220110000Y-71130000D02*
X221550000Y-72570000D01*
X82750000Y-69405000D02*
X91435000Y-78090000D01*
X150460000Y-46490000D02*
X149450000Y-47500000D01*
X102204314Y-78090000D02*
X105800000Y-81685686D01*
X149450000Y-55770000D02*
X150020000Y-56340000D01*
X221810000Y-72570000D02*
X222400000Y-73160000D01*
X150460000Y-46251751D02*
X150460000Y-46490000D01*
X82750000Y-68500000D02*
X82750000Y-69405000D01*
X91435000Y-78090000D02*
X102204314Y-78090000D01*
X195950000Y-44370000D02*
X185310000Y-44370000D01*
X198600000Y-63190000D02*
X198770000Y-63020000D01*
X198770000Y-63020000D02*
X198770000Y-44300000D01*
X221550000Y-72570000D02*
X221810000Y-72570000D01*
X105800000Y-81685686D02*
X105800000Y-85750000D01*
X222400000Y-73160000D02*
X222400000Y-77400000D01*
X149450000Y-47500000D02*
X149450000Y-55770000D01*
%TO.N,SPI3_MISO*%
X214160000Y-68590000D02*
X220110000Y-68590000D01*
X200198840Y-40825560D02*
X188172494Y-40825560D01*
X201041000Y-50836785D02*
X201041000Y-41667720D01*
X207550000Y-57345785D02*
X201041000Y-50836785D01*
X107090000Y-82410000D02*
X102370000Y-77690000D01*
X83750000Y-69405000D02*
X83750000Y-68500000D01*
X214160000Y-68590000D02*
X207550000Y-61980000D01*
X188172494Y-40825560D02*
X187022494Y-41975560D01*
X102370000Y-77690000D02*
X92035000Y-77690000D01*
X92035000Y-77690000D02*
X83750000Y-69405000D01*
X207550000Y-61980000D02*
X207550000Y-57345785D01*
X107090000Y-84460000D02*
X107090000Y-82410000D01*
X107070000Y-84480000D02*
X107090000Y-84460000D01*
X201041000Y-41667720D02*
X200198840Y-40825560D01*
%TO.N,SPI3_SCK*%
X103860000Y-77790000D02*
X103360000Y-77290000D01*
X84750000Y-69405000D02*
X92635000Y-77290000D01*
X207070000Y-58718529D02*
X207070000Y-66580000D01*
X206460000Y-57260000D02*
X206485000Y-57260000D01*
X207070000Y-66580000D02*
X214160000Y-73670000D01*
X205830000Y-56630000D02*
X206460000Y-57260000D01*
X84750000Y-68500000D02*
X84750000Y-69405000D01*
X207150000Y-57925000D02*
X207150000Y-58638529D01*
X108410000Y-83135587D02*
X108410000Y-85820000D01*
X108410000Y-85820000D02*
X109610000Y-87020000D01*
X206485000Y-57260000D02*
X207150000Y-57925000D01*
X92635000Y-77290000D02*
X102564413Y-77290000D01*
X214160000Y-73670000D02*
X220110000Y-73670000D01*
X103860000Y-77820000D02*
X103860000Y-77790000D01*
X102564413Y-77290000D02*
X108410000Y-83135587D01*
X103360000Y-77290000D02*
X102564413Y-77290000D01*
X207150000Y-58638529D02*
X207070000Y-58718529D01*
%TO.N,SPI_CS_EXT*%
X104510000Y-76890000D02*
X104510000Y-78669901D01*
X109630000Y-84460000D02*
X109610000Y-84480000D01*
X106770101Y-80930000D02*
X107754314Y-80930000D01*
X93020000Y-76890000D02*
X104510000Y-76890000D01*
X107754314Y-80930000D02*
X109630000Y-82805686D01*
X85750000Y-69620000D02*
X93020000Y-76890000D01*
X85750000Y-68500000D02*
X85750000Y-69620000D01*
X104510000Y-78669901D02*
X106770101Y-80930000D01*
X109630000Y-82805686D02*
X109630000Y-84460000D01*
%TO.N,UART_TX*%
X86750000Y-69620000D02*
X93620000Y-76490000D01*
X194212893Y-85057107D02*
X195700000Y-83570000D01*
X195700000Y-53412648D02*
X196275000Y-52837648D01*
X110920000Y-85790000D02*
X112150000Y-87020000D01*
X107920000Y-80530000D02*
X110920000Y-83530000D01*
X106935786Y-80530000D02*
X107920000Y-80530000D01*
X104910000Y-78504215D02*
X106935786Y-80530000D01*
X110920000Y-83530000D02*
X110920000Y-85790000D01*
X193657107Y-85057107D02*
X194212893Y-85057107D01*
X196275000Y-50512352D02*
X194400000Y-48637352D01*
X93620000Y-76490000D02*
X104910000Y-76490000D01*
X196275000Y-52837648D02*
X196275000Y-50512352D01*
X195700000Y-83570000D02*
X195700000Y-53412648D01*
X194400000Y-48630000D02*
X191975000Y-46205000D01*
X86750000Y-68500000D02*
X86750000Y-69620000D01*
X194400000Y-48637352D02*
X194400000Y-48630000D01*
X104910000Y-76490000D02*
X104910000Y-78504215D01*
%TO.N,UART_RX*%
X105310000Y-78338529D02*
X107101471Y-80130000D01*
X107101471Y-80130000D02*
X108090000Y-80130000D01*
X112170000Y-84210000D02*
X112170000Y-84460000D01*
X87750000Y-69580000D02*
X94260000Y-76090000D01*
X112170000Y-84460000D02*
X112150000Y-84480000D01*
X87750000Y-68500000D02*
X87750000Y-69580000D01*
X108090000Y-80130000D02*
X112170000Y-84210000D01*
X94260000Y-76090000D02*
X105310000Y-76090000D01*
X105310000Y-76090000D02*
X105310000Y-78338529D01*
%TO.N,GPIO_EXT1*%
X113620000Y-75200000D02*
X113620000Y-76550000D01*
X114690000Y-87020000D02*
X113440000Y-85770000D01*
X94670000Y-75690000D02*
X105194452Y-75690000D01*
X88750000Y-69770000D02*
X94670000Y-75690000D01*
X113440000Y-76730000D02*
X113620000Y-76550000D01*
X106574452Y-74310000D02*
X112730000Y-74310000D01*
X105194452Y-75690000D02*
X106574452Y-74310000D01*
X113440000Y-85770000D02*
X113440000Y-76730000D01*
X88750000Y-68500000D02*
X88750000Y-69770000D01*
X112730000Y-74310000D02*
X113620000Y-75200000D01*
%TO.N,GPIO_EXT2*%
X89750000Y-70124314D02*
X94915688Y-75290000D01*
X114890000Y-75260000D02*
X114890000Y-76550000D01*
X114710000Y-76730000D02*
X114890000Y-76550000D01*
X94915688Y-75290000D02*
X105028766Y-75290000D01*
X89750000Y-68500000D02*
X89750000Y-70124314D01*
X113540000Y-73910000D02*
X114890000Y-75260000D01*
X106408766Y-73910000D02*
X113540000Y-73910000D01*
X114690000Y-84480000D02*
X114710000Y-84460000D01*
X105028766Y-75290000D02*
X106408766Y-73910000D01*
X114710000Y-84460000D02*
X114710000Y-76730000D01*
%TO.N,GPIO_EXT3*%
X116160000Y-75260000D02*
X116160000Y-76550000D01*
X90750000Y-68500000D02*
X90750000Y-70558628D01*
X117230000Y-87020000D02*
X116030000Y-85820000D01*
X116030000Y-76680000D02*
X116160000Y-76550000D01*
X90750000Y-70558628D02*
X95081374Y-74890000D01*
X104863080Y-74890000D02*
X106243080Y-73510000D01*
X95081374Y-74890000D02*
X104863080Y-74890000D01*
X116030000Y-85820000D02*
X116030000Y-76680000D01*
X114410000Y-73510000D02*
X116160000Y-75260000D01*
X106243080Y-73510000D02*
X114410000Y-73510000D01*
%TO.N,GPIO_EXT4*%
X91750000Y-70992942D02*
X95247059Y-74490000D01*
X117250000Y-76730000D02*
X117430000Y-76550000D01*
X117250000Y-84460000D02*
X117250000Y-76730000D01*
X117230000Y-84480000D02*
X117250000Y-84460000D01*
X95247059Y-74490000D02*
X104697394Y-74490000D01*
X115360000Y-73110000D02*
X117430000Y-75180000D01*
X106077394Y-73110000D02*
X115360000Y-73110000D01*
X117430000Y-75180000D02*
X117430000Y-76550000D01*
X104697394Y-74490000D02*
X106077394Y-73110000D01*
X91750000Y-68500000D02*
X91750000Y-70992942D01*
%TO.N,GPIO_EXT5 {slash} INT*%
X92750000Y-71150000D02*
X95690000Y-74090000D01*
X92750000Y-68500000D02*
X92750000Y-71150000D01*
X95690000Y-74090000D02*
X104531708Y-74090000D01*
X105911708Y-72710000D02*
X116220000Y-72710000D01*
X118540000Y-76710000D02*
X118700000Y-76550000D01*
X118700000Y-75190000D02*
X118700000Y-76550000D01*
X118540000Y-85790000D02*
X118540000Y-76710000D01*
X116220000Y-72710000D02*
X118700000Y-75190000D01*
X119770000Y-87020000D02*
X118540000Y-85790000D01*
X104531708Y-74090000D02*
X105911708Y-72710000D01*
%TO.N,GPIO_EXT6 {slash} INT*%
X116754999Y-72310000D02*
X105746022Y-72310000D01*
X104366022Y-73690000D02*
X96120000Y-73690000D01*
X119790000Y-76730000D02*
X119970000Y-76550000D01*
X96120000Y-73690000D02*
X93740000Y-71310000D01*
X93740000Y-68510000D02*
X93750000Y-68500000D01*
X93740000Y-71310000D02*
X93740000Y-68510000D01*
X105746022Y-72310000D02*
X104366022Y-73690000D01*
X119970000Y-76550000D02*
X119970000Y-75525001D01*
X119770000Y-84480000D02*
X119790000Y-84460000D01*
X119970000Y-75525001D02*
X116754999Y-72310000D01*
X119790000Y-84460000D02*
X119790000Y-76730000D01*
%TO.N,/USB/PRT_SWP4*%
X175375000Y-62540256D02*
X175375000Y-64300000D01*
X175375000Y-64300000D02*
X176225000Y-65150000D01*
X176662756Y-61252500D02*
X175375000Y-62540256D01*
X176865000Y-61252500D02*
X176662756Y-61252500D01*
%TO.N,I2S_DIN*%
X208642494Y-38135560D02*
X217935560Y-38135560D01*
X195400000Y-36680000D02*
X196040000Y-36680000D01*
X196460000Y-36260000D02*
X206412494Y-36260000D01*
X206412494Y-36260000D02*
X207087494Y-36935000D01*
X232632505Y-52832505D02*
X232632505Y-52874263D01*
X232725000Y-53036758D02*
X232725000Y-54250000D01*
X72630000Y-55260000D02*
X72600000Y-55230000D01*
X207087494Y-36935000D02*
X207270000Y-36935000D01*
X196040000Y-36680000D02*
X196460000Y-36260000D01*
X207342494Y-39435560D02*
X208642494Y-38135560D01*
X232760000Y-53001758D02*
X232725000Y-53036758D01*
X73590000Y-55260000D02*
X72630000Y-55260000D01*
X232632505Y-52874263D02*
X232760000Y-53001758D01*
X217935560Y-38135560D02*
X232632505Y-52832505D01*
%TO.N,Net-(J17-Pin_1)*%
X77595000Y-59394744D02*
X77279744Y-59710000D01*
X77279744Y-59710000D02*
X65902500Y-59710000D01*
X77105785Y-56760000D02*
X77115786Y-56770000D01*
X65902500Y-59710000D02*
X64080000Y-57887500D01*
X77520000Y-56770000D02*
X77595000Y-56845000D01*
X77595000Y-56845000D02*
X77595000Y-59394744D01*
X64080000Y-57887500D02*
X64080000Y-56320000D01*
X76490000Y-56760000D02*
X77105785Y-56760000D01*
X77115786Y-56770000D02*
X77520000Y-56770000D01*
%TO.N,Net-(J17-Pin_2)*%
X77281471Y-56370000D02*
X77778529Y-56370000D01*
X77778529Y-56370000D02*
X78130000Y-56018529D01*
X68040000Y-53520000D02*
X68040000Y-56320000D01*
X78130000Y-54710000D02*
X76240000Y-52820000D01*
X76490000Y-56260000D02*
X77171471Y-56260000D01*
X78130000Y-56018529D02*
X78130000Y-54710000D01*
X76240000Y-52820000D02*
X68740000Y-52820000D01*
X77171471Y-56260000D02*
X77281471Y-56370000D01*
X68740000Y-52820000D02*
X68040000Y-53520000D01*
%TO.N,I2S_LRCLK*%
X203652494Y-38959214D02*
X204876148Y-37735560D01*
X204876148Y-37735560D02*
X221535560Y-37735560D01*
X75290000Y-53930000D02*
X75750000Y-53470000D01*
X234450000Y-52798529D02*
X234450000Y-53550000D01*
X221535560Y-37735560D02*
X234600000Y-50800000D01*
X234600000Y-50800000D02*
X234600000Y-52648529D01*
X75290000Y-54560000D02*
X75290000Y-53930000D01*
X203652494Y-40825560D02*
X203652494Y-38959214D01*
X204802494Y-41975560D02*
X203652494Y-40825560D01*
X234600000Y-52648529D02*
X234450000Y-52798529D01*
%TO.N,I2S_BCLK*%
X74290000Y-54560000D02*
X74290000Y-53950000D01*
X233232505Y-52625734D02*
X233360000Y-52753229D01*
X233232505Y-53307505D02*
X233450000Y-53525000D01*
X233232505Y-52625734D02*
X233232505Y-53307505D01*
X74290000Y-53950000D02*
X73920000Y-53580000D01*
%TO.N,/USB/PRT_SWP5*%
X172327756Y-62325000D02*
X173322244Y-62325000D01*
X173700000Y-61947244D02*
X173700000Y-60777756D01*
X171237500Y-60650000D02*
X171237500Y-61234744D01*
X174412756Y-60065000D02*
X176177500Y-60065000D01*
X173322244Y-62325000D02*
X173700000Y-61947244D01*
X171237500Y-61234744D02*
X172327756Y-62325000D01*
X173700000Y-60777756D02*
X174412756Y-60065000D01*
%TO.N,OPI_USB_DP*%
X182676967Y-55600000D02*
X182773980Y-55600000D01*
X182773980Y-55600000D02*
X182893270Y-55719290D01*
D60*
X182000000Y-68950000D02*
X183000000Y-67950000D01*
D58*
X184550614Y-55640000D02*
X184977500Y-55640000D01*
D60*
X182000000Y-70600000D02*
X182000000Y-68950000D01*
D58*
X184471324Y-55719290D02*
X184550614Y-55640000D01*
X182893270Y-55719290D02*
X184471324Y-55719290D01*
X184977500Y-55640000D02*
X185052500Y-55565000D01*
%TO.N,OPI_USB_DM*%
X184550614Y-56140000D02*
X184977500Y-56140000D01*
D60*
X184540000Y-68690000D02*
X183800000Y-67950000D01*
D58*
X183840614Y-56470614D02*
X184220000Y-56470614D01*
D60*
X184540000Y-70600000D02*
X184540000Y-68690000D01*
D58*
X183750000Y-56380000D02*
X183840614Y-56470614D01*
X184220000Y-56470614D02*
X184550614Y-56140000D01*
X184977500Y-56140000D02*
X185052500Y-56065000D01*
%TO.N,Net-(U7-~{RESET})*%
X109490000Y-79130000D02*
X109490000Y-76870000D01*
X109490000Y-76870000D02*
X109810000Y-76550000D01*
%TO.N,MCP_INT*%
X112370000Y-76530000D02*
X112350000Y-76550000D01*
X112370000Y-75440000D02*
X112370000Y-76530000D01*
%TO.N,/USB/CFG_SEL1*%
X182445833Y-63820872D02*
X182450000Y-63816705D01*
X179214339Y-59530248D02*
X179684091Y-60000000D01*
X178672049Y-59530248D02*
X179214339Y-59530248D01*
X181365000Y-60605000D02*
X181365000Y-61252500D01*
X179684091Y-60000000D02*
X180605072Y-60000000D01*
X181230000Y-60470000D02*
X181365000Y-60605000D01*
X181075072Y-60470000D02*
X181230000Y-60470000D01*
X180605072Y-60000000D02*
X181075072Y-60470000D01*
%TO.N,EPAPER_CS*%
X180792494Y-37677506D02*
X181560000Y-36910000D01*
X165128249Y-49567664D02*
X165128249Y-49051751D01*
X179166148Y-40585560D02*
X179878840Y-40585560D01*
X181560000Y-36910000D02*
X188990000Y-36910000D01*
X179878840Y-40585560D02*
X180792494Y-39671906D01*
X189562494Y-37482494D02*
X189562494Y-39435560D01*
X165128249Y-49051751D02*
X169680000Y-44500000D01*
X165125913Y-49570000D02*
X165128249Y-49567664D01*
X169680000Y-44500000D02*
X177950000Y-44500000D01*
X178252494Y-41499214D02*
X179166148Y-40585560D01*
X188990000Y-36910000D02*
X189562494Y-37482494D01*
X180792494Y-39671906D02*
X180792494Y-37677506D01*
X177950000Y-44500000D02*
X178252494Y-44197506D01*
X178252494Y-44197506D02*
X178252494Y-41499214D01*
%TO.N,EPAPER_DC*%
X179280000Y-44590000D02*
X179280000Y-42098054D01*
X170080000Y-44900000D02*
X178970000Y-44900000D01*
X166095000Y-49590000D02*
X166095000Y-48885000D01*
X178970000Y-44900000D02*
X179280000Y-44590000D01*
X179280000Y-42098054D02*
X179402494Y-41975560D01*
X166095000Y-48885000D02*
X170080000Y-44900000D01*
%TO.N,EPAPER_BUSY*%
X170460000Y-45300000D02*
X196889000Y-45300000D01*
X196889000Y-45300000D02*
X199722494Y-42466506D01*
X167070000Y-49610000D02*
X167070000Y-48690000D01*
X167070000Y-48690000D02*
X170460000Y-45300000D01*
X199722494Y-42466506D02*
X199722494Y-41975560D01*
%TO.N,FAN1_PWM*%
X67520000Y-79070000D02*
X69605000Y-79070000D01*
X69750000Y-78925000D02*
X69750000Y-80110000D01*
X69750000Y-80110000D02*
X69730000Y-80130000D01*
X69605000Y-79070000D02*
X69750000Y-78925000D01*
%TO.N,+5V_FAN*%
D56*
X143000000Y-78010000D02*
X143000000Y-76000000D01*
D57*
X62670000Y-69730000D02*
X62670000Y-88180000D01*
X143000000Y-89550000D02*
X143000000Y-78010000D01*
X143000000Y-89540000D02*
X143000000Y-78010000D01*
X144660000Y-78000000D02*
X143010000Y-78000000D01*
X64510000Y-90020000D02*
X142530000Y-90020000D01*
X143010000Y-78000000D02*
X143000000Y-78010000D01*
X191240636Y-90015000D02*
X143475000Y-90015000D01*
X241870000Y-69970000D02*
X241870000Y-80980000D01*
X196800000Y-83800000D02*
X194714265Y-85885735D01*
X196800000Y-83468629D02*
X196800000Y-83800000D01*
X64200000Y-68200000D02*
X62670000Y-69730000D01*
X143475000Y-90015000D02*
X143000000Y-89540000D01*
X197418629Y-82850000D02*
X196800000Y-83468629D01*
X194714265Y-86541371D02*
X191240636Y-90015000D01*
X240000000Y-82850000D02*
X197418629Y-82850000D01*
D56*
X143000000Y-76000000D02*
X143120000Y-75880000D01*
D57*
X243640000Y-68200000D02*
X241870000Y-69970000D01*
X142530000Y-90020000D02*
X143000000Y-89550000D01*
X241870000Y-80980000D02*
X240000000Y-82850000D01*
X194714265Y-85885735D02*
X194714265Y-86541371D01*
X62670000Y-88180000D02*
X64510000Y-90020000D01*
%TO.N,Net-(Q3-G)*%
D58*
X65695000Y-79070000D02*
X65695000Y-77005000D01*
X65695000Y-77005000D02*
X65470000Y-76780000D01*
%TO.N,Net-(U2-LED_B3_N{slash}GANG_EN)*%
X177365000Y-61252500D02*
X177365000Y-60325000D01*
X175350000Y-61410000D02*
X174735000Y-61410000D01*
X174735000Y-61410000D02*
X174650000Y-61325000D01*
X177365000Y-60325000D02*
X177410000Y-60280000D01*
%TO.N,Net-(U1-BOOT)*%
X137180000Y-70670000D02*
X136155000Y-70670000D01*
X137137500Y-67250000D02*
X137950000Y-67250000D01*
X137950000Y-67250000D02*
X138420000Y-66780000D01*
X136155000Y-70670000D02*
X135850000Y-70975000D01*
%TO.N,Net-(U1-SW)*%
X135215552Y-68200000D02*
X135990000Y-67425552D01*
X130500000Y-62250000D02*
X129850000Y-62900000D01*
X129975000Y-72325000D02*
X135300000Y-72325000D01*
X132950000Y-60930000D02*
X131630000Y-62250000D01*
X135960000Y-74070000D02*
X135960000Y-72985000D01*
X135960000Y-72985000D02*
X135850000Y-72875000D01*
X129850000Y-72200000D02*
X129975000Y-72325000D01*
X129850000Y-62900000D02*
X129850000Y-72200000D01*
X135300000Y-72325000D02*
X135850000Y-72875000D01*
X133020000Y-60930000D02*
X132950000Y-60930000D01*
X134862500Y-68200000D02*
X135215552Y-68200000D01*
X131630000Y-62250000D02*
X130500000Y-62250000D01*
X135990000Y-67425552D02*
X135990000Y-66130000D01*
%TO.N,Net-(J18-Pin_1)*%
X237600000Y-55800000D02*
X235725000Y-55800000D01*
X237600000Y-55800000D02*
X237650000Y-55850000D01*
X235725000Y-55800000D02*
X235675000Y-55750000D01*
X237650000Y-55850000D02*
X243640000Y-55850000D01*
%TO.N,Net-(J18-Pin_2)*%
X238400000Y-54200000D02*
X237200000Y-55400000D01*
X236291471Y-55250000D02*
X235650000Y-55250000D01*
X245950000Y-54200000D02*
X238400000Y-54200000D01*
X237200000Y-55400000D02*
X236441471Y-55400000D01*
X247600000Y-55850000D02*
X245950000Y-54200000D01*
X236441471Y-55400000D02*
X236291471Y-55250000D01*
%TO.N,LORA_CS*%
X214160000Y-76210000D02*
X220110000Y-76210000D01*
X206550000Y-68600000D02*
X214160000Y-76210000D01*
X206550000Y-58390000D02*
X206550000Y-68600000D01*
%TO.N,RESET*%
X208800000Y-60690000D02*
X214160000Y-66050000D01*
X208800000Y-58390000D02*
X208800000Y-60690000D01*
X208850000Y-58340000D02*
X208800000Y-58390000D01*
X214160000Y-66050000D02*
X220110000Y-66050000D01*
%TO.N,RXEN*%
X201112494Y-40825560D02*
X203086808Y-40825560D01*
X226710000Y-53721370D02*
X226710000Y-71897000D01*
X203086808Y-40825560D02*
X203652494Y-41391246D01*
X216914190Y-43925560D02*
X226710000Y-53721370D01*
X226710000Y-71897000D02*
X231023000Y-76210000D01*
X199722494Y-39435560D02*
X201112494Y-40825560D01*
X203652494Y-41391246D02*
X203652494Y-43378494D01*
X204199560Y-43925560D02*
X216914190Y-43925560D01*
X231023000Y-76210000D02*
X237890000Y-76210000D01*
X203652494Y-43378494D02*
X204199560Y-43925560D01*
%TO.N,TXEN*%
X227110000Y-69630000D02*
X231150000Y-73670000D01*
X231150000Y-73670000D02*
X237890000Y-73670000D01*
X227110000Y-53555686D02*
X227110000Y-69630000D01*
X204802494Y-39435560D02*
X206121000Y-40754066D01*
X206466560Y-43525560D02*
X217079874Y-43525560D01*
X206121000Y-43180000D02*
X206466560Y-43525560D01*
X217079874Y-43525560D02*
X227110000Y-53555686D01*
X206121000Y-40754066D02*
X206121000Y-43180000D01*
%TO.N,FAN2_PWM*%
X207342494Y-42750494D02*
X207342494Y-41975560D01*
X244615000Y-80680000D02*
X244615000Y-78665000D01*
X244630000Y-78650000D02*
X245490000Y-77790000D01*
X227600000Y-66900000D02*
X227600000Y-53480000D01*
X227600000Y-53480000D02*
X217245560Y-43125560D01*
X207717560Y-43125560D02*
X207342494Y-42750494D01*
X228100000Y-67400000D02*
X227600000Y-66900000D01*
X241455256Y-67400000D02*
X228100000Y-67400000D01*
X245490000Y-67065256D02*
X244974744Y-66550000D01*
X242305256Y-66550000D02*
X241455256Y-67400000D01*
X245490000Y-77790000D02*
X245490000Y-67065256D01*
X244974744Y-66550000D02*
X242305256Y-66550000D01*
X217245560Y-43125560D02*
X207717560Y-43125560D01*
X244615000Y-78665000D02*
X244630000Y-78650000D01*
%TO.N,Net-(U2-SDA{slash}SMBDATA{slash}NON_REM1)*%
X180365000Y-61679386D02*
X180365000Y-61252500D01*
X176187500Y-63225000D02*
X177212500Y-62200000D01*
X179844386Y-62200000D02*
X180365000Y-61679386D01*
X177212500Y-62200000D02*
X179844386Y-62200000D01*
%TO.N,/USB/VDD18*%
X174500000Y-58315614D02*
X175750614Y-57065000D01*
X175750614Y-57065000D02*
X176177500Y-57065000D01*
X174500000Y-58575000D02*
X174500000Y-58315614D01*
%TO.N,/USB/CFG_SEL2*%
X178365000Y-51115000D02*
X178365000Y-52377500D01*
X177775000Y-50525000D02*
X178365000Y-51115000D01*
%TO.N,/USB/USB2DM*%
X183403887Y-53126114D02*
X183365000Y-53087227D01*
X183365000Y-53087227D02*
X183365000Y-52377500D01*
%TO.N,/USB/USB2DP*%
X182394315Y-53480000D02*
X182394315Y-53287157D01*
X180445686Y-54566149D02*
X180611833Y-54400001D01*
X182394315Y-53287157D02*
X182865000Y-52816472D01*
X180611833Y-54400001D02*
X181474313Y-54400001D01*
X178488527Y-55000000D02*
X178922378Y-54566149D01*
X178922378Y-54566149D02*
X180445686Y-54566149D01*
X181474313Y-54400001D02*
X182394315Y-53480000D01*
X182865000Y-52816472D02*
X182865000Y-52377500D01*
%TO.N,/USB/USB3DM*%
X100350000Y-43263033D02*
X100425000Y-43338033D01*
X181865000Y-53160784D02*
X181865000Y-52377500D01*
X181450733Y-53575051D02*
X181865000Y-53160784D01*
X181450733Y-53575054D02*
X181450733Y-53575051D01*
X100350000Y-41400000D02*
X100350000Y-43263033D01*
%TO.N,/USB/USB3DP*%
X181290000Y-52452500D02*
X181365000Y-52377500D01*
X177611841Y-55000000D02*
X177640000Y-55000000D01*
X180850733Y-53595416D02*
X180850733Y-53319267D01*
X178473851Y-54166149D02*
X180280000Y-54166149D01*
X180280000Y-54166149D02*
X180850733Y-53595416D01*
X181290000Y-52880000D02*
X181290000Y-52452500D01*
X177640000Y-55000000D02*
X178473851Y-54166149D01*
X102350000Y-41400000D02*
X102350000Y-43460000D01*
X180850733Y-53319267D02*
X181290000Y-52880000D01*
%TO.N,/USB/USB4DM*%
X181190000Y-46330000D02*
X180865000Y-46655000D01*
X115400000Y-41400000D02*
X115400000Y-43280000D01*
X180865000Y-46655000D02*
X180865000Y-52377500D01*
%TO.N,/USB/USB4DP*%
X180365000Y-53095000D02*
X180365000Y-52377500D01*
X175930000Y-48310000D02*
X176960000Y-47280000D01*
X172760000Y-48320000D02*
X172770000Y-48310000D01*
X117420000Y-43220000D02*
X117400000Y-43200000D01*
X180410000Y-53187620D02*
X180410000Y-53140000D01*
X180250733Y-53346887D02*
X180410000Y-53187620D01*
X180410000Y-53140000D02*
X180365000Y-53095000D01*
X117420000Y-43420000D02*
X117420000Y-43220000D01*
X117400000Y-43200000D02*
X117400000Y-41400000D01*
X172770000Y-48310000D02*
X175930000Y-48310000D01*
%TO.N,/USB/USB5DM*%
X130450000Y-41400000D02*
X130450000Y-43390000D01*
X172747969Y-47520000D02*
X172747880Y-47520089D01*
X179440000Y-52878865D02*
X179440000Y-52452500D01*
X179440000Y-52452500D02*
X179365000Y-52377500D01*
X175540000Y-47281141D02*
X175301141Y-47520000D01*
X175301141Y-47520000D02*
X172747969Y-47520000D01*
X179451464Y-53312641D02*
X179451464Y-52890329D01*
X179451464Y-52890329D02*
X179440000Y-52878865D01*
%TO.N,/USB/USB5DP*%
X178870000Y-52382500D02*
X178865000Y-52377500D01*
X132355000Y-43315000D02*
X132450000Y-43220000D01*
X132450000Y-43220000D02*
X132450000Y-41400000D01*
X178870000Y-53030000D02*
X178870000Y-52382500D01*
X132355000Y-43390000D02*
X132355000Y-43315000D01*
X178654265Y-53245735D02*
X178870000Y-53030000D01*
%TO.N,/USB/PRT_SWP7*%
X177440000Y-52302500D02*
X177365000Y-52377500D01*
X176140000Y-50550000D02*
X177440000Y-51850000D01*
X177440000Y-51850000D02*
X177440000Y-52302500D01*
X176025000Y-50550000D02*
X176140000Y-50550000D01*
%TO.N,/USB/PRT_SWP6*%
X137033000Y-59808256D02*
X137033000Y-61722000D01*
X117392500Y-64950000D02*
X117549000Y-64950000D01*
X117549000Y-64950000D02*
X125619000Y-56880000D01*
X164211000Y-59563000D02*
X164542579Y-59231421D01*
X134104744Y-56880000D02*
X137033000Y-59808256D01*
X164542579Y-59231421D02*
X167960050Y-59231421D01*
X174126471Y-53065000D02*
X176177500Y-53065000D01*
X167960050Y-59231421D02*
X174126471Y-53065000D01*
X125619000Y-56880000D02*
X134104744Y-56880000D01*
%TO.N,/USB/PRTPWR1*%
X164858603Y-66451397D02*
X163913897Y-66451397D01*
X177682230Y-59520000D02*
X177682230Y-59470759D01*
X176604386Y-59065000D02*
X176177500Y-59065000D01*
X177451471Y-59240000D02*
X176779386Y-59240000D01*
X163913897Y-66451397D02*
X163600000Y-66137500D01*
X176779386Y-59240000D02*
X176604386Y-59065000D01*
X177682230Y-59470759D02*
X177451471Y-59240000D01*
%TO.N,/USB/CFG_SEL0*%
X179035000Y-65740000D02*
X179625000Y-65150000D01*
X178870000Y-65740000D02*
X179035000Y-65740000D01*
X179235562Y-60400000D02*
X180439386Y-60400000D01*
X180439386Y-60400000D02*
X180830000Y-60790614D01*
X179094127Y-60258565D02*
X179235562Y-60400000D01*
X180830000Y-60790614D02*
X180830000Y-61217500D01*
X180830000Y-61217500D02*
X180865000Y-61252500D01*
%TO.N,/USB/VBUS_DET*%
X179849777Y-59600000D02*
X180770758Y-59600000D01*
X179737561Y-59487784D02*
X179849777Y-59600000D01*
X181240758Y-60070000D02*
X181609386Y-60070000D01*
X180770758Y-59600000D02*
X181240758Y-60070000D01*
X182365000Y-60825614D02*
X182365000Y-61252500D01*
X179737561Y-58854390D02*
X179737561Y-59487784D01*
D62*
X190012500Y-69425000D02*
X190000000Y-69412500D01*
X191950000Y-69425000D02*
X190012500Y-69425000D01*
D58*
X181609386Y-60070000D02*
X182365000Y-60825614D01*
%TO.N,Net-(U2-LED_B2_N{slash}BOOST1)*%
X185085000Y-61565000D02*
X184677500Y-61565000D01*
X184677500Y-61565000D02*
X184365000Y-61252500D01*
X190100000Y-61125000D02*
X190100000Y-60990000D01*
X185140000Y-61620000D02*
X185085000Y-61565000D01*
%TO.N,/USB/PRT_SWP2*%
X185120000Y-60940000D02*
X185052500Y-60872500D01*
X185610000Y-60940000D02*
X185120000Y-60940000D01*
X185052500Y-60872500D02*
X185052500Y-60565000D01*
%TO.N,Net-(U2-LED_B1_N{slash}BOOST0)*%
X180325655Y-57864184D02*
X180331471Y-57870000D01*
X191370000Y-62905000D02*
X192555000Y-62905000D01*
X178529975Y-58129975D02*
X178795765Y-57864184D01*
X180331471Y-57870000D02*
X182237814Y-57870000D01*
X178795765Y-57864184D02*
X180325655Y-57864184D01*
X184432814Y-60065000D02*
X185052500Y-60065000D01*
X182237814Y-57870000D02*
X184432814Y-60065000D01*
X192555000Y-62905000D02*
X192560000Y-62900000D01*
%TO.N,/USB/USB6DM*%
X197200000Y-58430000D02*
X197280000Y-58350000D01*
X184311678Y-58511852D02*
X184999352Y-58511852D01*
X197688628Y-80800000D02*
X197200000Y-80311372D01*
X184129826Y-58330000D02*
X184311678Y-58511852D01*
X184999352Y-58511852D02*
X185052500Y-58565000D01*
X197200000Y-80311372D02*
X197200000Y-58430000D01*
%TO.N,/USB/USB6DP*%
X185945328Y-57777535D02*
X185657863Y-58065000D01*
X185657863Y-58065000D02*
X185052500Y-58065000D01*
%TO.N,/USB/USB7DM*%
X180084184Y-56600000D02*
X182460000Y-56600000D01*
X182460000Y-56600000D02*
X183425000Y-57565000D01*
X183425000Y-57565000D02*
X185052500Y-57565000D01*
X179420000Y-57264184D02*
X180084184Y-56600000D01*
%TO.N,/USB/USB7DP*%
X182625686Y-56200000D02*
X183415686Y-56990000D01*
X183415686Y-56990000D02*
X184977500Y-56990000D01*
X178428442Y-56200000D02*
X182625686Y-56200000D01*
X177964258Y-56664184D02*
X178428442Y-56200000D01*
X184977500Y-56990000D02*
X185052500Y-57065000D01*
%TO.N,Net-(Q4-G)*%
X246455000Y-78650000D02*
X246455000Y-76815000D01*
X246455000Y-76815000D02*
X246670000Y-76600000D01*
%TO.N,/FAN/FAN2_SW*%
X247620000Y-74725000D02*
X247620000Y-68220000D01*
X247620000Y-68220000D02*
X247600000Y-68200000D01*
%TO.N,OPI_USB_VBUS*%
D56*
X187717500Y-71237500D02*
X187080000Y-70600000D01*
X190000000Y-71237500D02*
X187717500Y-71237500D01*
%TO.N,/FAN/FAN1_SW*%
D58*
X66815000Y-74905000D02*
X68180000Y-73540000D01*
X66420000Y-74905000D02*
X66815000Y-74905000D01*
X68180000Y-73540000D02*
X68180000Y-68220000D01*
X68180000Y-68220000D02*
X68160000Y-68200000D01*
%TD*%
M02*
