%TF.GenerationSoftware,KiCad,Pcbnew,10.0.6*%
%TF.CreationDate,2026-10-11T11:05:20+05:30*%
%TF.ProjectId,carrier-orange pi zero 3w,63617272-6965-4722-9d6f-72616e676520,rev?*%
%TF.SameCoordinates,Original*%
%TF.FileFunction,Paste,Top*%
%TF.FilePolarity,Positive*%
%FSLAX46Y46*%
G04 Gerber Fmt 4.6, Leading zero omitted, Abs format (unit mm)*
G04 Created by KiCad (PCBNEW 10.0.6) date 2026-10-11 11:05:20*
%MOMM*%
%LPD*%
G01*
G04 APERTURE LIST*
G04 Aperture macros list*
%AMRoundRect*
0 Rectangle with rounded corners*
0 $1 Rounding radius*
0 $2 $3 $4 $5 $6 $7 $8 $9 X,Y pos of 4 corners*
0 Add a 4 corners polygon primitive as box body*
4,1,4,$2,$3,$4,$5,$6,$7,$8,$9,$2,$3,0*
0 Add four circle primitives for the rounded corners*
1,1,$1+$1,$2,$3*
1,1,$1+$1,$4,$5*
1,1,$1+$1,$6,$7*
1,1,$1+$1,$8,$9*
0 Add four rect primitives between the rounded corners*
20,1,$1+$1,$2,$3,$4,$5,0*
20,1,$1+$1,$4,$5,$6,$7,0*
20,1,$1+$1,$6,$7,$8,$9,0*
20,1,$1+$1,$8,$9,$2,$3,0*%
G04 Aperture macros list end*
%ADD10RoundRect,0.300000X0.300000X-0.700000X0.300000X0.700000X-0.300000X0.700000X-0.300000X-0.700000X0*%
%ADD11RoundRect,0.250000X-0.250000X-0.475000X0.250000X-0.475000X0.250000X0.475000X-0.250000X0.475000X0*%
%ADD12RoundRect,0.250000X-0.450000X0.262500X-0.450000X-0.262500X0.450000X-0.262500X0.450000X0.262500X0*%
%ADD13RoundRect,0.250000X0.312500X1.450000X-0.312500X1.450000X-0.312500X-1.450000X0.312500X-1.450000X0*%
%ADD14RoundRect,0.250000X0.262500X0.450000X-0.262500X0.450000X-0.262500X-0.450000X0.262500X-0.450000X0*%
%ADD15RoundRect,0.250000X-0.712500X-2.475000X0.712500X-2.475000X0.712500X2.475000X-0.712500X2.475000X0*%
%ADD16RoundRect,0.150000X-0.587500X-0.150000X0.587500X-0.150000X0.587500X0.150000X-0.587500X0.150000X0*%
%ADD17RoundRect,0.250000X-0.262500X-0.450000X0.262500X-0.450000X0.262500X0.450000X-0.262500X0.450000X0*%
%ADD18RoundRect,0.200000X-0.200000X0.250000X-0.200000X-0.250000X0.200000X-0.250000X0.200000X0.250000X0*%
%ADD19RoundRect,0.250000X-0.475000X0.250000X-0.475000X-0.250000X0.475000X-0.250000X0.475000X0.250000X0*%
%ADD20RoundRect,0.250000X0.250000X0.475000X-0.250000X0.475000X-0.250000X-0.475000X0.250000X-0.475000X0*%
%ADD21RoundRect,0.250000X-0.325000X-0.650000X0.325000X-0.650000X0.325000X0.650000X-0.325000X0.650000X0*%
%ADD22RoundRect,0.250000X-0.312500X-1.450000X0.312500X-1.450000X0.312500X1.450000X-0.312500X1.450000X0*%
%ADD23R,0.610000X2.000000*%
%ADD24R,2.680000X3.600000*%
%ADD25R,0.850000X0.300000*%
%ADD26R,0.300000X0.850000*%
%ADD27R,1.250000X1.250000*%
%ADD28R,0.400000X0.450000*%
%ADD29R,0.500000X0.450000*%
%ADD30RoundRect,0.150000X-0.150000X0.875000X-0.150000X-0.875000X0.150000X-0.875000X0.150000X0.875000X0*%
%ADD31RoundRect,0.250000X0.450000X-0.262500X0.450000X0.262500X-0.450000X0.262500X-0.450000X-0.262500X0*%
%ADD32RoundRect,0.250000X-0.375000X-0.625000X0.375000X-0.625000X0.375000X0.625000X-0.375000X0.625000X0*%
%ADD33RoundRect,0.250000X0.475000X-0.250000X0.475000X0.250000X-0.475000X0.250000X-0.475000X-0.250000X0*%
%ADD34RoundRect,0.249999X-0.850001X-3.500001X0.850001X-3.500001X0.850001X3.500001X-0.850001X3.500001X0*%
%ADD35RoundRect,0.062500X-0.062500X0.350000X-0.062500X-0.350000X0.062500X-0.350000X0.062500X0.350000X0*%
%ADD36RoundRect,0.062500X-0.350000X0.062500X-0.350000X-0.062500X0.350000X-0.062500X0.350000X0.062500X0*%
%ADD37RoundRect,0.150000X0.150000X-0.587500X0.150000X0.587500X-0.150000X0.587500X-0.150000X-0.587500X0*%
%ADD38RoundRect,0.150000X-0.512500X-0.150000X0.512500X-0.150000X0.512500X0.150000X-0.512500X0.150000X0*%
%ADD39RoundRect,0.250001X0.799999X-1.999999X0.799999X1.999999X-0.799999X1.999999X-0.799999X-1.999999X0*%
%ADD40R,2.800000X1.600000*%
%ADD41RoundRect,0.250000X1.500000X0.550000X-1.500000X0.550000X-1.500000X-0.550000X1.500000X-0.550000X0*%
%ADD42RoundRect,0.250000X-0.650000X0.325000X-0.650000X-0.325000X0.650000X-0.325000X0.650000X0.325000X0*%
G04 APERTURE END LIST*
D10*
%TO.C,J7*%
X82800000Y-41400000D03*
X85300000Y-41400000D03*
X87300000Y-41400000D03*
X89800000Y-41400000D03*
%TD*%
D11*
%TO.C,C3*%
X154585000Y-84790000D03*
X156485000Y-84790000D03*
%TD*%
D12*
%TO.C,R5*%
X185000000Y-49087500D03*
X185000000Y-50912500D03*
%TD*%
D13*
%TO.C,F4*%
X145537500Y-87240000D03*
X141262500Y-87240000D03*
%TD*%
D14*
%TO.C,R24*%
X169375000Y-70500000D03*
X167550000Y-70500000D03*
%TD*%
D15*
%TO.C,F2*%
X163547379Y-75995000D03*
X170322379Y-75995000D03*
%TD*%
D16*
%TO.C,Q2*%
X163812500Y-69575000D03*
X163812500Y-71475000D03*
X165687500Y-70525000D03*
%TD*%
D11*
%TO.C,C19*%
X186700000Y-54590000D03*
X188600000Y-54590000D03*
%TD*%
D17*
%TO.C,R10*%
X177762500Y-63200000D03*
X179587500Y-63200000D03*
%TD*%
%TO.C,R16*%
X186700000Y-65050000D03*
X188525000Y-65050000D03*
%TD*%
D11*
%TO.C,C15*%
X183250000Y-63100000D03*
X185150000Y-63100000D03*
%TD*%
%TO.C,C16*%
X186637500Y-59175000D03*
X188537500Y-59175000D03*
%TD*%
D18*
%TO.C,Y1*%
X194475000Y-50975000D03*
X194475000Y-52375000D03*
X195575000Y-52375000D03*
X195575000Y-50975000D03*
%TD*%
D19*
%TO.C,C33*%
X233440000Y-57990000D03*
X233440000Y-59890000D03*
%TD*%
D20*
%TO.C,C25*%
X190630000Y-52620000D03*
X188730000Y-52620000D03*
%TD*%
D17*
%TO.C,R14*%
X190050000Y-59150000D03*
X191875000Y-59150000D03*
%TD*%
D21*
%TO.C,C11*%
X141525000Y-62250000D03*
X144475000Y-62250000D03*
%TD*%
D22*
%TO.C,F1*%
X158402500Y-83980000D03*
X162677500Y-83980000D03*
%TD*%
D14*
%TO.C,R27*%
X188487500Y-61150000D03*
X186662500Y-61150000D03*
%TD*%
D17*
%TO.C,R34*%
X229287500Y-55600000D03*
X231112500Y-55600000D03*
%TD*%
%TO.C,R3*%
X139337500Y-70000000D03*
X141162500Y-70000000D03*
%TD*%
D23*
%TO.C,J5*%
X76750000Y-68500000D03*
X77750000Y-68500000D03*
X78750000Y-68500000D03*
X79750000Y-68500000D03*
X80750000Y-68500000D03*
X81750000Y-68500000D03*
X82750000Y-68500000D03*
X83750000Y-68500000D03*
X84750000Y-68500000D03*
X85750000Y-68500000D03*
X86750000Y-68500000D03*
X87750000Y-68500000D03*
X88750000Y-68500000D03*
X89750000Y-68500000D03*
X90750000Y-68500000D03*
X91750000Y-68500000D03*
X92750000Y-68500000D03*
X93750000Y-68500000D03*
X94750000Y-68500000D03*
X95750000Y-68500000D03*
D24*
X73760000Y-71300000D03*
X98740000Y-71300000D03*
%TD*%
D14*
%TO.C,R17*%
X176225000Y-65150000D03*
X174400000Y-65150000D03*
%TD*%
D25*
%TO.C,U4*%
X73565000Y-55260000D03*
X73590000Y-55760000D03*
X73590000Y-56260000D03*
X73565000Y-56760000D03*
D26*
X74290000Y-57485000D03*
X74790000Y-57460000D03*
X75290000Y-57460000D03*
X75790000Y-57485000D03*
D25*
X76515000Y-56760000D03*
X76490000Y-56260000D03*
X76490000Y-55760000D03*
X76515000Y-55260000D03*
D26*
X75790000Y-54535000D03*
X75290000Y-54560000D03*
X74790000Y-54560000D03*
X74290000Y-54535000D03*
D27*
X75040000Y-56010000D03*
%TD*%
D14*
%TO.C,R18*%
X171237500Y-60650000D03*
X169412500Y-60650000D03*
%TD*%
D20*
%TO.C,C8*%
X139750000Y-72000000D03*
X137850000Y-72000000D03*
%TD*%
D28*
%TO.C,U3*%
X183000000Y-67950000D03*
X183800000Y-67950000D03*
D29*
X183400000Y-66800000D03*
%TD*%
D20*
%TO.C,C20*%
X174500000Y-56575000D03*
X172600000Y-56575000D03*
%TD*%
D30*
%TO.C,U7*%
X122510000Y-67250000D03*
X121240000Y-67250000D03*
X119970000Y-67250000D03*
X118700000Y-67250000D03*
X117430000Y-67250000D03*
X116160000Y-67250000D03*
X114890000Y-67250000D03*
X113620000Y-67250000D03*
X112350000Y-67250000D03*
X111080000Y-67250000D03*
X109810000Y-67250000D03*
X108540000Y-67250000D03*
X107270000Y-67250000D03*
X106000000Y-67250000D03*
X106000000Y-76550000D03*
X107270000Y-76550000D03*
X108540000Y-76550000D03*
X109810000Y-76550000D03*
X111080000Y-76550000D03*
X112350000Y-76550000D03*
X113620000Y-76550000D03*
X114890000Y-76550000D03*
X116160000Y-76550000D03*
X117430000Y-76550000D03*
X118700000Y-76550000D03*
X119970000Y-76550000D03*
X121240000Y-76550000D03*
X122510000Y-76550000D03*
%TD*%
D17*
%TO.C,R12*%
X186675000Y-63075000D03*
X188500000Y-63075000D03*
%TD*%
%TO.C,R1*%
X107665000Y-79130000D03*
X109490000Y-79130000D03*
%TD*%
D11*
%TO.C,C2*%
X154605000Y-86760000D03*
X156505000Y-86760000D03*
%TD*%
D31*
%TO.C,R33*%
X69750000Y-78925000D03*
X69750000Y-77100000D03*
%TD*%
D19*
%TO.C,C13*%
X154690000Y-51370000D03*
X154690000Y-53270000D03*
%TD*%
D32*
%TO.C,F3*%
X140200000Y-78010000D03*
X143000000Y-78010000D03*
%TD*%
D17*
%TO.C,R32*%
X65695000Y-79070000D03*
X67520000Y-79070000D03*
%TD*%
%TO.C,R23*%
X172825000Y-61325000D03*
X174650000Y-61325000D03*
%TD*%
D19*
%TO.C,C1*%
X135850000Y-70975000D03*
X135850000Y-72875000D03*
%TD*%
D33*
%TO.C,C18*%
X182400000Y-50500000D03*
X182400000Y-48600000D03*
%TD*%
D14*
%TO.C,R2*%
X141162500Y-68000000D03*
X139337500Y-68000000D03*
%TD*%
D34*
%TO.C,L1*%
X133020000Y-60930000D03*
X139020000Y-60930000D03*
%TD*%
D33*
%TO.C,C24*%
X190425000Y-56575000D03*
X190425000Y-54675000D03*
%TD*%
%TO.C,C23*%
X186950000Y-52800000D03*
X186950000Y-50900000D03*
%TD*%
D16*
%TO.C,Q1*%
X173009879Y-73550000D03*
X173009879Y-75450000D03*
X174884879Y-74500000D03*
%TD*%
D11*
%TO.C,C6*%
X169710000Y-87790000D03*
X171610000Y-87790000D03*
%TD*%
%TO.C,C30*%
X144660000Y-78000000D03*
X146560000Y-78000000D03*
%TD*%
D33*
%TO.C,C34*%
X235400000Y-59900000D03*
X235400000Y-58000000D03*
%TD*%
D17*
%TO.C,R28*%
X174362500Y-63225000D03*
X176187500Y-63225000D03*
%TD*%
D20*
%TO.C,C21*%
X174500000Y-58575000D03*
X172600000Y-58575000D03*
%TD*%
D31*
%TO.C,R13*%
X177775000Y-50525000D03*
X177775000Y-48700000D03*
%TD*%
D33*
%TO.C,C31*%
X76570000Y-60810000D03*
X76570000Y-58910000D03*
%TD*%
D11*
%TO.C,C10*%
X130850000Y-68225000D03*
X132750000Y-68225000D03*
%TD*%
D35*
%TO.C,U2*%
X184365000Y-52377500D03*
X183865000Y-52377500D03*
X183365000Y-52377500D03*
X182865000Y-52377500D03*
X182365000Y-52377500D03*
X181865000Y-52377500D03*
X181365000Y-52377500D03*
X180865000Y-52377500D03*
X180365000Y-52377500D03*
X179865000Y-52377500D03*
X179365000Y-52377500D03*
X178865000Y-52377500D03*
X178365000Y-52377500D03*
X177865000Y-52377500D03*
X177365000Y-52377500D03*
X176865000Y-52377500D03*
D36*
X176177500Y-53065000D03*
X176177500Y-53565000D03*
X176177500Y-54065000D03*
X176177500Y-54565000D03*
X176177500Y-55065000D03*
X176177500Y-55565000D03*
X176177500Y-56065000D03*
X176177500Y-56565000D03*
X176177500Y-57065000D03*
X176177500Y-57565000D03*
X176177500Y-58065000D03*
X176177500Y-58565000D03*
X176177500Y-59065000D03*
X176177500Y-59565000D03*
X176177500Y-60065000D03*
X176177500Y-60565000D03*
D35*
X176865000Y-61252500D03*
X177365000Y-61252500D03*
X177865000Y-61252500D03*
X178365000Y-61252500D03*
X178865000Y-61252500D03*
X179365000Y-61252500D03*
X179865000Y-61252500D03*
X180365000Y-61252500D03*
X180865000Y-61252500D03*
X181365000Y-61252500D03*
X181865000Y-61252500D03*
X182365000Y-61252500D03*
X182865000Y-61252500D03*
X183365000Y-61252500D03*
X183865000Y-61252500D03*
X184365000Y-61252500D03*
D36*
X185052500Y-60565000D03*
X185052500Y-60065000D03*
X185052500Y-59565000D03*
X185052500Y-59065000D03*
X185052500Y-58565000D03*
X185052500Y-58065000D03*
X185052500Y-57565000D03*
X185052500Y-57065000D03*
X185052500Y-56565000D03*
X185052500Y-56065000D03*
X185052500Y-55565000D03*
X185052500Y-55065000D03*
X185052500Y-54565000D03*
X185052500Y-54065000D03*
X185052500Y-53565000D03*
X185052500Y-53065000D03*
%TD*%
D19*
%TO.C,C27*%
X181400000Y-62975000D03*
X181400000Y-64875000D03*
%TD*%
D14*
%TO.C,R15*%
X187187500Y-67075000D03*
X185362500Y-67075000D03*
%TD*%
D37*
%TO.C,Q4*%
X246670000Y-76600000D03*
X248570000Y-76600000D03*
X247620000Y-74725000D03*
%TD*%
D11*
%TO.C,C28*%
X183250000Y-65125000D03*
X185150000Y-65125000D03*
%TD*%
D38*
%TO.C,U1*%
X134862500Y-67250000D03*
X134862500Y-68200000D03*
X134862500Y-69150000D03*
X137137500Y-69150000D03*
X137137500Y-68200000D03*
X137137500Y-67250000D03*
%TD*%
D14*
%TO.C,R31*%
X246455000Y-78650000D03*
X244630000Y-78650000D03*
%TD*%
D11*
%TO.C,C26*%
X188720000Y-50420000D03*
X190620000Y-50420000D03*
%TD*%
D20*
%TO.C,C35*%
X112450000Y-64950000D03*
X110550000Y-64950000D03*
%TD*%
D37*
%TO.C,Q3*%
X65470000Y-76780000D03*
X67370000Y-76780000D03*
X66420000Y-74905000D03*
%TD*%
D33*
%TO.C,C17*%
X179800000Y-50550000D03*
X179800000Y-48650000D03*
%TD*%
D10*
%TO.C,J11*%
X127950000Y-41400000D03*
X130450000Y-41400000D03*
X132450000Y-41400000D03*
X134950000Y-41400000D03*
%TD*%
D14*
%TO.C,R20*%
X176025000Y-50550000D03*
X174200000Y-50550000D03*
%TD*%
D19*
%TO.C,C32*%
X74580000Y-58900000D03*
X74580000Y-60800000D03*
%TD*%
D14*
%TO.C,R19*%
X117392500Y-64950000D03*
X115567500Y-64950000D03*
%TD*%
D10*
%TO.C,J10*%
X112900000Y-41400000D03*
X115400000Y-41400000D03*
X117400000Y-41400000D03*
X119900000Y-41400000D03*
%TD*%
D19*
%TO.C,C14*%
X156690000Y-51370000D03*
X156690000Y-53270000D03*
%TD*%
D25*
%TO.C,U5*%
X232725000Y-54250000D03*
X232750000Y-54750000D03*
X232750000Y-55250000D03*
X232725000Y-55750000D03*
D26*
X233450000Y-56475000D03*
X233950000Y-56450000D03*
X234450000Y-56450000D03*
X234950000Y-56475000D03*
D25*
X235675000Y-55750000D03*
X235650000Y-55250000D03*
X235650000Y-54750000D03*
X235675000Y-54250000D03*
D26*
X234950000Y-53525000D03*
X234450000Y-53550000D03*
X233950000Y-53550000D03*
X233450000Y-53525000D03*
D27*
X234200000Y-55000000D03*
%TD*%
D31*
%TO.C,R7*%
X191950000Y-71250000D03*
X191950000Y-69425000D03*
%TD*%
D39*
%TO.C,C7*%
X152960000Y-81130000D03*
X152960000Y-73930000D03*
%TD*%
D22*
%TO.C,F5*%
X148605000Y-85840000D03*
X152880000Y-85840000D03*
%TD*%
D21*
%TO.C,C12*%
X141525000Y-65000000D03*
X144475000Y-65000000D03*
%TD*%
D31*
%TO.C,R21*%
X191370000Y-64730000D03*
X191370000Y-62905000D03*
%TD*%
D12*
%TO.C,R4*%
X192375000Y-50762500D03*
X192375000Y-52587500D03*
%TD*%
D11*
%TO.C,C5*%
X171522379Y-83945000D03*
X173422379Y-83945000D03*
%TD*%
D17*
%TO.C,R30*%
X244615000Y-80680000D03*
X246440000Y-80680000D03*
%TD*%
D14*
%TO.C,R11*%
X179625000Y-65150000D03*
X177800000Y-65150000D03*
%TD*%
D40*
%TO.C,J2*%
X220110000Y-81290000D03*
X237890000Y-81290000D03*
X220110000Y-78750000D03*
X237890000Y-78750000D03*
X220110000Y-76210000D03*
X237890000Y-76210000D03*
X220110000Y-73670000D03*
X237890000Y-73670000D03*
X220110000Y-71130000D03*
X237890000Y-71130000D03*
X220110000Y-68590000D03*
X237890000Y-68590000D03*
X220110000Y-66050000D03*
X237890000Y-66050000D03*
X220110000Y-63510000D03*
X237890000Y-63510000D03*
%TD*%
D41*
%TO.C,C36*%
X133080000Y-87210000D03*
X127680000Y-87210000D03*
%TD*%
D12*
%TO.C,R25*%
X163600000Y-66137500D03*
X163600000Y-67962500D03*
%TD*%
D14*
%TO.C,R22*%
X191925000Y-61125000D03*
X190100000Y-61125000D03*
%TD*%
D12*
%TO.C,R6*%
X190000000Y-69412500D03*
X190000000Y-71237500D03*
%TD*%
D42*
%TO.C,C9*%
X132250000Y-70250000D03*
X132250000Y-73200000D03*
%TD*%
D11*
%TO.C,C29*%
X143120000Y-75880000D03*
X145020000Y-75880000D03*
%TD*%
D10*
%TO.C,J9*%
X97850000Y-41400000D03*
X100350000Y-41400000D03*
X102350000Y-41400000D03*
X104850000Y-41400000D03*
%TD*%
D11*
%TO.C,C22*%
X186700000Y-56575000D03*
X188600000Y-56575000D03*
%TD*%
D17*
%TO.C,R26*%
X160037500Y-69475000D03*
X161862500Y-69475000D03*
%TD*%
M02*
