ISO-10303-21;
HEADER;
/* Generated by software containing ST-Developer
 * from STEP Tools, Inc. (www.steptools.com) 
 */

FILE_DESCRIPTION(
/* description */ (''),
/* implementation_level */ '2;1');

FILE_NAME(
/* name */ 'R_HINGE.step',
/* time_stamp */ '2026-10-10T09:49:41+05:30',
/* author */ (''),
/* organization */ (''),
/* preprocessor_version */ 'ST-DEVELOPER v20.2',
/* originating_system */ 'Autodesk Translation Framework v15.15.0.0',
/* authorisation */ '');

FILE_SCHEMA (('AUTOMOTIVE_DESIGN { 1 0 10303 214 3 1 1 }'));
ENDSEC;

DATA;
#10=MECHANICAL_DESIGN_GEOMETRIC_PRESENTATION_REPRESENTATION('',(#14,#15),
#901);
#11=SHAPE_REPRESENTATION_RELATIONSHIP('SRR','None',#908,#12);
#12=ADVANCED_BREP_SHAPE_REPRESENTATION('',(#13),#900);
#13=MANIFOLD_SOLID_BREP('Body1',#528);
#14=STYLED_ITEM('',(#919),#527);
#15=STYLED_ITEM('',(#918),#13);
#16=CONICAL_SURFACE('',#586,4.625,0.785398163397468);
#17=FACE_BOUND('',#82,.T.);
#18=FACE_BOUND('',#83,.T.);
#19=FACE_BOUND('',#84,.T.);
#20=FACE_BOUND('',#85,.T.);
#21=FACE_BOUND('',#86,.T.);
#22=FACE_BOUND('',#92,.T.);
#23=FACE_BOUND('',#94,.T.);
#24=FACE_BOUND('',#99,.T.);
#25=FACE_BOUND('',#100,.T.);
#26=FACE_BOUND('',#101,.T.);
#27=FACE_BOUND('',#102,.T.);
#28=FACE_BOUND('',#103,.T.);
#29=PLANE('',#562);
#30=PLANE('',#563);
#31=PLANE('',#564);
#32=PLANE('',#570);
#33=PLANE('',#574);
#34=PLANE('',#578);
#35=PLANE('',#579);
#36=PLANE('',#582);
#37=PLANE('',#583);
#38=PLANE('',#587);
#39=PLANE('',#590);
#40=PLANE('',#595);
#41=ELLIPSE('',#558,2.,1.);
#42=ELLIPSE('',#559,1.03527618041008,1.);
#43=ELLIPSE('',#565,2.,1.);
#44=ELLIPSE('',#567,1.03527618041008,1.);
#45=ELLIPSE('',#592,1.25180152804602,1.25);
#46=ELLIPSE('',#594,1.25180152804602,1.25);
#47=FACE_OUTER_BOUND('',#74,.T.);
#48=FACE_OUTER_BOUND('',#75,.T.);
#49=FACE_OUTER_BOUND('',#76,.T.);
#50=FACE_OUTER_BOUND('',#77,.T.);
#51=FACE_OUTER_BOUND('',#78,.T.);
#52=FACE_OUTER_BOUND('',#79,.T.);
#53=FACE_OUTER_BOUND('',#80,.T.);
#54=FACE_OUTER_BOUND('',#81,.T.);
#55=FACE_OUTER_BOUND('',#87,.T.);
#56=FACE_OUTER_BOUND('',#88,.T.);
#57=FACE_OUTER_BOUND('',#89,.T.);
#58=FACE_OUTER_BOUND('',#90,.T.);
#59=FACE_OUTER_BOUND('',#91,.T.);
#60=FACE_OUTER_BOUND('',#93,.T.);
#61=FACE_OUTER_BOUND('',#95,.T.);
#62=FACE_OUTER_BOUND('',#96,.T.);
#63=FACE_OUTER_BOUND('',#97,.T.);
#64=FACE_OUTER_BOUND('',#98,.T.);
#65=FACE_OUTER_BOUND('',#104,.T.);
#66=FACE_OUTER_BOUND('',#105,.T.);
#67=FACE_OUTER_BOUND('',#106,.T.);
#68=FACE_OUTER_BOUND('',#107,.T.);
#69=FACE_OUTER_BOUND('',#108,.T.);
#70=FACE_OUTER_BOUND('',#109,.T.);
#71=FACE_OUTER_BOUND('',#110,.T.);
#72=FACE_OUTER_BOUND('',#111,.T.);
#73=FACE_OUTER_BOUND('',#112,.T.);
#74=EDGE_LOOP('',(#343,#344,#345,#346));
#75=EDGE_LOOP('',(#347,#348,#349,#350));
#76=EDGE_LOOP('',(#351,#352,#353,#354));
#77=EDGE_LOOP('',(#355,#356,#357,#358));
#78=EDGE_LOOP('',(#359,#360,#361,#362));
#79=EDGE_LOOP('',(#363,#364,#365,#366));
#80=EDGE_LOOP('',(#367,#368,#369,#370));
#81=EDGE_LOOP('',(#371,#372,#373,#374));
#82=EDGE_LOOP('',(#375));
#83=EDGE_LOOP('',(#376));
#84=EDGE_LOOP('',(#377));
#85=EDGE_LOOP('',(#378));
#86=EDGE_LOOP('',(#379));
#87=EDGE_LOOP('',(#380,#381,#382,#383));
#88=EDGE_LOOP('',(#384,#385,#386,#387,#388,#389));
#89=EDGE_LOOP('',(#390,#391,#392,#393));
#90=EDGE_LOOP('',(#394,#395,#396,#397));
#91=EDGE_LOOP('',(#398,#399,#400,#401,#402,#403,#404,#405,#406,#407,#408));
#92=EDGE_LOOP('',(#409));
#93=EDGE_LOOP('',(#410,#411,#412,#413,#414,#415,#416,#417,#418,#419,#420));
#94=EDGE_LOOP('',(#421));
#95=EDGE_LOOP('',(#422,#423,#424,#425,#426,#427));
#96=EDGE_LOOP('',(#428,#429,#430,#431,#432,#433,#434));
#97=EDGE_LOOP('',(#435,#436,#437,#438));
#98=EDGE_LOOP('',(#439,#440,#441,#442));
#99=EDGE_LOOP('',(#443));
#100=EDGE_LOOP('',(#444));
#101=EDGE_LOOP('',(#445));
#102=EDGE_LOOP('',(#446));
#103=EDGE_LOOP('',(#447));
#104=EDGE_LOOP('',(#448,#449,#450,#451));
#105=EDGE_LOOP('',(#452,#453,#454,#455));
#106=EDGE_LOOP('',(#456,#457,#458,#459));
#107=EDGE_LOOP('',(#460,#461,#462,#463));
#108=EDGE_LOOP('',(#464,#465,#466,#467));
#109=EDGE_LOOP('',(#468,#469,#470,#471));
#110=EDGE_LOOP('',(#472,#473,#474,#475));
#111=EDGE_LOOP('',(#476,#477,#478,#479));
#112=EDGE_LOOP('',(#480,#481,#482,#483,#484,#485,#486));
#113=LINE('',#756,#158);
#114=LINE('',#762,#159);
#115=LINE('',#768,#160);
#116=LINE('',#774,#161);
#117=LINE('',#780,#162);
#118=LINE('',#785,#163);
#119=LINE('',#789,#164);
#120=LINE('',#793,#165);
#121=LINE('',#796,#166);
#122=LINE('',#799,#167);
#123=LINE('',#801,#168);
#124=LINE('',#802,#169);
#125=LINE('',#805,#170);
#126=LINE('',#806,#171);
#127=LINE('',#809,#172);
#128=LINE('',#811,#173);
#129=LINE('',#813,#174);
#130=LINE('',#817,#175);
#131=LINE('',#821,#176);
#132=LINE('',#827,#177);
#133=LINE('',#831,#178);
#134=LINE('',#833,#179);
#135=LINE('',#835,#180);
#136=LINE('',#837,#181);
#137=LINE('',#838,#182);
#138=LINE('',#843,#183);
#139=LINE('',#845,#184);
#140=LINE('',#847,#185);
#141=LINE('',#849,#186);
#142=LINE('',#851,#187);
#143=LINE('',#855,#188);
#144=LINE('',#860,#189);
#145=LINE('',#862,#190);
#146=LINE('',#866,#191);
#147=LINE('',#869,#192);
#148=LINE('',#872,#193);
#149=LINE('',#873,#194);
#150=LINE('',#877,#195);
#151=LINE('',#880,#196);
#152=LINE('',#882,#197);
#153=LINE('',#883,#198);
#154=LINE('',#885,#199);
#155=LINE('',#889,#200);
#156=LINE('',#891,#201);
#157=LINE('',#892,#202);
#158=VECTOR('',#602,0.899999999999999);
#159=VECTOR('',#609,0.899999999999999);
#160=VECTOR('',#616,0.899999999999999);
#161=VECTOR('',#623,0.899999999999999);
#162=VECTOR('',#630,0.899999999999999);
#163=VECTOR('',#635,10.);
#164=VECTOR('',#638,10.);
#165=VECTOR('',#643,10.);
#166=VECTOR('',#646,10.);
#167=VECTOR('',#649,10.);
#168=VECTOR('',#650,10.);
#169=VECTOR('',#651,10.);
#170=VECTOR('',#654,10.);
#171=VECTOR('',#655,10.);
#172=VECTOR('',#658,10.);
#173=VECTOR('',#659,25.);
#174=VECTOR('',#660,25.);
#175=VECTOR('',#665,10.);
#176=VECTOR('',#670,10.);
#177=VECTOR('',#677,25.);
#178=VECTOR('',#680,25.);
#179=VECTOR('',#681,25.);
#180=VECTOR('',#682,10.);
#181=VECTOR('',#683,25.);
#182=VECTOR('',#684,25.);
#183=VECTOR('',#689,10.);
#184=VECTOR('',#690,10.);
#185=VECTOR('',#691,10.);
#186=VECTOR('',#692,10.);
#187=VECTOR('',#693,25.);
#188=VECTOR('',#696,25.);
#189=VECTOR('',#703,25.);
#190=VECTOR('',#706,25.);
#191=VECTOR('',#709,10.);
#192=VECTOR('',#712,10.);
#193=VECTOR('',#715,25.);
#194=VECTOR('',#716,25.);
#195=VECTOR('',#721,4.125);
#196=VECTOR('',#726,4.62500000000002);
#197=VECTOR('',#729,25.);
#198=VECTOR('',#730,25.);
#199=VECTOR('',#733,25.);
#200=VECTOR('',#738,25.);
#201=VECTOR('',#739,25.);
#202=VECTOR('',#740,25.);
#203=CIRCLE('',#543,0.899999999999999);
#204=CIRCLE('',#544,0.899999999999999);
#205=CIRCLE('',#546,0.899999999999999);
#206=CIRCLE('',#547,0.899999999999999);
#207=CIRCLE('',#549,0.899999999999999);
#208=CIRCLE('',#550,0.899999999999999);
#209=CIRCLE('',#552,0.899999999999999);
#210=CIRCLE('',#553,0.899999999999999);
#211=CIRCLE('',#555,0.899999999999999);
#212=CIRCLE('',#556,0.899999999999999);
#213=CIRCLE('',#561,1.);
#214=CIRCLE('',#569,1.);
#215=CIRCLE('',#571,2.5);
#216=CIRCLE('',#572,2.5);
#217=CIRCLE('',#573,4.125);
#218=CIRCLE('',#575,2.5);
#219=CIRCLE('',#576,2.5);
#220=CIRCLE('',#577,5.12500000000001);
#221=CIRCLE('',#580,1.25);
#222=CIRCLE('',#581,1.25);
#223=CIRCLE('',#585,4.125);
#224=VERTEX_POINT('',#753);
#225=VERTEX_POINT('',#755);
#226=VERTEX_POINT('',#759);
#227=VERTEX_POINT('',#761);
#228=VERTEX_POINT('',#765);
#229=VERTEX_POINT('',#767);
#230=VERTEX_POINT('',#771);
#231=VERTEX_POINT('',#773);
#232=VERTEX_POINT('',#777);
#233=VERTEX_POINT('',#779);
#234=VERTEX_POINT('',#783);
#235=VERTEX_POINT('',#784);
#236=VERTEX_POINT('',#786);
#237=VERTEX_POINT('',#788);
#238=VERTEX_POINT('',#792);
#239=VERTEX_POINT('',#794);
#240=VERTEX_POINT('',#798);
#241=VERTEX_POINT('',#800);
#242=VERTEX_POINT('',#804);
#243=VERTEX_POINT('',#808);
#244=VERTEX_POINT('',#810);
#245=VERTEX_POINT('',#812);
#246=VERTEX_POINT('',#816);
#247=VERTEX_POINT('',#820);
#248=VERTEX_POINT('',#824);
#249=VERTEX_POINT('',#826);
#250=VERTEX_POINT('',#828);
#251=VERTEX_POINT('',#830);
#252=VERTEX_POINT('',#832);
#253=VERTEX_POINT('',#834);
#254=VERTEX_POINT('',#836);
#255=VERTEX_POINT('',#839);
#256=VERTEX_POINT('',#842);
#257=VERTEX_POINT('',#844);
#258=VERTEX_POINT('',#846);
#259=VERTEX_POINT('',#848);
#260=VERTEX_POINT('',#850);
#261=VERTEX_POINT('',#852);
#262=VERTEX_POINT('',#854);
#263=VERTEX_POINT('',#857);
#264=VERTEX_POINT('',#863);
#265=VERTEX_POINT('',#865);
#266=VERTEX_POINT('',#867);
#267=VERTEX_POINT('',#871);
#268=VERTEX_POINT('',#876);
#269=VERTEX_POINT('',#888);
#270=VERTEX_POINT('',#890);
#271=EDGE_CURVE('',#224,#224,#203,.T.);
#272=EDGE_CURVE('',#224,#225,#113,.T.);
#273=EDGE_CURVE('',#225,#225,#204,.T.);
#274=EDGE_CURVE('',#226,#226,#205,.T.);
#275=EDGE_CURVE('',#226,#227,#114,.T.);
#276=EDGE_CURVE('',#227,#227,#206,.T.);
#277=EDGE_CURVE('',#228,#228,#207,.T.);
#278=EDGE_CURVE('',#228,#229,#115,.T.);
#279=EDGE_CURVE('',#229,#229,#208,.T.);
#280=EDGE_CURVE('',#230,#230,#209,.T.);
#281=EDGE_CURVE('',#230,#231,#116,.T.);
#282=EDGE_CURVE('',#231,#231,#210,.T.);
#283=EDGE_CURVE('',#232,#232,#211,.T.);
#284=EDGE_CURVE('',#232,#233,#117,.T.);
#285=EDGE_CURVE('',#233,#233,#212,.T.);
#286=EDGE_CURVE('',#234,#235,#118,.T.);
#287=EDGE_CURVE('',#235,#236,#41,.T.);
#288=EDGE_CURVE('',#236,#237,#119,.T.);
#289=EDGE_CURVE('',#237,#234,#42,.T.);
#290=EDGE_CURVE('',#237,#238,#120,.T.);
#291=EDGE_CURVE('',#238,#239,#213,.T.);
#292=EDGE_CURVE('',#239,#234,#121,.T.);
#293=EDGE_CURVE('',#240,#237,#122,.T.);
#294=EDGE_CURVE('',#241,#240,#123,.T.);
#295=EDGE_CURVE('',#238,#241,#124,.T.);
#296=EDGE_CURVE('',#242,#236,#125,.T.);
#297=EDGE_CURVE('',#240,#242,#126,.T.);
#298=EDGE_CURVE('',#235,#243,#127,.T.);
#299=EDGE_CURVE('',#244,#243,#128,.T.);
#300=EDGE_CURVE('',#245,#244,#129,.T.);
#301=EDGE_CURVE('',#242,#245,#43,.T.);
#302=EDGE_CURVE('',#245,#246,#130,.T.);
#303=EDGE_CURVE('',#246,#240,#44,.T.);
#304=EDGE_CURVE('',#246,#247,#131,.T.);
#305=EDGE_CURVE('',#247,#241,#214,.T.);
#306=EDGE_CURVE('',#248,#244,#215,.T.);
#307=EDGE_CURVE('',#249,#248,#132,.T.);
#308=EDGE_CURVE('',#250,#249,#216,.T.);
#309=EDGE_CURVE('',#250,#251,#133,.T.);
#310=EDGE_CURVE('',#252,#251,#134,.T.);
#311=EDGE_CURVE('',#252,#253,#135,.T.);
#312=EDGE_CURVE('',#253,#254,#136,.T.);
#313=EDGE_CURVE('',#254,#247,#137,.T.);
#314=EDGE_CURVE('',#255,#255,#217,.T.);
#315=EDGE_CURVE('',#256,#239,#138,.T.);
#316=EDGE_CURVE('',#256,#257,#139,.T.);
#317=EDGE_CURVE('',#257,#258,#140,.T.);
#318=EDGE_CURVE('',#259,#258,#141,.T.);
#319=EDGE_CURVE('',#259,#260,#142,.T.);
#320=EDGE_CURVE('',#261,#260,#218,.T.);
#321=EDGE_CURVE('',#262,#261,#143,.T.);
#322=EDGE_CURVE('',#243,#262,#219,.T.);
#323=EDGE_CURVE('',#263,#263,#220,.T.);
#324=EDGE_CURVE('',#254,#256,#144,.T.);
#325=EDGE_CURVE('',#253,#257,#145,.T.);
#326=EDGE_CURVE('',#264,#252,#221,.T.);
#327=EDGE_CURVE('',#265,#264,#146,.T.);
#328=EDGE_CURVE('',#266,#265,#222,.T.);
#329=EDGE_CURVE('',#258,#266,#147,.T.);
#330=EDGE_CURVE('',#267,#266,#148,.T.);
#331=EDGE_CURVE('',#267,#259,#149,.T.);
#332=EDGE_CURVE('',#255,#268,#150,.T.);
#333=EDGE_CURVE('',#268,#268,#223,.T.);
#334=EDGE_CURVE('',#263,#268,#151,.T.);
#335=EDGE_CURVE('',#262,#248,#152,.T.);
#336=EDGE_CURVE('',#249,#261,#153,.T.);
#337=EDGE_CURVE('',#260,#250,#154,.T.);
#338=EDGE_CURVE('',#269,#264,#155,.T.);
#339=EDGE_CURVE('',#269,#270,#156,.T.);
#340=EDGE_CURVE('',#265,#270,#157,.T.);
#341=EDGE_CURVE('',#251,#269,#45,.T.);
#342=EDGE_CURVE('',#270,#267,#46,.T.);
#343=ORIENTED_EDGE('',*,*,#271,.F.);
#344=ORIENTED_EDGE('',*,*,#272,.T.);
#345=ORIENTED_EDGE('',*,*,#273,.F.);
#346=ORIENTED_EDGE('',*,*,#272,.F.);
#347=ORIENTED_EDGE('',*,*,#274,.F.);
#348=ORIENTED_EDGE('',*,*,#275,.T.);
#349=ORIENTED_EDGE('',*,*,#276,.F.);
#350=ORIENTED_EDGE('',*,*,#275,.F.);
#351=ORIENTED_EDGE('',*,*,#277,.F.);
#352=ORIENTED_EDGE('',*,*,#278,.T.);
#353=ORIENTED_EDGE('',*,*,#279,.F.);
#354=ORIENTED_EDGE('',*,*,#278,.F.);
#355=ORIENTED_EDGE('',*,*,#280,.F.);
#356=ORIENTED_EDGE('',*,*,#281,.T.);
#357=ORIENTED_EDGE('',*,*,#282,.F.);
#358=ORIENTED_EDGE('',*,*,#281,.F.);
#359=ORIENTED_EDGE('',*,*,#283,.F.);
#360=ORIENTED_EDGE('',*,*,#284,.T.);
#361=ORIENTED_EDGE('',*,*,#285,.F.);
#362=ORIENTED_EDGE('',*,*,#284,.F.);
#363=ORIENTED_EDGE('',*,*,#286,.T.);
#364=ORIENTED_EDGE('',*,*,#287,.T.);
#365=ORIENTED_EDGE('',*,*,#288,.T.);
#366=ORIENTED_EDGE('',*,*,#289,.T.);
#367=ORIENTED_EDGE('',*,*,#290,.T.);
#368=ORIENTED_EDGE('',*,*,#291,.T.);
#369=ORIENTED_EDGE('',*,*,#292,.T.);
#370=ORIENTED_EDGE('',*,*,#289,.F.);
#371=ORIENTED_EDGE('',*,*,#290,.F.);
#372=ORIENTED_EDGE('',*,*,#293,.F.);
#373=ORIENTED_EDGE('',*,*,#294,.F.);
#374=ORIENTED_EDGE('',*,*,#295,.F.);
#375=ORIENTED_EDGE('',*,*,#283,.T.);
#376=ORIENTED_EDGE('',*,*,#280,.T.);
#377=ORIENTED_EDGE('',*,*,#277,.T.);
#378=ORIENTED_EDGE('',*,*,#274,.T.);
#379=ORIENTED_EDGE('',*,*,#271,.T.);
#380=ORIENTED_EDGE('',*,*,#288,.F.);
#381=ORIENTED_EDGE('',*,*,#296,.F.);
#382=ORIENTED_EDGE('',*,*,#297,.F.);
#383=ORIENTED_EDGE('',*,*,#293,.T.);
#384=ORIENTED_EDGE('',*,*,#287,.F.);
#385=ORIENTED_EDGE('',*,*,#298,.T.);
#386=ORIENTED_EDGE('',*,*,#299,.F.);
#387=ORIENTED_EDGE('',*,*,#300,.F.);
#388=ORIENTED_EDGE('',*,*,#301,.F.);
#389=ORIENTED_EDGE('',*,*,#296,.T.);
#390=ORIENTED_EDGE('',*,*,#297,.T.);
#391=ORIENTED_EDGE('',*,*,#301,.T.);
#392=ORIENTED_EDGE('',*,*,#302,.T.);
#393=ORIENTED_EDGE('',*,*,#303,.T.);
#394=ORIENTED_EDGE('',*,*,#304,.T.);
#395=ORIENTED_EDGE('',*,*,#305,.T.);
#396=ORIENTED_EDGE('',*,*,#294,.T.);
#397=ORIENTED_EDGE('',*,*,#303,.F.);
#398=ORIENTED_EDGE('',*,*,#304,.F.);
#399=ORIENTED_EDGE('',*,*,#302,.F.);
#400=ORIENTED_EDGE('',*,*,#300,.T.);
#401=ORIENTED_EDGE('',*,*,#306,.F.);
#402=ORIENTED_EDGE('',*,*,#307,.F.);
#403=ORIENTED_EDGE('',*,*,#308,.F.);
#404=ORIENTED_EDGE('',*,*,#309,.T.);
#405=ORIENTED_EDGE('',*,*,#310,.F.);
#406=ORIENTED_EDGE('',*,*,#311,.T.);
#407=ORIENTED_EDGE('',*,*,#312,.T.);
#408=ORIENTED_EDGE('',*,*,#313,.T.);
#409=ORIENTED_EDGE('',*,*,#314,.T.);
#410=ORIENTED_EDGE('',*,*,#292,.F.);
#411=ORIENTED_EDGE('',*,*,#315,.F.);
#412=ORIENTED_EDGE('',*,*,#316,.T.);
#413=ORIENTED_EDGE('',*,*,#317,.T.);
#414=ORIENTED_EDGE('',*,*,#318,.F.);
#415=ORIENTED_EDGE('',*,*,#319,.T.);
#416=ORIENTED_EDGE('',*,*,#320,.F.);
#417=ORIENTED_EDGE('',*,*,#321,.F.);
#418=ORIENTED_EDGE('',*,*,#322,.F.);
#419=ORIENTED_EDGE('',*,*,#298,.F.);
#420=ORIENTED_EDGE('',*,*,#286,.F.);
#421=ORIENTED_EDGE('',*,*,#323,.F.);
#422=ORIENTED_EDGE('',*,*,#291,.F.);
#423=ORIENTED_EDGE('',*,*,#295,.T.);
#424=ORIENTED_EDGE('',*,*,#305,.F.);
#425=ORIENTED_EDGE('',*,*,#313,.F.);
#426=ORIENTED_EDGE('',*,*,#324,.T.);
#427=ORIENTED_EDGE('',*,*,#315,.T.);
#428=ORIENTED_EDGE('',*,*,#317,.F.);
#429=ORIENTED_EDGE('',*,*,#325,.F.);
#430=ORIENTED_EDGE('',*,*,#311,.F.);
#431=ORIENTED_EDGE('',*,*,#326,.F.);
#432=ORIENTED_EDGE('',*,*,#327,.F.);
#433=ORIENTED_EDGE('',*,*,#328,.F.);
#434=ORIENTED_EDGE('',*,*,#329,.F.);
#435=ORIENTED_EDGE('',*,*,#329,.T.);
#436=ORIENTED_EDGE('',*,*,#330,.F.);
#437=ORIENTED_EDGE('',*,*,#331,.T.);
#438=ORIENTED_EDGE('',*,*,#318,.T.);
#439=ORIENTED_EDGE('',*,*,#316,.F.);
#440=ORIENTED_EDGE('',*,*,#324,.F.);
#441=ORIENTED_EDGE('',*,*,#312,.F.);
#442=ORIENTED_EDGE('',*,*,#325,.T.);
#443=ORIENTED_EDGE('',*,*,#285,.T.);
#444=ORIENTED_EDGE('',*,*,#282,.T.);
#445=ORIENTED_EDGE('',*,*,#279,.T.);
#446=ORIENTED_EDGE('',*,*,#276,.T.);
#447=ORIENTED_EDGE('',*,*,#273,.T.);
#448=ORIENTED_EDGE('',*,*,#314,.F.);
#449=ORIENTED_EDGE('',*,*,#332,.T.);
#450=ORIENTED_EDGE('',*,*,#333,.F.);
#451=ORIENTED_EDGE('',*,*,#332,.F.);
#452=ORIENTED_EDGE('',*,*,#323,.T.);
#453=ORIENTED_EDGE('',*,*,#334,.T.);
#454=ORIENTED_EDGE('',*,*,#333,.T.);
#455=ORIENTED_EDGE('',*,*,#334,.F.);
#456=ORIENTED_EDGE('',*,*,#335,.F.);
#457=ORIENTED_EDGE('',*,*,#321,.T.);
#458=ORIENTED_EDGE('',*,*,#336,.F.);
#459=ORIENTED_EDGE('',*,*,#307,.T.);
#460=ORIENTED_EDGE('',*,*,#308,.T.);
#461=ORIENTED_EDGE('',*,*,#336,.T.);
#462=ORIENTED_EDGE('',*,*,#320,.T.);
#463=ORIENTED_EDGE('',*,*,#337,.T.);
#464=ORIENTED_EDGE('',*,*,#322,.T.);
#465=ORIENTED_EDGE('',*,*,#335,.T.);
#466=ORIENTED_EDGE('',*,*,#306,.T.);
#467=ORIENTED_EDGE('',*,*,#299,.T.);
#468=ORIENTED_EDGE('',*,*,#327,.T.);
#469=ORIENTED_EDGE('',*,*,#338,.F.);
#470=ORIENTED_EDGE('',*,*,#339,.T.);
#471=ORIENTED_EDGE('',*,*,#340,.F.);
#472=ORIENTED_EDGE('',*,*,#326,.T.);
#473=ORIENTED_EDGE('',*,*,#310,.T.);
#474=ORIENTED_EDGE('',*,*,#341,.T.);
#475=ORIENTED_EDGE('',*,*,#338,.T.);
#476=ORIENTED_EDGE('',*,*,#328,.T.);
#477=ORIENTED_EDGE('',*,*,#340,.T.);
#478=ORIENTED_EDGE('',*,*,#342,.T.);
#479=ORIENTED_EDGE('',*,*,#330,.T.);
#480=ORIENTED_EDGE('',*,*,#319,.F.);
#481=ORIENTED_EDGE('',*,*,#331,.F.);
#482=ORIENTED_EDGE('',*,*,#342,.F.);
#483=ORIENTED_EDGE('',*,*,#339,.F.);
#484=ORIENTED_EDGE('',*,*,#341,.F.);
#485=ORIENTED_EDGE('',*,*,#309,.F.);
#486=ORIENTED_EDGE('',*,*,#337,.F.);
#487=CYLINDRICAL_SURFACE('',#542,0.899999999999999);
#488=CYLINDRICAL_SURFACE('',#545,0.899999999999999);
#489=CYLINDRICAL_SURFACE('',#548,0.899999999999999);
#490=CYLINDRICAL_SURFACE('',#551,0.899999999999999);
#491=CYLINDRICAL_SURFACE('',#554,0.899999999999999);
#492=CYLINDRICAL_SURFACE('',#557,1.);
#493=CYLINDRICAL_SURFACE('',#560,1.);
#494=CYLINDRICAL_SURFACE('',#566,1.);
#495=CYLINDRICAL_SURFACE('',#568,1.);
#496=CYLINDRICAL_SURFACE('',#584,4.125);
#497=CYLINDRICAL_SURFACE('',#588,2.5);
#498=CYLINDRICAL_SURFACE('',#589,2.5);
#499=CYLINDRICAL_SURFACE('',#591,1.25);
#500=CYLINDRICAL_SURFACE('',#593,1.25);
#501=ADVANCED_FACE('',(#47),#487,.F.);
#502=ADVANCED_FACE('',(#48),#488,.F.);
#503=ADVANCED_FACE('',(#49),#489,.F.);
#504=ADVANCED_FACE('',(#50),#490,.F.);
#505=ADVANCED_FACE('',(#51),#491,.F.);
#506=ADVANCED_FACE('',(#52),#492,.T.);
#507=ADVANCED_FACE('',(#53),#493,.T.);
#508=ADVANCED_FACE('',(#54,#17,#18,#19,#20,#21),#29,.F.);
#509=ADVANCED_FACE('',(#55),#30,.F.);
#510=ADVANCED_FACE('',(#56),#31,.T.);
#511=ADVANCED_FACE('',(#57),#494,.T.);
#512=ADVANCED_FACE('',(#58),#495,.T.);
#513=ADVANCED_FACE('',(#59,#22),#32,.T.);
#514=ADVANCED_FACE('',(#60,#23),#33,.F.);
#515=ADVANCED_FACE('',(#61),#34,.T.);
#516=ADVANCED_FACE('',(#62),#35,.F.);
#517=ADVANCED_FACE('',(#63),#36,.T.);
#518=ADVANCED_FACE('',(#64,#24,#25,#26,#27,#28),#37,.F.);
#519=ADVANCED_FACE('',(#65),#496,.F.);
#520=ADVANCED_FACE('',(#66),#16,.F.);
#521=ADVANCED_FACE('',(#67),#38,.T.);
#522=ADVANCED_FACE('',(#68),#497,.T.);
#523=ADVANCED_FACE('',(#69),#498,.T.);
#524=ADVANCED_FACE('',(#70),#39,.T.);
#525=ADVANCED_FACE('',(#71),#499,.T.);
#526=ADVANCED_FACE('',(#72),#500,.T.);
#527=ADVANCED_FACE('',(#73),#40,.F.);
#528=CLOSED_SHELL('',(#501,#502,#503,#504,#505,#506,#507,#508,#509,#510,
#511,#512,#513,#514,#515,#516,#517,#518,#519,#520,#521,#522,#523,#524,#525,
#526,#527));
#529=DERIVED_UNIT_ELEMENT(#531,1.);
#530=DERIVED_UNIT_ELEMENT(#903,-3.);
#531=(
MASS_UNIT()
NAMED_UNIT(*)
SI_UNIT(.KILO.,.GRAM.)
);
#532=DERIVED_UNIT((#529,#530));
#533=MEASURE_REPRESENTATION_ITEM('density measure',
POSITIVE_RATIO_MEASURE(7850.),#532);
#534=PROPERTY_DEFINITION_REPRESENTATION(#539,#536);
#535=PROPERTY_DEFINITION_REPRESENTATION(#540,#537);
#536=REPRESENTATION('material name',(#538),#900);
#537=REPRESENTATION('density',(#533),#900);
#538=DESCRIPTIVE_REPRESENTATION_ITEM('Steel','Steel');
#539=PROPERTY_DEFINITION('material property','material name',#910);
#540=PROPERTY_DEFINITION('material property','density of part',#910);
#541=AXIS2_PLACEMENT_3D('',#751,#596,#597);
#542=AXIS2_PLACEMENT_3D('',#752,#598,#599);
#543=AXIS2_PLACEMENT_3D('',#754,#600,#601);
#544=AXIS2_PLACEMENT_3D('',#757,#603,#604);
#545=AXIS2_PLACEMENT_3D('',#758,#605,#606);
#546=AXIS2_PLACEMENT_3D('',#760,#607,#608);
#547=AXIS2_PLACEMENT_3D('',#763,#610,#611);
#548=AXIS2_PLACEMENT_3D('',#764,#612,#613);
#549=AXIS2_PLACEMENT_3D('',#766,#614,#615);
#550=AXIS2_PLACEMENT_3D('',#769,#617,#618);
#551=AXIS2_PLACEMENT_3D('',#770,#619,#620);
#552=AXIS2_PLACEMENT_3D('',#772,#621,#622);
#553=AXIS2_PLACEMENT_3D('',#775,#624,#625);
#554=AXIS2_PLACEMENT_3D('',#776,#626,#627);
#555=AXIS2_PLACEMENT_3D('',#778,#628,#629);
#556=AXIS2_PLACEMENT_3D('',#781,#631,#632);
#557=AXIS2_PLACEMENT_3D('',#782,#633,#634);
#558=AXIS2_PLACEMENT_3D('',#787,#636,#637);
#559=AXIS2_PLACEMENT_3D('',#790,#639,#640);
#560=AXIS2_PLACEMENT_3D('',#791,#641,#642);
#561=AXIS2_PLACEMENT_3D('',#795,#644,#645);
#562=AXIS2_PLACEMENT_3D('',#797,#647,#648);
#563=AXIS2_PLACEMENT_3D('',#803,#652,#653);
#564=AXIS2_PLACEMENT_3D('',#807,#656,#657);
#565=AXIS2_PLACEMENT_3D('',#814,#661,#662);
#566=AXIS2_PLACEMENT_3D('',#815,#663,#664);
#567=AXIS2_PLACEMENT_3D('',#818,#666,#667);
#568=AXIS2_PLACEMENT_3D('',#819,#668,#669);
#569=AXIS2_PLACEMENT_3D('',#822,#671,#672);
#570=AXIS2_PLACEMENT_3D('',#823,#673,#674);
#571=AXIS2_PLACEMENT_3D('',#825,#675,#676);
#572=AXIS2_PLACEMENT_3D('',#829,#678,#679);
#573=AXIS2_PLACEMENT_3D('',#840,#685,#686);
#574=AXIS2_PLACEMENT_3D('',#841,#687,#688);
#575=AXIS2_PLACEMENT_3D('',#853,#694,#695);
#576=AXIS2_PLACEMENT_3D('',#856,#697,#698);
#577=AXIS2_PLACEMENT_3D('',#858,#699,#700);
#578=AXIS2_PLACEMENT_3D('',#859,#701,#702);
#579=AXIS2_PLACEMENT_3D('',#861,#704,#705);
#580=AXIS2_PLACEMENT_3D('',#864,#707,#708);
#581=AXIS2_PLACEMENT_3D('',#868,#710,#711);
#582=AXIS2_PLACEMENT_3D('',#870,#713,#714);
#583=AXIS2_PLACEMENT_3D('',#874,#717,#718);
#584=AXIS2_PLACEMENT_3D('',#875,#719,#720);
#585=AXIS2_PLACEMENT_3D('',#878,#722,#723);
#586=AXIS2_PLACEMENT_3D('',#879,#724,#725);
#587=AXIS2_PLACEMENT_3D('',#881,#727,#728);
#588=AXIS2_PLACEMENT_3D('',#884,#731,#732);
#589=AXIS2_PLACEMENT_3D('',#886,#734,#735);
#590=AXIS2_PLACEMENT_3D('',#887,#736,#737);
#591=AXIS2_PLACEMENT_3D('',#893,#741,#742);
#592=AXIS2_PLACEMENT_3D('',#894,#743,#744);
#593=AXIS2_PLACEMENT_3D('',#895,#745,#746);
#594=AXIS2_PLACEMENT_3D('',#896,#747,#748);
#595=AXIS2_PLACEMENT_3D('',#897,#749,#750);
#596=DIRECTION('axis',(0.,0.,1.));
#597=DIRECTION('refdir',(1.,0.,0.));
#598=DIRECTION('center_axis',(0.,-1.,0.));
#599=DIRECTION('ref_axis',(-1.,0.,0.));
#600=DIRECTION('center_axis',(1.66533453693768E-16,-1.,-1.23282335388766E-14));
#601=DIRECTION('ref_axis',(-1.,0.,0.));
#602=DIRECTION('',(0.,-1.,0.));
#603=DIRECTION('center_axis',(2.73518581521289E-15,1.,1.18710101506821E-14));
#604=DIRECTION('ref_axis',(-1.,0.,0.));
#605=DIRECTION('center_axis',(0.,-1.,0.));
#606=DIRECTION('ref_axis',(-1.,0.,0.));
#607=DIRECTION('center_axis',(1.66533453693768E-16,-1.,-1.23282335388766E-14));
#608=DIRECTION('ref_axis',(-1.,0.,0.));
#609=DIRECTION('',(0.,-1.,0.));
#610=DIRECTION('center_axis',(2.73518581521289E-15,1.,1.18710101506821E-14));
#611=DIRECTION('ref_axis',(-1.,0.,0.));
#612=DIRECTION('center_axis',(0.,-1.,0.));
#613=DIRECTION('ref_axis',(-1.,0.,0.));
#614=DIRECTION('center_axis',(1.66533453693768E-16,-1.,-1.23282335388766E-14));
#615=DIRECTION('ref_axis',(-1.,0.,0.));
#616=DIRECTION('',(0.,-1.,0.));
#617=DIRECTION('center_axis',(2.73518581521289E-15,1.,1.18710101506821E-14));
#618=DIRECTION('ref_axis',(-1.,0.,0.));
#619=DIRECTION('center_axis',(0.,-1.,0.));
#620=DIRECTION('ref_axis',(-1.,0.,0.));
#621=DIRECTION('center_axis',(1.66533453693768E-16,-1.,-1.23282335388766E-14));
#622=DIRECTION('ref_axis',(-1.,0.,0.));
#623=DIRECTION('',(0.,-1.,0.));
#624=DIRECTION('center_axis',(2.73518581521289E-15,1.,1.18710101506821E-14));
#625=DIRECTION('ref_axis',(-1.,0.,0.));
#626=DIRECTION('center_axis',(0.,-1.,0.));
#627=DIRECTION('ref_axis',(-1.,0.,0.));
#628=DIRECTION('center_axis',(1.66533453693768E-16,-1.,-1.23282335388766E-14));
#629=DIRECTION('ref_axis',(-1.,0.,0.));
#630=DIRECTION('',(0.,-1.,0.));
#631=DIRECTION('center_axis',(2.73518581521289E-15,1.,1.18710101506821E-14));
#632=DIRECTION('ref_axis',(-1.,0.,0.));
#633=DIRECTION('center_axis',(1.55377827586274E-16,-0.499999999999989,-0.866025403784445));
#634=DIRECTION('ref_axis',(-0.707106781186552,0.612372435695797,-0.353553390593262));
#635=DIRECTION('',(-1.55377827586274E-16,0.499999999999989,0.866025403784445));
#636=DIRECTION('center_axis',(1.66533453693768E-16,-1.,-1.23282335388766E-14));
#637=DIRECTION('ref_axis',(1.52655665885967E-16,1.23282335388766E-14,-1.));
#638=DIRECTION('',(1.55377827586274E-16,-0.499999999999989,-0.866025403784445));
#639=DIRECTION('center_axis',(2.02125467345776E-15,0.258819045102509,0.965925826289072));
#640=DIRECTION('ref_axis',(-8.14375896237349E-15,0.965925826289072,-0.258819045102509));
#641=DIRECTION('center_axis',(8.32667268468943E-17,1.23282335388766E-14,
-1.));
#642=DIRECTION('ref_axis',(-0.707106781186554,0.707106781186541,8.65849906819036E-15));
#643=DIRECTION('',(8.32667268468943E-17,1.23282335388766E-14,-1.));
#644=DIRECTION('center_axis',(-8.32667268468943E-17,-1.23698669016797E-14,
1.));
#645=DIRECTION('ref_axis',(-0.707106781186554,0.707106781186541,8.65849906819036E-15));
#646=DIRECTION('',(-8.32667268468943E-17,-1.23282335388766E-14,1.));
#647=DIRECTION('center_axis',(1.66533453693768E-16,-1.,-1.23282335388766E-14));
#648=DIRECTION('ref_axis',(1.,1.66533453693767E-16,8.32667268468964E-17));
#649=DIRECTION('',(-1.,-1.66533453693767E-16,-8.32667268468964E-17));
#650=DIRECTION('',(-8.32667268468943E-17,-1.23282335388766E-14,1.));
#651=DIRECTION('',(1.,1.66533453693767E-16,8.32667268468964E-17));
#652=DIRECTION('center_axis',(1.02588838055315E-16,-0.866025403784445,0.499999999999989));
#653=DIRECTION('ref_axis',(1.55377827586274E-16,-0.499999999999989,-0.866025403784445));
#654=DIRECTION('',(-1.,-1.66533453693767E-16,-8.32667268468964E-17));
#655=DIRECTION('',(-1.55377827586274E-16,0.499999999999989,0.866025403784445));
#656=DIRECTION('center_axis',(-1.66533453693768E-16,1.,1.23282335388766E-14));
#657=DIRECTION('ref_axis',(-8.32667268468943E-17,-1.23282335388766E-14,
1.));
#658=DIRECTION('',(4.33360616103155E-16,-1.23282335388766E-14,1.));
#659=DIRECTION('',(-1.,-1.66533453693767E-16,-8.32667268468964E-17));
#660=DIRECTION('',(-8.32667268468943E-17,-1.23282335388766E-14,1.));
#661=DIRECTION('center_axis',(1.66533453693768E-16,-1.,-1.23282335388766E-14));
#662=DIRECTION('ref_axis',(1.38777878078221E-17,1.23282335388766E-14,-1.));
#663=DIRECTION('center_axis',(-1.55377827586274E-16,0.499999999999989,0.866025403784445));
#664=DIRECTION('ref_axis',(0.707106781186554,0.612372435695793,-0.353553390593263));
#665=DIRECTION('',(1.55377827586274E-16,-0.499999999999989,-0.866025403784445));
#666=DIRECTION('center_axis',(-1.23531511394618E-16,0.258819045102507,0.965925826289072));
#667=DIRECTION('ref_axis',(1.39307949132599E-16,-0.965925826289072,0.258819045102507));
#668=DIRECTION('center_axis',(-8.32667268468943E-17,-1.23282335388766E-14,
1.));
#669=DIRECTION('ref_axis',(0.707106781186554,0.707106781186541,8.77625600259166E-15));
#670=DIRECTION('',(8.32667268468943E-17,1.23282335388766E-14,-1.));
#671=DIRECTION('center_axis',(-8.32667268468943E-17,-1.23698669016797E-14,
1.));
#672=DIRECTION('ref_axis',(0.707106781186554,0.707106781186541,8.77625600259166E-15));
#673=DIRECTION('center_axis',(1.,1.66533453693767E-16,8.32667268468964E-17));
#674=DIRECTION('ref_axis',(-1.66533453693768E-16,1.,1.23282335388766E-14));
#675=DIRECTION('center_axis',(-1.,-1.66533453693767E-16,-8.32667268468964E-17));
#676=DIRECTION('ref_axis',(-1.85721646177664E-16,0.923879532511283,0.3826834323651));
#677=DIRECTION('',(-5.88784672006321E-17,0.707106781186557,-0.707106781186538));
#678=DIRECTION('center_axis',(-1.,-1.66533453693767E-16,-8.32667268468964E-17));
#679=DIRECTION('ref_axis',(-1.40658018336197E-16,0.382683432365078,0.923879532511292));
#680=DIRECTION('',(1.70759419614557E-16,-0.998560851696011,-0.0536304527310403));
#681=DIRECTION('',(-8.32667268468943E-17,-1.23282335388766E-14,1.));
#682=DIRECTION('',(-1.66533453693768E-16,1.,1.18710101506821E-14));
#683=DIRECTION('',(8.32667268468944E-17,1.18710101506821E-14,-1.));
#684=DIRECTION('',(-1.66533453693768E-16,1.,1.23698669016797E-14));
#685=DIRECTION('center_axis',(-1.,-1.66533453693767E-16,-8.32667268468964E-17));
#686=DIRECTION('ref_axis',(1.44833640030645E-15,1.,1.23559157932027E-14));
#687=DIRECTION('center_axis',(1.,1.66533453693767E-16,8.32667268468964E-17));
#688=DIRECTION('ref_axis',(-1.66533453693768E-16,1.,1.23282335388766E-14));
#689=DIRECTION('',(-1.66533453693768E-16,1.,1.23698669016797E-14));
#690=DIRECTION('',(-8.32667268468944E-17,-1.18656406119495E-14,1.));
#691=DIRECTION('',(1.66533453693768E-16,-1.,-1.18710101506821E-14));
#692=DIRECTION('',(8.32667268468943E-17,1.23282335388766E-14,-1.));
#693=DIRECTION('',(-1.70759419614557E-16,0.998560851696011,0.0536304527310403));
#694=DIRECTION('center_axis',(1.,1.66533453693767E-16,8.32667268468964E-17));
#695=DIRECTION('ref_axis',(-1.40658018336197E-16,0.382683432365078,0.923879532511292));
#696=DIRECTION('',(5.88784672006321E-17,-0.707106781186557,0.707106781186538));
#697=DIRECTION('center_axis',(1.,1.66533453693767E-16,8.32667268468964E-17));
#698=DIRECTION('ref_axis',(-1.85721646177664E-16,0.923879532511283,0.3826834323651));
#699=DIRECTION('center_axis',(-1.,-1.66533453693767E-16,-8.32667268468964E-17));
#700=DIRECTION('ref_axis',(-1.66533453693768E-16,1.,1.23559157932027E-14));
#701=DIRECTION('center_axis',(8.32667268468943E-17,1.23698669016797E-14,
-1.));
#702=DIRECTION('ref_axis',(-1.66533453693768E-16,1.,1.23698669016797E-14));
#703=DIRECTION('',(-1.,2.7351858152129E-15,-8.32667268468605E-17));
#704=DIRECTION('center_axis',(-4.61751848878197E-16,-1.18710101506821E-14,
1.));
#705=DIRECTION('ref_axis',(2.74394615026111E-15,1.,1.18710101506821E-14));
#706=DIRECTION('',(-1.,2.7351858152129E-15,-4.61751848878164E-16));
#707=DIRECTION('center_axis',(-4.61751848878197E-16,-1.18710101506821E-14,
1.));
#708=DIRECTION('ref_axis',(0.923879532511282,-0.382683432365101,-4.64088230098281E-15));
#709=DIRECTION('',(0.707106781186546,0.707106781186549,8.72057964064888E-15));
#710=DIRECTION('center_axis',(-4.61751848878197E-16,-1.18710101506821E-14,
1.));
#711=DIRECTION('ref_axis',(0.382683432365105,-0.92387953251128,-1.13579378417556E-14));
#712=DIRECTION('',(1.,1.66533453693762E-16,4.61751848878199E-16));
#713=DIRECTION('center_axis',(1.66533453693768E-16,-1.,-1.23282335388766E-14));
#714=DIRECTION('ref_axis',(8.32667268468943E-17,1.23282335388766E-14,-1.));
#715=DIRECTION('',(8.32667268468943E-17,1.23282335388766E-14,-1.));
#716=DIRECTION('',(-1.,-1.66533453693767E-16,-8.32667268468964E-17));
#717=DIRECTION('center_axis',(2.73518581521289E-15,1.,1.18710101506821E-14));
#718=DIRECTION('ref_axis',(4.33680868994208E-16,1.18710101506821E-14,-1.));
#719=DIRECTION('center_axis',(-1.,1.44833640030646E-15,-4.86984190346932E-16));
#720=DIRECTION('ref_axis',(1.44833640030645E-15,1.,1.23559157932027E-14));
#721=DIRECTION('',(-1.,1.44833640030646E-15,-4.86984190346932E-16));
#722=DIRECTION('center_axis',(1.,1.66533453693767E-16,8.32667268468964E-17));
#723=DIRECTION('ref_axis',(1.44833640030645E-15,1.,1.23559157932027E-14));
#724=DIRECTION('center_axis',(-1.,-1.66533453693767E-16,-8.32667268468964E-17));
#725=DIRECTION('ref_axis',(5.53611210927951E-16,1.,1.23559157932027E-14));
#726=DIRECTION('',(0.707106781186536,0.707106781186559,8.70923470672086E-15));
#727=DIRECTION('center_axis',(-1.76635401601926E-16,0.707106781186538,0.707106781186557));
#728=DIRECTION('ref_axis',(-1.,-1.66533453693767E-16,-8.32667268468964E-17));
#729=DIRECTION('',(1.,1.66533453693767E-16,8.32667268468964E-17));
#730=DIRECTION('',(-1.,-1.66533453693767E-16,-8.32667268468964E-17));
#731=DIRECTION('center_axis',(1.,1.66533453693767E-16,8.32667268468964E-17));
#732=DIRECTION('ref_axis',(-1.40658018336197E-16,0.382683432365078,0.923879532511292));
#733=DIRECTION('',(1.,1.66533453693767E-16,8.32667268468964E-17));
#734=DIRECTION('center_axis',(-1.,-1.66533453693767E-16,-8.32667268468964E-17));
#735=DIRECTION('ref_axis',(-1.85721646177664E-16,0.923879532511283,0.3826834323651));
#736=DIRECTION('center_axis',(0.707106781186549,-0.707106781186546,-8.65849906819042E-15));
#737=DIRECTION('ref_axis',(0.707106781186546,0.707106781186549,8.77625600259175E-15));
#738=DIRECTION('',(8.32667268468943E-17,1.23282335388766E-14,-1.));
#739=DIRECTION('',(-0.706597415832792,-0.706597415832795,-0.0379497546347153));
#740=DIRECTION('',(-8.32667268468943E-17,-1.23282335388766E-14,1.));
#741=DIRECTION('center_axis',(-8.32667268468943E-17,-1.23282335388766E-14,
1.));
#742=DIRECTION('ref_axis',(0.923879532511282,-0.382683432365101,-4.64088230098281E-15));
#743=DIRECTION('center_axis',(7.42156291617156E-17,0.0536304527310403,-0.998560851696011));
#744=DIRECTION('ref_axis',(-2.04649107846988E-15,-0.998560851696011,-0.0536304527310403));
#745=DIRECTION('center_axis',(8.32667268468943E-17,1.23282335388766E-14,
-1.));
#746=DIRECTION('ref_axis',(0.382683432365105,-0.92387953251128,-1.13579378417556E-14));
#747=DIRECTION('center_axis',(7.42156291617156E-17,0.0536304527310403,-0.998560851696011));
#748=DIRECTION('ref_axis',(5.71388566482565E-15,-0.998560851696011,-0.0536304527310403));
#749=DIRECTION('center_axis',(7.42156291617156E-17,0.0536304527310403,-0.998560851696011));
#750=DIRECTION('ref_axis',(1.70759419614557E-16,-0.998560851696011,-0.0536304527310403));
#751=CARTESIAN_POINT('',(0.,0.,0.));
#752=CARTESIAN_POINT('Origin',(211.307828529967,117.081877948042,13.7952508630216));
#753=CARTESIAN_POINT('',(212.207828529967,117.081877948042,13.7952508630216));
#754=CARTESIAN_POINT('Origin',(211.307828529967,117.081877948042,13.7952508630216));
#755=CARTESIAN_POINT('',(212.207828529967,110.581877948041,13.7952508630216));
#756=CARTESIAN_POINT('',(212.207828529967,117.081877948042,13.7952508630216));
#757=CARTESIAN_POINT('Origin',(211.307828529967,110.581877948041,13.7952508630216));
#758=CARTESIAN_POINT('Origin',(208.682828529967,117.081877948042,17.7952316692531));
#759=CARTESIAN_POINT('',(209.582828529967,117.081877948042,17.7952316692531));
#760=CARTESIAN_POINT('Origin',(208.682828529967,117.081877948042,17.7952316692531));
#761=CARTESIAN_POINT('',(209.582828529967,110.581877948041,17.7952316692531));
#762=CARTESIAN_POINT('',(209.582828529967,117.081877948042,17.7952316692531));
#763=CARTESIAN_POINT('Origin',(208.682828529967,110.581877948041,17.7952316692531));
#764=CARTESIAN_POINT('Origin',(213.932828529967,117.081877948042,9.79527005679007));
#765=CARTESIAN_POINT('',(214.832828529967,117.081877948042,9.79527005679007));
#766=CARTESIAN_POINT('Origin',(213.932828529967,117.081877948042,9.79527005679007));
#767=CARTESIAN_POINT('',(214.832828529967,110.581877948041,9.79527005679007));
#768=CARTESIAN_POINT('',(214.832828529967,117.081877948042,9.79527005679007));
#769=CARTESIAN_POINT('Origin',(213.932828529967,110.581877948041,9.79527005679007));
#770=CARTESIAN_POINT('Origin',(213.932828529967,117.081877948042,17.7952316692531));
#771=CARTESIAN_POINT('',(214.832828529967,117.081877948042,17.7952316692531));
#772=CARTESIAN_POINT('Origin',(213.932828529967,117.081877948042,17.7952316692531));
#773=CARTESIAN_POINT('',(214.832828529967,110.581877948041,17.7952316692531));
#774=CARTESIAN_POINT('',(214.832828529967,117.081877948042,17.7952316692531));
#775=CARTESIAN_POINT('Origin',(213.932828529967,110.581877948041,17.7952316692531));
#776=CARTESIAN_POINT('Origin',(208.682828529967,117.081877948042,9.79527005679007));
#777=CARTESIAN_POINT('',(209.582828529967,117.081877948042,9.79527005679007));
#778=CARTESIAN_POINT('Origin',(208.682828529967,117.081877948042,9.79527005679007));
#779=CARTESIAN_POINT('',(209.582828529967,110.581877948041,9.79527005679007));
#780=CARTESIAN_POINT('',(209.582828529967,117.081877948042,9.79527005679007));
#781=CARTESIAN_POINT('Origin',(208.682828529967,110.581877948041,9.79527005679007));
#782=CARTESIAN_POINT('Origin',(206.057828529967,124.45328746662,36.5628682850611));
#783=CARTESIAN_POINT('',(205.057828529967,116.081877948041,22.0631616679172));
#784=CARTESIAN_POINT('',(205.057828529967,123.081877948041,34.1875173208994));
#785=CARTESIAN_POINT('',(205.057828529967,124.45328746662,36.5628682850611));
#786=CARTESIAN_POINT('',(206.057828529967,123.081877948041,32.1875173208994));
#787=CARTESIAN_POINT('Origin',(206.057828529967,123.081877948041,34.1875173208994));
#788=CARTESIAN_POINT('',(206.057828529967,117.081877948041,21.795212475486));
#789=CARTESIAN_POINT('',(206.057828529967,125.319312870404,36.0628682850611));
#790=CARTESIAN_POINT('Origin',(206.057828529967,116.081877948041,22.0631616679172));
#791=CARTESIAN_POINT('Origin',(206.057828529967,116.081877948041,31.045250863023));
#792=CARTESIAN_POINT('',(206.057828529967,117.081877948042,5.79528925056));
#793=CARTESIAN_POINT('',(206.057828529967,117.081877948041,31.045250863023));
#794=CARTESIAN_POINT('',(205.057828529967,116.081877948042,5.79528925055998));
#795=CARTESIAN_POINT('Origin',(206.057828529967,116.081877948042,5.79528925055998));
#796=CARTESIAN_POINT('',(205.057828529967,116.081877948041,31.045250863023));
#797=CARTESIAN_POINT('Origin',(211.307828529967,117.081877948042,13.795212475486));
#798=CARTESIAN_POINT('',(216.557828529967,117.081877948041,21.795212475486));
#799=CARTESIAN_POINT('',(205.057828529967,117.081877948041,21.795212475486));
#800=CARTESIAN_POINT('',(216.557828529967,117.081877948042,5.79528925056));
#801=CARTESIAN_POINT('',(216.557828529967,117.081877948041,22.295250863023));
#802=CARTESIAN_POINT('',(194.432828529967,117.081877948042,5.79528925055999));
#803=CARTESIAN_POINT('Origin',(205.057828529967,123.081877948041,32.1875173208994));
#804=CARTESIAN_POINT('',(216.557828529967,123.081877948041,32.1875173208994));
#805=CARTESIAN_POINT('',(191.307828529967,123.081877948041,32.1875173208994));
#806=CARTESIAN_POINT('',(216.557828529967,121.530451728847,29.500368285061));
#807=CARTESIAN_POINT('Origin',(177.557828529967,123.081877948042,5.79528925056007));
#808=CARTESIAN_POINT('',(205.057828529967,123.081877948041,49.7597553446273));
#809=CARTESIAN_POINT('',(205.057828529967,123.081877948041,17.61528925056));
#810=CARTESIAN_POINT('',(217.557828529967,123.081877948041,49.7597553446273));
#811=CARTESIAN_POINT('',(177.557828529967,123.081877948041,49.7597553446273));
#812=CARTESIAN_POINT('',(217.557828529967,123.081877948041,34.1875173208994));
#813=CARTESIAN_POINT('',(217.557828529967,123.081877948042,5.79528925056007));
#814=CARTESIAN_POINT('Origin',(216.557828529967,123.081877948041,34.1875173208994));
#815=CARTESIAN_POINT('Origin',(216.557828529967,120.664426325063,30.000368285061));
#816=CARTESIAN_POINT('',(217.557828529967,116.081877948041,22.0631616679172));
#817=CARTESIAN_POINT('',(217.557828529967,120.664426325063,30.000368285061));
#818=CARTESIAN_POINT('Origin',(216.557828529967,116.081877948041,22.0631616679172));
#819=CARTESIAN_POINT('Origin',(216.557828529967,116.081877948041,22.295250863023));
#820=CARTESIAN_POINT('',(217.557828529967,116.081877948042,5.79528925055998));
#821=CARTESIAN_POINT('',(217.557828529967,116.081877948041,22.295250863023));
#822=CARTESIAN_POINT('Origin',(216.557828529967,116.081877948042,5.79528925055998));
#823=CARTESIAN_POINT('Origin',(217.557828529967,113.081877948041,30.7952892505599));
#824=CARTESIAN_POINT('',(217.557828529967,122.349644901007,51.5275222975937));
#825=CARTESIAN_POINT('Origin',(217.557828529967,120.581877948041,49.7597553446273));
#826=CARTESIAN_POINT('',(217.557828529967,118.814110995075,55.0630562035264));
#827=CARTESIAN_POINT('',(217.557828529967,124.331877948041,49.5452892505601));
#828=CARTESIAN_POINT('',(217.557828529967,117.046344042108,55.79528925056));
#829=CARTESIAN_POINT('Origin',(217.557828529967,117.046344042108,53.29528925056));
#830=CARTESIAN_POINT('',(217.557828529967,106.099644901007,55.207366711988));
#831=CARTESIAN_POINT('',(217.557828529967,114.400396462283,55.6531813696356));
#832=CARTESIAN_POINT('',(217.557828529967,106.099644901008,37.7952892505599));
#833=CARTESIAN_POINT('',(217.557828529967,106.099644901008,37.0452892505599));
#834=CARTESIAN_POINT('',(217.557828529967,110.581877948041,37.7952892505599));
#835=CARTESIAN_POINT('',(217.557828529967,108.081877948041,37.7952892505599));
#836=CARTESIAN_POINT('',(217.557828529967,110.581877948042,5.79528925055991));
#837=CARTESIAN_POINT('',(217.557828529967,110.581877948041,28.2952892505599));
#838=CARTESIAN_POINT('',(217.557828529967,103.081877948042,5.79528925055982));
#839=CARTESIAN_POINT('',(217.557828529967,111.456877948041,48.5452892505599));
#840=CARTESIAN_POINT('Origin',(217.557828529967,115.581877948041,48.54528925056));
#841=CARTESIAN_POINT('Origin',(205.057828529967,113.081877948041,48.2952892505599));
#842=CARTESIAN_POINT('',(205.057828529967,110.581877948042,5.79528925055992));
#843=CARTESIAN_POINT('',(205.057828529967,109.956877948042,5.79528925055991));
#844=CARTESIAN_POINT('',(205.057828529967,110.581877948041,37.7952892505599));
#845=CARTESIAN_POINT('',(205.057828529967,110.581877948041,37.0452892505599));
#846=CARTESIAN_POINT('',(205.057828529967,103.081877948042,37.7952892505598));
#847=CARTESIAN_POINT('',(205.057828529967,108.081877948041,37.7952892505599));
#848=CARTESIAN_POINT('',(205.057828529967,103.081877948041,55.0452892505599));
#849=CARTESIAN_POINT('',(205.057828529967,103.081877948041,41.2952892505598));
#850=CARTESIAN_POINT('',(205.057828529967,117.046344042108,55.79528925056));
#851=CARTESIAN_POINT('',(205.057828529967,114.868987579648,55.6783483424118));
#852=CARTESIAN_POINT('',(205.057828529967,118.814110995075,55.0630562035264));
#853=CARTESIAN_POINT('Origin',(205.057828529967,117.046344042108,53.29528925056));
#854=CARTESIAN_POINT('',(205.057828529967,122.349644901007,51.5275222975937));
#855=CARTESIAN_POINT('',(205.057828529967,119.956877948041,53.92028925056));
#856=CARTESIAN_POINT('Origin',(205.057828529967,120.581877948041,49.7597553446273));
#857=CARTESIAN_POINT('',(205.057828529967,110.456877948041,48.5452892505599));
#858=CARTESIAN_POINT('Origin',(205.057828529967,115.581877948041,48.54528925056));
#859=CARTESIAN_POINT('Origin',(177.557828529967,103.081877948042,5.79528925055982));
#860=CARTESIAN_POINT('',(197.557828529967,110.581877948042,5.79528925055991));
#861=CARTESIAN_POINT('Origin',(217.557828529967,103.081877948041,37.7952892505598));
#862=CARTESIAN_POINT('',(217.557828529967,110.581877948041,37.7952892505599));
#863=CARTESIAN_POINT('',(217.19171200645,105.215761424524,37.7952892505599));
#864=CARTESIAN_POINT('Origin',(216.307828529967,106.099644901008,37.7952892505599));
#865=CARTESIAN_POINT('',(215.423945053484,103.447994471558,37.7952892505598));
#866=CARTESIAN_POINT('',(216.307828529967,104.331877948041,37.7952892505598));
#867=CARTESIAN_POINT('',(214.540061577001,103.081877948041,37.7952892505598));
#868=CARTESIAN_POINT('Origin',(214.540061577001,104.331877948041,37.7952892505598));
#869=CARTESIAN_POINT('',(197.557828529967,103.081877948041,37.7952892505598));
#870=CARTESIAN_POINT('Origin',(177.557828529967,103.081877948041,55.7952892505598));
#871=CARTESIAN_POINT('',(214.540061577001,103.081877948041,55.0452892505599));
#872=CARTESIAN_POINT('',(214.540061577001,103.081877948041,49.5452892505598));
#873=CARTESIAN_POINT('',(197.557828529967,103.081877948041,55.0452892505599));
#874=CARTESIAN_POINT('Origin',(217.557828529967,110.581877948041,25.7952892505599));
#875=CARTESIAN_POINT('Origin',(217.557828529967,115.581877948041,48.54528925056));
#876=CARTESIAN_POINT('',(206.057828529967,111.456877948041,48.5452892505599));
#877=CARTESIAN_POINT('',(217.557828529967,111.456877948041,48.5452892505599));
#878=CARTESIAN_POINT('Origin',(206.057828529967,115.581877948041,48.54528925056));
#879=CARTESIAN_POINT('Origin',(205.557828529967,115.581877948041,48.54528925056));
#880=CARTESIAN_POINT('',(205.557828529967,110.956877948041,48.5452892505599));
#881=CARTESIAN_POINT('Origin',(177.557828529967,120.581877948041,53.29528925056));
#882=CARTESIAN_POINT('',(177.557828529967,122.349644901007,51.5275222975937));
#883=CARTESIAN_POINT('',(177.557828529967,118.814110995075,55.0630562035264));
#884=CARTESIAN_POINT('Origin',(177.557828529967,117.046344042108,53.29528925056));
#885=CARTESIAN_POINT('',(177.557828529967,117.046344042108,55.79528925056));
#886=CARTESIAN_POINT('Origin',(177.557828529967,120.581877948041,49.7597553446273));
#887=CARTESIAN_POINT('Origin',(216.307828529967,104.331877948041,43.2952892505598));
#888=CARTESIAN_POINT('',(217.19171200645,105.215761424524,55.1598953226132));
#889=CARTESIAN_POINT('',(217.19171200645,105.215761424524,37.0452892505599));
#890=CARTESIAN_POINT('',(215.423945053484,103.447994471558,55.0649525438637));
#891=CARTESIAN_POINT('',(219.644633381849,107.668682799922,55.2916362011514));
#892=CARTESIAN_POINT('',(215.423945053484,103.447994471558,49.5452892505598));
#893=CARTESIAN_POINT('Origin',(216.307828529967,106.099644901008,37.0452892505599));
#894=CARTESIAN_POINT('Origin',(216.307828529967,106.099644901007,55.207366711988));
#895=CARTESIAN_POINT('Origin',(214.540061577001,104.331877948041,49.5452892505598));
#896=CARTESIAN_POINT('Origin',(214.540061577001,104.331877948041,55.1124239332384));
#897=CARTESIAN_POINT('Origin',(217.557828529967,117.046344042108,55.79528925056));
#898=UNCERTAINTY_MEASURE_WITH_UNIT(LENGTH_MEASURE(0.01),#902,
'DISTANCE_ACCURACY_VALUE',
'Maximum model space distance between geometric entities at asserted c
onnectivities');
#899=UNCERTAINTY_MEASURE_WITH_UNIT(LENGTH_MEASURE(0.01),#902,
'DISTANCE_ACCURACY_VALUE',
'Maximum model space distance between geometric entities at asserted c
onnectivities');
#900=(
GEOMETRIC_REPRESENTATION_CONTEXT(3)
GLOBAL_UNCERTAINTY_ASSIGNED_CONTEXT((#898))
GLOBAL_UNIT_ASSIGNED_CONTEXT((#902,#904,#905))
REPRESENTATION_CONTEXT('','3D')
);
#901=(
GEOMETRIC_REPRESENTATION_CONTEXT(3)
GLOBAL_UNCERTAINTY_ASSIGNED_CONTEXT((#899))
GLOBAL_UNIT_ASSIGNED_CONTEXT((#902,#904,#905))
REPRESENTATION_CONTEXT('','3D')
);
#902=(
LENGTH_UNIT()
NAMED_UNIT(*)
SI_UNIT(.MILLI.,.METRE.)
);
#903=(
LENGTH_UNIT()
NAMED_UNIT(*)
SI_UNIT($,.METRE.)
);
#904=(
NAMED_UNIT(*)
PLANE_ANGLE_UNIT()
SI_UNIT($,.RADIAN.)
);
#905=(
NAMED_UNIT(*)
SI_UNIT($,.STERADIAN.)
SOLID_ANGLE_UNIT()
);
#906=SHAPE_DEFINITION_REPRESENTATION(#907,#908);
#907=PRODUCT_DEFINITION_SHAPE('',$,#910);
#908=SHAPE_REPRESENTATION('',(#541),#900);
#909=PRODUCT_DEFINITION_CONTEXT('part definition',#914,'design');
#910=PRODUCT_DEFINITION('2026-10-10-09-49-41-019','R_HINGE',#911,#909);
#911=PRODUCT_DEFINITION_FORMATION('',$,#916);
#912=PRODUCT_RELATED_PRODUCT_CATEGORY('R_HINGE','R_HINGE',(#916));
#913=APPLICATION_PROTOCOL_DEFINITION('international standard',
'automotive_design',2009,#914);
#914=APPLICATION_CONTEXT(
'Core Data for Automotive Mechanical Design Process');
#915=PRODUCT_CONTEXT('part definition',#914,'mechanical');
#916=PRODUCT('2026-10-10-09-49-41-019','R_HINGE',$,(#915));
#917=PRESENTATION_STYLE_ASSIGNMENT((#920));
#918=PRESENTATION_STYLE_ASSIGNMENT((#921));
#919=PRESENTATION_STYLE_ASSIGNMENT((#922));
#920=SURFACE_STYLE_USAGE(.BOTH.,#923);
#921=SURFACE_STYLE_USAGE(.BOTH.,#924);
#922=SURFACE_STYLE_USAGE(.BOTH.,#925);
#923=SURFACE_SIDE_STYLE('',(#926));
#924=SURFACE_SIDE_STYLE('',(#927));
#925=SURFACE_SIDE_STYLE('',(#928));
#926=SURFACE_STYLE_FILL_AREA(#929);
#927=SURFACE_STYLE_FILL_AREA(#930);
#928=SURFACE_STYLE_FILL_AREA(#931);
#929=FILL_AREA_STYLE('Steel - Satin',(#932));
#930=FILL_AREA_STYLE('Orgasol\X\AE Invent Smooth - PA 12',(#933));
#931=FILL_AREA_STYLE('Opaque(255,0,0) (1)',(#934));
#932=FILL_AREA_STYLE_COLOUR('Steel - Satin',#935);
#933=FILL_AREA_STYLE_COLOUR('Orgasol\X\AE Invent Smooth - PA 12',#936);
#934=FILL_AREA_STYLE_COLOUR('Opaque(255,0,0) (1)',#937);
#935=COLOUR_RGB('Steel - Satin',0.627450980392157,0.627450980392157,0.627450980392157);
#936=COLOUR_RGB('Orgasol\X\AE Invent Smooth - PA 12',0.964705882352941,
0.964705882352941,0.952941176470588);
#937=COLOUR_RGB('Opaque(255,0,0) (1)',1.,0.247058823529412,0.0941176470588235);
ENDSEC;
END-ISO-10303-21;
