ISO-10303-21;
HEADER;
/* Generated by software containing ST-Developer
 * from STEP Tools, Inc. (www.steptools.com) 
 */

FILE_DESCRIPTION(
/* description */ (''),
/* implementation_level */ '2;1');

FILE_NAME(
/* name */ 'RTL_COVER.step',
/* time_stamp */ '2026-10-10T09:51:35+05:30',
/* author */ (''),
/* organization */ (''),
/* preprocessor_version */ 'ST-DEVELOPER v20.2',
/* originating_system */ 'Autodesk Translation Framework v15.15.0.0',
/* authorisation */ '');

FILE_SCHEMA (('AUTOMOTIVE_DESIGN { 1 0 10303 214 3 1 1 }'));
ENDSEC;

DATA;
#10=MECHANICAL_DESIGN_GEOMETRIC_PRESENTATION_REPRESENTATION('',(#13),#454);
#11=SHAPE_REPRESENTATION_RELATIONSHIP('SRR','None',#461,#12);
#12=ADVANCED_BREP_SHAPE_REPRESENTATION('',(#14),#453);
#13=STYLED_ITEM('',(#470),#14);
#14=MANIFOLD_SOLID_BREP('Body1',#229);
#15=B_SPLINE_SURFACE_WITH_KNOTS('',3,1,((#370,#371),(#372,#373),(#374,#375),
(#376,#377),(#378,#379),(#380,#381),(#382,#383),(#384,#385),(#386,#387),
(#388,#389),(#390,#391),(#392,#393),(#394,#395),(#396,#397),(#398,#399),
(#400,#401),(#402,#403),(#404,#405),(#406,#407),(#408,#409),(#410,#411),
(#412,#413)),.UNSPECIFIED.,.F.,.F.,.F.,(4,3,3,3,3,3,3,4),(2,2),(1.00000003396689E-6,
0.302689278945824,0.607732030011194,0.90713045441281,1.20853064900082,1.4816737329492,
1.66309982168421,1.6849682016223),(0.,0.300000000000001),.UNSPECIFIED.);
#16=FACE_BOUND('',#34,.T.);
#17=FACE_BOUND('',#45,.T.);
#18=B_SPLINE_CURVE_WITH_KNOTS('',3,(#328,#329,#330,#331,#332,#333,#334,
#335,#336,#337,#338,#339,#340,#341,#342,#343,#344,#345,#346,#347,#348,#349),
 .UNSPECIFIED.,.F.,.F.,(4,3,3,3,3,3,3,4),(1.00000003396689E-6,0.302689278945824,
0.607732030011194,0.90713045441281,1.20853064900082,1.4816737329492,1.66309982168421,
1.6849682016223),.UNSPECIFIED.);
#19=B_SPLINE_CURVE_WITH_KNOTS('',3,(#416,#417,#418,#419,#420,#421,#422,
#423,#424,#425,#426,#427,#428,#429,#430,#431,#432,#433,#434,#435,#436,#437),
 .UNSPECIFIED.,.F.,.F.,(4,3,3,3,3,3,3,4),(-1.6849682016223,-1.66309982168421,
-1.4816737329492,-1.20853064900082,-0.90713045441281,-0.607732030011194,
-0.302689278945824,-1.00000003396689E-6),.UNSPECIFIED.);
#20=FACE_OUTER_BOUND('',#32,.T.);
#21=FACE_OUTER_BOUND('',#33,.T.);
#22=FACE_OUTER_BOUND('',#35,.T.);
#23=FACE_OUTER_BOUND('',#36,.T.);
#24=FACE_OUTER_BOUND('',#37,.T.);
#25=FACE_OUTER_BOUND('',#38,.T.);
#26=FACE_OUTER_BOUND('',#39,.T.);
#27=FACE_OUTER_BOUND('',#40,.T.);
#28=FACE_OUTER_BOUND('',#41,.T.);
#29=FACE_OUTER_BOUND('',#42,.T.);
#30=FACE_OUTER_BOUND('',#43,.T.);
#31=FACE_OUTER_BOUND('',#44,.T.);
#32=EDGE_LOOP('',(#148,#149,#150,#151));
#33=EDGE_LOOP('',(#152,#153,#154,#155,#156));
#34=EDGE_LOOP('',(#157,#158,#159));
#35=EDGE_LOOP('',(#160,#161,#162,#163));
#36=EDGE_LOOP('',(#164,#165,#166,#167,#168));
#37=EDGE_LOOP('',(#169,#170,#171,#172));
#38=EDGE_LOOP('',(#173,#174,#175,#176));
#39=EDGE_LOOP('',(#177,#178,#179,#180));
#40=EDGE_LOOP('',(#181,#182,#183,#184));
#41=EDGE_LOOP('',(#185,#186,#187,#188));
#42=EDGE_LOOP('',(#189,#190,#191,#192,#193));
#43=EDGE_LOOP('',(#194,#195,#196,#197));
#44=EDGE_LOOP('',(#198,#199,#200,#201,#202));
#45=EDGE_LOOP('',(#203,#204,#205));
#46=LINE('',#309,#73);
#47=LINE('',#311,#74);
#48=LINE('',#313,#75);
#49=LINE('',#314,#76);
#50=LINE('',#317,#77);
#51=LINE('',#319,#78);
#52=LINE('',#321,#79);
#53=LINE('',#322,#80);
#54=LINE('',#325,#81);
#55=LINE('',#327,#82);
#56=LINE('',#352,#83);
#57=LINE('',#353,#84);
#58=LINE('',#356,#85);
#59=LINE('',#358,#86);
#60=LINE('',#359,#87);
#61=LINE('',#362,#88);
#62=LINE('',#363,#89);
#63=LINE('',#366,#90);
#64=LINE('',#368,#91);
#65=LINE('',#369,#92);
#66=LINE('',#415,#93);
#67=LINE('',#439,#94);
#68=LINE('',#442,#95);
#69=LINE('',#443,#96);
#70=LINE('',#446,#97);
#71=LINE('',#447,#98);
#72=LINE('',#449,#99);
#73=VECTOR('',#258,10.);
#74=VECTOR('',#259,10.);
#75=VECTOR('',#260,10.);
#76=VECTOR('',#261,10.);
#77=VECTOR('',#264,10.);
#78=VECTOR('',#265,10.);
#79=VECTOR('',#266,10.);
#80=VECTOR('',#267,10.);
#81=VECTOR('',#268,10.);
#82=VECTOR('',#269,10.);
#83=VECTOR('',#272,10.);
#84=VECTOR('',#273,10.);
#85=VECTOR('',#276,10.);
#86=VECTOR('',#277,10.);
#87=VECTOR('',#278,10.);
#88=VECTOR('',#281,10.);
#89=VECTOR('',#282,10.);
#90=VECTOR('',#285,10.);
#91=VECTOR('',#286,10.);
#92=VECTOR('',#287,10.);
#93=VECTOR('',#288,10.);
#94=VECTOR('',#291,10.);
#95=VECTOR('',#294,10.);
#96=VECTOR('',#295,10.);
#97=VECTOR('',#298,10.);
#98=VECTOR('',#299,10.);
#99=VECTOR('',#302,10.);
#100=VERTEX_POINT('',#307);
#101=VERTEX_POINT('',#308);
#102=VERTEX_POINT('',#310);
#103=VERTEX_POINT('',#312);
#104=VERTEX_POINT('',#316);
#105=VERTEX_POINT('',#318);
#106=VERTEX_POINT('',#320);
#107=VERTEX_POINT('',#323);
#108=VERTEX_POINT('',#324);
#109=VERTEX_POINT('',#326);
#110=VERTEX_POINT('',#351);
#111=VERTEX_POINT('',#355);
#112=VERTEX_POINT('',#357);
#113=VERTEX_POINT('',#361);
#114=VERTEX_POINT('',#365);
#115=VERTEX_POINT('',#367);
#116=VERTEX_POINT('',#414);
#117=VERTEX_POINT('',#441);
#118=VERTEX_POINT('',#445);
#119=EDGE_CURVE('',#100,#101,#46,.T.);
#120=EDGE_CURVE('',#101,#102,#47,.T.);
#121=EDGE_CURVE('',#102,#103,#48,.T.);
#122=EDGE_CURVE('',#103,#100,#49,.T.);
#123=EDGE_CURVE('',#104,#101,#50,.T.);
#124=EDGE_CURVE('',#104,#105,#51,.T.);
#125=EDGE_CURVE('',#105,#106,#52,.T.);
#126=EDGE_CURVE('',#106,#102,#53,.T.);
#127=EDGE_CURVE('',#107,#108,#54,.T.);
#128=EDGE_CURVE('',#108,#109,#55,.T.);
#129=EDGE_CURVE('',#109,#107,#18,.T.);
#130=EDGE_CURVE('',#100,#110,#56,.T.);
#131=EDGE_CURVE('',#110,#104,#57,.T.);
#132=EDGE_CURVE('',#111,#110,#58,.T.);
#133=EDGE_CURVE('',#111,#112,#59,.T.);
#134=EDGE_CURVE('',#112,#105,#60,.T.);
#135=EDGE_CURVE('',#113,#100,#61,.T.);
#136=EDGE_CURVE('',#113,#111,#62,.T.);
#137=EDGE_CURVE('',#107,#114,#63,.T.);
#138=EDGE_CURVE('',#115,#114,#64,.T.);
#139=EDGE_CURVE('',#108,#115,#65,.T.);
#140=EDGE_CURVE('',#109,#116,#66,.T.);
#141=EDGE_CURVE('',#114,#116,#19,.T.);
#142=EDGE_CURVE('',#116,#115,#67,.T.);
#143=EDGE_CURVE('',#117,#103,#68,.T.);
#144=EDGE_CURVE('',#117,#113,#69,.T.);
#145=EDGE_CURVE('',#118,#106,#70,.T.);
#146=EDGE_CURVE('',#118,#117,#71,.T.);
#147=EDGE_CURVE('',#112,#118,#72,.T.);
#148=ORIENTED_EDGE('',*,*,#119,.T.);
#149=ORIENTED_EDGE('',*,*,#120,.T.);
#150=ORIENTED_EDGE('',*,*,#121,.T.);
#151=ORIENTED_EDGE('',*,*,#122,.T.);
#152=ORIENTED_EDGE('',*,*,#120,.F.);
#153=ORIENTED_EDGE('',*,*,#123,.F.);
#154=ORIENTED_EDGE('',*,*,#124,.T.);
#155=ORIENTED_EDGE('',*,*,#125,.T.);
#156=ORIENTED_EDGE('',*,*,#126,.T.);
#157=ORIENTED_EDGE('',*,*,#127,.T.);
#158=ORIENTED_EDGE('',*,*,#128,.T.);
#159=ORIENTED_EDGE('',*,*,#129,.T.);
#160=ORIENTED_EDGE('',*,*,#119,.F.);
#161=ORIENTED_EDGE('',*,*,#130,.T.);
#162=ORIENTED_EDGE('',*,*,#131,.T.);
#163=ORIENTED_EDGE('',*,*,#123,.T.);
#164=ORIENTED_EDGE('',*,*,#131,.F.);
#165=ORIENTED_EDGE('',*,*,#132,.F.);
#166=ORIENTED_EDGE('',*,*,#133,.T.);
#167=ORIENTED_EDGE('',*,*,#134,.T.);
#168=ORIENTED_EDGE('',*,*,#124,.F.);
#169=ORIENTED_EDGE('',*,*,#130,.F.);
#170=ORIENTED_EDGE('',*,*,#135,.F.);
#171=ORIENTED_EDGE('',*,*,#136,.T.);
#172=ORIENTED_EDGE('',*,*,#132,.T.);
#173=ORIENTED_EDGE('',*,*,#127,.F.);
#174=ORIENTED_EDGE('',*,*,#137,.T.);
#175=ORIENTED_EDGE('',*,*,#138,.F.);
#176=ORIENTED_EDGE('',*,*,#139,.F.);
#177=ORIENTED_EDGE('',*,*,#129,.F.);
#178=ORIENTED_EDGE('',*,*,#140,.T.);
#179=ORIENTED_EDGE('',*,*,#141,.F.);
#180=ORIENTED_EDGE('',*,*,#137,.F.);
#181=ORIENTED_EDGE('',*,*,#128,.F.);
#182=ORIENTED_EDGE('',*,*,#139,.T.);
#183=ORIENTED_EDGE('',*,*,#142,.F.);
#184=ORIENTED_EDGE('',*,*,#140,.F.);
#185=ORIENTED_EDGE('',*,*,#122,.F.);
#186=ORIENTED_EDGE('',*,*,#143,.F.);
#187=ORIENTED_EDGE('',*,*,#144,.T.);
#188=ORIENTED_EDGE('',*,*,#135,.T.);
#189=ORIENTED_EDGE('',*,*,#121,.F.);
#190=ORIENTED_EDGE('',*,*,#126,.F.);
#191=ORIENTED_EDGE('',*,*,#145,.F.);
#192=ORIENTED_EDGE('',*,*,#146,.T.);
#193=ORIENTED_EDGE('',*,*,#143,.T.);
#194=ORIENTED_EDGE('',*,*,#147,.T.);
#195=ORIENTED_EDGE('',*,*,#145,.T.);
#196=ORIENTED_EDGE('',*,*,#125,.F.);
#197=ORIENTED_EDGE('',*,*,#134,.F.);
#198=ORIENTED_EDGE('',*,*,#133,.F.);
#199=ORIENTED_EDGE('',*,*,#136,.F.);
#200=ORIENTED_EDGE('',*,*,#144,.F.);
#201=ORIENTED_EDGE('',*,*,#146,.F.);
#202=ORIENTED_EDGE('',*,*,#147,.F.);
#203=ORIENTED_EDGE('',*,*,#138,.T.);
#204=ORIENTED_EDGE('',*,*,#141,.T.);
#205=ORIENTED_EDGE('',*,*,#142,.T.);
#206=PLANE('',#243);
#207=PLANE('',#244);
#208=PLANE('',#245);
#209=PLANE('',#246);
#210=PLANE('',#247);
#211=PLANE('',#248);
#212=PLANE('',#249);
#213=PLANE('',#250);
#214=PLANE('',#251);
#215=PLANE('',#252);
#216=PLANE('',#253);
#217=ADVANCED_FACE('',(#20),#206,.T.);
#218=ADVANCED_FACE('',(#21,#16),#207,.T.);
#219=ADVANCED_FACE('',(#22),#208,.T.);
#220=ADVANCED_FACE('',(#23),#209,.T.);
#221=ADVANCED_FACE('',(#24),#210,.T.);
#222=ADVANCED_FACE('',(#25),#211,.F.);
#223=ADVANCED_FACE('',(#26),#15,.F.);
#224=ADVANCED_FACE('',(#27),#212,.F.);
#225=ADVANCED_FACE('',(#28),#213,.T.);
#226=ADVANCED_FACE('',(#29),#214,.T.);
#227=ADVANCED_FACE('',(#30),#215,.T.);
#228=ADVANCED_FACE('',(#31,#17),#216,.F.);
#229=CLOSED_SHELL('',(#217,#218,#219,#220,#221,#222,#223,#224,#225,#226,
#227,#228));
#230=DERIVED_UNIT_ELEMENT(#232,1.);
#231=DERIVED_UNIT_ELEMENT(#456,-3.);
#232=(
MASS_UNIT()
NAMED_UNIT(*)
SI_UNIT(.KILO.,.GRAM.)
);
#233=DERIVED_UNIT((#230,#231));
#234=MEASURE_REPRESENTATION_ITEM('density measure',
POSITIVE_RATIO_MEASURE(7850.),#233);
#235=PROPERTY_DEFINITION_REPRESENTATION(#240,#237);
#236=PROPERTY_DEFINITION_REPRESENTATION(#241,#238);
#237=REPRESENTATION('material name',(#239),#453);
#238=REPRESENTATION('density',(#234),#453);
#239=DESCRIPTIVE_REPRESENTATION_ITEM('Steel','Steel');
#240=PROPERTY_DEFINITION('material property','material name',#463);
#241=PROPERTY_DEFINITION('material property','density of part',#463);
#242=AXIS2_PLACEMENT_3D('',#305,#254,#255);
#243=AXIS2_PLACEMENT_3D('',#306,#256,#257);
#244=AXIS2_PLACEMENT_3D('',#315,#262,#263);
#245=AXIS2_PLACEMENT_3D('',#350,#270,#271);
#246=AXIS2_PLACEMENT_3D('',#354,#274,#275);
#247=AXIS2_PLACEMENT_3D('',#360,#279,#280);
#248=AXIS2_PLACEMENT_3D('',#364,#283,#284);
#249=AXIS2_PLACEMENT_3D('',#438,#289,#290);
#250=AXIS2_PLACEMENT_3D('',#440,#292,#293);
#251=AXIS2_PLACEMENT_3D('',#444,#296,#297);
#252=AXIS2_PLACEMENT_3D('',#448,#300,#301);
#253=AXIS2_PLACEMENT_3D('',#450,#303,#304);
#254=DIRECTION('axis',(0.,0.,1.));
#255=DIRECTION('refdir',(1.,0.,0.));
#256=DIRECTION('center_axis',(0.707106781186541,0.707106781186554,0.));
#257=DIRECTION('ref_axis',(0.,0.,-1.));
#258=DIRECTION('',(-0.577350269189629,0.577350269189618,0.577350269189631));
#259=DIRECTION('',(0.,0.,1.));
#260=DIRECTION('',(0.707106781186554,-0.707106781186541,0.));
#261=DIRECTION('',(0.,0.,-1.));
#262=DIRECTION('center_axis',(0.,1.,0.));
#263=DIRECTION('ref_axis',(0.,0.,1.));
#264=DIRECTION('',(1.,0.,-1.93659544688268E-17));
#265=DIRECTION('',(-0.707106781186548,0.,0.707106781186547));
#266=DIRECTION('',(0.,0.,1.));
#267=DIRECTION('',(1.,0.,0.));
#268=DIRECTION('',(1.33860084351692E-15,0.,1.));
#269=DIRECTION('',(-0.209869220141427,0.,0.977729466896252));
#270=DIRECTION('center_axis',(-1.36937977290572E-17,0.707106781186555,-0.70710678118654));
#271=DIRECTION('ref_axis',(-1.,0.,1.93659544688268E-17));
#272=DIRECTION('',(-1.,0.,1.93659544688268E-17));
#273=DIRECTION('',(-0.57735026918963,0.577350269189618,0.57735026918963));
#274=DIRECTION('center_axis',(-0.707106781186547,0.,-0.707106781186548));
#275=DIRECTION('ref_axis',(-0.707106781186548,0.,0.707106781186547));
#276=DIRECTION('',(0.,1.,0.));
#277=DIRECTION('',(-0.707106781186548,0.,0.707106781186547));
#278=DIRECTION('',(0.,1.,0.));
#279=DIRECTION('center_axis',(-1.93659544688268E-17,0.,-1.));
#280=DIRECTION('ref_axis',(-1.,0.,1.93659544688268E-17));
#281=DIRECTION('',(0.,1.,0.));
#282=DIRECTION('',(-1.,0.,1.93659544688268E-17));
#283=DIRECTION('center_axis',(1.,0.,-1.33860084351692E-15));
#284=DIRECTION('ref_axis',(1.33860084351692E-15,0.,1.));
#285=DIRECTION('',(0.,-1.,0.));
#286=DIRECTION('',(-1.33860084351692E-15,0.,-1.));
#287=DIRECTION('',(0.,-1.,0.));
#288=DIRECTION('',(0.,-1.,0.));
#289=DIRECTION('center_axis',(0.977729466896252,0.,0.209869220141427));
#290=DIRECTION('ref_axis',(-0.209869220141427,0.,0.977729466896252));
#291=DIRECTION('',(0.209869220141427,0.,-0.977729466896252));
#292=DIRECTION('center_axis',(1.,0.,0.));
#293=DIRECTION('ref_axis',(0.,0.,-1.));
#294=DIRECTION('',(0.,1.,0.));
#295=DIRECTION('',(0.,0.,-1.));
#296=DIRECTION('center_axis',(0.,0.,1.));
#297=DIRECTION('ref_axis',(1.,0.,0.));
#298=DIRECTION('',(0.,1.,0.));
#299=DIRECTION('',(1.,0.,0.));
#300=DIRECTION('center_axis',(-1.,0.,0.));
#301=DIRECTION('ref_axis',(0.,0.,1.));
#302=DIRECTION('',(0.,0.,1.));
#303=DIRECTION('center_axis',(0.,1.,0.));
#304=DIRECTION('ref_axis',(-1.,0.,0.));
#305=CARTESIAN_POINT('',(0.,0.,0.));
#306=CARTESIAN_POINT('Origin',(45.4674362663397,112.5,12.1348029976922));
#307=CARTESIAN_POINT('',(45.9674362663397,112.,1.));
#308=CARTESIAN_POINT('',(44.9674362663397,113.,2.));
#309=CARTESIAN_POINT('',(41.9867837362163,115.980652530123,4.98065253012339));
#310=CARTESIAN_POINT('',(44.9674362663397,113.,15.8464039969229));
#311=CARTESIAN_POINT('',(44.9674362663397,113.,12.1348029976922));
#312=CARTESIAN_POINT('',(45.9674362663397,112.,15.8464039969229));
#313=CARTESIAN_POINT('',(35.4683240832916,122.499112183048,15.8464039969229));
#314=CARTESIAN_POINT('',(45.9674362663397,112.,12.1348029976922));
#315=CARTESIAN_POINT('Origin',(24.4692119002439,113.,8.42320199846144));
#316=CARTESIAN_POINT('',(3.,113.,2.));
#317=CARTESIAN_POINT('',(35.2183240832918,113.,2.));
#318=CARTESIAN_POINT('',(2.9709875341481,113.,2.0290124658519));
#319=CARTESIAN_POINT('',(5.,113.,0.));
#320=CARTESIAN_POINT('',(2.9709875341481,113.,15.8464039969229));
#321=CARTESIAN_POINT('',(2.9709875341481,113.,1.));
#322=CARTESIAN_POINT('',(2.9709875341481,113.,15.8464039969229));
#323=CARTESIAN_POINT('',(22.8867747789635,113.,8.76845753193995));
#324=CARTESIAN_POINT('',(22.8867747789635,113.,12.0860201347193));
#325=CARTESIAN_POINT('',(22.8867747789635,113.,8.59582976520069));
#326=CARTESIAN_POINT('',(22.7507747789636,113.,12.7196109366873));
#327=CARTESIAN_POINT('',(23.2974206424473,113.,10.1729212967066));
#328=CARTESIAN_POINT('Ctrl Pts',(22.7507747789636,113.,12.7196109366873));
#329=CARTESIAN_POINT('Ctrl Pts',(22.0831990409918,113.,13.8651815880179));
#330=CARTESIAN_POINT('Ctrl Pts',(20.8444077458324,113.,14.6538245700649));
#331=CARTESIAN_POINT('Ctrl Pts',(19.5256305736029,113.,14.7750148564947));
#332=CARTESIAN_POINT('Ctrl Pts',(18.1965952437244,113.,14.8971478261087));
#333=CARTESIAN_POINT('Ctrl Pts',(16.8214725406753,113.,14.335074583122));
#334=CARTESIAN_POINT('Ctrl Pts',(15.9584995985217,113.,13.3167771828068));
#335=CARTESIAN_POINT('Ctrl Pts',(15.1114945860124,113.,12.3173217420142));
#336=CARTESIAN_POINT('Ctrl Pts',(14.7771224544783,113.,10.9038362923152));
#337=CARTESIAN_POINT('Ctrl Pts',(15.0869167211564,113.,9.63054206279507));
#338=CARTESIAN_POINT('Ctrl Pts',(15.3987822643558,113.,8.34873462071463));
#339=CARTESIAN_POINT('Ctrl Pts',(16.3557070161196,113.,7.24134971132363));
#340=CARTESIAN_POINT('Ctrl Pts',(17.578700399806,113.,6.74690049944385));
#341=CARTESIAN_POINT('Ctrl Pts',(18.6870347355725,113.,6.29880728313621));
#342=CARTESIAN_POINT('Ctrl Pts',(19.9830931092929,113.,6.3573295725525));
#343=CARTESIAN_POINT('Ctrl Pts',(21.0452430930526,113.,6.90077563776876));
#344=CARTESIAN_POINT('Ctrl Pts',(21.7507404258712,113.,7.26174137274309));
#345=CARTESIAN_POINT('Ctrl Pts',(22.3506501600908,113.,7.82883409565067));
#346=CARTESIAN_POINT('Ctrl Pts',(22.7507747789636,113.,8.5154543458834));
#347=CARTESIAN_POINT('Ctrl Pts',(22.7990042108446,113.,8.59821682293376));
#348=CARTESIAN_POINT('Ctrl Pts',(22.8443702725375,113.,8.68261540056768));
#349=CARTESIAN_POINT('Ctrl Pts',(22.8867747789635,113.,8.76845753193995));
#350=CARTESIAN_POINT('Origin',(35.2183240832918,112.5,1.5));
#351=CARTESIAN_POINT('',(4.,112.,1.));
#352=CARTESIAN_POINT('',(35.2183240832918,112.,1.));
#353=CARTESIAN_POINT('',(9.36972068054871,106.630279319451,-4.3697206805487));
#354=CARTESIAN_POINT('Origin',(4.,110.,1.));
#355=CARTESIAN_POINT('',(4.,110.,1.));
#356=CARTESIAN_POINT('',(4.,110.,1.));
#357=CARTESIAN_POINT('',(2.9709875341481,110.,2.0290124658519));
#358=CARTESIAN_POINT('',(5.,110.,0.));
#359=CARTESIAN_POINT('',(2.9709875341481,110.,2.0290124658519));
#360=CARTESIAN_POINT('Origin',(45.9674362663397,110.,1.));
#361=CARTESIAN_POINT('',(45.9674362663397,110.,1.));
#362=CARTESIAN_POINT('',(45.9674362663397,110.,1.));
#363=CARTESIAN_POINT('',(45.9674362663397,110.,1.));
#364=CARTESIAN_POINT('Origin',(22.8867747789635,113.,8.76845753193995));
#365=CARTESIAN_POINT('',(22.8867747789635,110.,8.76845753193995));
#366=CARTESIAN_POINT('',(22.8867747789635,113.,8.76845753193995));
#367=CARTESIAN_POINT('',(22.8867747789635,110.,12.0860201347193));
#368=CARTESIAN_POINT('',(22.8867747789635,110.,8.59582976520069));
#369=CARTESIAN_POINT('',(22.8867747789635,113.,12.0860201347193));
#370=CARTESIAN_POINT('Ctrl Pts',(22.7507747789636,113.,12.7196109366873));
#371=CARTESIAN_POINT('Ctrl Pts',(22.7507747789636,110.,12.7196109366873));
#372=CARTESIAN_POINT('Ctrl Pts',(22.0831990409918,113.,13.8651815880179));
#373=CARTESIAN_POINT('Ctrl Pts',(22.0831990409918,110.,13.8651815880179));
#374=CARTESIAN_POINT('Ctrl Pts',(20.8444077458324,113.,14.6538245700649));
#375=CARTESIAN_POINT('Ctrl Pts',(20.8444077458324,110.,14.6538245700649));
#376=CARTESIAN_POINT('Ctrl Pts',(19.5256305736029,113.,14.7750148564947));
#377=CARTESIAN_POINT('Ctrl Pts',(19.5256305736029,110.,14.7750148564947));
#378=CARTESIAN_POINT('Ctrl Pts',(18.1965952437244,113.,14.8971478261087));
#379=CARTESIAN_POINT('Ctrl Pts',(18.1965952437244,110.,14.8971478261087));
#380=CARTESIAN_POINT('Ctrl Pts',(16.8214725406753,113.,14.335074583122));
#381=CARTESIAN_POINT('Ctrl Pts',(16.8214725406753,110.,14.335074583122));
#382=CARTESIAN_POINT('Ctrl Pts',(15.9584995985217,113.,13.3167771828068));
#383=CARTESIAN_POINT('Ctrl Pts',(15.9584995985217,110.,13.3167771828068));
#384=CARTESIAN_POINT('Ctrl Pts',(15.1114945860124,113.,12.3173217420142));
#385=CARTESIAN_POINT('Ctrl Pts',(15.1114945860124,110.,12.3173217420142));
#386=CARTESIAN_POINT('Ctrl Pts',(14.7771224544783,113.,10.9038362923152));
#387=CARTESIAN_POINT('Ctrl Pts',(14.7771224544783,110.,10.9038362923152));
#388=CARTESIAN_POINT('Ctrl Pts',(15.0869167211564,113.,9.63054206279507));
#389=CARTESIAN_POINT('Ctrl Pts',(15.0869167211564,110.,9.63054206279507));
#390=CARTESIAN_POINT('Ctrl Pts',(15.3987822643558,113.,8.34873462071463));
#391=CARTESIAN_POINT('Ctrl Pts',(15.3987822643558,110.,8.34873462071463));
#392=CARTESIAN_POINT('Ctrl Pts',(16.3557070161196,113.,7.24134971132363));
#393=CARTESIAN_POINT('Ctrl Pts',(16.3557070161196,110.,7.24134971132363));
#394=CARTESIAN_POINT('Ctrl Pts',(17.578700399806,113.,6.74690049944385));
#395=CARTESIAN_POINT('Ctrl Pts',(17.578700399806,110.,6.74690049944385));
#396=CARTESIAN_POINT('Ctrl Pts',(18.6870347355725,113.,6.29880728313621));
#397=CARTESIAN_POINT('Ctrl Pts',(18.6870347355725,110.,6.29880728313621));
#398=CARTESIAN_POINT('Ctrl Pts',(19.9830931092929,113.,6.3573295725525));
#399=CARTESIAN_POINT('Ctrl Pts',(19.9830931092929,110.,6.3573295725525));
#400=CARTESIAN_POINT('Ctrl Pts',(21.0452430930526,113.,6.90077563776876));
#401=CARTESIAN_POINT('Ctrl Pts',(21.0452430930526,110.,6.90077563776876));
#402=CARTESIAN_POINT('Ctrl Pts',(21.7507404258712,113.,7.26174137274309));
#403=CARTESIAN_POINT('Ctrl Pts',(21.7507404258712,110.,7.26174137274309));
#404=CARTESIAN_POINT('Ctrl Pts',(22.3506501600908,113.,7.82883409565067));
#405=CARTESIAN_POINT('Ctrl Pts',(22.3506501600908,110.,7.82883409565067));
#406=CARTESIAN_POINT('Ctrl Pts',(22.7507747789636,113.,8.5154543458834));
#407=CARTESIAN_POINT('Ctrl Pts',(22.7507747789636,110.,8.5154543458834));
#408=CARTESIAN_POINT('Ctrl Pts',(22.7990042108446,113.,8.59821682293376));
#409=CARTESIAN_POINT('Ctrl Pts',(22.7990042108446,110.,8.59821682293376));
#410=CARTESIAN_POINT('Ctrl Pts',(22.8443702725375,113.,8.68261540056768));
#411=CARTESIAN_POINT('Ctrl Pts',(22.8443702725375,110.,8.68261540056768));
#412=CARTESIAN_POINT('Ctrl Pts',(22.8867747789635,113.,8.76845753193995));
#413=CARTESIAN_POINT('Ctrl Pts',(22.8867747789635,110.,8.76845753193995));
#414=CARTESIAN_POINT('',(22.7507747789636,110.,12.7196109366873));
#415=CARTESIAN_POINT('',(22.7507747789636,113.,12.7196109366873));
#416=CARTESIAN_POINT('Ctrl Pts',(22.8867747789635,110.,8.76845753193995));
#417=CARTESIAN_POINT('Ctrl Pts',(22.8443702725375,110.,8.68261540056768));
#418=CARTESIAN_POINT('Ctrl Pts',(22.7990042108446,110.,8.59821682293376));
#419=CARTESIAN_POINT('Ctrl Pts',(22.7507747789636,110.,8.5154543458834));
#420=CARTESIAN_POINT('Ctrl Pts',(22.3506501600908,110.,7.82883409565067));
#421=CARTESIAN_POINT('Ctrl Pts',(21.7507404258712,110.,7.26174137274309));
#422=CARTESIAN_POINT('Ctrl Pts',(21.0452430930526,110.,6.90077563776876));
#423=CARTESIAN_POINT('Ctrl Pts',(19.9830931092929,110.,6.3573295725525));
#424=CARTESIAN_POINT('Ctrl Pts',(18.6870347355725,110.,6.29880728313621));
#425=CARTESIAN_POINT('Ctrl Pts',(17.578700399806,110.,6.74690049944385));
#426=CARTESIAN_POINT('Ctrl Pts',(16.3557070161196,110.,7.24134971132363));
#427=CARTESIAN_POINT('Ctrl Pts',(15.3987822643558,110.,8.34873462071463));
#428=CARTESIAN_POINT('Ctrl Pts',(15.0869167211564,110.,9.63054206279507));
#429=CARTESIAN_POINT('Ctrl Pts',(14.7771224544783,110.,10.9038362923152));
#430=CARTESIAN_POINT('Ctrl Pts',(15.1114945860124,110.,12.3173217420142));
#431=CARTESIAN_POINT('Ctrl Pts',(15.9584995985217,110.,13.3167771828068));
#432=CARTESIAN_POINT('Ctrl Pts',(16.8214725406753,110.,14.335074583122));
#433=CARTESIAN_POINT('Ctrl Pts',(18.1965952437244,110.,14.8971478261087));
#434=CARTESIAN_POINT('Ctrl Pts',(19.5256305736029,110.,14.7750148564947));
#435=CARTESIAN_POINT('Ctrl Pts',(20.8444077458324,110.,14.6538245700649));
#436=CARTESIAN_POINT('Ctrl Pts',(22.0831990409918,110.,13.8651815880179));
#437=CARTESIAN_POINT('Ctrl Pts',(22.7507747789636,110.,12.7196109366873));
#438=CARTESIAN_POINT('Origin',(22.8867747789635,113.,12.0860201347193));
#439=CARTESIAN_POINT('',(23.2974206424473,110.,10.1729212967066));
#440=CARTESIAN_POINT('Origin',(45.9674362663397,110.,15.8464039969229));
#441=CARTESIAN_POINT('',(45.9674362663397,110.,15.8464039969229));
#442=CARTESIAN_POINT('',(45.9674362663397,110.,15.8464039969229));
#443=CARTESIAN_POINT('',(45.9674362663397,110.,15.8464039969229));
#444=CARTESIAN_POINT('Origin',(2.9709875341481,110.,15.8464039969229));
#445=CARTESIAN_POINT('',(2.9709875341481,110.,15.8464039969229));
#446=CARTESIAN_POINT('',(2.9709875341481,110.,15.8464039969229));
#447=CARTESIAN_POINT('',(2.9709875341481,110.,15.8464039969229));
#448=CARTESIAN_POINT('Origin',(2.9709875341481,110.,2.0290124658519));
#449=CARTESIAN_POINT('',(2.9709875341481,110.,1.));
#450=CARTESIAN_POINT('Origin',(24.4692119002439,110.,8.42320199846144));
#451=UNCERTAINTY_MEASURE_WITH_UNIT(LENGTH_MEASURE(0.01),#455,
'DISTANCE_ACCURACY_VALUE',
'Maximum model space distance between geometric entities at asserted c
onnectivities');
#452=UNCERTAINTY_MEASURE_WITH_UNIT(LENGTH_MEASURE(0.01),#455,
'DISTANCE_ACCURACY_VALUE',
'Maximum model space distance between geometric entities at asserted c
onnectivities');
#453=(
GEOMETRIC_REPRESENTATION_CONTEXT(3)
GLOBAL_UNCERTAINTY_ASSIGNED_CONTEXT((#451))
GLOBAL_UNIT_ASSIGNED_CONTEXT((#455,#457,#458))
REPRESENTATION_CONTEXT('','3D')
);
#454=(
GEOMETRIC_REPRESENTATION_CONTEXT(3)
GLOBAL_UNCERTAINTY_ASSIGNED_CONTEXT((#452))
GLOBAL_UNIT_ASSIGNED_CONTEXT((#455,#457,#458))
REPRESENTATION_CONTEXT('','3D')
);
#455=(
LENGTH_UNIT()
NAMED_UNIT(*)
SI_UNIT(.MILLI.,.METRE.)
);
#456=(
LENGTH_UNIT()
NAMED_UNIT(*)
SI_UNIT($,.METRE.)
);
#457=(
NAMED_UNIT(*)
PLANE_ANGLE_UNIT()
SI_UNIT($,.RADIAN.)
);
#458=(
NAMED_UNIT(*)
SI_UNIT($,.STERADIAN.)
SOLID_ANGLE_UNIT()
);
#459=SHAPE_DEFINITION_REPRESENTATION(#460,#461);
#460=PRODUCT_DEFINITION_SHAPE('',$,#463);
#461=SHAPE_REPRESENTATION('',(#242),#453);
#462=PRODUCT_DEFINITION_CONTEXT('part definition',#467,'design');
#463=PRODUCT_DEFINITION('2026-10-10-09-51-35-400','RTL_COVER',#464,#462);
#464=PRODUCT_DEFINITION_FORMATION('',$,#469);
#465=PRODUCT_RELATED_PRODUCT_CATEGORY('RTL_COVER','RTL_COVER',(#469));
#466=APPLICATION_PROTOCOL_DEFINITION('international standard',
'automotive_design',2009,#467);
#467=APPLICATION_CONTEXT(
'Core Data for Automotive Mechanical Design Process');
#468=PRODUCT_CONTEXT('part definition',#467,'mechanical');
#469=PRODUCT('2026-10-10-09-51-35-400','RTL_COVER',$,(#468));
#470=PRESENTATION_STYLE_ASSIGNMENT((#471));
#471=SURFACE_STYLE_USAGE(.BOTH.,#472);
#472=SURFACE_SIDE_STYLE('',(#473));
#473=SURFACE_STYLE_FILL_AREA(#474);
#474=FILL_AREA_STYLE('Steel - Satin',(#475));
#475=FILL_AREA_STYLE_COLOUR('Steel - Satin',#476);
#476=COLOUR_RGB('Steel - Satin',0.627450980392157,0.627450980392157,0.627450980392157);
ENDSEC;
END-ISO-10303-21;
