%TF.GenerationSoftware,KiCad,Pcbnew,10.0.6*%
%TF.CreationDate,2026-10-11T11:41:13+05:30*%
%TF.ProjectId,Keyboard-Doomsdaydeck,4b657962-6f61-4726-942d-446f6f6d7364,rev?*%
%TF.SameCoordinates,Original*%
%TF.FileFunction,Copper,L2,Bot*%
%TF.FilePolarity,Positive*%
%FSLAX46Y46*%
G04 Gerber Fmt 4.6, Leading zero omitted, Abs format (unit mm)*
G04 Created by KiCad (PCBNEW 10.0.6) date 2026-10-11 11:41:13*
%MOMM*%
%LPD*%
G01*
G04 APERTURE LIST*
G04 Aperture macros list*
%AMRoundRect*
0 Rectangle with rounded corners*
0 $1 Rounding radius*
0 $2 $3 $4 $5 $6 $7 $8 $9 X,Y pos of 4 corners*
0 Add a 4 corners polygon primitive as box body*
4,1,4,$2,$3,$4,$5,$6,$7,$8,$9,$2,$3,0*
0 Add four circle primitives for the rounded corners*
1,1,$1+$1,$2,$3*
1,1,$1+$1,$4,$5*
1,1,$1+$1,$6,$7*
1,1,$1+$1,$8,$9*
0 Add four rect primitives between the rounded corners*
20,1,$1+$1,$2,$3,$4,$5,0*
20,1,$1+$1,$4,$5,$6,$7,0*
20,1,$1+$1,$6,$7,$8,$9,0*
20,1,$1+$1,$8,$9,$2,$3,0*%
G04 Aperture macros list end*
%TA.AperFunction,ComponentPad*%
%ADD10C,2.200000*%
%TD*%
%TA.AperFunction,ComponentPad*%
%ADD11R,2.030000X1.730000*%
%TD*%
%TA.AperFunction,ComponentPad*%
%ADD12O,2.030000X1.730000*%
%TD*%
%TA.AperFunction,ComponentPad*%
%ADD13R,1.700000X1.700000*%
%TD*%
%TA.AperFunction,ComponentPad*%
%ADD14C,1.700000*%
%TD*%
%TA.AperFunction,ComponentPad*%
%ADD15R,1.600000X1.600000*%
%TD*%
%TA.AperFunction,ComponentPad*%
%ADD16O,1.600000X1.600000*%
%TD*%
%TA.AperFunction,ComponentPad*%
%ADD17RoundRect,0.250000X-0.350000X-0.625000X0.350000X-0.625000X0.350000X0.625000X-0.350000X0.625000X0*%
%TD*%
%TA.AperFunction,ComponentPad*%
%ADD18O,1.200000X1.750000*%
%TD*%
%TA.AperFunction,ComponentPad*%
%ADD19O,1.700000X1.700000*%
%TD*%
%TA.AperFunction,SMDPad,CuDef*%
%ADD20R,1.700000X3.500000*%
%TD*%
%TA.AperFunction,SMDPad,CuDef*%
%ADD21R,3.500000X1.700000*%
%TD*%
%TA.AperFunction,ViaPad*%
%ADD22C,0.600000*%
%TD*%
%TA.AperFunction,Conductor*%
%ADD23C,0.200000*%
%TD*%
G04 APERTURE END LIST*
D10*
%TO.P,S25,1,1_1*%
%TO.N,COL5*%
X102000000Y-124600000D03*
%TO.P,S25,2,2_2*%
%TO.N,Net-(D25-A)*%
X107000000Y-126700000D03*
%TD*%
%TO.P,S41,1,1_1*%
%TO.N,COL9*%
X174000000Y-56600000D03*
%TO.P,S41,2,2_2*%
%TO.N,Net-(D41-A)*%
X179000000Y-58700000D03*
%TD*%
%TO.P,S15,1,1_1*%
%TO.N,COL3*%
X66000000Y-124600000D03*
%TO.P,S15,2,2_2*%
%TO.N,Net-(D15-A)*%
X71000000Y-126700000D03*
%TD*%
%TO.P,S8,1,1_1*%
%TO.N,COL2*%
X48000000Y-90600000D03*
%TO.P,S8,2,2_2*%
%TO.N,Net-(D8-A)*%
X53000000Y-92700000D03*
%TD*%
%TO.P,S34,1,1_1*%
%TO.N,COL7*%
X138000000Y-107600000D03*
%TO.P,S34,2,2_2*%
%TO.N,Net-(D34-A)*%
X143000000Y-109700000D03*
%TD*%
%TO.P,S46,1,1_1*%
%TO.N,COL10*%
X192000000Y-56600000D03*
%TO.P,S46,2,2_2*%
%TO.N,Net-(D46-A)*%
X197000000Y-58700000D03*
%TD*%
%TO.P,S42,1,1_1*%
%TO.N,COL9*%
X174000000Y-73600000D03*
%TO.P,S42,2,2_2*%
%TO.N,Net-(D42-A)*%
X179000000Y-75700000D03*
%TD*%
%TO.P,S28,1,1_1*%
%TO.N,COL6*%
X120000000Y-90600000D03*
%TO.P,S28,2,2_2*%
%TO.N,Net-(D28-A)*%
X125000000Y-92700000D03*
%TD*%
%TO.P,S5,1,1_1*%
%TO.N,COL1*%
X30000000Y-124600000D03*
%TO.P,S5,2,2_2*%
%TO.N,Net-(D5-A)*%
X35000000Y-126700000D03*
%TD*%
%TO.P,S10,1,1_1*%
%TO.N,COL2*%
X48000000Y-124600000D03*
%TO.P,S10,2,2_2*%
%TO.N,Net-(D10-A)*%
X53000000Y-126700000D03*
%TD*%
%TO.P,S14,1,1_1*%
%TO.N,COL3*%
X66000000Y-107600000D03*
%TO.P,S14,2,2_2*%
%TO.N,Net-(D14-A)*%
X71000000Y-109700000D03*
%TD*%
%TO.P,S24,1,1_1*%
%TO.N,COL5*%
X102000000Y-107600000D03*
%TO.P,S24,2,2_2*%
%TO.N,Net-(D24-A)*%
X107000000Y-109700000D03*
%TD*%
%TO.P,S48,1,1_1*%
%TO.N,COL10*%
X192000000Y-90600000D03*
%TO.P,S48,2,2_2*%
%TO.N,Net-(D48-A)*%
X197000000Y-92700000D03*
%TD*%
%TO.P,S17,1,1_1*%
%TO.N,COL4*%
X84000000Y-73600000D03*
%TO.P,S17,2,2_2*%
%TO.N,Net-(D17-A)*%
X89000000Y-75700000D03*
%TD*%
%TO.P,S12,1,1_1*%
%TO.N,COL3*%
X66000000Y-73600000D03*
%TO.P,S12,2,2_2*%
%TO.N,Net-(D12-A)*%
X71000000Y-75700000D03*
%TD*%
%TO.P,S9,1,1_1*%
%TO.N,COL2*%
X48000000Y-107600000D03*
%TO.P,S9,2,2_2*%
%TO.N,Net-(D9-A)*%
X53000000Y-109700000D03*
%TD*%
D11*
%TO.P,J5,1,Pin_1_1*%
%TO.N,GND*%
X206600000Y-55650000D03*
D12*
%TO.P,J5,2,Pin_2_2*%
%TO.N,unconnected-(J5-Pin_2-Pad2)*%
X206600000Y-53110000D03*
%TO.P,J5,3,Pin_3_3*%
%TO.N,SDA*%
X206600000Y-50570000D03*
%TO.P,J5,4,Pin_4_4*%
%TO.N,SCL*%
X206600000Y-48030000D03*
%TD*%
D10*
%TO.P,S30,1,1_1*%
%TO.N,COL6*%
X120000000Y-124600000D03*
%TO.P,S30,2,2_2*%
%TO.N,Net-(D30-A)*%
X125000000Y-126700000D03*
%TD*%
%TO.P,S4,1,1_1*%
%TO.N,COL1*%
X30000000Y-107600000D03*
%TO.P,S4,2,2_2*%
%TO.N,Net-(D4-A)*%
X35000000Y-109700000D03*
%TD*%
%TO.P,S7,1,1_1*%
%TO.N,COL2*%
X48000000Y-73600000D03*
%TO.P,S7,2,2_2*%
%TO.N,Net-(D7-A)*%
X53000000Y-75700000D03*
%TD*%
%TO.P,S40,1,1_1*%
%TO.N,COL8*%
X156000000Y-124600000D03*
%TO.P,S40,2,2_2*%
%TO.N,Net-(D40-A)*%
X161000000Y-126700000D03*
%TD*%
%TO.P,S18,1,1_1*%
%TO.N,COL4*%
X84000000Y-90600000D03*
%TO.P,S18,2,2_2*%
%TO.N,Net-(D18-A)*%
X89000000Y-92700000D03*
%TD*%
%TO.P,S11,1,1_1*%
%TO.N,COL3*%
X66000000Y-56600000D03*
%TO.P,S11,2,2_2*%
%TO.N,Net-(D11-A)*%
X71000000Y-58700000D03*
%TD*%
%TO.P,S44,1,1_1*%
%TO.N,COL9*%
X174000000Y-107600000D03*
%TO.P,S44,2,2_2*%
%TO.N,Net-(D44-A)*%
X179000000Y-109700000D03*
%TD*%
%TO.P,S47,1,1_1*%
%TO.N,COL10*%
X192000000Y-73600000D03*
%TO.P,S47,2,2_2*%
%TO.N,Net-(D47-A)*%
X197000000Y-75700000D03*
%TD*%
%TO.P,S43,1,1_1*%
%TO.N,COL9*%
X174000000Y-90600000D03*
%TO.P,S43,2,2_2*%
%TO.N,Net-(D43-A)*%
X179000000Y-92700000D03*
%TD*%
%TO.P,S2,1,1_1*%
%TO.N,COL1*%
X30000000Y-73600000D03*
%TO.P,S2,2,2_2*%
%TO.N,Net-(D2-A)*%
X35000000Y-75700000D03*
%TD*%
%TO.P,S22,1,1_1*%
%TO.N,COL5*%
X102000000Y-73600000D03*
%TO.P,S22,2,2_2*%
%TO.N,Net-(D22-A)*%
X107000000Y-75700000D03*
%TD*%
%TO.P,S37,1,1_1*%
%TO.N,COL8*%
X156000000Y-73600000D03*
%TO.P,S37,2,2_2*%
%TO.N,Net-(D37-A)*%
X161000000Y-75700000D03*
%TD*%
D13*
%TO.P,J4,1,Pin_1_1*%
%TO.N,GND*%
X182000000Y-43460000D03*
D14*
%TO.P,J4,2,Pin_2_2*%
%TO.N,3.3V*%
X182000000Y-46000000D03*
%TO.P,J4,3,Pin_3_3*%
%TO.N,SCL*%
X182000000Y-48540000D03*
%TO.P,J4,4,Pin_4_4*%
%TO.N,SDA*%
X182000000Y-51080000D03*
%TD*%
D10*
%TO.P,S38,1,1_1*%
%TO.N,COL8*%
X156000000Y-90600000D03*
%TO.P,S38,2,2_2*%
%TO.N,Net-(D38-A)*%
X161000000Y-92700000D03*
%TD*%
%TO.P,S16,1,1_1*%
%TO.N,COL4*%
X84000000Y-56600000D03*
%TO.P,S16,2,2_2*%
%TO.N,Net-(D16-A)*%
X89000000Y-58700000D03*
%TD*%
%TO.P,S13,1,1_1*%
%TO.N,COL3*%
X66000000Y-90600000D03*
%TO.P,S13,2,2_2*%
%TO.N,Net-(D13-A)*%
X71000000Y-92700000D03*
%TD*%
%TO.P,S39,1,1_1*%
%TO.N,COL8*%
X156000000Y-107600000D03*
%TO.P,S39,2,2_2*%
%TO.N,Net-(D39-A)*%
X161000000Y-109700000D03*
%TD*%
%TO.P,S49,1,1_1*%
%TO.N,COL10*%
X192000000Y-107600000D03*
%TO.P,S49,2,2_2*%
%TO.N,Net-(D49-A)*%
X197000000Y-109700000D03*
%TD*%
%TO.P,S29,1,1_1*%
%TO.N,COL6*%
X120000000Y-107600000D03*
%TO.P,S29,2,2_2*%
%TO.N,Net-(D29-A)*%
X125000000Y-109700000D03*
%TD*%
%TO.P,S3,1,1_1*%
%TO.N,COL1*%
X30000000Y-90600000D03*
%TO.P,S3,2,2_2*%
%TO.N,Net-(D3-A)*%
X35000000Y-92700000D03*
%TD*%
%TO.P,S1,1,1_1*%
%TO.N,COL1*%
X30000000Y-56600000D03*
%TO.P,S1,2,2_2*%
%TO.N,Net-(D1-A)*%
X35000000Y-58700000D03*
%TD*%
%TO.P,S26,1,1_1*%
%TO.N,COL6*%
X120000000Y-56600000D03*
%TO.P,S26,2,2_2*%
%TO.N,Net-(D26-A)*%
X125000000Y-58700000D03*
%TD*%
%TO.P,S45,1,1_1*%
%TO.N,COL9*%
X174000000Y-124600000D03*
%TO.P,S45,2,2_2*%
%TO.N,Net-(D45-A)*%
X179000000Y-126700000D03*
%TD*%
%TO.P,S19,1,1_1*%
%TO.N,COL4*%
X84000000Y-107600000D03*
%TO.P,S19,2,2_2*%
%TO.N,Net-(D19-A)*%
X89000000Y-109700000D03*
%TD*%
%TO.P,S33,1,1_1*%
%TO.N,COL7*%
X138000000Y-90600000D03*
%TO.P,S33,2,2_2*%
%TO.N,Net-(D33-A)*%
X143000000Y-92700000D03*
%TD*%
%TO.P,S6,1,1_1*%
%TO.N,COL2*%
X48000000Y-56600000D03*
%TO.P,S6,2,2_2*%
%TO.N,Net-(D6-A)*%
X53000000Y-58700000D03*
%TD*%
%TO.P,S21,1,1_1*%
%TO.N,COL5*%
X102000000Y-56600000D03*
%TO.P,S21,2,2_2*%
%TO.N,Net-(D21-A)*%
X107000000Y-58700000D03*
%TD*%
%TO.P,S23,1,1_1*%
%TO.N,COL5*%
X102000000Y-90600000D03*
%TO.P,S23,2,2_2*%
%TO.N,Net-(D23-A)*%
X107000000Y-92700000D03*
%TD*%
%TO.P,S50,1,1_1*%
%TO.N,COL10*%
X192000000Y-124600000D03*
%TO.P,S50,2,2_2*%
%TO.N,Net-(D50-A)*%
X197000000Y-126700000D03*
%TD*%
%TO.P,S36,1,1_1*%
%TO.N,COL8*%
X156000000Y-56600000D03*
%TO.P,S36,2,2_2*%
%TO.N,Net-(D36-A)*%
X161000000Y-58700000D03*
%TD*%
%TO.P,S20,1,1_1*%
%TO.N,COL4*%
X84000000Y-124600000D03*
%TO.P,S20,2,2_2*%
%TO.N,Net-(D20-A)*%
X89000000Y-126700000D03*
%TD*%
%TO.P,S27,1,1_1*%
%TO.N,COL6*%
X120000000Y-73600000D03*
%TO.P,S27,2,2_2*%
%TO.N,Net-(D27-A)*%
X125000000Y-75700000D03*
%TD*%
%TO.P,S35,1,1_1*%
%TO.N,COL7*%
X138000000Y-124600000D03*
%TO.P,S35,2,2_2*%
%TO.N,Net-(D35-A)*%
X143000000Y-126700000D03*
%TD*%
%TO.P,S32,1,1_1*%
%TO.N,COL7*%
X138000000Y-73600000D03*
%TO.P,S32,2,2_2*%
%TO.N,Net-(D32-A)*%
X143000000Y-75700000D03*
%TD*%
%TO.P,S31,1,1_1*%
%TO.N,COL7*%
X138000000Y-56600000D03*
%TO.P,S31,2,2_2*%
%TO.N,Net-(D31-A)*%
X143000000Y-58700000D03*
%TD*%
D15*
%TO.P,D11,1,K_1*%
%TO.N,ROW1*%
X75000000Y-66310000D03*
D16*
%TO.P,D11,2,A_2*%
%TO.N,Net-(D11-A)*%
X75000000Y-58690000D03*
%TD*%
D15*
%TO.P,D33,1,K_1*%
%TO.N,ROW3*%
X147000000Y-100310000D03*
D16*
%TO.P,D33,2,A_2*%
%TO.N,Net-(D33-A)*%
X147000000Y-92690000D03*
%TD*%
D15*
%TO.P,D34,1,K_1*%
%TO.N,ROW4*%
X147000000Y-117310000D03*
D16*
%TO.P,D34,2,A_2*%
%TO.N,Net-(D34-A)*%
X147000000Y-109690000D03*
%TD*%
D15*
%TO.P,D13,1,K_1*%
%TO.N,ROW3*%
X75000000Y-100310000D03*
D16*
%TO.P,D13,2,A_2*%
%TO.N,Net-(D13-A)*%
X75000000Y-92690000D03*
%TD*%
D15*
%TO.P,D9,1,K_1*%
%TO.N,ROW4*%
X57000000Y-117500000D03*
D16*
%TO.P,D9,2,A_2*%
%TO.N,Net-(D9-A)*%
X57000000Y-109880000D03*
%TD*%
D15*
%TO.P,D22,1,K_1*%
%TO.N,ROW2*%
X111000000Y-83310000D03*
D16*
%TO.P,D22,2,A_2*%
%TO.N,Net-(D22-A)*%
X111000000Y-75690000D03*
%TD*%
D15*
%TO.P,D32,1,K_1*%
%TO.N,ROW2*%
X147000000Y-83310000D03*
D16*
%TO.P,D32,2,A_2*%
%TO.N,Net-(D32-A)*%
X147000000Y-75690000D03*
%TD*%
D15*
%TO.P,D15,1,K_1*%
%TO.N,ROW5*%
X75000000Y-134310000D03*
D16*
%TO.P,D15,2,A_2*%
%TO.N,Net-(D15-A)*%
X75000000Y-126690000D03*
%TD*%
D15*
%TO.P,D1,1,K_1*%
%TO.N,ROW1*%
X39000000Y-66310000D03*
D16*
%TO.P,D1,2,A_2*%
%TO.N,Net-(D1-A)*%
X39000000Y-58690000D03*
%TD*%
D15*
%TO.P,D30,1,K_1*%
%TO.N,ROW5*%
X129000000Y-134310000D03*
D16*
%TO.P,D30,2,A_2*%
%TO.N,Net-(D30-A)*%
X129000000Y-126690000D03*
%TD*%
D15*
%TO.P,D40,1,K_1*%
%TO.N,ROW5*%
X165000000Y-134310000D03*
D16*
%TO.P,D40,2,A_2*%
%TO.N,Net-(D40-A)*%
X165000000Y-126690000D03*
%TD*%
D17*
%TO.P,J3,1,Pin_1_1*%
%TO.N,JRIGHT_CLICK*%
X83000000Y-49000000D03*
D18*
%TO.P,J3,2,Pin_2_2*%
%TO.N,GND*%
X85000000Y-49000000D03*
%TD*%
D15*
%TO.P,D27,1,K_1*%
%TO.N,ROW2*%
X129000000Y-83310000D03*
D16*
%TO.P,D27,2,A_2*%
%TO.N,Net-(D27-A)*%
X129000000Y-75690000D03*
%TD*%
D15*
%TO.P,D43,1,K_1*%
%TO.N,ROW3*%
X183000000Y-100310000D03*
D16*
%TO.P,D43,2,A_2*%
%TO.N,Net-(D43-A)*%
X183000000Y-92690000D03*
%TD*%
D15*
%TO.P,D10,1,K_1*%
%TO.N,ROW5*%
X57000000Y-134500000D03*
D16*
%TO.P,D10,2,A_2*%
%TO.N,Net-(D10-A)*%
X57000000Y-126880000D03*
%TD*%
D15*
%TO.P,D19,1,K_1*%
%TO.N,ROW4*%
X93000000Y-116810000D03*
D16*
%TO.P,D19,2,A_2*%
%TO.N,Net-(D19-A)*%
X93000000Y-109190000D03*
%TD*%
D15*
%TO.P,D36,1,K_1*%
%TO.N,ROW1*%
X165000000Y-66120000D03*
D16*
%TO.P,D36,2,A_2*%
%TO.N,Net-(D36-A)*%
X165000000Y-58500000D03*
%TD*%
D15*
%TO.P,D46,1,K_1*%
%TO.N,ROW1*%
X202500000Y-66310000D03*
D16*
%TO.P,D46,2,A_2*%
%TO.N,Net-(D46-A)*%
X202500000Y-58690000D03*
%TD*%
D15*
%TO.P,D25,1,K_1*%
%TO.N,ROW5*%
X111000000Y-134310000D03*
D16*
%TO.P,D25,2,A_2*%
%TO.N,Net-(D25-A)*%
X111000000Y-126690000D03*
%TD*%
D15*
%TO.P,D50,1,K_1*%
%TO.N,ROW5*%
X202500000Y-134310000D03*
D16*
%TO.P,D50,2,A_2*%
%TO.N,Net-(D50-A)*%
X202500000Y-126690000D03*
%TD*%
D15*
%TO.P,D16,1,K_1*%
%TO.N,ROW1*%
X93000000Y-66310000D03*
D16*
%TO.P,D16,2,A_2*%
%TO.N,Net-(D16-A)*%
X93000000Y-58690000D03*
%TD*%
D15*
%TO.P,D3,1,K_1*%
%TO.N,ROW3*%
X39000000Y-100310000D03*
D16*
%TO.P,D3,2,A_2*%
%TO.N,Net-(D3-A)*%
X39000000Y-92690000D03*
%TD*%
D15*
%TO.P,D31,1,K_1*%
%TO.N,ROW1*%
X147000000Y-66310000D03*
D16*
%TO.P,D31,2,A_2*%
%TO.N,Net-(D31-A)*%
X147000000Y-58690000D03*
%TD*%
D15*
%TO.P,D35,1,K_1*%
%TO.N,ROW5*%
X147000000Y-134310000D03*
D16*
%TO.P,D35,2,A_2*%
%TO.N,Net-(D35-A)*%
X147000000Y-126690000D03*
%TD*%
D15*
%TO.P,D49,1,K_1*%
%TO.N,ROW4*%
X202500000Y-117310000D03*
D16*
%TO.P,D49,2,A_2*%
%TO.N,Net-(D49-A)*%
X202500000Y-109690000D03*
%TD*%
D15*
%TO.P,D29,1,K_1*%
%TO.N,ROW4*%
X129000000Y-117310000D03*
D16*
%TO.P,D29,2,A_2*%
%TO.N,Net-(D29-A)*%
X129000000Y-109690000D03*
%TD*%
D15*
%TO.P,D44,1,K_1*%
%TO.N,ROW4*%
X183000000Y-117500000D03*
D16*
%TO.P,D44,2,A_2*%
%TO.N,Net-(D44-A)*%
X183000000Y-109880000D03*
%TD*%
D15*
%TO.P,D18,1,K_1*%
%TO.N,ROW3*%
X93000000Y-100310000D03*
D16*
%TO.P,D18,2,A_2*%
%TO.N,Net-(D18-A)*%
X93000000Y-92690000D03*
%TD*%
D15*
%TO.P,D14,1,K_1*%
%TO.N,ROW4*%
X75000000Y-117500000D03*
D16*
%TO.P,D14,2,A_2*%
%TO.N,Net-(D14-A)*%
X75000000Y-109880000D03*
%TD*%
D15*
%TO.P,D37,1,K_1*%
%TO.N,ROW2*%
X165000000Y-83310000D03*
D16*
%TO.P,D37,2,A_2*%
%TO.N,Net-(D37-A)*%
X165000000Y-75690000D03*
%TD*%
D15*
%TO.P,D48,1,K_1*%
%TO.N,ROW3*%
X202500000Y-100310000D03*
D16*
%TO.P,D48,2,A_2*%
%TO.N,Net-(D48-A)*%
X202500000Y-92690000D03*
%TD*%
D15*
%TO.P,D4,1,K_1*%
%TO.N,ROW4*%
X39000000Y-117310000D03*
D16*
%TO.P,D4,2,A_2*%
%TO.N,Net-(D4-A)*%
X39000000Y-109690000D03*
%TD*%
D15*
%TO.P,D39,1,K_1*%
%TO.N,ROW4*%
X165000000Y-117310000D03*
D16*
%TO.P,D39,2,A_2*%
%TO.N,Net-(D39-A)*%
X165000000Y-109690000D03*
%TD*%
D15*
%TO.P,D20,1,K_1*%
%TO.N,ROW5*%
X93000000Y-134310000D03*
D16*
%TO.P,D20,2,A_2*%
%TO.N,Net-(D20-A)*%
X93000000Y-126690000D03*
%TD*%
D15*
%TO.P,D21,1,K_1*%
%TO.N,ROW1*%
X111000000Y-66620000D03*
D16*
%TO.P,D21,2,A_2*%
%TO.N,Net-(D21-A)*%
X111000000Y-59000000D03*
%TD*%
D15*
%TO.P,D8,1,K_1*%
%TO.N,ROW3*%
X57000000Y-100310000D03*
D16*
%TO.P,D8,2,A_2*%
%TO.N,Net-(D8-A)*%
X57000000Y-92690000D03*
%TD*%
D19*
%TO.P,U1,1,GPIO0_1*%
%TO.N,ROW1*%
X122780000Y-166390000D03*
D20*
X122780000Y-167290000D03*
D19*
%TO.P,U1,2,GPIO1_2*%
%TO.N,ROW2*%
X120240000Y-166390000D03*
D20*
X120240000Y-167290000D03*
D13*
%TO.P,U1,3,GND_3*%
%TO.N,GND*%
X117700000Y-166390000D03*
D20*
X117700000Y-167290000D03*
D19*
%TO.P,U1,4,GPIO2_4*%
%TO.N,ROW3*%
X115160000Y-166390000D03*
D20*
X115160000Y-167290000D03*
D19*
%TO.P,U1,5,GPIO3_5*%
%TO.N,ROW4*%
X112620000Y-166390000D03*
D20*
X112620000Y-167290000D03*
D19*
%TO.P,U1,6,GPIO4_6*%
%TO.N,ROW5*%
X110080000Y-166390000D03*
D20*
X110080000Y-167290000D03*
D19*
%TO.P,U1,7,GPIO5_7*%
%TO.N,COL1*%
X107540000Y-166390000D03*
D20*
X107540000Y-167290000D03*
D13*
%TO.P,U1,8,GND_8*%
%TO.N,GND*%
X105000000Y-166390000D03*
D20*
X105000000Y-167290000D03*
D19*
%TO.P,U1,9,GPIO6_9*%
%TO.N,COL2*%
X102460000Y-166390000D03*
D20*
X102460000Y-167290000D03*
D19*
%TO.P,U1,10,GPIO7_10*%
%TO.N,COL3*%
X99920000Y-166390000D03*
D20*
X99920000Y-167290000D03*
D19*
%TO.P,U1,11,GPIO8_11*%
%TO.N,COL4*%
X97380000Y-166390000D03*
D20*
X97380000Y-167290000D03*
D19*
%TO.P,U1,12,GPIO9_12*%
%TO.N,COL5*%
X94840000Y-166390000D03*
D20*
X94840000Y-167290000D03*
D13*
%TO.P,U1,13,GND_13*%
%TO.N,GND*%
X92300000Y-166390000D03*
D20*
X92300000Y-167290000D03*
D19*
%TO.P,U1,14,GPIO10_14*%
%TO.N,COL6*%
X89760000Y-166390000D03*
D20*
X89760000Y-167290000D03*
D19*
%TO.P,U1,15,GPIO11_15*%
%TO.N,COL7*%
X87220000Y-166390000D03*
D20*
X87220000Y-167290000D03*
D19*
%TO.P,U1,16,GPIO12_16*%
%TO.N,COL8*%
X84680000Y-166390000D03*
D20*
X84680000Y-167290000D03*
D19*
%TO.P,U1,17,GPIO13_17*%
%TO.N,COL9*%
X82140000Y-166390000D03*
D20*
X82140000Y-167290000D03*
D13*
%TO.P,U1,18,GND_18*%
%TO.N,GND*%
X79600000Y-166390000D03*
D20*
X79600000Y-167290000D03*
D19*
%TO.P,U1,19,GPIO14_19*%
%TO.N,COL10*%
X77060000Y-166390000D03*
D20*
X77060000Y-167290000D03*
D19*
%TO.P,U1,20,GPIO15_20*%
%TO.N,unconnected-(U1-GPIO15-Pad20)*%
X74520000Y-166390000D03*
D20*
%TO.N,unconnected-(U1-GPIO15-Pad20)_1*%
X74520000Y-167290000D03*
D19*
%TO.P,U1,21,GPIO16_21*%
%TO.N,SDA*%
X74520000Y-148610000D03*
D20*
X74520000Y-147710000D03*
D19*
%TO.P,U1,22,GPIO17_22*%
%TO.N,SCL*%
X77060000Y-148610000D03*
D20*
X77060000Y-147710000D03*
D13*
%TO.P,U1,23,GND_23*%
%TO.N,GND*%
X79600000Y-148610000D03*
D20*
X79600000Y-147710000D03*
D19*
%TO.P,U1,24,GPIO18_24*%
%TO.N,unconnected-(U1-GPIO18-Pad24)*%
X82140000Y-148610000D03*
D20*
%TO.N,unconnected-(U1-GPIO18-Pad24)_1*%
X82140000Y-147710000D03*
D19*
%TO.P,U1,25,GPIO19_25*%
%TO.N,unconnected-(U1-GPIO19-Pad25)_1*%
X84680000Y-148610000D03*
D20*
%TO.N,unconnected-(U1-GPIO19-Pad25)*%
X84680000Y-147710000D03*
D19*
%TO.P,U1,26,GPIO20_26*%
%TO.N,JRIGHT_CLICK*%
X87220000Y-148610000D03*
D20*
X87220000Y-147710000D03*
D19*
%TO.P,U1,27,GPIO21_27*%
%TO.N,JLEFT_CLICK*%
X89760000Y-148610000D03*
D20*
X89760000Y-147710000D03*
D13*
%TO.P,U1,28,GND_28*%
%TO.N,GND*%
X92300000Y-148610000D03*
D20*
X92300000Y-147710000D03*
D19*
%TO.P,U1,29,GPIO22_29*%
%TO.N,JOY_SW*%
X94840000Y-148610000D03*
D20*
X94840000Y-147710000D03*
D19*
%TO.P,U1,30,RUN_30*%
%TO.N,unconnected-(U1-RUN-Pad30)_1*%
X97380000Y-148610000D03*
D20*
%TO.N,unconnected-(U1-RUN-Pad30)*%
X97380000Y-147710000D03*
D19*
%TO.P,U1,31,GPIO26_ADC0_31*%
%TO.N,JOY_X*%
X99920000Y-148610000D03*
D20*
X99920000Y-147710000D03*
D19*
%TO.P,U1,32,GPIO27_ADC1_32*%
%TO.N,JOY_Y*%
X102460000Y-148610000D03*
D20*
X102460000Y-147710000D03*
D13*
%TO.P,U1,33,AGND_33*%
%TO.N,GND*%
X105000000Y-148610000D03*
D20*
X105000000Y-147710000D03*
D19*
%TO.P,U1,34,GPIO28_ADC2_34*%
%TO.N,unconnected-(U1-GPIO28_ADC2-Pad34)_1*%
X107540000Y-148610000D03*
D20*
%TO.N,unconnected-(U1-GPIO28_ADC2-Pad34)*%
X107540000Y-147710000D03*
D19*
%TO.P,U1,35,ADC_VREF_35*%
%TO.N,unconnected-(U1-ADC_VREF-Pad35)*%
X110080000Y-148610000D03*
D20*
%TO.N,unconnected-(U1-ADC_VREF-Pad35)_1*%
X110080000Y-147710000D03*
D19*
%TO.P,U1,36,3V3_36*%
%TO.N,3.3V*%
X112620000Y-148610000D03*
D20*
X112620000Y-147710000D03*
D19*
%TO.P,U1,37,3V3_EN_37*%
%TO.N,unconnected-(U1-3V3_EN-Pad37)*%
X115160000Y-148610000D03*
D20*
%TO.N,unconnected-(U1-3V3_EN-Pad37)_1*%
X115160000Y-147710000D03*
D13*
%TO.P,U1,38,GND_38*%
%TO.N,GND*%
X117700000Y-148610000D03*
D20*
X117700000Y-147710000D03*
D19*
%TO.P,U1,39,VSYS_39*%
%TO.N,unconnected-(U1-VSYS-Pad39)_1*%
X120240000Y-148610000D03*
D20*
%TO.N,unconnected-(U1-VSYS-Pad39)*%
X120240000Y-147710000D03*
D19*
%TO.P,U1,40,VBUS_40*%
%TO.N,unconnected-(U1-VBUS-Pad40)_1*%
X122780000Y-148610000D03*
D20*
%TO.N,unconnected-(U1-VBUS-Pad40)*%
X122780000Y-147710000D03*
D19*
%TO.P,U1,41,SWCLK_41*%
%TO.N,unconnected-(U1-SWCLK-Pad41)_1*%
X74750000Y-160040000D03*
D21*
%TO.N,unconnected-(U1-SWCLK-Pad41)*%
X73850000Y-160040000D03*
D13*
%TO.P,U1,42,GND_42*%
%TO.N,GND*%
X74750000Y-157500000D03*
D21*
X73850000Y-157500000D03*
D19*
%TO.P,U1,43,SWDIO_43*%
%TO.N,unconnected-(U1-SWDIO-Pad43)*%
X74750000Y-154960000D03*
D21*
%TO.N,unconnected-(U1-SWDIO-Pad43)_1*%
X73850000Y-154960000D03*
%TD*%
D15*
%TO.P,D23,1,K_1*%
%TO.N,ROW3*%
X111000000Y-100310000D03*
D16*
%TO.P,D23,2,A_2*%
%TO.N,Net-(D23-A)*%
X111000000Y-92690000D03*
%TD*%
D15*
%TO.P,D17,1,K_1*%
%TO.N,ROW2*%
X93000000Y-83310000D03*
D16*
%TO.P,D17,2,A_2*%
%TO.N,Net-(D17-A)*%
X93000000Y-75690000D03*
%TD*%
D15*
%TO.P,D12,1,K_1*%
%TO.N,ROW2*%
X75000000Y-83310000D03*
D16*
%TO.P,D12,2,A_2*%
%TO.N,Net-(D12-A)*%
X75000000Y-75690000D03*
%TD*%
D15*
%TO.P,D7,1,K_1*%
%TO.N,ROW2*%
X57000000Y-83310000D03*
D16*
%TO.P,D7,2,A_2*%
%TO.N,Net-(D7-A)*%
X57000000Y-75690000D03*
%TD*%
D15*
%TO.P,D24,1,K_1*%
%TO.N,ROW4*%
X111000000Y-117500000D03*
D16*
%TO.P,D24,2,A_2*%
%TO.N,Net-(D24-A)*%
X111000000Y-109880000D03*
%TD*%
D15*
%TO.P,D2,1,K_1*%
%TO.N,ROW2*%
X39000000Y-83620000D03*
D16*
%TO.P,D2,2,A_2*%
%TO.N,Net-(D2-A)*%
X39000000Y-76000000D03*
%TD*%
D17*
%TO.P,J2,1,Pin_1_1*%
%TO.N,JLEFT_CLICK*%
X104000000Y-49000000D03*
D18*
%TO.P,J2,2,Pin_2_2*%
%TO.N,GND*%
X106000000Y-49000000D03*
%TD*%
D15*
%TO.P,D41,1,K_1*%
%TO.N,ROW1*%
X183000000Y-66310000D03*
D16*
%TO.P,D41,2,A_2*%
%TO.N,Net-(D41-A)*%
X183000000Y-58690000D03*
%TD*%
D15*
%TO.P,D5,1,K_1*%
%TO.N,ROW5*%
X39000000Y-134310000D03*
D16*
%TO.P,D5,2,A_2*%
%TO.N,Net-(D5-A)*%
X39000000Y-126690000D03*
%TD*%
D15*
%TO.P,D6,1,K_1*%
%TO.N,ROW1*%
X57000000Y-66310000D03*
D16*
%TO.P,D6,2,A_2*%
%TO.N,Net-(D6-A)*%
X57000000Y-58690000D03*
%TD*%
D15*
%TO.P,D42,1,K_1*%
%TO.N,ROW2*%
X183000000Y-83310000D03*
D16*
%TO.P,D42,2,A_2*%
%TO.N,Net-(D42-A)*%
X183000000Y-75690000D03*
%TD*%
D15*
%TO.P,D28,1,K_1*%
%TO.N,ROW3*%
X129000000Y-100500000D03*
D16*
%TO.P,D28,2,A_2*%
%TO.N,Net-(D28-A)*%
X129000000Y-92880000D03*
%TD*%
D15*
%TO.P,D38,1,K_1*%
%TO.N,ROW3*%
X165000000Y-100310000D03*
D16*
%TO.P,D38,2,A_2*%
%TO.N,Net-(D38-A)*%
X165000000Y-92690000D03*
%TD*%
D17*
%TO.P,J1,1,Pin_1_1*%
%TO.N,GND*%
X90500000Y-49000000D03*
D18*
%TO.P,J1,2,Pin_2_2*%
%TO.N,3.3V*%
X92500000Y-49000000D03*
%TO.P,J1,3,Pin_3_3*%
%TO.N,JOY_X*%
X94500000Y-49000000D03*
%TO.P,J1,4,Pin_4_4*%
%TO.N,JOY_Y*%
X96500000Y-49000000D03*
%TO.P,J1,5,Pin_5_5*%
%TO.N,JOY_SW*%
X98500000Y-49000000D03*
%TD*%
D15*
%TO.P,D47,1,K_1*%
%TO.N,ROW2*%
X202500000Y-83310000D03*
D16*
%TO.P,D47,2,A_2*%
%TO.N,Net-(D47-A)*%
X202500000Y-75690000D03*
%TD*%
D15*
%TO.P,D26,1,K_1*%
%TO.N,ROW1*%
X129000000Y-66120000D03*
D16*
%TO.P,D26,2,A_2*%
%TO.N,Net-(D26-A)*%
X129000000Y-58500000D03*
%TD*%
D15*
%TO.P,D45,1,K_1*%
%TO.N,ROW5*%
X183000000Y-134500000D03*
D16*
%TO.P,D45,2,A_2*%
%TO.N,Net-(D45-A)*%
X183000000Y-126880000D03*
%TD*%
D22*
%TO.N,COL5*%
X93600000Y-157100000D03*
%TO.N,COL9*%
X99220539Y-162553009D03*
X170550000Y-162350000D03*
%TO.N,COL10*%
X98750000Y-163200000D03*
X189700000Y-162850000D03*
%TO.N,COL6*%
X98300000Y-161600000D03*
X101300000Y-161550000D03*
X90850000Y-161600000D03*
%TO.N,COL4*%
X81550000Y-137200000D03*
%TO.N,SDA*%
X188000000Y-135000000D03*
X93000000Y-154600000D03*
%TO.N,SCL*%
X93000000Y-153650000D03*
X173800000Y-143450000D03*
%TO.N,COL8*%
X155600000Y-157450000D03*
X129650000Y-157900000D03*
X84680000Y-158050000D03*
%TO.N,3.3V*%
X107250000Y-51450000D03*
%TO.N,JOY_Y*%
X104950000Y-65650000D03*
%TD*%
%TO.N,COL5*%
D23*
X100550000Y-56600000D02*
X102000000Y-56600000D01*
X93600000Y-145750000D02*
X94090000Y-145260000D01*
X100600000Y-107600000D02*
X99925000Y-106925000D01*
X102000000Y-127565507D02*
X102000000Y-124600000D01*
X99900000Y-129665507D02*
X102000000Y-127565507D01*
X99024314Y-145260000D02*
X99900000Y-144384314D01*
X94090000Y-145260000D02*
X99024314Y-145260000D01*
X99900000Y-144384314D02*
X99900000Y-129665507D01*
X102000000Y-107600000D02*
X100600000Y-107600000D01*
X99925000Y-108075000D02*
X100400000Y-107600000D01*
X99925000Y-122525000D02*
X99925000Y-108075000D01*
X102000000Y-124600000D02*
X99925000Y-122525000D01*
X102000000Y-90600000D02*
X100600000Y-90600000D01*
X100400000Y-73600000D02*
X99925000Y-73125000D01*
X99925000Y-73125000D02*
X99925000Y-57225000D01*
X99925000Y-91075000D02*
X100400000Y-90600000D01*
X99925000Y-89925000D02*
X99925000Y-74075000D01*
X100400000Y-90600000D02*
X102000000Y-90600000D01*
X99925000Y-106925000D02*
X99925000Y-91075000D01*
X99925000Y-74075000D02*
X100400000Y-73600000D01*
X100600000Y-90600000D02*
X99925000Y-89925000D01*
X93600000Y-157100000D02*
X93600000Y-145750000D01*
X99925000Y-57225000D02*
X100550000Y-56600000D01*
X100400000Y-107600000D02*
X102000000Y-107600000D01*
X100400000Y-73600000D02*
X102000000Y-73600000D01*
%TO.N,COL9*%
X171925000Y-91075000D02*
X172400000Y-90600000D01*
X172650000Y-56600000D02*
X174000000Y-56600000D01*
X174000000Y-124600000D02*
X171925000Y-122525000D01*
X98548462Y-162553009D02*
X98351471Y-162750000D01*
X172400000Y-73600000D02*
X174000000Y-73600000D01*
X174000000Y-73600000D02*
X172600000Y-73600000D01*
X99220539Y-162553009D02*
X98548462Y-162553009D01*
X172600000Y-73600000D02*
X171925000Y-72925000D01*
X172600000Y-107600000D02*
X171925000Y-106925000D01*
X98351471Y-162750000D02*
X82450000Y-162750000D01*
X171925000Y-108275000D02*
X172600000Y-107600000D01*
X171925000Y-106925000D02*
X171925000Y-91075000D01*
X171925000Y-74075000D02*
X172400000Y-73600000D01*
X174000000Y-90600000D02*
X172600000Y-90600000D01*
X170900000Y-162000000D02*
X170900000Y-136100000D01*
X171925000Y-89925000D02*
X171925000Y-74075000D01*
X171925000Y-57325000D02*
X172650000Y-56600000D01*
X174000000Y-107600000D02*
X172600000Y-107600000D01*
X171925000Y-72925000D02*
X171925000Y-57325000D01*
X172400000Y-90600000D02*
X174000000Y-90600000D01*
X171925000Y-135075000D02*
X171925000Y-122525000D01*
X82450000Y-162750000D02*
X82140000Y-163060000D01*
X82140000Y-163060000D02*
X82140000Y-166390000D01*
X172600000Y-90600000D02*
X171925000Y-89925000D01*
X171925000Y-122525000D02*
X171925000Y-108275000D01*
X170550000Y-162350000D02*
X170900000Y-162000000D01*
X170900000Y-136100000D02*
X171925000Y-135075000D01*
%TO.N,COL3*%
X63900000Y-90600000D02*
X63500000Y-90200000D01*
X66000000Y-73600000D02*
X64600000Y-73600000D01*
X63500000Y-107200000D02*
X63500000Y-91000000D01*
X63900000Y-107600000D02*
X63500000Y-107200000D01*
X63500000Y-122100000D02*
X63500000Y-108000000D01*
X66000000Y-124600000D02*
X63500000Y-122100000D01*
X99920000Y-159220000D02*
X99920000Y-166390000D01*
X64500000Y-56600000D02*
X66000000Y-56600000D01*
X63900000Y-107600000D02*
X66000000Y-107600000D01*
X63500000Y-57600000D02*
X64500000Y-56600000D01*
X63500000Y-73200000D02*
X63500000Y-57600000D01*
X66000000Y-124600000D02*
X63925000Y-126675000D01*
X63925000Y-126675000D02*
X63925000Y-158375000D01*
X63925000Y-158375000D02*
X64200000Y-158650000D01*
X64200000Y-158650000D02*
X99350000Y-158650000D01*
X63500000Y-74000000D02*
X63900000Y-73600000D01*
X63500000Y-91000000D02*
X63900000Y-90600000D01*
X99350000Y-158650000D02*
X99920000Y-159220000D01*
X63500000Y-90200000D02*
X63500000Y-74000000D01*
X63900000Y-73600000D02*
X64600000Y-73600000D01*
X63900000Y-73600000D02*
X63500000Y-73200000D01*
X63500000Y-108000000D02*
X63900000Y-107600000D01*
X63900000Y-90600000D02*
X66000000Y-90600000D01*
%TO.N,COL2*%
X45500000Y-73000000D02*
X45500000Y-57700000D01*
X102460000Y-169540000D02*
X102460000Y-166390000D01*
X45900000Y-73600000D02*
X48000000Y-73600000D01*
X45500000Y-57700000D02*
X46600000Y-56600000D01*
X46400000Y-90600000D02*
X48000000Y-90600000D01*
X46600000Y-56600000D02*
X48000000Y-56600000D01*
X45925000Y-169725000D02*
X46600000Y-170400000D01*
X46600000Y-107600000D02*
X45500000Y-106500000D01*
X45500000Y-106500000D02*
X45500000Y-91500000D01*
X46100000Y-73600000D02*
X45500000Y-73000000D01*
X45500000Y-74000000D02*
X45900000Y-73600000D01*
X48000000Y-124600000D02*
X45925000Y-126675000D01*
X101600000Y-170400000D02*
X102460000Y-169540000D01*
X45925000Y-126675000D02*
X45925000Y-169725000D01*
X46600000Y-170400000D02*
X101600000Y-170400000D01*
X46400000Y-90600000D02*
X45500000Y-89700000D01*
X45500000Y-122100000D02*
X45500000Y-108500000D01*
X45500000Y-108500000D02*
X46400000Y-107600000D01*
X48000000Y-124600000D02*
X45500000Y-122100000D01*
X48000000Y-107600000D02*
X46600000Y-107600000D01*
X46400000Y-107600000D02*
X48000000Y-107600000D01*
X45500000Y-91500000D02*
X46400000Y-90600000D01*
X45500000Y-89700000D02*
X45500000Y-74000000D01*
X48000000Y-73600000D02*
X46100000Y-73600000D01*
%TO.N,COL7*%
X135925000Y-122525000D02*
X135925000Y-108075000D01*
X136600000Y-107600000D02*
X135925000Y-106925000D01*
X87990000Y-170000000D02*
X87220000Y-169230000D01*
X102950000Y-163600000D02*
X101250000Y-165300000D01*
X135925000Y-57275000D02*
X136600000Y-56600000D01*
X135925000Y-74075000D02*
X136400000Y-73600000D01*
X138000000Y-124600000D02*
X135925000Y-122525000D01*
X138000000Y-73600000D02*
X136600000Y-73600000D01*
X135925000Y-122525000D02*
X135925000Y-162925000D01*
X135250000Y-163600000D02*
X102950000Y-163600000D01*
X138000000Y-90600000D02*
X136600000Y-90600000D01*
X136400000Y-107600000D02*
X138000000Y-107600000D01*
X136600000Y-56600000D02*
X138000000Y-56600000D01*
X135925000Y-89925000D02*
X135925000Y-74075000D01*
X87220000Y-169230000D02*
X87220000Y-166390000D01*
X135925000Y-72925000D02*
X135925000Y-57275000D01*
X100800000Y-170000000D02*
X87990000Y-170000000D01*
X135925000Y-106925000D02*
X135925000Y-91075000D01*
X101250000Y-165300000D02*
X101250000Y-169550000D01*
X135925000Y-162925000D02*
X135250000Y-163600000D01*
X135925000Y-91075000D02*
X136400000Y-90600000D01*
X101250000Y-169550000D02*
X100800000Y-170000000D01*
X135925000Y-108075000D02*
X136400000Y-107600000D01*
X138000000Y-107600000D02*
X136600000Y-107600000D01*
X136400000Y-90600000D02*
X138000000Y-90600000D01*
X136600000Y-73600000D02*
X135925000Y-72925000D01*
X136600000Y-90600000D02*
X135925000Y-89925000D01*
X136400000Y-73600000D02*
X138000000Y-73600000D01*
%TO.N,COL10*%
X83290000Y-169310000D02*
X83290000Y-163460000D01*
X192000000Y-107600000D02*
X190600000Y-107600000D01*
X192000000Y-90600000D02*
X190600000Y-90600000D01*
X190400000Y-107600000D02*
X192000000Y-107600000D01*
X189925000Y-72925000D02*
X189925000Y-58675000D01*
X192000000Y-73600000D02*
X190600000Y-73600000D01*
X189925000Y-91075000D02*
X190400000Y-90600000D01*
X189925000Y-122525000D02*
X189925000Y-108075000D01*
X77060000Y-169460000D02*
X77200000Y-169600000D01*
X189925000Y-58675000D02*
X192000000Y-56600000D01*
X190600000Y-73600000D02*
X189925000Y-72925000D01*
X83000000Y-169600000D02*
X83290000Y-169310000D01*
X189925000Y-162675000D02*
X189925000Y-122525000D01*
X190600000Y-90600000D02*
X189925000Y-89925000D01*
X77200000Y-169600000D02*
X83000000Y-169600000D01*
X190600000Y-107600000D02*
X189925000Y-106925000D01*
X189750000Y-162850000D02*
X189925000Y-162675000D01*
X190400000Y-90600000D02*
X192000000Y-90600000D01*
X190400000Y-73600000D02*
X192000000Y-73600000D01*
X189925000Y-74075000D02*
X190400000Y-73600000D01*
X189925000Y-89925000D02*
X189925000Y-74075000D01*
X83550000Y-163200000D02*
X98750000Y-163200000D01*
X77060000Y-166390000D02*
X77060000Y-169460000D01*
X189925000Y-106925000D02*
X189925000Y-91075000D01*
X189700000Y-162850000D02*
X189750000Y-162850000D01*
X83290000Y-163460000D02*
X83550000Y-163200000D01*
X189925000Y-108075000D02*
X190400000Y-107600000D01*
X192000000Y-124600000D02*
X189925000Y-122525000D01*
%TO.N,COL6*%
X118400000Y-107600000D02*
X117500000Y-106700000D01*
X118400000Y-73600000D02*
X117500000Y-72700000D01*
X134750000Y-161550000D02*
X135000000Y-161300000D01*
X117500000Y-72700000D02*
X117500000Y-57700000D01*
X117500000Y-108500000D02*
X118400000Y-107600000D01*
X133100000Y-124600000D02*
X120000000Y-124600000D01*
X118400000Y-90600000D02*
X120000000Y-90600000D01*
X135000000Y-126500000D02*
X133100000Y-124600000D01*
X135000000Y-161300000D02*
X135000000Y-126500000D01*
X118400000Y-107600000D02*
X120000000Y-107600000D01*
X118400000Y-73600000D02*
X120000000Y-73600000D01*
X120000000Y-90600000D02*
X118600000Y-90600000D01*
X117500000Y-57700000D02*
X118600000Y-56600000D01*
X118600000Y-56600000D02*
X120000000Y-56600000D01*
X120000000Y-124600000D02*
X117500000Y-122100000D01*
X117500000Y-74500000D02*
X118400000Y-73600000D01*
X117500000Y-91500000D02*
X118400000Y-90600000D01*
X117500000Y-89500000D02*
X117500000Y-74500000D01*
X98300000Y-161600000D02*
X90850000Y-161600000D01*
X117500000Y-106700000D02*
X117500000Y-91500000D01*
X117500000Y-122100000D02*
X117500000Y-108500000D01*
X101300000Y-161550000D02*
X134750000Y-161550000D01*
X118600000Y-90600000D02*
X117500000Y-89500000D01*
%TO.N,COL4*%
X81900000Y-73600000D02*
X81500000Y-73200000D01*
X81500000Y-91200000D02*
X82100000Y-90600000D01*
X81900000Y-73600000D02*
X84000000Y-73600000D01*
X82500000Y-56600000D02*
X84000000Y-56600000D01*
X84000000Y-107600000D02*
X82600000Y-107600000D01*
X81500000Y-108550000D02*
X82450000Y-107600000D01*
X84000000Y-127565507D02*
X84000000Y-124600000D01*
X81500000Y-57600000D02*
X82500000Y-56600000D01*
X81500000Y-74000000D02*
X81900000Y-73600000D01*
X81500000Y-106500000D02*
X81500000Y-91200000D01*
X84000000Y-90600000D02*
X82100000Y-90600000D01*
X84000000Y-124600000D02*
X81500000Y-122100000D01*
X81500000Y-73200000D02*
X81500000Y-57600000D01*
X81550000Y-130015507D02*
X84000000Y-127565507D01*
X82100000Y-90600000D02*
X81500000Y-90000000D01*
X81500000Y-90000000D02*
X81500000Y-74000000D01*
X81550000Y-137200000D02*
X81550000Y-130015507D01*
X82600000Y-107600000D02*
X81500000Y-106500000D01*
X81500000Y-122100000D02*
X81500000Y-108550000D01*
X82450000Y-107600000D02*
X84000000Y-107600000D01*
%TO.N,GND*%
X105600000Y-75120101D02*
X105600000Y-76279899D01*
X105600000Y-93279899D02*
X105625000Y-93304899D01*
X104950000Y-141031372D02*
X104950000Y-148560000D01*
X105600000Y-92120101D02*
X105600000Y-93279899D01*
X105600000Y-126120101D02*
X105600000Y-140381372D01*
X105625000Y-126095101D02*
X105600000Y-126120101D01*
X105600000Y-109120101D02*
X105600000Y-110279899D01*
X106000000Y-49000000D02*
X105625000Y-49375000D01*
X105600000Y-58120101D02*
X105600000Y-59279899D01*
X105625000Y-76304899D02*
X105625000Y-92095101D01*
X105600000Y-140381372D02*
X104950000Y-141031372D01*
X105600000Y-59279899D02*
X105625000Y-59304899D01*
X105625000Y-93304899D02*
X105625000Y-109095101D01*
X105600000Y-76279899D02*
X105625000Y-76304899D01*
X105625000Y-110304899D02*
X105625000Y-126095101D01*
X105625000Y-59304899D02*
X105625000Y-75095101D01*
X105625000Y-75095101D02*
X105600000Y-75120101D01*
X105625000Y-109095101D02*
X105600000Y-109120101D01*
X104950000Y-148560000D02*
X105000000Y-148610000D01*
X105625000Y-92095101D02*
X105600000Y-92120101D01*
X105625000Y-49375000D02*
X105625000Y-58095101D01*
X105625000Y-58095101D02*
X105600000Y-58120101D01*
X105600000Y-110279899D02*
X105625000Y-110304899D01*
%TO.N,SDA*%
X182000000Y-51080000D02*
X187080000Y-51080000D01*
X93000000Y-154600000D02*
X77550000Y-154600000D01*
X74520000Y-151570000D02*
X74520000Y-148610000D01*
X187080000Y-51080000D02*
X188000000Y-52000000D01*
X77550000Y-154600000D02*
X74520000Y-151570000D01*
X188000000Y-52000000D02*
X188000000Y-135000000D01*
%TO.N,SCL*%
X189000000Y-50000000D02*
X189000000Y-49950000D01*
X187540000Y-48540000D02*
X189000000Y-50000000D01*
X173800000Y-143450000D02*
X188100000Y-143450000D01*
X182000000Y-48540000D02*
X187540000Y-48540000D01*
X77060000Y-151260000D02*
X77060000Y-148610000D01*
X189000000Y-49950000D02*
X190920000Y-48030000D01*
X190920000Y-48030000D02*
X206600000Y-48030000D01*
X188100000Y-143450000D02*
X189000000Y-142550000D01*
X93000000Y-153650000D02*
X79450000Y-153650000D01*
X189000000Y-142550000D02*
X189000000Y-50000000D01*
X79450000Y-153650000D02*
X77060000Y-151260000D01*
%TO.N,COL8*%
X156000000Y-107600000D02*
X154100000Y-107600000D01*
X84680000Y-158020000D02*
X84800000Y-157900000D01*
X153850000Y-74400000D02*
X154650000Y-73600000D01*
X156000000Y-157000000D02*
X156000000Y-132575000D01*
X153800000Y-57450000D02*
X154650000Y-56600000D01*
X154650000Y-73600000D02*
X156000000Y-73600000D01*
X84800000Y-157900000D02*
X129650000Y-157900000D01*
X153500000Y-91000000D02*
X153900000Y-90600000D01*
X156000000Y-132575000D02*
X156859493Y-132575000D01*
X153500000Y-108200000D02*
X154100000Y-107600000D01*
X154100000Y-90600000D02*
X153850000Y-90350000D01*
X155600000Y-157450000D02*
X155600000Y-157400000D01*
X156859493Y-132575000D02*
X158075000Y-131359493D01*
X153900000Y-90600000D02*
X156000000Y-90600000D01*
X156000000Y-124600000D02*
X153500000Y-122100000D01*
X153500000Y-122100000D02*
X153500000Y-108200000D01*
X154650000Y-56600000D02*
X156000000Y-56600000D01*
X158075000Y-131359493D02*
X158075000Y-129640507D01*
X154650000Y-73600000D02*
X153800000Y-72750000D01*
X155600000Y-157400000D02*
X156000000Y-157000000D01*
X156859493Y-128425000D02*
X156000000Y-128425000D01*
X153850000Y-90350000D02*
X153850000Y-74400000D01*
X153800000Y-72750000D02*
X153800000Y-57450000D01*
X154100000Y-107600000D02*
X153500000Y-107000000D01*
X158075000Y-129640507D02*
X156859493Y-128425000D01*
X84680000Y-158050000D02*
X84680000Y-158020000D01*
X156000000Y-90600000D02*
X154100000Y-90600000D01*
X153500000Y-107000000D02*
X153500000Y-91000000D01*
X156000000Y-128425000D02*
X156000000Y-124600000D01*
%TO.N,3.3V*%
X112620000Y-56820000D02*
X112620000Y-148610000D01*
X107250000Y-51450000D02*
X112620000Y-56820000D01*
%TO.N,ROW1*%
X205610000Y-66310000D02*
X206200000Y-66900000D01*
X204622740Y-165640000D02*
X123530000Y-165640000D01*
X206200000Y-164062743D02*
X204622740Y-165640000D01*
X123530000Y-165640000D02*
X122780000Y-166390000D01*
X206200000Y-66900000D02*
X206200000Y-164062743D01*
X202500000Y-66310000D02*
X205610000Y-66310000D01*
%TO.N,ROW3*%
X116750000Y-164800000D02*
X115160000Y-166390000D01*
X204331370Y-164800000D02*
X116750000Y-164800000D01*
X204810000Y-100310000D02*
X205400000Y-100900000D01*
X205400000Y-100900000D02*
X205400000Y-163731371D01*
X205400000Y-163731371D02*
X204331370Y-164800000D01*
X202500000Y-100310000D02*
X204810000Y-100310000D01*
%TO.N,ROW4*%
X114610000Y-164400000D02*
X112620000Y-166390000D01*
X205000000Y-163565685D02*
X204165685Y-164400000D01*
X204165685Y-164400000D02*
X114610000Y-164400000D01*
X205000000Y-119810000D02*
X205000000Y-163565685D01*
X202500000Y-117310000D02*
X205000000Y-119810000D01*
%TO.N,ROW2*%
X205360000Y-83310000D02*
X205800000Y-83750000D01*
X205800000Y-163897057D02*
X204457055Y-165240000D01*
X205800000Y-83750000D02*
X205800000Y-163897057D01*
X204457055Y-165240000D02*
X121390000Y-165240000D01*
X121390000Y-165240000D02*
X120240000Y-166390000D01*
X202500000Y-83310000D02*
X205360000Y-83310000D01*
%TO.N,ROW5*%
X204600000Y-134600000D02*
X204600000Y-163400000D01*
X204600000Y-163400000D02*
X204000000Y-164000000D01*
X204000000Y-164000000D02*
X112470000Y-164000000D01*
X204310000Y-134310000D02*
X204600000Y-134600000D01*
X112470000Y-164000000D02*
X110080000Y-166390000D01*
X202500000Y-134310000D02*
X204310000Y-134310000D01*
%TO.N,JRIGHT_CLICK*%
X83000000Y-51450000D02*
X86075000Y-54525000D01*
X86075000Y-147465000D02*
X87220000Y-148610000D01*
X86075000Y-54525000D02*
X86075000Y-147465000D01*
X83000000Y-49000000D02*
X83000000Y-51450000D01*
%TO.N,JLEFT_CLICK*%
X104000000Y-48200000D02*
X103625000Y-47825000D01*
X104000000Y-49000000D02*
X104000000Y-48200000D01*
X97600000Y-49647792D02*
X90800000Y-56447792D01*
X103625000Y-47825000D02*
X98127208Y-47825000D01*
X97600000Y-48352208D02*
X97600000Y-49647792D01*
X90800000Y-147570000D02*
X89760000Y-148610000D01*
X98127208Y-47825000D02*
X97600000Y-48352208D01*
X90800000Y-56447792D02*
X90800000Y-147570000D01*
%TO.N,JOY_SW*%
X98500000Y-49000000D02*
X102000000Y-49000000D01*
X102000000Y-49000000D02*
X104250000Y-51250000D01*
X99190000Y-145660000D02*
X96230000Y-145660000D01*
X96230000Y-145660000D02*
X94840000Y-147050000D01*
X104250000Y-140600000D02*
X99190000Y-145660000D01*
X104250000Y-51250000D02*
X104250000Y-140600000D01*
X94840000Y-147050000D02*
X94840000Y-148610000D01*
%TO.N,JOY_Y*%
X102460000Y-142955686D02*
X104900000Y-140515686D01*
X102460000Y-148610000D02*
X102460000Y-142955686D01*
X104900000Y-65700000D02*
X104950000Y-65650000D01*
X104900000Y-140515686D02*
X104900000Y-65700000D01*
%TD*%
M02*
